M48
; DRILL file {KiCad (6.0.8-1)-1} date Tuesday, October 18, 2022 at 05:53:05 PM
; FORMAT={-:-/ absolute / metric / decimal}
; #@! TF.CreationDate,2022-10-18T17:53:05-07:00
; #@! TF.GenerationSoftware,Kicad,Pcbnew,(6.0.8-1)-1
; #@! TF.FileFunction,MixedPlating,1,6
FMAT,2
METRIC
; #@! TA.AperFunction,Plated,PTH,ViaDrill
T1C0.150
; #@! TA.AperFunction,Plated,PTH,ViaDrill
T2C0.200
; #@! TA.AperFunction,Plated,PTH,ViaDrill
T3C0.250
; #@! TA.AperFunction,Plated,PTH,ViaDrill
T4C0.300
; #@! TA.AperFunction,Plated,PTH,ViaDrill
T5C0.400
; #@! TA.AperFunction,Plated,PTH,ComponentDrill
T6C1.000
; #@! TA.AperFunction,Plated,PTH,ComponentDrill
T7C1.020
; #@! TA.AperFunction,Plated,PTH,ComponentDrill
T8C3.700
; #@! TA.AperFunction,NonPlated,NPTH,ComponentDrill
T9C0.500
; #@! TA.AperFunction,NonPlated,NPTH,ComponentDrill
T10C1.100
; #@! TA.AperFunction,NonPlated,NPTH,ComponentDrill
T11C1.600
; #@! TA.AperFunction,NonPlated,NPTH,ComponentDrill
T12C2.000
; #@! TA.AperFunction,NonPlated,NPTH,ComponentDrill
T13C3.000
; #@! TA.AperFunction,NonPlated,NPTH,ComponentDrill
T14C3.200
%
G90
G05
T1
X11.742Y-29.494
X11.742Y-30.094
X12.342Y-29.494
X12.342Y-30.094
X12.942Y-29.494
X12.942Y-30.094
X14.35Y-30.75
X17.142Y-27.894
X17.142Y-28.494
X17.142Y-29.694
X17.142Y-30.294
X17.142Y-30.894
X17.742Y-27.894
X17.742Y-28.494
X17.742Y-29.694
X17.742Y-30.294
X17.742Y-30.894
X18.05Y-14.65
X18.1Y-24.6
X18.1Y-25.2
X18.342Y-27.894
X18.342Y-28.494
X18.342Y-29.694
X18.342Y-30.294
X18.342Y-30.894
X19.242Y-22.694
X19.242Y-23.294
X19.842Y-22.694
X19.842Y-23.294
X20.245Y-36.65
X20.442Y-22.694
X20.442Y-23.294
X20.55Y-15.8
X20.7Y-37.25
X20.745Y-36.2
X20.8Y-18.5
X21.2Y-36.7
X21.65Y-25.85
X21.742Y-22.694
X21.742Y-23.294
X21.75Y-26.45
X22.342Y-22.694
X22.342Y-23.294
X22.942Y-22.694
X22.942Y-23.294
X23.0Y-26.6
X23.45Y-27.15
X23.75Y-48.35
X23.794Y-35.858
X24.0Y-43.5
X24.194Y-36.358
X24.2Y-29.8
X24.275Y-28.675
X24.694Y-35.858
X24.694Y-36.858
X25.1Y-19.3
X25.194Y-36.358
X25.2Y-41.9
X25.3Y-25.125
X25.5Y-41.4
X25.5Y-42.4
X25.749Y-36.858
X25.794Y-35.861
X25.794Y-37.758
X25.8Y-28.95
X25.8Y-41.9
X25.85Y-25.125
X26.064Y-28.064
X26.1Y-41.4
X26.1Y-42.4
X26.35Y-56.7
X26.4Y-41.9
X26.5Y-30.0
X26.7Y-41.4
X27.1Y-30.7
X27.1Y-31.3
X27.48Y-56.09
X27.55Y-54.82
X28.65Y-26.65
X28.65Y-27.25
X28.75Y-57.85
X29.65Y-57.85
X30.75Y-32.5
X30.75Y-57.05
X30.85Y-24.939
X31.15Y-40.95
X31.65Y-42.35
X31.7Y-40.3
X33.95Y-31.95
X33.95Y-32.65
X34.342Y-19.094
X34.36Y-20.194
X34.366Y-15.2
X34.4Y-49.6
X34.825Y-36.375
X35.05Y-19.1
X35.1Y-15.2
X35.1Y-20.2
X35.742Y-15.2
X35.8Y-19.1
X35.85Y-19.8
X35.9Y-52.8
X36.0Y-57.7
X36.2Y-23.4
X36.3Y-54.6
X36.6Y-50.697
X36.6Y-58.75
X36.6Y-60.25
X36.7Y-30.7
X36.7Y-44.75
X36.742Y-24.294
X36.742Y-24.894
X36.742Y-25.494
X36.742Y-26.094
X36.742Y-26.694
X36.742Y-27.294
X36.742Y-27.894
X36.742Y-28.494
X37.1Y-23.3
X37.4Y-15.5
X37.4Y-16.025
X37.4Y-16.55
X37.6Y-20.5
X37.825Y-24.225
X37.85Y-12.25
X38.0Y-15.5
X38.0Y-16.025
X38.0Y-16.55
X38.1Y-17.6
X38.2Y-29.4
X38.25Y-31.6
X38.25Y-32.3
X38.29Y-36.275
X38.3Y-20.1
X38.3Y-23.4
X38.425Y-35.025
X38.5Y-12.0
X38.7Y-15.4
X38.7Y-16.6
X38.8Y-23.9
X38.85Y-41.75
X38.9Y-47.8
X38.9Y-52.75
X38.9Y-53.4
X38.95Y-20.6
X38.95Y-46.5
X38.95Y-49.25
X38.95Y-50.35
X38.95Y-51.45
X38.95Y-52.1
X39.0Y-27.1
X39.0Y-42.75
X39.1Y-45.75
X39.113Y-59.186
X39.113Y-59.813
X39.2Y-12.0
X39.5Y-23.4
X39.85Y-45.85
X39.85Y-46.7
X40.15Y-31.45
X40.2Y-18.0
X40.275Y-36.15
X40.3Y-12.25
X40.3Y-32.5
X40.35Y-61.3
X40.4Y-30.1
X40.55Y-43.2
X40.6Y-26.15
X40.65Y-40.5
X40.75Y-31.45
X40.8Y-45.0
X40.85Y-19.8
X40.9Y-42.1
X41.0Y-51.874
X41.05Y-54.624
X41.156Y-17.989
X41.35Y-31.45
X41.55Y-19.8
X41.6Y-34.3
X41.7Y-24.2
X41.783Y-17.989
X41.8Y-12.425
X41.8Y-23.3
X42.05Y-41.9
X42.3Y-36.1
X42.375Y-33.5
X42.4Y-53.3
X42.45Y-30.75
X42.45Y-31.45
X42.5Y-23.3
X42.5Y-26.0
X42.5Y-48.15
X42.525Y-12.4
X42.53Y-43.955
X42.65Y-46.8
X42.7Y-47.45
X42.8Y-20.7
X42.8Y-49.35
X43.05Y-30.75
X43.05Y-31.45
X43.3Y-12.4
X43.3Y-34.45
X43.3Y-35.1
X43.575Y-23.725
X43.65Y-48.55
X43.8Y-51.874
X43.8Y-54.674
X44.0Y-44.8
X44.05Y-41.95
X44.1Y-12.4
X44.1Y-42.8
X44.1Y-49.7
X44.15Y-31.45
X44.2Y-16.587
X44.2Y-17.213
X44.3Y-20.0
X44.65Y-32.55
X44.775Y-31.45
X44.9Y-25.25
X45.0Y-20.0
X45.45Y-31.45
X45.7Y-17.7
X45.724Y-20.004
X45.9Y-54.1
X46.15Y-30.15
X46.15Y-32.05
X46.15Y-38.4
X46.167Y-20.448
X46.312Y-23.257
X46.4Y-53.6
X46.4Y-56.0
X46.45Y-63.0
X46.45Y-63.6
X46.5Y-60.6
X46.55Y-48.75
X46.6Y-15.8
X46.6Y-49.9
X46.609Y-12.35
X46.65Y-57.65
X46.8Y-43.4
X46.8Y-46.0
X46.8Y-48.0
X47.05Y-45.25
X47.05Y-63.0
X47.05Y-63.6
X47.065Y-19.969
X47.2Y-43.8
X47.25Y-23.45
X47.325Y-15.775
X47.375Y-38.95
X47.5Y-29.45
X47.508Y-20.412
X47.55Y-53.55
X47.6Y-32.3
X47.7Y-41.4
X47.7Y-42.0
X47.7Y-50.85
X47.7Y-52.15
X47.75Y-24.05
X48.0Y-16.787
X48.0Y-17.413
X48.05Y-50.25
X48.075Y-15.775
X48.1Y-47.2
X48.1Y-51.4
X48.15Y-23.4
X48.15Y-48.4
X48.2Y-41.4
X48.2Y-42.0
X48.255Y-20.516
X48.65Y-32.1
X48.725Y-15.775
X48.882Y-20.516
X48.9Y-37.35
X48.9Y-53.1
X48.95Y-12.224
X48.95Y-38.1
X48.95Y-38.9
X48.95Y-57.75
X49.1Y-55.8
X49.2Y-23.95
X49.45Y-15.8
X49.45Y-51.75
X49.45Y-54.75
X49.5Y-32.05
X49.539Y-20.161
X49.8Y-11.9
X49.95Y-56.75
X49.982Y-19.718
X50.05Y-29.3
X50.1Y-15.8
X50.15Y-53.05
X50.175Y-54.025
X50.25Y-46.7
X50.3Y-30.65
X50.35Y-23.3
X50.575Y-48.6
X50.575Y-49.15
X50.6Y-27.55
X50.7Y-19.7
X50.7Y-47.85
X50.8Y-24.8
X51.1Y-48.6
X51.1Y-49.15
X51.1Y-56.75
X51.3Y-15.55
X51.35Y-47.1
X51.4Y-53.3
X51.45Y-39.0
X51.6Y-27.45
X51.7Y-34.6
X51.75Y-16.2
X51.85Y-15.1
X52.0Y-28.8
X52.0Y-39.9
X52.3Y-23.3
X52.3Y-24.2
X52.4Y-33.7
X52.478Y-34.428
X52.5Y-63.2
X52.505Y-15.534
X52.7Y-36.4
X52.7Y-61.2
X52.75Y-35.55
X52.922Y-34.872
X53.05Y-63.2
X53.132Y-15.534
X53.45Y-39.15
X53.5Y-36.4
X53.567Y-15.001
X53.6Y-16.2
X53.6Y-34.7
X53.826Y-23.3
X53.9Y-28.2
X53.9Y-29.6
X54.0Y-60.45
X54.005Y-15.506
X54.2Y-54.3
X54.2Y-54.9
X54.261Y-28.9
X54.3Y-38.0
X54.3Y-38.6
X54.3Y-43.8
X54.3Y-44.4
X54.632Y-15.506
X54.8Y-54.3
X54.8Y-54.9
X54.889Y-28.9
X54.9Y-38.0
X54.9Y-38.6
X54.9Y-43.2
X54.9Y-43.8
X54.9Y-44.4
X55.05Y-17.45
X55.067Y-15.001
X55.25Y-28.2
X55.25Y-29.6
X55.32Y-23.203
X55.7Y-58.0
X55.75Y-53.3
X55.8Y-16.537
X55.8Y-17.163
X55.8Y-45.2
X56.0Y-64.0
X56.2Y-54.8
X56.3Y-56.9
X56.55Y-60.6
X56.567Y-15.001
X56.819Y-23.2
X57.775Y-16.736
X57.775Y-17.363
X57.8Y-56.1
X57.8Y-56.65
X58.05Y-57.65
X58.067Y-15.001
X58.317Y-23.201
X58.9Y-11.95
X58.975Y-43.4
X59.15Y-47.25
X59.15Y-48.75
X59.15Y-50.25
X59.15Y-51.75
X59.15Y-53.25
X59.15Y-54.75
X59.6Y-15.15
X59.817Y-23.201
X60.261Y-18.6
X60.3Y-40.5
X60.35Y-34.05
X60.35Y-34.625
X60.4Y-15.15
X60.889Y-18.6
X60.9Y-34.05
X60.9Y-34.625
X61.2Y-56.1
X61.2Y-56.65
X61.3Y-22.65
X61.4Y-55.25
X61.45Y-42.75
X61.475Y-45.75
X62.3Y-19.6
X62.3Y-23.3
X62.4Y-58.2
X63.067Y-15.1
X63.1Y-58.2
X63.15Y-16.3
X63.2Y-41.8
X63.35Y-51.2
X63.505Y-15.626
X63.8Y-20.7
X63.8Y-58.2
X63.9Y-60.65
X64.0Y-40.2
X64.132Y-15.626
X64.353Y-42.829
X64.417Y-51.764
X64.45Y-58.2
X64.45Y-61.25
X64.478Y-46.028
X64.507Y-48.931
X64.55Y-16.25
X64.567Y-15.001
X64.65Y-52.95
X64.677Y-40.195
X64.796Y-43.272
X64.85Y-41.0
X64.861Y-52.208
X64.9Y-39.05
X64.922Y-46.472
X64.95Y-49.375
X65.0Y-50.15
X65.005Y-15.54
X65.12Y-39.752
X65.2Y-58.15
X65.225Y-47.1
X65.3Y-20.7
X65.55Y-42.65
X65.6Y-52.2
X65.632Y-15.54
X65.65Y-46.3
X65.75Y-49.1
X65.903Y-46.978
X66.0Y-16.25
X66.25Y-15.1
X66.347Y-47.422
X66.4Y-48.15
X66.6Y-19.8
X66.658Y-15.967
X66.658Y-16.594
X67.067Y-15.1
X67.3Y-12.5
X67.35Y-23.825
X67.4Y-26.95
X67.5Y-27.9
X67.5Y-30.5
X68.075Y-23.85
X68.15Y-35.9
X68.566Y-12.54
X68.6Y-44.4
X68.75Y-57.65
X68.85Y-23.525
X68.9Y-18.45
X69.0Y-62.1
X69.1Y-24.4
X69.15Y-28.775
X69.45Y-18.0
X69.45Y-26.55
X69.897Y-31.499
X69.923Y-30.5
X69.95Y-17.45
X69.95Y-37.4
X70.0Y-42.3
X70.0Y-63.7
X70.077Y-12.5
X70.175Y-26.525
X70.275Y-24.625
X70.45Y-17.0
X70.475Y-23.375
X70.6Y-41.9
X70.6Y-42.75
X70.65Y-37.35
X70.65Y-44.2
X70.65Y-56.9
X70.7Y-40.05
X71.0Y-62.1
X71.1Y-24.7
X71.25Y-32.35
X71.45Y-37.5
X71.525Y-29.65
X71.567Y-12.5
X71.6Y-23.675
X71.75Y-20.625
X71.985Y-60.515
X72.1Y-32.5
X72.15Y-35.6
X72.2Y-15.2
X72.2Y-27.425
X72.25Y-25.775
X72.3Y-19.05
X72.3Y-31.15
X72.325Y-29.75
X72.35Y-26.625
X72.375Y-28.25
X72.4Y-56.8
X72.65Y-40.3
X72.9Y-15.2
X73.0Y-62.1
X73.05Y-41.0
X73.1Y-20.675
X73.15Y-39.65
X73.25Y-19.0
X73.35Y-38.45
X73.4Y-54.1
X73.564Y-15.256
X73.95Y-36.35
X73.994Y-53.5
X73.994Y-54.1
X73.994Y-55.4
X73.994Y-56.0
X73.994Y-56.6
X74.0Y-63.6
X74.025Y-20.475
X74.3Y-15.2
X74.325Y-25.25
X74.35Y-12.3
X74.5Y-23.7
X74.5Y-40.9
X74.594Y-52.9
X74.594Y-53.5
X74.594Y-54.1
X74.594Y-55.4
X74.594Y-56.0
X74.594Y-56.6
X74.6Y-33.1
X74.675Y-19.075
X74.75Y-36.35
X74.75Y-38.825
X74.775Y-16.1
X74.775Y-20.2
X74.8Y-41.575
X75.0Y-62.1
X75.05Y-12.0
X75.45Y-40.45
X75.5Y-38.85
X75.5Y-51.75
X75.675Y-41.9
X75.8Y-43.35
X75.9Y-34.4
X75.95Y-32.175
X75.95Y-38.35
X76.0Y-63.6
X76.1Y-37.7
X76.1Y-49.5
X76.1Y-50.7
X76.1Y-57.9
X76.25Y-16.175
X76.375Y-34.9
X76.475Y-43.4
X76.55Y-45.0
X76.65Y-57.9
X76.8Y-20.7
X76.875Y-34.4
X77.0Y-62.05
X77.085Y-16.677
X77.085Y-17.304
X77.088Y-12.5
X77.15Y-54.525
X77.3Y-37.2
X77.4Y-36.5
X77.675Y-19.625
X77.75Y-54.125
X77.9Y-63.7
X78.05Y-52.825
X78.3Y-20.7
X78.4Y-33.5
X78.45Y-19.6
X78.5Y-48.95
X78.675Y-35.325
X78.8Y-12.4
X79.1Y-57.75
X79.1Y-58.35
X79.325Y-19.6
X79.35Y-35.25
X79.425Y-30.35
X79.55Y-48.95
X79.625Y-31.025
X79.65Y-57.75
X79.65Y-58.35
X79.8Y-20.728
X80.067Y-15.0
X80.125Y-30.35
X80.15Y-51.725
X80.2Y-57.75
X80.2Y-58.35
X80.3Y-31.15
X80.45Y-49.925
X80.525Y-45.675
X80.75Y-30.65
X80.85Y-34.1
X81.0Y-31.25
X81.0Y-57.25
X81.044Y-62.7
X81.044Y-63.3
X81.044Y-63.9
X81.25Y-51.725
X81.3Y-57.75
X81.337Y-20.727
X81.4Y-30.65
X81.45Y-31.7
X81.55Y-57.25
X81.55Y-58.25
X81.567Y-12.501
X81.644Y-62.7
X81.644Y-63.3
X81.644Y-63.9
X81.7Y-45.825
X81.85Y-57.75
X81.978Y-29.522
X82.0Y-32.0
X82.1Y-57.25
X82.1Y-58.25
X82.3Y-30.725
X82.35Y-48.75
X82.4Y-32.55
X82.422Y-29.078
X82.5Y-18.75
X82.837Y-20.727
X82.95Y-48.75
X83.067Y-12.5
X83.2Y-43.7
X83.599Y-23.856
X83.675Y-29.3
X84.042Y-23.413
X84.125Y-37.45
X84.2Y-20.7
X84.375Y-29.325
X84.567Y-12.501
X84.825Y-37.475
X85.228Y-24.352
X85.672Y-23.908
X85.7Y-30.725
X85.75Y-43.63
X85.8Y-49.6
X85.875Y-42.725
X85.9Y-23.2
X85.9Y-52.3
X85.9Y-52.9
X85.9Y-54.2
X85.9Y-54.8
X85.9Y-55.9
X85.9Y-56.5
X86.0Y-41.5
X86.055Y-20.373
X86.067Y-12.501
X86.4Y-49.6
X86.498Y-19.93
X86.5Y-52.3
X86.5Y-52.9
X86.5Y-54.2
X86.5Y-54.8
X86.55Y-29.95
X86.7Y-16.4
X86.8Y-23.325
X86.85Y-47.35
X86.91Y-18.8
X87.1Y-30.7
X87.2Y-55.9
X87.2Y-56.5
X87.3Y-16.4
X87.567Y-12.5
X87.7Y-31.024
X88.317Y-24.2
X88.325Y-42.475
X88.35Y-37.625
X88.39Y-38.7
X88.5Y-51.1
X88.57Y-15.496
X88.57Y-16.123
X88.761Y-23.756
X88.875Y-37.625
X89.0Y-43.9
X89.02Y-19.2
X89.03Y-19.84
X89.067Y-12.501
X89.1Y-20.7
X89.3Y-41.5
X89.3Y-50.0
X89.3Y-50.6
X89.3Y-51.2
X89.5Y-43.0
X89.875Y-46.625
X89.9Y-50.0
X89.9Y-50.6
X89.9Y-51.2
X90.1Y-12.5
X90.5Y-50.0
X90.5Y-50.6
X90.5Y-51.2
X90.65Y-47.25
X90.692Y-15.434
X90.692Y-16.061
X90.7Y-44.85
X91.05Y-53.7
X91.82Y-20.754
X91.85Y-52.45
X91.85Y-53.05
X92.0Y-56.7
X92.158Y-44.418
X92.2Y-12.5
X92.3Y-49.4
X92.3Y-57.2
X92.375Y-46.525
X92.378Y-42.058
X92.6Y-56.7
X92.602Y-44.862
X92.65Y-52.45
X92.65Y-53.05
X92.822Y-42.502
X92.9Y-57.2
X93.2Y-56.7
X93.32Y-20.754
X93.567Y-12.501
X93.628Y-25.003
X93.828Y-16.103
X93.978Y-46.04
X94.072Y-25.447
X94.272Y-16.547
X94.422Y-46.484
X94.82Y-20.754
X95.067Y-12.501
X95.082Y-23.561
X95.378Y-15.528
X95.525Y-24.005
X95.822Y-15.972
X95.85Y-54.55
X96.3Y-53.8
X96.317Y-20.744
X96.35Y-31.85
X96.453Y-26.553
X96.5Y-52.9
X96.567Y-12.501
X96.897Y-26.997
X97.05Y-31.85
X97.1Y-56.2
X97.4Y-56.7
X97.7Y-56.2
X97.75Y-29.75
X97.817Y-20.744
X98.0Y-56.7
X98.05Y-12.5
X98.1Y-32.75
X98.1Y-33.4
X98.75Y-29.65
X99.25Y-57.7
X100.0Y-63.2
X100.0Y-63.8
X100.6Y-30.5
X100.6Y-31.25
X100.6Y-63.2
X100.6Y-63.8
X100.75Y-28.55
X100.75Y-29.15
X101.4Y-14.35
X101.6Y-63.2
X101.6Y-63.8
X101.95Y-13.7
X101.978Y-22.153
X102.2Y-63.2
X102.2Y-63.8
X102.422Y-22.597
X102.8Y-58.9
X103.1Y-54.8
X103.1Y-55.6
X103.1Y-63.8
X103.4Y-42.8
X103.4Y-43.7
X103.4Y-57.9
X103.55Y-60.95
X103.6Y-54.3
X103.6Y-56.8
X103.65Y-19.75
X103.65Y-22.75
X103.65Y-24.25
X103.65Y-25.75
X103.675Y-21.25
X104.3Y-30.35
X105.7Y-18.2
X105.7Y-45.45
X105.7Y-46.75
X105.7Y-48.25
X105.7Y-49.75
X105.7Y-51.25
X105.7Y-52.75
X105.7Y-56.75
X105.75Y-44.75
X106.0Y-55.5
X106.25Y-54.75
X106.5Y-43.75
X107.05Y-22.8
X107.05Y-24.2
X107.7Y-23.5
X108.05Y-30.35
X108.1Y-24.3
X108.85Y-25.8
X110.05Y-27.65
X110.05Y-33.15
X110.1Y-31.8
T2
X34.35Y-35.2
X39.4Y-26.4
X39.8Y-29.2
X40.05Y-50.45
X45.65Y-27.925
X47.85Y-26.0
X73.575Y-33.525
X81.0Y-17.0
X81.0Y-17.6
X81.6Y-17.0
X81.6Y-17.6
X83.175Y-44.4
X84.625Y-38.5
X96.95Y-51.625
X97.6Y-52.7
T3
X27.8Y-57.85
X40.9Y-48.5
X67.55Y-54.1
X76.625Y-46.025
X77.6Y-34.625
X78.9Y-46.0
X79.65Y-46.15
X85.0Y-45.45
X85.725Y-46.3
X85.8Y-45.125
X87.95Y-46.65
X106.0Y-28.8
X107.05Y-28.0
T4
X12.0Y-48.8
X14.5Y-19.6
X17.066Y-48.62
X18.3Y-17.0
X19.5Y-19.8
X19.5Y-20.5
X19.5Y-21.2
X22.7Y-14.8
X22.7Y-16.8
X24.2Y-13.7
X24.2Y-14.4
X26.4Y-13.7
X26.4Y-14.4
X26.6Y-15.9
X26.6Y-16.6
X28.2Y-20.0
X28.2Y-20.7
X28.9Y-20.0
X28.9Y-20.7
X30.36Y-49.21
X31.045Y-49.22
X31.4Y-53.4
X32.405Y-49.29
X32.43Y-48.59
X32.5Y-52.8
X32.7Y-41.2
X34.745Y-56.115
X35.37Y-56.115
X37.05Y-12.3
X37.3Y-54.05
X37.6Y-53.1
X39.05Y-57.9
X39.85Y-55.8
X42.6Y-18.5
X42.6Y-19.2
X43.55Y-47.85
X47.55Y-60.65
X55.6Y-59.3
X58.4Y-59.0
X60.35Y-62.4
X61.7Y-20.2
X66.35Y-60.85
X66.5Y-58.15
X70.25Y-54.35
X70.4Y-45.1
X71.0Y-45.1
X71.6Y-59.0
X72.3Y-33.3
X72.7Y-45.0
X73.65Y-43.2
X73.95Y-48.55
X76.3Y-36.6
X76.8Y-36.1
X76.9Y-47.5
X77.0Y-40.5
X80.25Y-37.2
X80.25Y-40.5
X80.25Y-43.65
X80.475Y-35.25
X81.175Y-35.25
X83.45Y-40.5
X85.225Y-29.675
X86.4Y-30.725
X87.45Y-42.85
X87.575Y-38.325
X88.35Y-35.6
X89.95Y-44.8
X94.85Y-54.55
X94.875Y-56.65
X95.9Y-34.55
X95.9Y-35.2
X97.05Y-50.75
X97.45Y-50.15
X97.85Y-50.75
X98.8Y-52.6
X98.8Y-53.6
X99.4Y-53.1
X99.6Y-34.9
X99.6Y-36.0
X99.6Y-37.05
X101.6Y-59.6
X103.2Y-41.3
X103.35Y-14.75
X103.4Y-14.0
X103.7Y-40.7
X104.65Y-13.6
X105.25Y-38.25
X105.8Y-15.25
X105.9Y-38.5
X106.0Y-14.35
X106.0Y-42.0
X106.5Y-42.6
X106.55Y-15.55
T5
X27.275Y-53.1
X27.8Y-51.35
X75.8Y-44.25
X84.85Y-35.275
X98.6Y-37.8
X102.2Y-55.7
X104.35Y-33.2
T6
X19.42Y-61.5
X19.42Y-64.04
X21.96Y-61.5
X21.96Y-64.04
X24.5Y-61.5
X24.5Y-64.04
T7
X20.0Y-52.5
X20.0Y-55.5
X23.0Y-52.5
X23.0Y-55.5
T8
X14.5Y-16.0
X14.5Y-46.0
X26.5Y-46.0
X32.85Y-60.024
X71.5Y-51.0
X96.502Y-60.024
T9
X0.0Y-11.0
X0.0Y-66.0
X0.8Y-11.0
X0.8Y-66.0
X1.6Y-11.0
X1.6Y-66.0
X2.4Y-11.0
X2.4Y-66.0
X3.2Y-11.0
X3.2Y-66.0
X4.0Y-11.0
X4.0Y-66.0
X4.8Y-11.0
X4.8Y-66.0
X5.6Y-11.0
X5.6Y-66.0
X6.4Y-11.0
X6.4Y-66.0
X7.2Y-11.0
X7.2Y-66.0
X8.0Y-11.0
X8.0Y-66.0
X11.0Y0.0
X11.0Y-0.8
X11.0Y-1.6
X11.0Y-2.4
X11.0Y-3.2
X11.0Y-4.0
X11.0Y-4.8
X11.0Y-5.6
X11.0Y-6.4
X11.0Y-7.2
X11.0Y-8.0
X11.0Y-69.0
X11.0Y-69.8
X11.0Y-70.6
X11.0Y-71.4
X11.0Y-72.2
X11.0Y-73.0
X11.0Y-73.8
X11.0Y-74.6
X11.0Y-75.4
X11.0Y-76.2
X11.0Y-77.0
X11.001Y-41.0
X11.001Y-40.167
X11.001Y-39.333
X11.001Y-38.5
X11.001Y-37.667
X11.001Y-36.833
X11.001Y-36.0
X28.5Y-11.0
X28.5Y-65.997
X29.333Y-11.0
X29.333Y-65.997
X30.167Y-11.0
X30.167Y-65.997
X31.0Y-11.0
X31.0Y-65.997
X31.833Y-11.0
X31.833Y-65.997
X32.667Y-11.0
X32.667Y-65.997
X33.5Y-11.0
X33.5Y-65.997
X48.5Y-11.0
X48.5Y-65.999
X49.333Y-11.0
X49.333Y-65.999
X50.167Y-11.0
X50.167Y-65.999
X51.0Y-11.001
X51.0Y-65.999
X51.833Y-11.001
X51.833Y-65.999
X52.667Y-11.001
X52.667Y-65.999
X53.5Y-11.001
X53.5Y-65.999
X68.5Y-11.001
X68.5Y-66.0
X69.333Y-11.001
X69.333Y-66.0
X70.167Y-11.001
X70.167Y-66.0
X71.0Y-11.001
X71.0Y-66.0
X71.833Y-11.001
X71.833Y-66.0
X72.667Y-11.001
X72.667Y-66.0
X73.5Y-11.001
X73.5Y-66.0
X88.5Y-11.001
X88.5Y-66.0
X89.333Y-11.001
X89.333Y-66.0
X90.167Y-11.001
X90.167Y-66.0
X91.0Y-11.001
X91.0Y-66.0
X91.833Y-11.001
X91.833Y-66.0
X92.667Y-11.001
X92.667Y-66.0
X93.5Y-11.001
X93.5Y-66.0
X110.997Y-41.0
X110.998Y-40.167
X110.998Y-39.333
X110.998Y-38.5
X110.998Y-37.667
X110.998Y-36.833
X110.998Y-36.0
X111.0Y0.0
X111.0Y-0.8
X111.0Y-1.6
X111.0Y-2.4
X111.0Y-3.2
X111.0Y-4.0
X111.0Y-4.8
X111.0Y-5.6
X111.0Y-6.4
X111.0Y-7.2
X111.0Y-8.0
X111.0Y-69.0
X111.0Y-69.8
X111.0Y-70.6
X111.0Y-71.4
X111.0Y-72.2
X111.0Y-73.0
X111.0Y-73.8
X111.0Y-74.6
X111.0Y-75.4
X111.0Y-76.2
X111.0Y-77.0
X114.0Y-11.0
X114.0Y-66.0
X114.8Y-11.0
X114.8Y-66.0
X115.6Y-11.0
X115.6Y-66.0
X116.4Y-11.0
X116.4Y-66.0
X117.2Y-11.0
X117.2Y-66.0
X118.0Y-11.0
X118.0Y-66.0
X118.8Y-11.0
X118.8Y-66.0
X119.6Y-11.0
X119.6Y-66.0
X120.4Y-11.0
X120.4Y-66.0
X121.2Y-11.0
X121.2Y-66.0
X122.0Y-11.0
X122.0Y-66.0
T10
X30.294Y-17.9
X43.0Y-61.0
X55.0Y-56.0
T11
X43.0Y-41.0
X55.0Y-36.0
X99.094Y-17.9
T12
X4.0Y-4.0
X4.0Y-73.0
X118.0Y-4.0
T13
X15.68Y-54.0
T14
X14.5Y-24.0
X14.5Y-62.5
X107.5Y-35.5
X107.5Y-62.5
T0
M30
