G04 #@! TF.GenerationSoftware,KiCad,Pcbnew,(6.0.8-1)-1*
G04 #@! TF.CreationDate,2022-10-18T17:53:05-07:00*
G04 #@! TF.ProjectId,CRMHJN_capable_carrier,43524d48-4a4e-45f6-9361-7061626c655f,rev?*
G04 #@! TF.SameCoordinates,Original*
G04 #@! TF.FileFunction,Paste,Bot*
G04 #@! TF.FilePolarity,Positive*
%FSLAX46Y46*%
G04 Gerber Fmt 4.6, Leading zero omitted, Abs format (unit mm)*
G04 Created by KiCad (PCBNEW (6.0.8-1)-1) date 2022-10-18 17:53:05*
%MOMM*%
%LPD*%
G01*
G04 APERTURE LIST*
G04 Aperture macros list*
%AMRoundRect*
0 Rectangle with rounded corners*
0 $1 Rounding radius*
0 $2 $3 $4 $5 $6 $7 $8 $9 X,Y pos of 4 corners*
0 Add a 4 corners polygon primitive as box body*
4,1,4,$2,$3,$4,$5,$6,$7,$8,$9,$2,$3,0*
0 Add four circle primitives for the rounded corners*
1,1,$1+$1,$2,$3*
1,1,$1+$1,$4,$5*
1,1,$1+$1,$6,$7*
1,1,$1+$1,$8,$9*
0 Add four rect primitives between the rounded corners*
20,1,$1+$1,$2,$3,$4,$5,0*
20,1,$1+$1,$4,$5,$6,$7,0*
20,1,$1+$1,$6,$7,$8,$9,0*
20,1,$1+$1,$8,$9,$2,$3,0*%
%AMRotRect*
0 Rectangle, with rotation*
0 The origin of the aperture is its center*
0 $1 length*
0 $2 width*
0 $3 Rotation angle, in degrees counterclockwise*
0 Add horizontal line*
21,1,$1,$2,0,0,$3*%
G04 Aperture macros list end*
%ADD10RoundRect,0.225000X0.250000X-0.225000X0.250000X0.225000X-0.250000X0.225000X-0.250000X-0.225000X0*%
%ADD11RoundRect,0.135000X0.135000X0.185000X-0.135000X0.185000X-0.135000X-0.185000X0.135000X-0.185000X0*%
%ADD12RoundRect,0.135000X-0.185000X0.135000X-0.185000X-0.135000X0.185000X-0.135000X0.185000X0.135000X0*%
%ADD13R,1.000000X1.050000*%
%ADD14R,1.050000X2.200000*%
%ADD15RoundRect,0.147500X-0.147500X-0.172500X0.147500X-0.172500X0.147500X0.172500X-0.147500X0.172500X0*%
%ADD16RoundRect,0.140000X-0.140000X-0.170000X0.140000X-0.170000X0.140000X0.170000X-0.140000X0.170000X0*%
%ADD17RoundRect,0.135000X0.185000X-0.135000X0.185000X0.135000X-0.185000X0.135000X-0.185000X-0.135000X0*%
%ADD18RoundRect,0.135000X-0.135000X-0.185000X0.135000X-0.185000X0.135000X0.185000X-0.135000X0.185000X0*%
%ADD19RoundRect,0.225000X-0.250000X0.225000X-0.250000X-0.225000X0.250000X-0.225000X0.250000X0.225000X0*%
%ADD20RoundRect,0.147500X0.172500X-0.147500X0.172500X0.147500X-0.172500X0.147500X-0.172500X-0.147500X0*%
%ADD21RoundRect,0.140000X0.170000X-0.140000X0.170000X0.140000X-0.170000X0.140000X-0.170000X-0.140000X0*%
%ADD22RoundRect,0.147500X-0.172500X0.147500X-0.172500X-0.147500X0.172500X-0.147500X0.172500X0.147500X0*%
%ADD23RoundRect,0.250000X-0.250000X-0.475000X0.250000X-0.475000X0.250000X0.475000X-0.250000X0.475000X0*%
%ADD24O,0.350000X1.700000*%
%ADD25RoundRect,0.140000X0.140000X0.170000X-0.140000X0.170000X-0.140000X-0.170000X0.140000X-0.170000X0*%
%ADD26RoundRect,0.147500X0.147500X0.172500X-0.147500X0.172500X-0.147500X-0.172500X0.147500X-0.172500X0*%
%ADD27R,0.800000X0.600000*%
%ADD28R,0.550000X1.000000*%
%ADD29RoundRect,0.218750X0.256250X-0.218750X0.256250X0.218750X-0.256250X0.218750X-0.256250X-0.218750X0*%
%ADD30R,0.400000X0.500000*%
%ADD31RoundRect,0.050000X0.250000X-0.075000X0.250000X0.075000X-0.250000X0.075000X-0.250000X-0.075000X0*%
%ADD32RoundRect,0.050000X0.075000X0.250000X-0.075000X0.250000X-0.075000X-0.250000X0.075000X-0.250000X0*%
%ADD33RoundRect,0.050000X-0.700000X0.450000X-0.700000X-0.450000X0.700000X-0.450000X0.700000X0.450000X0*%
%ADD34RoundRect,0.125000X-0.537500X-0.125000X0.537500X-0.125000X0.537500X0.125000X-0.537500X0.125000X0*%
%ADD35RoundRect,0.140000X-0.170000X0.140000X-0.170000X-0.140000X0.170000X-0.140000X0.170000X0.140000X0*%
%ADD36R,1.500000X1.800000*%
%ADD37R,0.300000X1.300000*%
%ADD38R,1.800000X2.200000*%
%ADD39RotRect,0.300000X0.550000X135.000000*%
%ADD40RotRect,0.400000X0.550000X135.000000*%
%ADD41R,1.300000X0.300000*%
%ADD42R,2.200000X1.800000*%
%ADD43R,0.685000X0.230000*%
%ADD44R,0.685000X0.355600*%
%ADD45R,0.685000X0.356000*%
%ADD46R,0.300000X0.550000*%
%ADD47R,0.400000X0.550000*%
%ADD48R,1.800000X1.500000*%
%ADD49RoundRect,0.200000X0.200000X0.275000X-0.200000X0.275000X-0.200000X-0.275000X0.200000X-0.275000X0*%
%ADD50R,0.500000X0.400000*%
%ADD51RoundRect,0.225000X-0.335876X-0.017678X-0.017678X-0.335876X0.335876X0.017678X0.017678X0.335876X0*%
%ADD52RoundRect,0.147500X-0.226274X-0.017678X-0.017678X-0.226274X0.226274X0.017678X0.017678X0.226274X0*%
%ADD53R,0.800000X0.800000*%
%ADD54RoundRect,0.200000X0.275000X-0.200000X0.275000X0.200000X-0.275000X0.200000X-0.275000X-0.200000X0*%
%ADD55R,1.550000X0.300000*%
%ADD56R,2.750000X1.200000*%
%ADD57RoundRect,0.225000X0.225000X0.250000X-0.225000X0.250000X-0.225000X-0.250000X0.225000X-0.250000X0*%
%ADD58RoundRect,0.150000X0.150000X0.350000X-0.150000X0.350000X-0.150000X-0.350000X0.150000X-0.350000X0*%
%ADD59RoundRect,0.250000X0.375000X0.650000X-0.375000X0.650000X-0.375000X-0.650000X0.375000X-0.650000X0*%
%ADD60RoundRect,0.150000X-0.150000X-0.350000X0.150000X-0.350000X0.150000X0.350000X-0.150000X0.350000X0*%
%ADD61RoundRect,0.250000X-0.375000X-0.650000X0.375000X-0.650000X0.375000X0.650000X-0.375000X0.650000X0*%
%ADD62RoundRect,0.135000X0.226274X0.035355X0.035355X0.226274X-0.226274X-0.035355X-0.035355X-0.226274X0*%
%ADD63R,0.400000X0.900000*%
%ADD64R,0.950000X1.050000*%
%ADD65R,0.300000X0.800000*%
%ADD66R,1.220000X1.400000*%
%ADD67R,0.850000X1.400000*%
%ADD68R,0.800000X0.900000*%
%ADD69RoundRect,0.232500X-0.232500X-0.232500X0.232500X-0.232500X0.232500X0.232500X-0.232500X0.232500X0*%
%ADD70RoundRect,0.062500X-0.375000X-0.062500X0.375000X-0.062500X0.375000X0.062500X-0.375000X0.062500X0*%
%ADD71RoundRect,0.062500X-0.062500X-0.375000X0.062500X-0.375000X0.062500X0.375000X-0.062500X0.375000X0*%
%ADD72RoundRect,0.225000X-0.225000X-0.250000X0.225000X-0.250000X0.225000X0.250000X-0.225000X0.250000X0*%
%ADD73R,1.000000X0.550000*%
%ADD74R,0.600000X0.700000*%
%ADD75RoundRect,0.218750X-0.256250X0.218750X-0.256250X-0.218750X0.256250X-0.218750X0.256250X0.218750X0*%
%ADD76RoundRect,0.150000X0.256326X0.468458X-0.468458X-0.256326X-0.256326X-0.468458X0.468458X0.256326X0*%
G04 APERTURE END LIST*
D10*
G04 #@! TO.C,C75*
X86850000Y-46310000D03*
X86850000Y-44760000D03*
G04 #@! TD*
D11*
G04 #@! TO.C,R142*
X72745000Y-36600000D03*
X71725000Y-36600000D03*
G04 #@! TD*
D12*
G04 #@! TO.C,R139*
X76405000Y-60445000D03*
X76405000Y-61465000D03*
G04 #@! TD*
D13*
G04 #@! TO.C,AE1*
X37850000Y-62351190D03*
D14*
X36375000Y-63876190D03*
X39325000Y-63876190D03*
G04 #@! TD*
D15*
G04 #@! TO.C,R99*
X21200000Y-58450000D03*
X22170000Y-58450000D03*
G04 #@! TD*
D11*
G04 #@! TO.C,R145*
X84210000Y-47400000D03*
X83190000Y-47400000D03*
G04 #@! TD*
D16*
G04 #@! TO.C,C46*
X50090000Y-54750000D03*
X51050000Y-54750000D03*
G04 #@! TD*
D17*
G04 #@! TO.C,R74*
X24200000Y-26010000D03*
X24200000Y-24990000D03*
G04 #@! TD*
D12*
G04 #@! TO.C,R71*
X44800000Y-48640000D03*
X44800000Y-49660000D03*
G04 #@! TD*
D16*
G04 #@! TO.C,C78*
X81355000Y-43980000D03*
X82315000Y-43980000D03*
G04 #@! TD*
D18*
G04 #@! TO.C,R76*
X51590000Y-57750000D03*
X52610000Y-57750000D03*
G04 #@! TD*
D19*
G04 #@! TO.C,C16*
X46376503Y-51167547D03*
X46376503Y-52717547D03*
G04 #@! TD*
D20*
G04 #@! TO.C,R14*
X73000000Y-61485000D03*
X73000000Y-60515000D03*
G04 #@! TD*
D11*
G04 #@! TO.C,R150*
X89110000Y-44775000D03*
X88090000Y-44775000D03*
G04 #@! TD*
D21*
G04 #@! TO.C,C72*
X84000000Y-44680000D03*
X84000000Y-43720000D03*
G04 #@! TD*
D22*
G04 #@! TO.C,C86*
X41381018Y-27221010D03*
X41381018Y-28191010D03*
G04 #@! TD*
D11*
G04 #@! TO.C,R157*
X70795000Y-36605000D03*
X69775000Y-36605000D03*
G04 #@! TD*
D23*
G04 #@! TO.C,C80*
X79085000Y-42455000D03*
X80985000Y-42455000D03*
G04 #@! TD*
D20*
G04 #@! TO.C,C71*
X42498742Y-35428990D03*
X42498742Y-34458990D03*
G04 #@! TD*
G04 #@! TO.C,R95*
X42381018Y-28191010D03*
X42381018Y-27221010D03*
G04 #@! TD*
D15*
G04 #@! TO.C,C38*
X62515000Y-44000000D03*
X63485000Y-44000000D03*
G04 #@! TD*
D20*
G04 #@! TO.C,R128*
X69000000Y-61485000D03*
X69000000Y-60515000D03*
G04 #@! TD*
D12*
G04 #@! TO.C,R40*
X97250000Y-53540000D03*
X97250000Y-54560000D03*
G04 #@! TD*
D11*
G04 #@! TO.C,R75*
X54510000Y-57750000D03*
X53490000Y-57750000D03*
G04 #@! TD*
G04 #@! TO.C,R15*
X26185000Y-25950000D03*
X25165000Y-25950000D03*
G04 #@! TD*
D24*
G04 #@! TO.C,IC12*
X34541342Y-33771400D03*
X35191342Y-33771400D03*
X35841342Y-33771400D03*
X36491342Y-33771400D03*
X37141342Y-33771400D03*
X37791342Y-33771400D03*
X38441342Y-33771400D03*
X38441342Y-39471400D03*
X37791342Y-39471400D03*
X37141342Y-39471400D03*
X36491342Y-39471400D03*
X35841342Y-39471400D03*
X35191342Y-39471400D03*
X34541342Y-39471400D03*
G04 #@! TD*
D25*
G04 #@! TO.C,C7*
X37731190Y-57700000D03*
X36771190Y-57700000D03*
G04 #@! TD*
D22*
G04 #@! TO.C,R85*
X39748742Y-39008990D03*
X39748742Y-39978990D03*
G04 #@! TD*
D15*
G04 #@! TO.C,R6*
X49765000Y-44750000D03*
X50735000Y-44750000D03*
G04 #@! TD*
G04 #@! TO.C,C37*
X62515000Y-43000000D03*
X63485000Y-43000000D03*
G04 #@! TD*
D20*
G04 #@! TO.C,C88*
X41381018Y-26191010D03*
X41381018Y-25221010D03*
G04 #@! TD*
D25*
G04 #@! TO.C,C73*
X78270000Y-46015000D03*
X77310000Y-46015000D03*
G04 #@! TD*
D16*
G04 #@! TO.C,C87*
X85800000Y-38310000D03*
X86760000Y-38310000D03*
G04 #@! TD*
D17*
G04 #@! TO.C,R151*
X88366971Y-34942051D03*
X88366971Y-33922051D03*
G04 #@! TD*
D11*
G04 #@! TO.C,R135*
X94645000Y-51125000D03*
X93625000Y-51125000D03*
G04 #@! TD*
G04 #@! TO.C,R93*
X47110000Y-55000000D03*
X46090000Y-55000000D03*
G04 #@! TD*
D26*
G04 #@! TO.C,R96*
X25791010Y-29791600D03*
X24821010Y-29791600D03*
G04 #@! TD*
D27*
G04 #@! TO.C,C54*
X45325000Y-46275000D03*
X45325000Y-44875000D03*
G04 #@! TD*
D26*
G04 #@! TO.C,R66*
X26235000Y-49725000D03*
X25265000Y-49725000D03*
G04 #@! TD*
D16*
G04 #@! TO.C,C6*
X37793810Y-60825000D03*
X38753810Y-60825000D03*
G04 #@! TD*
D28*
G04 #@! TO.C,IC5*
X31411021Y-51857916D03*
X32361021Y-51857916D03*
X33311021Y-51857916D03*
X33311021Y-54557916D03*
X31411021Y-54557916D03*
G04 #@! TD*
D29*
G04 #@! TO.C,L3*
X87890000Y-20705000D03*
X87890000Y-19130000D03*
G04 #@! TD*
D17*
G04 #@! TO.C,R78*
X49200000Y-48120000D03*
X49200000Y-47100000D03*
G04 #@! TD*
D12*
G04 #@! TO.C,R48*
X78150000Y-49615000D03*
X78150000Y-50635000D03*
G04 #@! TD*
D30*
G04 #@! TO.C,Q7*
X100300000Y-58700000D03*
X101600000Y-58700000D03*
X100950000Y-60600000D03*
G04 #@! TD*
D31*
G04 #@! TO.C,U8*
X41080000Y-43705000D03*
D32*
X41480000Y-42805000D03*
X41980000Y-42805000D03*
X42480000Y-42805000D03*
X42980000Y-42805000D03*
X43480000Y-42805000D03*
D31*
X43880000Y-43705000D03*
X43880000Y-44205000D03*
D32*
X43480000Y-45105000D03*
X42980000Y-45105000D03*
X42480000Y-45105000D03*
X41980000Y-45105000D03*
X41480000Y-45105000D03*
D31*
X41080000Y-44205000D03*
D33*
X42480000Y-43955000D03*
G04 #@! TD*
D11*
G04 #@! TO.C,R123*
X80260000Y-61550000D03*
X79240000Y-61550000D03*
G04 #@! TD*
D34*
G04 #@! TO.C,U6*
X60112500Y-13925000D03*
X60112500Y-13275000D03*
X60112500Y-12625000D03*
X60112500Y-11975000D03*
X62387500Y-11975000D03*
X62387500Y-12625000D03*
X62387500Y-13275000D03*
X62387500Y-13925000D03*
G04 #@! TD*
D35*
G04 #@! TO.C,C18*
X45750000Y-48670000D03*
X45750000Y-49630000D03*
G04 #@! TD*
D36*
G04 #@! TO.C,C12*
X79550000Y-56025000D03*
X75950000Y-56025000D03*
G04 #@! TD*
D15*
G04 #@! TO.C,R7*
X49765000Y-45750000D03*
X50735000Y-45750000D03*
G04 #@! TD*
D19*
G04 #@! TO.C,C47*
X50606010Y-50191600D03*
X50606010Y-51741600D03*
G04 #@! TD*
D30*
G04 #@! TO.C,T3*
X44956010Y-27168982D03*
X43656010Y-27168982D03*
X44306010Y-25268982D03*
G04 #@! TD*
D16*
G04 #@! TO.C,C27*
X43870000Y-57700000D03*
X44830000Y-57700000D03*
G04 #@! TD*
D11*
G04 #@! TO.C,R73*
X38360000Y-45750000D03*
X37340000Y-45750000D03*
G04 #@! TD*
D15*
G04 #@! TO.C,C68*
X62515000Y-50000000D03*
X63485000Y-50000000D03*
G04 #@! TD*
D37*
G04 #@! TO.C,J5*
X72750000Y-17750000D03*
X73250000Y-17750000D03*
X73750000Y-17750000D03*
X74250000Y-17750000D03*
X74750000Y-17750000D03*
X75250000Y-17750000D03*
D38*
X77150000Y-14500000D03*
X70850000Y-14500000D03*
G04 #@! TD*
D17*
G04 #@! TO.C,R47*
X102800000Y-60610000D03*
X102800000Y-59590000D03*
G04 #@! TD*
D16*
G04 #@! TO.C,C53*
X38920000Y-44550000D03*
X39880000Y-44550000D03*
G04 #@! TD*
D12*
G04 #@! TO.C,R19*
X24200000Y-26990000D03*
X24200000Y-28010000D03*
G04 #@! TD*
D39*
G04 #@! TO.C,U10*
X27284871Y-59779343D03*
X26931317Y-59425790D03*
D40*
X26577764Y-59072236D03*
D39*
X26224210Y-58718683D03*
X25870657Y-58365129D03*
X26415129Y-57820657D03*
X26768683Y-58174210D03*
D40*
X27122236Y-58527764D03*
D39*
X27475790Y-58881317D03*
X27829343Y-59234871D03*
G04 #@! TD*
D15*
G04 #@! TO.C,R133*
X47165000Y-39800000D03*
X48135000Y-39800000D03*
G04 #@! TD*
D41*
G04 #@! TO.C,J10*
X73350000Y-32750000D03*
X73350000Y-32250000D03*
X73350000Y-31750000D03*
X73350000Y-31250000D03*
X73350000Y-30750000D03*
X73350000Y-30250000D03*
X73350000Y-29750000D03*
X73350000Y-29250000D03*
X73350000Y-28750000D03*
X73350000Y-28250000D03*
X73350000Y-27750000D03*
X73350000Y-27250000D03*
X73350000Y-26750000D03*
X73350000Y-26250000D03*
X73350000Y-25750000D03*
X73350000Y-25250000D03*
X73350000Y-24750000D03*
X73350000Y-24250000D03*
X73350000Y-23750000D03*
X73350000Y-23250000D03*
X73350000Y-22750000D03*
X73350000Y-22250000D03*
D42*
X70100000Y-20350000D03*
X70100000Y-34650000D03*
G04 #@! TD*
D43*
G04 #@! TO.C,J13*
X36645000Y-14200000D03*
X39355000Y-14200000D03*
X36645000Y-14600000D03*
X39355000Y-14600000D03*
X36645000Y-15000000D03*
X39355000Y-15000000D03*
X36645000Y-15399999D03*
X39355000Y-15400000D03*
X36645000Y-15800001D03*
X39355000Y-15800000D03*
X36645000Y-16200000D03*
X39355000Y-16200000D03*
X36645000Y-16600000D03*
X39355000Y-16600000D03*
X36645000Y-16999999D03*
X39355000Y-17000000D03*
X36645000Y-17400001D03*
X39355000Y-17400000D03*
X36645000Y-17800000D03*
X39355000Y-17800000D03*
D44*
X39355000Y-18275000D03*
D45*
X39355000Y-13725000D03*
X36645000Y-18275000D03*
X36645000Y-13725000D03*
G04 #@! TD*
D46*
G04 #@! TO.C,U9*
X64800000Y-59835000D03*
X64300000Y-59835000D03*
D47*
X63800000Y-59835000D03*
D46*
X63300000Y-59835000D03*
X62800000Y-59835000D03*
X62800000Y-59065000D03*
X63300000Y-59065000D03*
D47*
X63800000Y-59065000D03*
D46*
X64300000Y-59065000D03*
X64800000Y-59065000D03*
G04 #@! TD*
D48*
G04 #@! TO.C,C22*
X19841600Y-28243990D03*
X19841600Y-24643990D03*
G04 #@! TD*
D16*
G04 #@! TO.C,C90*
X60270000Y-15950000D03*
X61230000Y-15950000D03*
G04 #@! TD*
D30*
G04 #@! TO.C,T4*
X69356010Y-57641600D03*
X70656010Y-57641600D03*
X70006010Y-59541600D03*
G04 #@! TD*
D17*
G04 #@! TO.C,R119*
X87655000Y-53765000D03*
X87655000Y-52745000D03*
G04 #@! TD*
D12*
G04 #@! TO.C,R134*
X41900000Y-21490000D03*
X41900000Y-22510000D03*
G04 #@! TD*
D19*
G04 #@! TO.C,C5*
X35043810Y-53630000D03*
X35043810Y-55180000D03*
G04 #@! TD*
D49*
G04 #@! TO.C,R156*
X102325000Y-12490000D03*
X100675000Y-12490000D03*
G04 #@! TD*
D11*
G04 #@! TO.C,R42*
X95860000Y-55650000D03*
X94840000Y-55650000D03*
G04 #@! TD*
D18*
G04 #@! TO.C,R159*
X77440000Y-45050000D03*
X78460000Y-45050000D03*
G04 #@! TD*
D15*
G04 #@! TO.C,C70*
X62515000Y-53000000D03*
X63485000Y-53000000D03*
G04 #@! TD*
D21*
G04 #@! TO.C,C45*
X73900000Y-42380000D03*
X73900000Y-41420000D03*
G04 #@! TD*
D17*
G04 #@! TO.C,R141*
X66480000Y-59980000D03*
X66480000Y-58960000D03*
G04 #@! TD*
D20*
G04 #@! TO.C,R136*
X39300000Y-33676428D03*
X39300000Y-32706428D03*
G04 #@! TD*
D11*
G04 #@! TO.C,R152*
X88585720Y-36534160D03*
X87565720Y-36534160D03*
G04 #@! TD*
D50*
G04 #@! TO.C,Q3*
X93600000Y-53625000D03*
X93600000Y-52325000D03*
X95500000Y-52975000D03*
G04 #@! TD*
D25*
G04 #@! TO.C,C58*
X79330000Y-38000000D03*
X78370000Y-38000000D03*
G04 #@! TD*
D15*
G04 #@! TO.C,R8*
X47840000Y-44750000D03*
X48810000Y-44750000D03*
G04 #@! TD*
D35*
G04 #@! TO.C,C4*
X41750000Y-48385000D03*
X41750000Y-49345000D03*
G04 #@! TD*
D21*
G04 #@! TO.C,C29*
X39980000Y-58830000D03*
X39980000Y-57870000D03*
G04 #@! TD*
D48*
G04 #@! TO.C,FB1*
X22341600Y-24643990D03*
X22341600Y-28243990D03*
G04 #@! TD*
D18*
G04 #@! TO.C,R52*
X47340000Y-57750000D03*
X48360000Y-57750000D03*
G04 #@! TD*
G04 #@! TO.C,R53*
X78240000Y-51625000D03*
X79260000Y-51625000D03*
G04 #@! TD*
D26*
G04 #@! TO.C,R67*
X26310000Y-54750000D03*
X25340000Y-54750000D03*
G04 #@! TD*
D41*
G04 #@! TO.C,J7*
X104650000Y-41250000D03*
X104650000Y-41750000D03*
X104650000Y-42250000D03*
X104650000Y-42750000D03*
X104650000Y-43250000D03*
X104650000Y-43750000D03*
X104650000Y-44250000D03*
X104650000Y-44750000D03*
X104650000Y-45250000D03*
X104650000Y-45750000D03*
X104650000Y-46250000D03*
X104650000Y-46750000D03*
X104650000Y-47250000D03*
X104650000Y-47750000D03*
X104650000Y-48250000D03*
X104650000Y-48750000D03*
X104650000Y-49250000D03*
X104650000Y-49750000D03*
X104650000Y-50250000D03*
X104650000Y-50750000D03*
X104650000Y-51250000D03*
X104650000Y-51750000D03*
X104650000Y-52250000D03*
X104650000Y-52750000D03*
X104650000Y-53250000D03*
X104650000Y-53750000D03*
X104650000Y-54250000D03*
X104650000Y-54750000D03*
X104650000Y-55250000D03*
X104650000Y-55750000D03*
X104650000Y-56250000D03*
X104650000Y-56750000D03*
D42*
X107900000Y-58650000D03*
X107900000Y-39350000D03*
G04 #@! TD*
D11*
G04 #@! TO.C,R87*
X49095000Y-56550000D03*
X48075000Y-56550000D03*
G04 #@! TD*
D12*
G04 #@! TO.C,R44*
X77150000Y-49615000D03*
X77150000Y-50635000D03*
G04 #@! TD*
D20*
G04 #@! TO.C,R116*
X50642600Y-26565600D03*
X50642600Y-25595600D03*
G04 #@! TD*
D25*
G04 #@! TO.C,C61*
X79330000Y-37000000D03*
X78370000Y-37000000D03*
G04 #@! TD*
D18*
G04 #@! TO.C,R77*
X49690000Y-57750000D03*
X50710000Y-57750000D03*
G04 #@! TD*
D51*
G04 #@! TO.C,C76*
X85634249Y-31764113D03*
X86730265Y-32860129D03*
G04 #@! TD*
D15*
G04 #@! TO.C,R9*
X47840000Y-45750000D03*
X48810000Y-45750000D03*
G04 #@! TD*
D41*
G04 #@! TO.C,J6*
X104650000Y-14250000D03*
X104650000Y-14750000D03*
X104650000Y-15250000D03*
X104650000Y-15750000D03*
X104650000Y-16250000D03*
X104650000Y-16750000D03*
X104650000Y-17250000D03*
X104650000Y-17750000D03*
X104650000Y-18250000D03*
X104650000Y-18750000D03*
X104650000Y-19250000D03*
X104650000Y-19750000D03*
X104650000Y-20250000D03*
X104650000Y-20750000D03*
X104650000Y-21250000D03*
X104650000Y-21750000D03*
X104650000Y-22250000D03*
X104650000Y-22750000D03*
X104650000Y-23250000D03*
X104650000Y-23750000D03*
X104650000Y-24250000D03*
X104650000Y-24750000D03*
X104650000Y-25250000D03*
X104650000Y-25750000D03*
X104650000Y-26250000D03*
X104650000Y-26750000D03*
X104650000Y-27250000D03*
X104650000Y-27750000D03*
X104650000Y-28250000D03*
X104650000Y-28750000D03*
X104650000Y-29250000D03*
X104650000Y-29750000D03*
D42*
X107900000Y-12350000D03*
X107900000Y-31650000D03*
G04 #@! TD*
D52*
G04 #@! TO.C,R2*
X43407053Y-32407053D03*
X44092947Y-33092947D03*
G04 #@! TD*
D11*
G04 #@! TO.C,R1*
X101325000Y-57695000D03*
X100305000Y-57695000D03*
G04 #@! TD*
G04 #@! TO.C,R144*
X84210000Y-46400000D03*
X83190000Y-46400000D03*
G04 #@! TD*
D53*
G04 #@! TO.C,D13*
X43118990Y-38276258D03*
X40868990Y-38276258D03*
G04 #@! TD*
D54*
G04 #@! TO.C,R148*
X81533750Y-39611043D03*
X81533750Y-37961043D03*
G04 #@! TD*
D27*
G04 #@! TO.C,C63*
X39801258Y-42556010D03*
X39801258Y-41156010D03*
G04 #@! TD*
D15*
G04 #@! TO.C,C48*
X31711000Y-39550000D03*
X32681000Y-39550000D03*
G04 #@! TD*
D11*
G04 #@! TO.C,R149*
X89110000Y-45775000D03*
X88090000Y-45775000D03*
G04 #@! TD*
D17*
G04 #@! TO.C,R146*
X74085000Y-40335000D03*
X74085000Y-39315000D03*
G04 #@! TD*
D10*
G04 #@! TO.C,C77*
X83104503Y-39197013D03*
X83104503Y-37647013D03*
G04 #@! TD*
D15*
G04 #@! TO.C,R4*
X47165000Y-38075000D03*
X48135000Y-38075000D03*
G04 #@! TD*
D55*
G04 #@! TO.C,J8*
X60274990Y-55249990D03*
X52725000Y-55000000D03*
X60274990Y-54750000D03*
X52725000Y-54500000D03*
X60274990Y-54249990D03*
X52725000Y-53999990D03*
X60274990Y-53750000D03*
X52725000Y-53500000D03*
X60274990Y-53250000D03*
X52725000Y-53000000D03*
X60274990Y-52749990D03*
X52725000Y-52500000D03*
X60274990Y-52250000D03*
X52725000Y-52000000D03*
X60274990Y-51750000D03*
X52725000Y-51499990D03*
X60274990Y-51250000D03*
X52725000Y-51000000D03*
X60274990Y-50750000D03*
X52725000Y-50500000D03*
X60274990Y-50249990D03*
X52725000Y-50000000D03*
X60274990Y-49750000D03*
X52725000Y-49500000D03*
X60274990Y-49250000D03*
X52725000Y-48999990D03*
X60274990Y-48750000D03*
X52725000Y-48500000D03*
X60274990Y-48250000D03*
X52725000Y-48000000D03*
X60274990Y-47749990D03*
X52725000Y-47500000D03*
X60274990Y-47250000D03*
X52725000Y-47000000D03*
X60274990Y-46750000D03*
X52725000Y-46499990D03*
X60274990Y-46250000D03*
X52725000Y-46000000D03*
X60274990Y-45750000D03*
X52725000Y-45500000D03*
X60274990Y-45249990D03*
X52725000Y-45000000D03*
X60274990Y-44750000D03*
X52725000Y-44500000D03*
X60274990Y-44250000D03*
X52725000Y-43999990D03*
X60274990Y-43750000D03*
X52725000Y-43500000D03*
X60274990Y-43250000D03*
X52725000Y-43000000D03*
X60274990Y-42749990D03*
X52725000Y-42500000D03*
X60274990Y-42250000D03*
X52725000Y-42000000D03*
X60274990Y-41750000D03*
X52725000Y-41499990D03*
X60274990Y-41249990D03*
X52725000Y-41000000D03*
X60274990Y-38749990D03*
X52725000Y-38500000D03*
X60274990Y-38250000D03*
X52725000Y-38000000D03*
X60274990Y-37750000D03*
X52725000Y-37499990D03*
X60274990Y-37250000D03*
X52725000Y-37000000D03*
X60274990Y-36750000D03*
D56*
X59499990Y-56350000D03*
X59499990Y-35650000D03*
G04 #@! TD*
D57*
G04 #@! TO.C,C55*
X79975000Y-39300000D03*
X78425000Y-39300000D03*
G04 #@! TD*
D15*
G04 #@! TO.C,C41*
X32115000Y-32500000D03*
X33085000Y-32500000D03*
G04 #@! TD*
D58*
G04 #@! TO.C,J11*
X54750000Y-59205000D03*
X53250000Y-59205000D03*
X51750000Y-59205000D03*
X50250000Y-59205000D03*
X48750000Y-59205000D03*
X47250000Y-59205000D03*
D59*
X44645000Y-64395000D03*
X57355000Y-64395000D03*
G04 #@! TD*
D60*
G04 #@! TO.C,J2*
X82500000Y-17295000D03*
X84000000Y-17295000D03*
X85500000Y-17295000D03*
X87000000Y-17295000D03*
X88500000Y-17295000D03*
D61*
X79895000Y-12105000D03*
X91105000Y-12105000D03*
G04 #@! TD*
D16*
G04 #@! TO.C,C23*
X39046190Y-56935000D03*
X40006190Y-56935000D03*
G04 #@! TD*
D15*
G04 #@! TO.C,C69*
X62515000Y-52000000D03*
X63485000Y-52000000D03*
G04 #@! TD*
D30*
G04 #@! TO.C,Q6*
X88850000Y-52475000D03*
X90150000Y-52475000D03*
X89500000Y-54375000D03*
G04 #@! TD*
D62*
G04 #@! TO.C,R155*
X91885624Y-46035624D03*
X91164376Y-45314376D03*
G04 #@! TD*
D17*
G04 #@! TO.C,R80*
X35600000Y-25510000D03*
X35600000Y-24490000D03*
G04 #@! TD*
D63*
G04 #@! TO.C,IC13*
X41583142Y-35254600D03*
X40933142Y-35254600D03*
X40283142Y-35254600D03*
X40283142Y-33354600D03*
X41583142Y-33354600D03*
G04 #@! TD*
D18*
G04 #@! TO.C,R65*
X39840000Y-49300000D03*
X40860000Y-49300000D03*
G04 #@! TD*
D64*
G04 #@! TO.C,U12*
X88325000Y-39650000D03*
X88325000Y-41500000D03*
X86875000Y-41500000D03*
X86875000Y-39650000D03*
G04 #@! TD*
D17*
G04 #@! TO.C,R131*
X91450000Y-50635000D03*
X91450000Y-49615000D03*
G04 #@! TD*
G04 #@! TO.C,R41*
X103100000Y-63010000D03*
X103100000Y-61990000D03*
G04 #@! TD*
D28*
G04 #@! TO.C,U3*
X39931018Y-28056010D03*
X38981018Y-28056010D03*
X38031018Y-28056010D03*
X38031018Y-25356010D03*
X38981018Y-25356010D03*
X39931018Y-25356010D03*
G04 #@! TD*
D65*
G04 #@! TO.C,J3*
X43216600Y-18486010D03*
X43716600Y-18486010D03*
X44216600Y-18486010D03*
X44716600Y-18486010D03*
X45216600Y-18486010D03*
X45716600Y-18486010D03*
X46216600Y-18486010D03*
X46716600Y-18486010D03*
X47216600Y-18486010D03*
X47716600Y-18486010D03*
X48216600Y-18486010D03*
X48716600Y-18486010D03*
X49216600Y-18486010D03*
X49716600Y-18486010D03*
X50216600Y-18486010D03*
D66*
X41976600Y-13636010D03*
D67*
X47891600Y-12626010D03*
X45541600Y-12626010D03*
D66*
X51456600Y-13636010D03*
G04 #@! TD*
D18*
G04 #@! TO.C,R130*
X50070000Y-55780000D03*
X51090000Y-55780000D03*
G04 #@! TD*
D19*
G04 #@! TO.C,C62*
X84985000Y-40960000D03*
X84985000Y-42510000D03*
G04 #@! TD*
D17*
G04 #@! TO.C,R132*
X40900000Y-23110000D03*
X40900000Y-22090000D03*
G04 #@! TD*
D22*
G04 #@! TO.C,R59*
X81270000Y-49850000D03*
X81270000Y-50820000D03*
G04 #@! TD*
D11*
G04 #@! TO.C,R88*
X33110000Y-33500000D03*
X32090000Y-33500000D03*
G04 #@! TD*
D68*
G04 #@! TO.C,Y1*
X42550000Y-57750000D03*
X42550000Y-59150000D03*
X41450000Y-59150000D03*
X41450000Y-57750000D03*
G04 #@! TD*
D11*
G04 #@! TO.C,R45*
X77260000Y-51625000D03*
X76240000Y-51625000D03*
G04 #@! TD*
D69*
G04 #@! TO.C,U7*
X42400000Y-52150000D03*
X42400000Y-54450000D03*
X41250000Y-52150000D03*
X43550000Y-53300000D03*
X41250000Y-54450000D03*
X41250000Y-53300000D03*
X42400000Y-53300000D03*
X43550000Y-54450000D03*
X43550000Y-52150000D03*
D70*
X39962500Y-55050000D03*
X39962500Y-54550000D03*
X39962500Y-54050000D03*
X39962500Y-53550000D03*
X39962500Y-53050000D03*
X39962500Y-52550000D03*
X39962500Y-52050000D03*
X39962500Y-51550000D03*
D71*
X40650000Y-50862500D03*
X41150000Y-50862500D03*
X41650000Y-50862500D03*
X42150000Y-50862500D03*
X42650000Y-50862500D03*
X43150000Y-50862500D03*
X43650000Y-50862500D03*
X44150000Y-50862500D03*
D70*
X44837500Y-51550000D03*
X44837500Y-52050000D03*
X44837500Y-52550000D03*
X44837500Y-53050000D03*
X44837500Y-53550000D03*
X44837500Y-54050000D03*
X44837500Y-54550000D03*
X44837500Y-55050000D03*
D71*
X44150000Y-55737500D03*
X43650000Y-55737500D03*
X43150000Y-55737500D03*
X42650000Y-55737500D03*
X42150000Y-55737500D03*
X41650000Y-55737500D03*
X41150000Y-55737500D03*
X40650000Y-55737500D03*
G04 #@! TD*
D12*
G04 #@! TO.C,R140*
X74995000Y-60445000D03*
X74995000Y-61465000D03*
G04 #@! TD*
D30*
G04 #@! TO.C,T2*
X72343990Y-57658400D03*
X73643990Y-57658400D03*
X72993990Y-59558400D03*
G04 #@! TD*
D20*
G04 #@! TO.C,R31*
X33678810Y-50565000D03*
X33678810Y-49595000D03*
G04 #@! TD*
D15*
G04 #@! TO.C,R16*
X32115000Y-35500000D03*
X33085000Y-35500000D03*
G04 #@! TD*
D21*
G04 #@! TO.C,C44*
X72300000Y-42380000D03*
X72300000Y-41420000D03*
G04 #@! TD*
D20*
G04 #@! TO.C,R68*
X48500000Y-31285000D03*
X48500000Y-30315000D03*
G04 #@! TD*
G04 #@! TO.C,L5*
X37773810Y-59785000D03*
X37773810Y-58815000D03*
G04 #@! TD*
D26*
G04 #@! TO.C,R124*
X64795000Y-14110000D03*
X63825000Y-14110000D03*
G04 #@! TD*
D12*
G04 #@! TO.C,R90*
X68610000Y-13970000D03*
X68610000Y-14990000D03*
G04 #@! TD*
D26*
G04 #@! TO.C,R84*
X33085000Y-34500000D03*
X32115000Y-34500000D03*
G04 #@! TD*
D11*
G04 #@! TO.C,R64*
X41860000Y-47300000D03*
X40840000Y-47300000D03*
G04 #@! TD*
G04 #@! TO.C,R17*
X26185000Y-26985000D03*
X25165000Y-26985000D03*
G04 #@! TD*
D36*
G04 #@! TO.C,FB3*
X75950000Y-53525000D03*
X79550000Y-53525000D03*
G04 #@! TD*
D26*
G04 #@! TO.C,R114*
X49935000Y-43350000D03*
X48965000Y-43350000D03*
G04 #@! TD*
D21*
G04 #@! TO.C,C66*
X85000000Y-44680000D03*
X85000000Y-43720000D03*
G04 #@! TD*
D15*
G04 #@! TO.C,D5*
X85215000Y-18800000D03*
X86185000Y-18800000D03*
G04 #@! TD*
D20*
G04 #@! TO.C,R115*
X51676600Y-26565600D03*
X51676600Y-25595600D03*
G04 #@! TD*
G04 #@! TO.C,R69*
X49500000Y-31285000D03*
X49500000Y-30315000D03*
G04 #@! TD*
D26*
G04 #@! TO.C,R86*
X33085000Y-36500000D03*
X32115000Y-36500000D03*
G04 #@! TD*
D72*
G04 #@! TO.C,C3*
X30803810Y-50265000D03*
X32353810Y-50265000D03*
G04 #@! TD*
D15*
G04 #@! TO.C,C51*
X62515000Y-47000000D03*
X63485000Y-47000000D03*
G04 #@! TD*
D28*
G04 #@! TO.C,D4*
X68500000Y-55000000D03*
X66600010Y-55000000D03*
X67550000Y-53100000D03*
G04 #@! TD*
D20*
G04 #@! TO.C,R97*
X71000000Y-61485000D03*
X71000000Y-60515000D03*
G04 #@! TD*
D11*
G04 #@! TO.C,R83*
X41855000Y-46345000D03*
X40835000Y-46345000D03*
G04 #@! TD*
D17*
G04 #@! TO.C,R72*
X39850000Y-48360000D03*
X39850000Y-47340000D03*
G04 #@! TD*
D15*
G04 #@! TO.C,R36*
X36215000Y-41150000D03*
X37185000Y-41150000D03*
G04 #@! TD*
D62*
G04 #@! TO.C,R153*
X91160624Y-46760624D03*
X90439376Y-46039376D03*
G04 #@! TD*
D73*
G04 #@! TO.C,D3*
X25375000Y-53200000D03*
X25375000Y-51300010D03*
X27275000Y-52250000D03*
G04 #@! TD*
D74*
G04 #@! TO.C,D9*
X79615000Y-47240000D03*
X78215000Y-47240000D03*
G04 #@! TD*
D22*
G04 #@! TO.C,R46*
X42506010Y-24233982D03*
X42506010Y-25203982D03*
G04 #@! TD*
D15*
G04 #@! TO.C,R98*
X21215000Y-59500000D03*
X22185000Y-59500000D03*
G04 #@! TD*
D11*
G04 #@! TO.C,R129*
X88685000Y-47550000D03*
X87665000Y-47550000D03*
G04 #@! TD*
D16*
G04 #@! TO.C,C50*
X38920000Y-43600000D03*
X39880000Y-43600000D03*
G04 #@! TD*
D26*
G04 #@! TO.C,D1*
X84285000Y-18800000D03*
X83315000Y-18800000D03*
G04 #@! TD*
D75*
G04 #@! TO.C,FB4*
X82540000Y-41172500D03*
X82540000Y-42747500D03*
G04 #@! TD*
D35*
G04 #@! TO.C,C26*
X38216190Y-53580000D03*
X38216190Y-54540000D03*
G04 #@! TD*
D17*
G04 #@! TO.C,R70*
X47507254Y-31320000D03*
X47507254Y-30300000D03*
G04 #@! TD*
D76*
G04 #@! TO.C,U13*
X85003269Y-33548530D03*
X85675020Y-34220281D03*
X86346771Y-34892032D03*
X84738103Y-36500700D03*
X83394601Y-35157198D03*
G04 #@! TD*
D15*
G04 #@! TO.C,C49*
X62515000Y-46000000D03*
X63485000Y-46000000D03*
G04 #@! TD*
G04 #@! TO.C,C52*
X62515000Y-49000000D03*
X63485000Y-49000000D03*
G04 #@! TD*
M02*
