G04 #@! TF.GenerationSoftware,KiCad,Pcbnew,(6.0.8-1)-1*
G04 #@! TF.CreationDate,2022-10-18T17:53:05-07:00*
G04 #@! TF.ProjectId,CRMHJN_capable_carrier,43524d48-4a4e-45f6-9361-7061626c655f,rev?*
G04 #@! TF.SameCoordinates,Original*
G04 #@! TF.FileFunction,Soldermask,Bot*
G04 #@! TF.FilePolarity,Negative*
%FSLAX46Y46*%
G04 Gerber Fmt 4.6, Leading zero omitted, Abs format (unit mm)*
G04 Created by KiCad (PCBNEW (6.0.8-1)-1) date 2022-10-18 17:53:05*
%MOMM*%
%LPD*%
G01*
G04 APERTURE LIST*
G04 Aperture macros list*
%AMRoundRect*
0 Rectangle with rounded corners*
0 $1 Rounding radius*
0 $2 $3 $4 $5 $6 $7 $8 $9 X,Y pos of 4 corners*
0 Add a 4 corners polygon primitive as box body*
4,1,4,$2,$3,$4,$5,$6,$7,$8,$9,$2,$3,0*
0 Add four circle primitives for the rounded corners*
1,1,$1+$1,$2,$3*
1,1,$1+$1,$4,$5*
1,1,$1+$1,$6,$7*
1,1,$1+$1,$8,$9*
0 Add four rect primitives between the rounded corners*
20,1,$1+$1,$2,$3,$4,$5,0*
20,1,$1+$1,$4,$5,$6,$7,0*
20,1,$1+$1,$6,$7,$8,$9,0*
20,1,$1+$1,$8,$9,$2,$3,0*%
%AMFreePoly0*
4,1,28,0.542929,2.462957,0.573353,2.420633,0.576200,2.400000,0.576200,0.990000,0.558373,0.941020,0.553882,0.936118,0.536862,0.919098,0.501566,0.874978,0.464414,0.819250,0.438482,0.776030,0.421584,0.733785,0.403214,0.678675,0.385354,0.607233,0.376200,0.506544,0.376200,-1.500000,0.358373,-1.548980,0.313232,-1.575042,0.300000,-1.576200,-0.500000,-1.576200,-0.548980,-1.558373,
-0.575042,-1.513232,-0.576200,-1.500000,-0.576200,2.300000,-0.558373,2.348980,-0.513232,2.375042,-0.507582,2.375822,0.492418,2.475822,0.542929,2.462957,0.542929,2.462957,$1*%
%AMFreePoly1*
4,1,28,0.507582,2.375822,0.554546,2.353209,0.575987,2.305699,0.576200,2.300000,0.576200,-1.500000,0.558373,-1.548980,0.513232,-1.575042,0.500000,-1.576200,-0.300000,-1.576200,-0.348980,-1.558373,-0.375042,-1.513232,-0.376200,-1.500000,-0.376200,0.506544,-0.385354,0.607233,-0.403214,0.678675,-0.421584,0.733785,-0.438482,0.776030,-0.464414,0.819250,-0.501566,0.874978,-0.536862,0.919098,
-0.553882,0.936118,-0.575910,0.983359,-0.576200,0.990000,-0.576200,2.400000,-0.558373,2.448980,-0.513232,2.475042,-0.492418,2.475822,0.507582,2.375822,0.507582,2.375822,$1*%
%AMFreePoly2*
4,1,17,0.507582,1.875822,0.554546,1.853209,0.575987,1.805699,0.576200,1.800000,0.576200,-1.800000,0.558373,-1.848980,0.513232,-1.875042,0.500000,-1.876200,-0.500000,-1.876200,-0.548980,-1.858373,-0.575042,-1.813232,-0.576200,-1.800000,-0.576200,1.900000,-0.558373,1.948980,-0.513232,1.975042,-0.492418,1.975822,0.507582,1.875822,0.507582,1.875822,$1*%
G04 Aperture macros list end*
%ADD10C,0.010000*%
%ADD11C,0.500000*%
%ADD12C,3.352400*%
%ADD13C,2.000000*%
%ADD14C,3.152400*%
%ADD15RoundRect,0.326201X0.499999X-0.499999X0.499999X0.499999X-0.499999X0.499999X-0.499999X-0.499999X0*%
%ADD16C,1.652400*%
%ADD17RoundRect,0.076200X-0.850000X0.850000X-0.850000X-0.850000X0.850000X-0.850000X0.850000X0.850000X0*%
%ADD18O,1.852400X1.852400*%
%ADD19C,1.252400*%
%ADD20C,1.752400*%
%ADD21FreePoly0,0.000000*%
%ADD22FreePoly1,0.000000*%
%ADD23FreePoly2,0.000000*%
%ADD24C,1.152400*%
%ADD25RoundRect,0.301200X0.250000X-0.225000X0.250000X0.225000X-0.250000X0.225000X-0.250000X-0.225000X0*%
%ADD26RoundRect,0.211200X0.135000X0.185000X-0.135000X0.185000X-0.135000X-0.185000X0.135000X-0.185000X0*%
%ADD27RoundRect,0.211200X-0.185000X0.135000X-0.185000X-0.135000X0.185000X-0.135000X0.185000X0.135000X0*%
%ADD28RoundRect,0.076200X-0.500000X0.525000X-0.500000X-0.525000X0.500000X-0.525000X0.500000X0.525000X0*%
%ADD29RoundRect,0.076200X-0.525000X1.100000X-0.525000X-1.100000X0.525000X-1.100000X0.525000X1.100000X0*%
%ADD30RoundRect,0.223700X-0.147500X-0.172500X0.147500X-0.172500X0.147500X0.172500X-0.147500X0.172500X0*%
%ADD31RoundRect,0.216200X-0.140000X-0.170000X0.140000X-0.170000X0.140000X0.170000X-0.140000X0.170000X0*%
%ADD32RoundRect,0.211200X0.185000X-0.135000X0.185000X0.135000X-0.185000X0.135000X-0.185000X-0.135000X0*%
%ADD33RoundRect,0.211200X-0.135000X-0.185000X0.135000X-0.185000X0.135000X0.185000X-0.135000X0.185000X0*%
%ADD34RoundRect,0.301200X-0.250000X0.225000X-0.250000X-0.225000X0.250000X-0.225000X0.250000X0.225000X0*%
%ADD35RoundRect,0.223700X0.172500X-0.147500X0.172500X0.147500X-0.172500X0.147500X-0.172500X-0.147500X0*%
%ADD36RoundRect,0.216200X0.170000X-0.140000X0.170000X0.140000X-0.170000X0.140000X-0.170000X-0.140000X0*%
%ADD37RoundRect,0.223700X-0.172500X0.147500X-0.172500X-0.147500X0.172500X-0.147500X0.172500X0.147500X0*%
%ADD38RoundRect,0.326200X-0.250000X-0.475000X0.250000X-0.475000X0.250000X0.475000X-0.250000X0.475000X0*%
%ADD39O,0.502400X1.852400*%
%ADD40RoundRect,0.216200X0.140000X0.170000X-0.140000X0.170000X-0.140000X-0.170000X0.140000X-0.170000X0*%
%ADD41RoundRect,0.223700X0.147500X0.172500X-0.147500X0.172500X-0.147500X-0.172500X0.147500X-0.172500X0*%
%ADD42RoundRect,0.076200X0.400000X-0.300000X0.400000X0.300000X-0.400000X0.300000X-0.400000X-0.300000X0*%
%ADD43RoundRect,0.076200X-0.275000X-0.500000X0.275000X-0.500000X0.275000X0.500000X-0.275000X0.500000X0*%
%ADD44RoundRect,0.294950X0.256250X-0.218750X0.256250X0.218750X-0.256250X0.218750X-0.256250X-0.218750X0*%
%ADD45RoundRect,0.076200X0.200000X0.250000X-0.200000X0.250000X-0.200000X-0.250000X0.200000X-0.250000X0*%
%ADD46RoundRect,0.126200X0.250000X-0.075000X0.250000X0.075000X-0.250000X0.075000X-0.250000X-0.075000X0*%
%ADD47RoundRect,0.126200X0.075000X0.250000X-0.075000X0.250000X-0.075000X-0.250000X0.075000X-0.250000X0*%
%ADD48RoundRect,0.126200X-0.700000X0.450000X-0.700000X-0.450000X0.700000X-0.450000X0.700000X0.450000X0*%
%ADD49RoundRect,0.201200X-0.537500X-0.125000X0.537500X-0.125000X0.537500X0.125000X-0.537500X0.125000X0*%
%ADD50RoundRect,0.216200X-0.170000X0.140000X-0.170000X-0.140000X0.170000X-0.140000X0.170000X0.140000X0*%
%ADD51RoundRect,0.076200X0.750000X0.900000X-0.750000X0.900000X-0.750000X-0.900000X0.750000X-0.900000X0*%
%ADD52RoundRect,0.076200X-0.200000X-0.250000X0.200000X-0.250000X0.200000X0.250000X-0.200000X0.250000X0*%
%ADD53RoundRect,0.076200X-0.150000X-0.650000X0.150000X-0.650000X0.150000X0.650000X-0.150000X0.650000X0*%
%ADD54RoundRect,0.076200X-0.900000X-1.100000X0.900000X-1.100000X0.900000X1.100000X-0.900000X1.100000X0*%
%ADD55RoundRect,0.076200X0.300520X0.088388X0.088388X0.300520X-0.300520X-0.088388X-0.088388X-0.300520X0*%
%ADD56RoundRect,0.076200X0.335876X0.053033X0.053033X0.335876X-0.335876X-0.053033X-0.053033X-0.335876X0*%
%ADD57RoundRect,0.076200X0.650000X-0.150000X0.650000X0.150000X-0.650000X0.150000X-0.650000X-0.150000X0*%
%ADD58RoundRect,0.076200X1.100000X-0.900000X1.100000X0.900000X-1.100000X0.900000X-1.100000X-0.900000X0*%
%ADD59RoundRect,0.076200X0.342500X-0.115000X0.342500X0.115000X-0.342500X0.115000X-0.342500X-0.115000X0*%
%ADD60RoundRect,0.076200X0.342500X-0.177800X0.342500X0.177800X-0.342500X0.177800X-0.342500X-0.177800X0*%
%ADD61RoundRect,0.076200X0.342500X-0.178000X0.342500X0.178000X-0.342500X0.178000X-0.342500X-0.178000X0*%
%ADD62C,6.152400*%
%ADD63RoundRect,0.076200X0.150000X0.275000X-0.150000X0.275000X-0.150000X-0.275000X0.150000X-0.275000X0*%
%ADD64RoundRect,0.076200X0.200000X0.275000X-0.200000X0.275000X-0.200000X-0.275000X0.200000X-0.275000X0*%
%ADD65RoundRect,0.076200X0.900000X-0.750000X0.900000X0.750000X-0.900000X0.750000X-0.900000X-0.750000X0*%
%ADD66RoundRect,0.276200X0.200000X0.275000X-0.200000X0.275000X-0.200000X-0.275000X0.200000X-0.275000X0*%
%ADD67RoundRect,0.076200X-0.250000X0.200000X-0.250000X-0.200000X0.250000X-0.200000X0.250000X0.200000X0*%
%ADD68RoundRect,0.076200X-0.900000X0.750000X-0.900000X-0.750000X0.900000X-0.750000X0.900000X0.750000X0*%
%ADD69C,4.000000*%
%ADD70RoundRect,0.076200X-0.650000X0.150000X-0.650000X-0.150000X0.650000X-0.150000X0.650000X0.150000X0*%
%ADD71RoundRect,0.076200X-1.100000X0.900000X-1.100000X-0.900000X1.100000X-0.900000X1.100000X0.900000X0*%
%ADD72RoundRect,0.301200X-0.335876X-0.017678X-0.017678X-0.335876X0.335876X0.017678X0.017678X0.335876X0*%
%ADD73RoundRect,0.223700X-0.226274X-0.017678X-0.017678X-0.226274X0.226274X0.017678X0.017678X0.226274X0*%
%ADD74RoundRect,0.076200X-0.400000X-0.400000X0.400000X-0.400000X0.400000X0.400000X-0.400000X0.400000X0*%
%ADD75RoundRect,0.276200X0.275000X-0.200000X0.275000X0.200000X-0.275000X0.200000X-0.275000X-0.200000X0*%
%ADD76RoundRect,0.076200X0.775000X-0.150000X0.775000X0.150000X-0.775000X0.150000X-0.775000X-0.150000X0*%
%ADD77RoundRect,0.076200X1.375000X-0.600000X1.375000X0.600000X-1.375000X0.600000X-1.375000X-0.600000X0*%
%ADD78RoundRect,0.301200X0.225000X0.250000X-0.225000X0.250000X-0.225000X-0.250000X0.225000X-0.250000X0*%
%ADD79RoundRect,0.226200X0.150000X0.350000X-0.150000X0.350000X-0.150000X-0.350000X0.150000X-0.350000X0*%
%ADD80RoundRect,0.326200X0.375000X0.650000X-0.375000X0.650000X-0.375000X-0.650000X0.375000X-0.650000X0*%
%ADD81RoundRect,0.226200X-0.150000X-0.350000X0.150000X-0.350000X0.150000X0.350000X-0.150000X0.350000X0*%
%ADD82RoundRect,0.326200X-0.375000X-0.650000X0.375000X-0.650000X0.375000X0.650000X-0.375000X0.650000X0*%
%ADD83RoundRect,0.211200X0.226274X0.035355X0.035355X0.226274X-0.226274X-0.035355X-0.035355X-0.226274X0*%
%ADD84RoundRect,0.076200X-0.200000X-0.450000X0.200000X-0.450000X0.200000X0.450000X-0.200000X0.450000X0*%
%ADD85RoundRect,0.076200X0.475000X0.525000X-0.475000X0.525000X-0.475000X-0.525000X0.475000X-0.525000X0*%
%ADD86RoundRect,0.076200X0.275000X0.500000X-0.275000X0.500000X-0.275000X-0.500000X0.275000X-0.500000X0*%
%ADD87RoundRect,0.076200X-0.150000X-0.400000X0.150000X-0.400000X0.150000X0.400000X-0.150000X0.400000X0*%
%ADD88RoundRect,0.076200X-0.610000X-0.700000X0.610000X-0.700000X0.610000X0.700000X-0.610000X0.700000X0*%
%ADD89RoundRect,0.076200X-0.425000X-0.700000X0.425000X-0.700000X0.425000X0.700000X-0.425000X0.700000X0*%
%ADD90RoundRect,0.076200X-0.400000X0.450000X-0.400000X-0.450000X0.400000X-0.450000X0.400000X0.450000X0*%
%ADD91RoundRect,0.138700X-0.375000X-0.062500X0.375000X-0.062500X0.375000X0.062500X-0.375000X0.062500X0*%
%ADD92RoundRect,0.138700X-0.062500X-0.375000X0.062500X-0.375000X0.062500X0.375000X-0.062500X0.375000X0*%
%ADD93RoundRect,0.076200X-1.725000X-1.725000X1.725000X-1.725000X1.725000X1.725000X-1.725000X1.725000X0*%
%ADD94RoundRect,0.076200X-0.750000X-0.900000X0.750000X-0.900000X0.750000X0.900000X-0.750000X0.900000X0*%
%ADD95RoundRect,0.301200X-0.225000X-0.250000X0.225000X-0.250000X0.225000X0.250000X-0.225000X0.250000X0*%
%ADD96RoundRect,0.076200X-0.500000X0.275000X-0.500000X-0.275000X0.500000X-0.275000X0.500000X0.275000X0*%
%ADD97RoundRect,0.076200X-0.300000X-0.350000X0.300000X-0.350000X0.300000X0.350000X-0.300000X0.350000X0*%
%ADD98RoundRect,0.294950X-0.256250X0.218750X-0.256250X-0.218750X0.256250X-0.218750X0.256250X0.218750X0*%
%ADD99RoundRect,0.226200X0.256326X0.468458X-0.468458X-0.256326X-0.256326X-0.468458X0.468458X0.256326X0*%
G04 APERTURE END LIST*
G04 #@! TO.C,N2*
G36*
X93694446Y-63822310D02*
G01*
X93690117Y-63863358D01*
X93683389Y-63897517D01*
X93673622Y-63926593D01*
X93660173Y-63952392D01*
X93642401Y-63976720D01*
X93619665Y-64001384D01*
X93586141Y-64030699D01*
X93547147Y-64054634D01*
X93506492Y-64069074D01*
X93501651Y-64069993D01*
X93484606Y-64071951D01*
X93462449Y-64073418D01*
X93438718Y-64074129D01*
X93409311Y-64073453D01*
X93363336Y-64067200D01*
X93322990Y-64053971D01*
X93286646Y-64033152D01*
X93252676Y-64004131D01*
X93236185Y-63986615D01*
X93216907Y-63961764D01*
X93202144Y-63935570D01*
X93191296Y-63906291D01*
X93183763Y-63872186D01*
X93178944Y-63831516D01*
X93176239Y-63782540D01*
X93175440Y-63748464D01*
X93175804Y-63723728D01*
X93302542Y-63723728D01*
X93303066Y-63774608D01*
X93303228Y-63778782D01*
X93306056Y-63820257D01*
X93311160Y-63853307D01*
X93319138Y-63879405D01*
X93330584Y-63900025D01*
X93346096Y-63916639D01*
X93366269Y-63930719D01*
X93371373Y-63933591D01*
X93386963Y-63940333D01*
X93404539Y-63944112D01*
X93428167Y-63945926D01*
X93453792Y-63945703D01*
X93486231Y-63939929D01*
X93512589Y-63926992D01*
X93534147Y-63906176D01*
X93552189Y-63876766D01*
X93568460Y-63843716D01*
X93568460Y-63757248D01*
X93568399Y-63739428D01*
X93567662Y-63703909D01*
X93565837Y-63676000D01*
X93562608Y-63653925D01*
X93557660Y-63635910D01*
X93550675Y-63620177D01*
X93541338Y-63604953D01*
X93526571Y-63588084D01*
X93500894Y-63570663D01*
X93470534Y-63559757D01*
X93437608Y-63555797D01*
X93404232Y-63559217D01*
X93372521Y-63570450D01*
X93356031Y-63580245D01*
X93336721Y-63597480D01*
X93322056Y-63619448D01*
X93311698Y-63647146D01*
X93305306Y-63681574D01*
X93302542Y-63723728D01*
X93175804Y-63723728D01*
X93176203Y-63696634D01*
X93179927Y-63652455D01*
X93186905Y-63614537D01*
X93197426Y-63581492D01*
X93211783Y-63551927D01*
X93230265Y-63524454D01*
X93253900Y-63497592D01*
X93291589Y-63467290D01*
X93334546Y-63445663D01*
X93382800Y-63432697D01*
X93436380Y-63428378D01*
X93443100Y-63428436D01*
X93495521Y-63433517D01*
X93542338Y-63446967D01*
X93584031Y-63469033D01*
X93621078Y-63499961D01*
X93653958Y-63539995D01*
X93670528Y-63570600D01*
X93683980Y-63611973D01*
X93692844Y-63661749D01*
X93697053Y-63719555D01*
X93696759Y-63757248D01*
X93696544Y-63785015D01*
X93694446Y-63822310D01*
G37*
D10*
X93694446Y-63822310D02*
X93690117Y-63863358D01*
X93683389Y-63897517D01*
X93673622Y-63926593D01*
X93660173Y-63952392D01*
X93642401Y-63976720D01*
X93619665Y-64001384D01*
X93586141Y-64030699D01*
X93547147Y-64054634D01*
X93506492Y-64069074D01*
X93501651Y-64069993D01*
X93484606Y-64071951D01*
X93462449Y-64073418D01*
X93438718Y-64074129D01*
X93409311Y-64073453D01*
X93363336Y-64067200D01*
X93322990Y-64053971D01*
X93286646Y-64033152D01*
X93252676Y-64004131D01*
X93236185Y-63986615D01*
X93216907Y-63961764D01*
X93202144Y-63935570D01*
X93191296Y-63906291D01*
X93183763Y-63872186D01*
X93178944Y-63831516D01*
X93176239Y-63782540D01*
X93175440Y-63748464D01*
X93175804Y-63723728D01*
X93302542Y-63723728D01*
X93303066Y-63774608D01*
X93303228Y-63778782D01*
X93306056Y-63820257D01*
X93311160Y-63853307D01*
X93319138Y-63879405D01*
X93330584Y-63900025D01*
X93346096Y-63916639D01*
X93366269Y-63930719D01*
X93371373Y-63933591D01*
X93386963Y-63940333D01*
X93404539Y-63944112D01*
X93428167Y-63945926D01*
X93453792Y-63945703D01*
X93486231Y-63939929D01*
X93512589Y-63926992D01*
X93534147Y-63906176D01*
X93552189Y-63876766D01*
X93568460Y-63843716D01*
X93568460Y-63757248D01*
X93568399Y-63739428D01*
X93567662Y-63703909D01*
X93565837Y-63676000D01*
X93562608Y-63653925D01*
X93557660Y-63635910D01*
X93550675Y-63620177D01*
X93541338Y-63604953D01*
X93526571Y-63588084D01*
X93500894Y-63570663D01*
X93470534Y-63559757D01*
X93437608Y-63555797D01*
X93404232Y-63559217D01*
X93372521Y-63570450D01*
X93356031Y-63580245D01*
X93336721Y-63597480D01*
X93322056Y-63619448D01*
X93311698Y-63647146D01*
X93305306Y-63681574D01*
X93302542Y-63723728D01*
X93175804Y-63723728D01*
X93176203Y-63696634D01*
X93179927Y-63652455D01*
X93186905Y-63614537D01*
X93197426Y-63581492D01*
X93211783Y-63551927D01*
X93230265Y-63524454D01*
X93253900Y-63497592D01*
X93291589Y-63467290D01*
X93334546Y-63445663D01*
X93382800Y-63432697D01*
X93436380Y-63428378D01*
X93443100Y-63428436D01*
X93495521Y-63433517D01*
X93542338Y-63446967D01*
X93584031Y-63469033D01*
X93621078Y-63499961D01*
X93653958Y-63539995D01*
X93670528Y-63570600D01*
X93683980Y-63611973D01*
X93692844Y-63661749D01*
X93697053Y-63719555D01*
X93696759Y-63757248D01*
X93696544Y-63785015D01*
X93694446Y-63822310D01*
G36*
X91576066Y-63429696D02*
G01*
X91583198Y-63430790D01*
X91618999Y-63439698D01*
X91650955Y-63454612D01*
X91682895Y-63477238D01*
X91711720Y-63500716D01*
X91711720Y-63434560D01*
X91838720Y-63434560D01*
X91838720Y-64069560D01*
X91712334Y-64069560D01*
X91710757Y-63860010D01*
X91710516Y-63828724D01*
X91710111Y-63782343D01*
X91709673Y-63744513D01*
X91709148Y-63714216D01*
X91708483Y-63690435D01*
X91707625Y-63672153D01*
X91706520Y-63658351D01*
X91705115Y-63648012D01*
X91703356Y-63640119D01*
X91701190Y-63633654D01*
X91698564Y-63627600D01*
X91690417Y-63613318D01*
X91672147Y-63591281D01*
X91650316Y-63573058D01*
X91628101Y-63561626D01*
X91616452Y-63559089D01*
X91596329Y-63557251D01*
X91574760Y-63557331D01*
X91546409Y-63561288D01*
X91517360Y-63572722D01*
X91494099Y-63591999D01*
X91475578Y-63619777D01*
X91460260Y-63649716D01*
X91458779Y-63859638D01*
X91457297Y-64069560D01*
X91330720Y-64069560D01*
X91330720Y-63846290D01*
X91330741Y-63820881D01*
X91330995Y-63759996D01*
X91331534Y-63708193D01*
X91332353Y-63665687D01*
X91333446Y-63632693D01*
X91334809Y-63609425D01*
X91336437Y-63596100D01*
X91339218Y-63584565D01*
X91355466Y-63542638D01*
X91379490Y-63505984D01*
X91410142Y-63475399D01*
X91446274Y-63451680D01*
X91486737Y-63435625D01*
X91530384Y-63428031D01*
X91576066Y-63429696D01*
G37*
X91576066Y-63429696D02*
X91583198Y-63430790D01*
X91618999Y-63439698D01*
X91650955Y-63454612D01*
X91682895Y-63477238D01*
X91711720Y-63500716D01*
X91711720Y-63434560D01*
X91838720Y-63434560D01*
X91838720Y-64069560D01*
X91712334Y-64069560D01*
X91710757Y-63860010D01*
X91710516Y-63828724D01*
X91710111Y-63782343D01*
X91709673Y-63744513D01*
X91709148Y-63714216D01*
X91708483Y-63690435D01*
X91707625Y-63672153D01*
X91706520Y-63658351D01*
X91705115Y-63648012D01*
X91703356Y-63640119D01*
X91701190Y-63633654D01*
X91698564Y-63627600D01*
X91690417Y-63613318D01*
X91672147Y-63591281D01*
X91650316Y-63573058D01*
X91628101Y-63561626D01*
X91616452Y-63559089D01*
X91596329Y-63557251D01*
X91574760Y-63557331D01*
X91546409Y-63561288D01*
X91517360Y-63572722D01*
X91494099Y-63591999D01*
X91475578Y-63619777D01*
X91460260Y-63649716D01*
X91458779Y-63859638D01*
X91457297Y-64069560D01*
X91330720Y-64069560D01*
X91330720Y-63846290D01*
X91330741Y-63820881D01*
X91330995Y-63759996D01*
X91331534Y-63708193D01*
X91332353Y-63665687D01*
X91333446Y-63632693D01*
X91334809Y-63609425D01*
X91336437Y-63596100D01*
X91339218Y-63584565D01*
X91355466Y-63542638D01*
X91379490Y-63505984D01*
X91410142Y-63475399D01*
X91446274Y-63451680D01*
X91486737Y-63435625D01*
X91530384Y-63428031D01*
X91576066Y-63429696D01*
G36*
X90745769Y-63429469D02*
G01*
X90792539Y-63437982D01*
X90834838Y-63452847D01*
X90870980Y-63474118D01*
X90878277Y-63479966D01*
X90902839Y-63505140D01*
X90922750Y-63534071D01*
X90935507Y-63563300D01*
X90935813Y-63564383D01*
X90938785Y-63580711D01*
X90940838Y-63602399D01*
X90941544Y-63625060D01*
X90939744Y-63651856D01*
X90929818Y-63691567D01*
X90911472Y-63725920D01*
X90884991Y-63754441D01*
X90850660Y-63776656D01*
X90841349Y-63781123D01*
X90825877Y-63787610D01*
X90809793Y-63792757D01*
X90791193Y-63796963D01*
X90768171Y-63800627D01*
X90738821Y-63804147D01*
X90701238Y-63807923D01*
X90673709Y-63810721D01*
X90642173Y-63814732D01*
X90618489Y-63819181D01*
X90601305Y-63824523D01*
X90589267Y-63831216D01*
X90581022Y-63839717D01*
X90575218Y-63850483D01*
X90571635Y-63861283D01*
X90570389Y-63885578D01*
X90578511Y-63908048D01*
X90595447Y-63927570D01*
X90620647Y-63943019D01*
X90624563Y-63944730D01*
X90638951Y-63949954D01*
X90653903Y-63953045D01*
X90672609Y-63954485D01*
X90698260Y-63954755D01*
X90702669Y-63954712D01*
X90751848Y-63950833D01*
X90794939Y-63940281D01*
X90833926Y-63922385D01*
X90870797Y-63896476D01*
X90895614Y-63875968D01*
X90937907Y-63918042D01*
X90953887Y-63934225D01*
X90967553Y-63948644D01*
X90976801Y-63959073D01*
X90980200Y-63963963D01*
X90979463Y-63965984D01*
X90972258Y-63973855D01*
X90958885Y-63984899D01*
X90941216Y-63997789D01*
X90921122Y-64011196D01*
X90900473Y-64023794D01*
X90881140Y-64034255D01*
X90878305Y-64035640D01*
X90853126Y-64046702D01*
X90826026Y-64056921D01*
X90802400Y-64064242D01*
X90774460Y-64069789D01*
X90732335Y-64073915D01*
X90687777Y-64074429D01*
X90644758Y-64071323D01*
X90607255Y-64064591D01*
X90569497Y-64052478D01*
X90527805Y-64031556D01*
X90494069Y-64004882D01*
X90468565Y-63972744D01*
X90451569Y-63935433D01*
X90443357Y-63893235D01*
X90443141Y-63862716D01*
X90449763Y-63822847D01*
X90463562Y-63785958D01*
X90483735Y-63754048D01*
X90509476Y-63729113D01*
X90527784Y-63717730D01*
X90553114Y-63707107D01*
X90584241Y-63698880D01*
X90622590Y-63692683D01*
X90669589Y-63688152D01*
X90686811Y-63686837D01*
X90719555Y-63683903D01*
X90744476Y-63680758D01*
X90763193Y-63677032D01*
X90777329Y-63672354D01*
X90788503Y-63666350D01*
X90798336Y-63658652D01*
X90799526Y-63657579D01*
X90808935Y-63647295D01*
X90813072Y-63636359D01*
X90813826Y-63620072D01*
X90811374Y-63599974D01*
X90803791Y-63582421D01*
X90785344Y-63565334D01*
X90759813Y-63553740D01*
X90728763Y-63547759D01*
X90693682Y-63547406D01*
X90656057Y-63552694D01*
X90617378Y-63563638D01*
X90579132Y-63580253D01*
X90535700Y-63602765D01*
X90511138Y-63575812D01*
X90497974Y-63561104D01*
X90483101Y-63543960D01*
X90471679Y-63530236D01*
X90456783Y-63511613D01*
X90495152Y-63485950D01*
X90503888Y-63480338D01*
X90547714Y-63457883D01*
X90595502Y-63441516D01*
X90645565Y-63431290D01*
X90696216Y-63427256D01*
X90745769Y-63429469D01*
G37*
X90745769Y-63429469D02*
X90792539Y-63437982D01*
X90834838Y-63452847D01*
X90870980Y-63474118D01*
X90878277Y-63479966D01*
X90902839Y-63505140D01*
X90922750Y-63534071D01*
X90935507Y-63563300D01*
X90935813Y-63564383D01*
X90938785Y-63580711D01*
X90940838Y-63602399D01*
X90941544Y-63625060D01*
X90939744Y-63651856D01*
X90929818Y-63691567D01*
X90911472Y-63725920D01*
X90884991Y-63754441D01*
X90850660Y-63776656D01*
X90841349Y-63781123D01*
X90825877Y-63787610D01*
X90809793Y-63792757D01*
X90791193Y-63796963D01*
X90768171Y-63800627D01*
X90738821Y-63804147D01*
X90701238Y-63807923D01*
X90673709Y-63810721D01*
X90642173Y-63814732D01*
X90618489Y-63819181D01*
X90601305Y-63824523D01*
X90589267Y-63831216D01*
X90581022Y-63839717D01*
X90575218Y-63850483D01*
X90571635Y-63861283D01*
X90570389Y-63885578D01*
X90578511Y-63908048D01*
X90595447Y-63927570D01*
X90620647Y-63943019D01*
X90624563Y-63944730D01*
X90638951Y-63949954D01*
X90653903Y-63953045D01*
X90672609Y-63954485D01*
X90698260Y-63954755D01*
X90702669Y-63954712D01*
X90751848Y-63950833D01*
X90794939Y-63940281D01*
X90833926Y-63922385D01*
X90870797Y-63896476D01*
X90895614Y-63875968D01*
X90937907Y-63918042D01*
X90953887Y-63934225D01*
X90967553Y-63948644D01*
X90976801Y-63959073D01*
X90980200Y-63963963D01*
X90979463Y-63965984D01*
X90972258Y-63973855D01*
X90958885Y-63984899D01*
X90941216Y-63997789D01*
X90921122Y-64011196D01*
X90900473Y-64023794D01*
X90881140Y-64034255D01*
X90878305Y-64035640D01*
X90853126Y-64046702D01*
X90826026Y-64056921D01*
X90802400Y-64064242D01*
X90774460Y-64069789D01*
X90732335Y-64073915D01*
X90687777Y-64074429D01*
X90644758Y-64071323D01*
X90607255Y-64064591D01*
X90569497Y-64052478D01*
X90527805Y-64031556D01*
X90494069Y-64004882D01*
X90468565Y-63972744D01*
X90451569Y-63935433D01*
X90443357Y-63893235D01*
X90443141Y-63862716D01*
X90449763Y-63822847D01*
X90463562Y-63785958D01*
X90483735Y-63754048D01*
X90509476Y-63729113D01*
X90527784Y-63717730D01*
X90553114Y-63707107D01*
X90584241Y-63698880D01*
X90622590Y-63692683D01*
X90669589Y-63688152D01*
X90686811Y-63686837D01*
X90719555Y-63683903D01*
X90744476Y-63680758D01*
X90763193Y-63677032D01*
X90777329Y-63672354D01*
X90788503Y-63666350D01*
X90798336Y-63658652D01*
X90799526Y-63657579D01*
X90808935Y-63647295D01*
X90813072Y-63636359D01*
X90813826Y-63620072D01*
X90811374Y-63599974D01*
X90803791Y-63582421D01*
X90785344Y-63565334D01*
X90759813Y-63553740D01*
X90728763Y-63547759D01*
X90693682Y-63547406D01*
X90656057Y-63552694D01*
X90617378Y-63563638D01*
X90579132Y-63580253D01*
X90535700Y-63602765D01*
X90511138Y-63575812D01*
X90497974Y-63561104D01*
X90483101Y-63543960D01*
X90471679Y-63530236D01*
X90456783Y-63511613D01*
X90495152Y-63485950D01*
X90503888Y-63480338D01*
X90547714Y-63457883D01*
X90595502Y-63441516D01*
X90645565Y-63431290D01*
X90696216Y-63427256D01*
X90745769Y-63429469D01*
G36*
X92465801Y-64912506D02*
G01*
X92456796Y-64950521D01*
X92439625Y-64986334D01*
X92414046Y-65018501D01*
X92395331Y-65034088D01*
X92366935Y-65051628D01*
X92335682Y-65066062D01*
X92305530Y-65075315D01*
X92296538Y-65076624D01*
X92276988Y-65078015D01*
X92252824Y-65078658D01*
X92227340Y-65078422D01*
X92212703Y-65077805D01*
X92175318Y-65073710D01*
X92145580Y-65065826D01*
X92121978Y-65053645D01*
X92102999Y-65036658D01*
X92098580Y-65031755D01*
X92089925Y-65022991D01*
X92085256Y-65019520D01*
X92084140Y-65022057D01*
X92083001Y-65032262D01*
X92082560Y-65047616D01*
X92082560Y-65075712D01*
X91958100Y-65072860D01*
X91958105Y-64806160D01*
X92081057Y-64806160D01*
X92084033Y-64852094D01*
X92084673Y-64860753D01*
X92089038Y-64892444D01*
X92096482Y-64916138D01*
X92107655Y-64933381D01*
X92123200Y-64945718D01*
X92123457Y-64945866D01*
X92132549Y-64950242D01*
X92143336Y-64953268D01*
X92157932Y-64955233D01*
X92178455Y-64956426D01*
X92207020Y-64957134D01*
X92223316Y-64957328D01*
X92251719Y-64956928D01*
X92273179Y-64955099D01*
X92289866Y-64951449D01*
X92303946Y-64945585D01*
X92317587Y-64937115D01*
X92319720Y-64935562D01*
X92336495Y-64917310D01*
X92345252Y-64895525D01*
X92346223Y-64872361D01*
X92339636Y-64849971D01*
X92325720Y-64830512D01*
X92304706Y-64816136D01*
X92299641Y-64813995D01*
X92290604Y-64811129D01*
X92279508Y-64809068D01*
X92264734Y-64807682D01*
X92244661Y-64806841D01*
X92217669Y-64806414D01*
X92182139Y-64806271D01*
X92081057Y-64806160D01*
X91958105Y-64806160D01*
X91958110Y-64585180D01*
X91970279Y-64554956D01*
X91974255Y-64545988D01*
X91994258Y-64514027D01*
X92020681Y-64485821D01*
X92050688Y-64464559D01*
X92076290Y-64452419D01*
X92103571Y-64443483D01*
X92134257Y-64437589D01*
X92170547Y-64434315D01*
X92214640Y-64433242D01*
X92242047Y-64433408D01*
X92272329Y-64434605D01*
X92296748Y-64437323D01*
X92317762Y-64441998D01*
X92337833Y-64449068D01*
X92359420Y-64458969D01*
X92360258Y-64459392D01*
X92373566Y-64467529D01*
X92389267Y-64479005D01*
X92405216Y-64491991D01*
X92419265Y-64504658D01*
X92429269Y-64515177D01*
X92433080Y-64521721D01*
X92433078Y-64521755D01*
X92429081Y-64525946D01*
X92418568Y-64534904D01*
X92403108Y-64547336D01*
X92384272Y-64561948D01*
X92335464Y-64599211D01*
X92324582Y-64586280D01*
X92315470Y-64576518D01*
X92303229Y-64567284D01*
X92288402Y-64561003D01*
X92269103Y-64557156D01*
X92243451Y-64555227D01*
X92209560Y-64554700D01*
X92199181Y-64554716D01*
X92173299Y-64555045D01*
X92154860Y-64555982D01*
X92141816Y-64557768D01*
X92132123Y-64560647D01*
X92123732Y-64564860D01*
X92109557Y-64574312D01*
X92097619Y-64586473D01*
X92090005Y-64601818D01*
X92085643Y-64622652D01*
X92083457Y-64651281D01*
X92081349Y-64699480D01*
X92189905Y-64699604D01*
X92200571Y-64699625D01*
X92240368Y-64699969D01*
X92272008Y-64700865D01*
X92297110Y-64702504D01*
X92317295Y-64705081D01*
X92334182Y-64708785D01*
X92349391Y-64713812D01*
X92364540Y-64720351D01*
X92396713Y-64739961D01*
X92424945Y-64767318D01*
X92446211Y-64799695D01*
X92460268Y-64835648D01*
X92466640Y-64872361D01*
X92466878Y-64873734D01*
X92465801Y-64912506D01*
G37*
X92465801Y-64912506D02*
X92456796Y-64950521D01*
X92439625Y-64986334D01*
X92414046Y-65018501D01*
X92395331Y-65034088D01*
X92366935Y-65051628D01*
X92335682Y-65066062D01*
X92305530Y-65075315D01*
X92296538Y-65076624D01*
X92276988Y-65078015D01*
X92252824Y-65078658D01*
X92227340Y-65078422D01*
X92212703Y-65077805D01*
X92175318Y-65073710D01*
X92145580Y-65065826D01*
X92121978Y-65053645D01*
X92102999Y-65036658D01*
X92098580Y-65031755D01*
X92089925Y-65022991D01*
X92085256Y-65019520D01*
X92084140Y-65022057D01*
X92083001Y-65032262D01*
X92082560Y-65047616D01*
X92082560Y-65075712D01*
X91958100Y-65072860D01*
X91958105Y-64806160D01*
X92081057Y-64806160D01*
X92084033Y-64852094D01*
X92084673Y-64860753D01*
X92089038Y-64892444D01*
X92096482Y-64916138D01*
X92107655Y-64933381D01*
X92123200Y-64945718D01*
X92123457Y-64945866D01*
X92132549Y-64950242D01*
X92143336Y-64953268D01*
X92157932Y-64955233D01*
X92178455Y-64956426D01*
X92207020Y-64957134D01*
X92223316Y-64957328D01*
X92251719Y-64956928D01*
X92273179Y-64955099D01*
X92289866Y-64951449D01*
X92303946Y-64945585D01*
X92317587Y-64937115D01*
X92319720Y-64935562D01*
X92336495Y-64917310D01*
X92345252Y-64895525D01*
X92346223Y-64872361D01*
X92339636Y-64849971D01*
X92325720Y-64830512D01*
X92304706Y-64816136D01*
X92299641Y-64813995D01*
X92290604Y-64811129D01*
X92279508Y-64809068D01*
X92264734Y-64807682D01*
X92244661Y-64806841D01*
X92217669Y-64806414D01*
X92182139Y-64806271D01*
X92081057Y-64806160D01*
X91958105Y-64806160D01*
X91958110Y-64585180D01*
X91970279Y-64554956D01*
X91974255Y-64545988D01*
X91994258Y-64514027D01*
X92020681Y-64485821D01*
X92050688Y-64464559D01*
X92076290Y-64452419D01*
X92103571Y-64443483D01*
X92134257Y-64437589D01*
X92170547Y-64434315D01*
X92214640Y-64433242D01*
X92242047Y-64433408D01*
X92272329Y-64434605D01*
X92296748Y-64437323D01*
X92317762Y-64441998D01*
X92337833Y-64449068D01*
X92359420Y-64458969D01*
X92360258Y-64459392D01*
X92373566Y-64467529D01*
X92389267Y-64479005D01*
X92405216Y-64491991D01*
X92419265Y-64504658D01*
X92429269Y-64515177D01*
X92433080Y-64521721D01*
X92433078Y-64521755D01*
X92429081Y-64525946D01*
X92418568Y-64534904D01*
X92403108Y-64547336D01*
X92384272Y-64561948D01*
X92335464Y-64599211D01*
X92324582Y-64586280D01*
X92315470Y-64576518D01*
X92303229Y-64567284D01*
X92288402Y-64561003D01*
X92269103Y-64557156D01*
X92243451Y-64555227D01*
X92209560Y-64554700D01*
X92199181Y-64554716D01*
X92173299Y-64555045D01*
X92154860Y-64555982D01*
X92141816Y-64557768D01*
X92132123Y-64560647D01*
X92123732Y-64564860D01*
X92109557Y-64574312D01*
X92097619Y-64586473D01*
X92090005Y-64601818D01*
X92085643Y-64622652D01*
X92083457Y-64651281D01*
X92081349Y-64699480D01*
X92189905Y-64699604D01*
X92200571Y-64699625D01*
X92240368Y-64699969D01*
X92272008Y-64700865D01*
X92297110Y-64702504D01*
X92317295Y-64705081D01*
X92334182Y-64708785D01*
X92349391Y-64713812D01*
X92364540Y-64720351D01*
X92396713Y-64739961D01*
X92424945Y-64767318D01*
X92446211Y-64799695D01*
X92460268Y-64835648D01*
X92466640Y-64872361D01*
X92466878Y-64873734D01*
X92465801Y-64912506D01*
G36*
X88835313Y-63431915D02*
G01*
X88874664Y-63443051D01*
X88910229Y-63460128D01*
X88939310Y-63482351D01*
X88958360Y-63501089D01*
X88958360Y-63434560D01*
X89090440Y-63434560D01*
X89090440Y-64069560D01*
X88958360Y-64069560D01*
X88958360Y-63858662D01*
X88958220Y-63809891D01*
X88957853Y-63765183D01*
X88957281Y-63725557D01*
X88956527Y-63692026D01*
X88955614Y-63665607D01*
X88954563Y-63647316D01*
X88953398Y-63638168D01*
X88945182Y-63617686D01*
X88926844Y-63592471D01*
X88902428Y-63573319D01*
X88873574Y-63560863D01*
X88841926Y-63555739D01*
X88809125Y-63558578D01*
X88776813Y-63570016D01*
X88764737Y-63575823D01*
X88753480Y-63580478D01*
X88748550Y-63581446D01*
X88748395Y-63581244D01*
X88743883Y-63575786D01*
X88734281Y-63564326D01*
X88720873Y-63548395D01*
X88704947Y-63529523D01*
X88703141Y-63527377D01*
X88687563Y-63508053D01*
X88675338Y-63491441D01*
X88667599Y-63479169D01*
X88665480Y-63472862D01*
X88670631Y-63467160D01*
X88683578Y-63458832D01*
X88701588Y-63449791D01*
X88722134Y-63441178D01*
X88742688Y-63434137D01*
X88760722Y-63429809D01*
X88794875Y-63427513D01*
X88835313Y-63431915D01*
G37*
X88835313Y-63431915D02*
X88874664Y-63443051D01*
X88910229Y-63460128D01*
X88939310Y-63482351D01*
X88958360Y-63501089D01*
X88958360Y-63434560D01*
X89090440Y-63434560D01*
X89090440Y-64069560D01*
X88958360Y-64069560D01*
X88958360Y-63858662D01*
X88958220Y-63809891D01*
X88957853Y-63765183D01*
X88957281Y-63725557D01*
X88956527Y-63692026D01*
X88955614Y-63665607D01*
X88954563Y-63647316D01*
X88953398Y-63638168D01*
X88945182Y-63617686D01*
X88926844Y-63592471D01*
X88902428Y-63573319D01*
X88873574Y-63560863D01*
X88841926Y-63555739D01*
X88809125Y-63558578D01*
X88776813Y-63570016D01*
X88764737Y-63575823D01*
X88753480Y-63580478D01*
X88748550Y-63581446D01*
X88748395Y-63581244D01*
X88743883Y-63575786D01*
X88734281Y-63564326D01*
X88720873Y-63548395D01*
X88704947Y-63529523D01*
X88703141Y-63527377D01*
X88687563Y-63508053D01*
X88675338Y-63491441D01*
X88667599Y-63479169D01*
X88665480Y-63472862D01*
X88670631Y-63467160D01*
X88683578Y-63458832D01*
X88701588Y-63449791D01*
X88722134Y-63441178D01*
X88742688Y-63434137D01*
X88760722Y-63429809D01*
X88794875Y-63427513D01*
X88835313Y-63431915D01*
G36*
X91580037Y-64438791D02*
G01*
X91621438Y-64454793D01*
X91658844Y-64479096D01*
X91686320Y-64501476D01*
X91686320Y-64440400D01*
X91813320Y-64440400D01*
X91813320Y-65075712D01*
X91688860Y-65072860D01*
X91683780Y-64641060D01*
X91669633Y-64616992D01*
X91650899Y-64592623D01*
X91624462Y-64573426D01*
X91591241Y-64561629D01*
X91584016Y-64560262D01*
X91553191Y-64559263D01*
X91523395Y-64565251D01*
X91498313Y-64577593D01*
X91496965Y-64578544D01*
X91486907Y-64585055D01*
X91481244Y-64587720D01*
X91480537Y-64587297D01*
X91474557Y-64581328D01*
X91463773Y-64569399D01*
X91449438Y-64552915D01*
X91432803Y-64533284D01*
X91387210Y-64478849D01*
X91408495Y-64464591D01*
X91422416Y-64456726D01*
X91443284Y-64447328D01*
X91464699Y-64439601D01*
X91492854Y-64433238D01*
X91536543Y-64431477D01*
X91580037Y-64438791D01*
G37*
X91580037Y-64438791D02*
X91621438Y-64454793D01*
X91658844Y-64479096D01*
X91686320Y-64501476D01*
X91686320Y-64440400D01*
X91813320Y-64440400D01*
X91813320Y-65075712D01*
X91688860Y-65072860D01*
X91683780Y-64641060D01*
X91669633Y-64616992D01*
X91650899Y-64592623D01*
X91624462Y-64573426D01*
X91591241Y-64561629D01*
X91584016Y-64560262D01*
X91553191Y-64559263D01*
X91523395Y-64565251D01*
X91498313Y-64577593D01*
X91496965Y-64578544D01*
X91486907Y-64585055D01*
X91481244Y-64587720D01*
X91480537Y-64587297D01*
X91474557Y-64581328D01*
X91463773Y-64569399D01*
X91449438Y-64552915D01*
X91432803Y-64533284D01*
X91387210Y-64478849D01*
X91408495Y-64464591D01*
X91422416Y-64456726D01*
X91443284Y-64447328D01*
X91464699Y-64439601D01*
X91492854Y-64433238D01*
X91536543Y-64431477D01*
X91580037Y-64438791D01*
G36*
X88122911Y-63744192D02*
G01*
X88122635Y-63781840D01*
X88120985Y-63817361D01*
X88117959Y-63848110D01*
X88113554Y-63871440D01*
X88102750Y-63904850D01*
X88080013Y-63952579D01*
X88050875Y-63993033D01*
X88015727Y-64025795D01*
X87974964Y-64050449D01*
X87928979Y-64066580D01*
X87920291Y-64068420D01*
X87890592Y-64072242D01*
X87856373Y-64073970D01*
X87821250Y-64073603D01*
X87788839Y-64071142D01*
X87762754Y-64066587D01*
X87743543Y-64060758D01*
X87704922Y-64044171D01*
X87669240Y-64022729D01*
X87640089Y-63998428D01*
X87639194Y-63997516D01*
X87627460Y-63985033D01*
X87619698Y-63975775D01*
X87617547Y-63971687D01*
X87619013Y-63970509D01*
X87626797Y-63963982D01*
X87639522Y-63953193D01*
X87655340Y-63939705D01*
X87675591Y-63922319D01*
X87690485Y-63909902D01*
X87700770Y-63902681D01*
X87708141Y-63900071D01*
X87714295Y-63901489D01*
X87720927Y-63906350D01*
X87729733Y-63914068D01*
X87733681Y-63917349D01*
X87766875Y-63938113D01*
X87804826Y-63950448D01*
X87848380Y-63954640D01*
X87879482Y-63952510D01*
X87916039Y-63942575D01*
X87946277Y-63924772D01*
X87969892Y-63899363D01*
X87986581Y-63866612D01*
X87996039Y-63826782D01*
X87999549Y-63800320D01*
X87602000Y-63800320D01*
X87602089Y-63733010D01*
X87602536Y-63707686D01*
X87603242Y-63693640D01*
X87727870Y-63693640D01*
X87999394Y-63693640D01*
X87995857Y-63669510D01*
X87990110Y-63643378D01*
X87975368Y-63609219D01*
X87954153Y-63581889D01*
X87927411Y-63562023D01*
X87896087Y-63550258D01*
X87861129Y-63547230D01*
X87823481Y-63553575D01*
X87809056Y-63558666D01*
X87780707Y-63575705D01*
X87758417Y-63600533D01*
X87741988Y-63633409D01*
X87731224Y-63674590D01*
X87727870Y-63693640D01*
X87603242Y-63693640D01*
X87604039Y-63677774D01*
X87606374Y-63651475D01*
X87609307Y-63632060D01*
X87611579Y-63622232D01*
X87628424Y-63574655D01*
X87653262Y-63532520D01*
X87685204Y-63496537D01*
X87723357Y-63467412D01*
X87766828Y-63445853D01*
X87814727Y-63432568D01*
X87866160Y-63428265D01*
X87915372Y-63432908D01*
X87962281Y-63446515D01*
X88004249Y-63468685D01*
X88040812Y-63499031D01*
X88071503Y-63537161D01*
X88095859Y-63582687D01*
X88113413Y-63635220D01*
X88115505Y-63644957D01*
X88119344Y-63673104D01*
X88120837Y-63693640D01*
X88121813Y-63707065D01*
X88122911Y-63744192D01*
G37*
X88122911Y-63744192D02*
X88122635Y-63781840D01*
X88120985Y-63817361D01*
X88117959Y-63848110D01*
X88113554Y-63871440D01*
X88102750Y-63904850D01*
X88080013Y-63952579D01*
X88050875Y-63993033D01*
X88015727Y-64025795D01*
X87974964Y-64050449D01*
X87928979Y-64066580D01*
X87920291Y-64068420D01*
X87890592Y-64072242D01*
X87856373Y-64073970D01*
X87821250Y-64073603D01*
X87788839Y-64071142D01*
X87762754Y-64066587D01*
X87743543Y-64060758D01*
X87704922Y-64044171D01*
X87669240Y-64022729D01*
X87640089Y-63998428D01*
X87639194Y-63997516D01*
X87627460Y-63985033D01*
X87619698Y-63975775D01*
X87617547Y-63971687D01*
X87619013Y-63970509D01*
X87626797Y-63963982D01*
X87639522Y-63953193D01*
X87655340Y-63939705D01*
X87675591Y-63922319D01*
X87690485Y-63909902D01*
X87700770Y-63902681D01*
X87708141Y-63900071D01*
X87714295Y-63901489D01*
X87720927Y-63906350D01*
X87729733Y-63914068D01*
X87733681Y-63917349D01*
X87766875Y-63938113D01*
X87804826Y-63950448D01*
X87848380Y-63954640D01*
X87879482Y-63952510D01*
X87916039Y-63942575D01*
X87946277Y-63924772D01*
X87969892Y-63899363D01*
X87986581Y-63866612D01*
X87996039Y-63826782D01*
X87999549Y-63800320D01*
X87602000Y-63800320D01*
X87602089Y-63733010D01*
X87602536Y-63707686D01*
X87603242Y-63693640D01*
X87727870Y-63693640D01*
X87999394Y-63693640D01*
X87995857Y-63669510D01*
X87990110Y-63643378D01*
X87975368Y-63609219D01*
X87954153Y-63581889D01*
X87927411Y-63562023D01*
X87896087Y-63550258D01*
X87861129Y-63547230D01*
X87823481Y-63553575D01*
X87809056Y-63558666D01*
X87780707Y-63575705D01*
X87758417Y-63600533D01*
X87741988Y-63633409D01*
X87731224Y-63674590D01*
X87727870Y-63693640D01*
X87603242Y-63693640D01*
X87604039Y-63677774D01*
X87606374Y-63651475D01*
X87609307Y-63632060D01*
X87611579Y-63622232D01*
X87628424Y-63574655D01*
X87653262Y-63532520D01*
X87685204Y-63496537D01*
X87723357Y-63467412D01*
X87766828Y-63445853D01*
X87814727Y-63432568D01*
X87866160Y-63428265D01*
X87915372Y-63432908D01*
X87962281Y-63446515D01*
X88004249Y-63468685D01*
X88040812Y-63499031D01*
X88071503Y-63537161D01*
X88095859Y-63582687D01*
X88113413Y-63635220D01*
X88115505Y-63644957D01*
X88119344Y-63673104D01*
X88120837Y-63693640D01*
X88121813Y-63707065D01*
X88122911Y-63744192D01*
G36*
X90682296Y-58674603D02*
G01*
X90741581Y-58674638D01*
X90791856Y-58674730D01*
X90833892Y-58674900D01*
X90868463Y-58675169D01*
X90896342Y-58675559D01*
X90918302Y-58676092D01*
X90935116Y-58676789D01*
X90947558Y-58677672D01*
X90956401Y-58678762D01*
X90962416Y-58680080D01*
X90966379Y-58681649D01*
X90969061Y-58683490D01*
X90969644Y-58684053D01*
X90972076Y-58687758D01*
X90974778Y-58694318D01*
X90977900Y-58704446D01*
X90981596Y-58718858D01*
X90986016Y-58738268D01*
X90991314Y-58763392D01*
X90997640Y-58794943D01*
X91005147Y-58833636D01*
X91013986Y-58880187D01*
X91024310Y-58935310D01*
X91036271Y-58999720D01*
X91037128Y-59004345D01*
X91047275Y-59058854D01*
X91056973Y-59110458D01*
X91066050Y-59158270D01*
X91074332Y-59201404D01*
X91081648Y-59238974D01*
X91087825Y-59270095D01*
X91092691Y-59293879D01*
X91096073Y-59309442D01*
X91097798Y-59315897D01*
X91098989Y-59318019D01*
X91101256Y-59321010D01*
X91104862Y-59324186D01*
X91110616Y-59327913D01*
X91119323Y-59332555D01*
X91131790Y-59338478D01*
X91148824Y-59346047D01*
X91171232Y-59355627D01*
X91199821Y-59367584D01*
X91235397Y-59382282D01*
X91278766Y-59400088D01*
X91330736Y-59421366D01*
X91379289Y-59441071D01*
X91423517Y-59458692D01*
X91462194Y-59473751D01*
X91494559Y-59485961D01*
X91519856Y-59495036D01*
X91537326Y-59500691D01*
X91546211Y-59502639D01*
X91550137Y-59502024D01*
X91556977Y-59499475D01*
X91566744Y-59494586D01*
X91580041Y-59486969D01*
X91597466Y-59476239D01*
X91619621Y-59462009D01*
X91647104Y-59443893D01*
X91680516Y-59421505D01*
X91720457Y-59394457D01*
X91767527Y-59362364D01*
X91822326Y-59324839D01*
X91845164Y-59309199D01*
X91897429Y-59273592D01*
X91944524Y-59241780D01*
X91986001Y-59214056D01*
X92021412Y-59190713D01*
X92050309Y-59172047D01*
X92072244Y-59158350D01*
X92086769Y-59149916D01*
X92093435Y-59147039D01*
X92095037Y-59147421D01*
X92101218Y-59151155D01*
X92111322Y-59159175D01*
X92125744Y-59171856D01*
X92144879Y-59189574D01*
X92169121Y-59212701D01*
X92198865Y-59241615D01*
X92234508Y-59276688D01*
X92276443Y-59318297D01*
X92325065Y-59366815D01*
X92367277Y-59409080D01*
X92407601Y-59449604D01*
X92441609Y-59483991D01*
X92469788Y-59512760D01*
X92492628Y-59536429D01*
X92510615Y-59555516D01*
X92524237Y-59570539D01*
X92533983Y-59582018D01*
X92540340Y-59590471D01*
X92543797Y-59596417D01*
X92544840Y-59600373D01*
X92544048Y-59603555D01*
X92539352Y-59613284D01*
X92530249Y-59628987D01*
X92516526Y-59650990D01*
X92497969Y-59679623D01*
X92474364Y-59715213D01*
X92445498Y-59758089D01*
X92411156Y-59808577D01*
X92371126Y-59867008D01*
X92340256Y-59912105D01*
X92310777Y-59955495D01*
X92283530Y-59995920D01*
X92259025Y-60032612D01*
X92237768Y-60064801D01*
X92220268Y-60091718D01*
X92207033Y-60112593D01*
X92198572Y-60126658D01*
X92195391Y-60133142D01*
X92195533Y-60135452D01*
X92198656Y-60146978D01*
X92205300Y-60166108D01*
X92214978Y-60191708D01*
X92227200Y-60222642D01*
X92241480Y-60257776D01*
X92257328Y-60295973D01*
X92274257Y-60336100D01*
X92291779Y-60377021D01*
X92309406Y-60417600D01*
X92326649Y-60456703D01*
X92343021Y-60493194D01*
X92358033Y-60525939D01*
X92371198Y-60553801D01*
X92382027Y-60575646D01*
X92390032Y-60590340D01*
X92394725Y-60596745D01*
X92399542Y-60598440D01*
X92413897Y-60602050D01*
X92436665Y-60607135D01*
X92466960Y-60613518D01*
X92503898Y-60621018D01*
X92546592Y-60629456D01*
X92594159Y-60638654D01*
X92645712Y-60648432D01*
X92700367Y-60658610D01*
X92747282Y-60667333D01*
X92798523Y-60677012D01*
X92846196Y-60686177D01*
X92889381Y-60694642D01*
X92927161Y-60702223D01*
X92958616Y-60708736D01*
X92982828Y-60713996D01*
X92998879Y-60717818D01*
X93005850Y-60720018D01*
X93017280Y-60727154D01*
X93017280Y-61041634D01*
X93017260Y-61104764D01*
X93017184Y-61160596D01*
X93017034Y-61207738D01*
X93016791Y-61246936D01*
X93016438Y-61278937D01*
X93015955Y-61304486D01*
X93015324Y-61324329D01*
X93014526Y-61339214D01*
X93013544Y-61349886D01*
X93012359Y-61357092D01*
X93010952Y-61361577D01*
X93009305Y-61364089D01*
X93008305Y-61365108D01*
X93005812Y-61367581D01*
X93002884Y-61369666D01*
X92998329Y-61371644D01*
X92990953Y-61373799D01*
X92979561Y-61376415D01*
X92962960Y-61379775D01*
X92939955Y-61384162D01*
X92909353Y-61389859D01*
X92869960Y-61397150D01*
X92860595Y-61398885D01*
X92782812Y-61413307D01*
X92714377Y-61426035D01*
X92654708Y-61437181D01*
X92603223Y-61446861D01*
X92559339Y-61455187D01*
X92522474Y-61462274D01*
X92492047Y-61468236D01*
X92467475Y-61473186D01*
X92448177Y-61477238D01*
X92433569Y-61480507D01*
X92423071Y-61483106D01*
X92416099Y-61485149D01*
X92412072Y-61486750D01*
X92410806Y-61487513D01*
X92407155Y-61490933D01*
X92402837Y-61496975D01*
X92397513Y-61506399D01*
X92390846Y-61519965D01*
X92382501Y-61538433D01*
X92372139Y-61562563D01*
X92359423Y-61593114D01*
X92344017Y-61630847D01*
X92325583Y-61676522D01*
X92303785Y-61730898D01*
X92297951Y-61745495D01*
X92275547Y-61801870D01*
X92256851Y-61849510D01*
X92241673Y-61888928D01*
X92229827Y-61920633D01*
X92221125Y-61945137D01*
X92215378Y-61962951D01*
X92212400Y-61974585D01*
X92212001Y-61980551D01*
X92214069Y-61984669D01*
X92221489Y-61996865D01*
X92233765Y-62016029D01*
X92250371Y-62041372D01*
X92270783Y-62072105D01*
X92294474Y-62107437D01*
X92320920Y-62146579D01*
X92349597Y-62188743D01*
X92379978Y-62233137D01*
X92412621Y-62280852D01*
X92446419Y-62330668D01*
X92475603Y-62374170D01*
X92499959Y-62411031D01*
X92519275Y-62440924D01*
X92533336Y-62463522D01*
X92541929Y-62478499D01*
X92544840Y-62485527D01*
X92543987Y-62488329D01*
X92539705Y-62495013D01*
X92531447Y-62505303D01*
X92518801Y-62519633D01*
X92501354Y-62538441D01*
X92478694Y-62562161D01*
X92450409Y-62591229D01*
X92416084Y-62626081D01*
X92375309Y-62667152D01*
X92327670Y-62714879D01*
X92327467Y-62715083D01*
X92288468Y-62754030D01*
X92251472Y-62790889D01*
X92217125Y-62825022D01*
X92186074Y-62855791D01*
X92158965Y-62882557D01*
X92136445Y-62904682D01*
X92119160Y-62921528D01*
X92107756Y-62932457D01*
X92102880Y-62936830D01*
X92098566Y-62939129D01*
X92089561Y-62941722D01*
X92088423Y-62941429D01*
X92084195Y-62939305D01*
X92076735Y-62934861D01*
X92065577Y-62927782D01*
X92050256Y-62917755D01*
X92030305Y-62904464D01*
X92005258Y-62887596D01*
X91974650Y-62866836D01*
X91938015Y-62841870D01*
X91894886Y-62812383D01*
X91844798Y-62778061D01*
X91787285Y-62738590D01*
X91721880Y-62693655D01*
X91699112Y-62678115D01*
X91664931Y-62655276D01*
X91636281Y-62636790D01*
X91613828Y-62623073D01*
X91598237Y-62614539D01*
X91590171Y-62611602D01*
X91585282Y-62612855D01*
X91571848Y-62618301D01*
X91551875Y-62627459D01*
X91526743Y-62639672D01*
X91497832Y-62654280D01*
X91466522Y-62670626D01*
X91463528Y-62672213D01*
X91428731Y-62690523D01*
X91401658Y-62704428D01*
X91381225Y-62714403D01*
X91366349Y-62720928D01*
X91355947Y-62724481D01*
X91348935Y-62725538D01*
X91344231Y-62724578D01*
X91343241Y-62723541D01*
X91338195Y-62714637D01*
X91329787Y-62697331D01*
X91318320Y-62672363D01*
X91304102Y-62640471D01*
X91287438Y-62602394D01*
X91268634Y-62558868D01*
X91247995Y-62510634D01*
X91225827Y-62458430D01*
X91202436Y-62402992D01*
X91178128Y-62345062D01*
X91153207Y-62285375D01*
X91127981Y-62224672D01*
X91102754Y-62163689D01*
X91077833Y-62103167D01*
X91053523Y-62043842D01*
X91030130Y-61986454D01*
X91007959Y-61931740D01*
X90987316Y-61880440D01*
X90968508Y-61833291D01*
X90951839Y-61791032D01*
X90937615Y-61754401D01*
X90926143Y-61724137D01*
X90917727Y-61700978D01*
X90912675Y-61685662D01*
X90911290Y-61678928D01*
X90912765Y-61675280D01*
X90922408Y-61663786D01*
X90938402Y-61651971D01*
X90979243Y-61625804D01*
X91046337Y-61576553D01*
X91106606Y-61523943D01*
X91158942Y-61468982D01*
X91202233Y-61412678D01*
X91215874Y-61390753D01*
X91233768Y-61357799D01*
X91251413Y-61321378D01*
X91267143Y-61284958D01*
X91279294Y-61252012D01*
X91287503Y-61224592D01*
X91303227Y-61149209D01*
X91310246Y-61071251D01*
X91308559Y-60992649D01*
X91298169Y-60915334D01*
X91279075Y-60841238D01*
X91256859Y-60782848D01*
X91220432Y-60711605D01*
X91175880Y-60645588D01*
X91123884Y-60585477D01*
X91065124Y-60531950D01*
X91000279Y-60485687D01*
X90930029Y-60447366D01*
X90855053Y-60417666D01*
X90827633Y-60409457D01*
X90752250Y-60393733D01*
X90674292Y-60386714D01*
X90595690Y-60388401D01*
X90518375Y-60398791D01*
X90444279Y-60417885D01*
X90439259Y-60419545D01*
X90364458Y-60449834D01*
X90294766Y-60488529D01*
X90230742Y-60534977D01*
X90172948Y-60588523D01*
X90121945Y-60648511D01*
X90078292Y-60714289D01*
X90042552Y-60785201D01*
X90015285Y-60860592D01*
X89997052Y-60939809D01*
X89995631Y-60948971D01*
X89990977Y-60997742D01*
X89989916Y-61051174D01*
X89992312Y-61105680D01*
X89998031Y-61157673D01*
X90006940Y-61203564D01*
X90022377Y-61256128D01*
X90053404Y-61332276D01*
X90093475Y-61403835D01*
X90142445Y-61470524D01*
X90149085Y-61478404D01*
X90180396Y-61512750D01*
X90214026Y-61544765D01*
X90251763Y-61575948D01*
X90295396Y-61607801D01*
X90346716Y-61641822D01*
X90347597Y-61642387D01*
X90366910Y-61656007D01*
X90380917Y-61668311D01*
X90387742Y-61677659D01*
X90387991Y-61679635D01*
X90387311Y-61684728D01*
X90385215Y-61692859D01*
X90381509Y-61704517D01*
X90376001Y-61720188D01*
X90368499Y-61740359D01*
X90358810Y-61765519D01*
X90346741Y-61796153D01*
X90332100Y-61832751D01*
X90314695Y-61875798D01*
X90294332Y-61925782D01*
X90270821Y-61983191D01*
X90243967Y-62048511D01*
X90213578Y-62122230D01*
X90179462Y-62204835D01*
X90153862Y-62266736D01*
X90121764Y-62344208D01*
X90093167Y-62413027D01*
X90067884Y-62473633D01*
X90045725Y-62526465D01*
X90026501Y-62571964D01*
X90010022Y-62610567D01*
X89996099Y-62642715D01*
X89984544Y-62668847D01*
X89975167Y-62689402D01*
X89967779Y-62704820D01*
X89962190Y-62715541D01*
X89958211Y-62722003D01*
X89955654Y-62724646D01*
X89955155Y-62724861D01*
X89950244Y-62725631D01*
X89942975Y-62724364D01*
X89932259Y-62720580D01*
X89917007Y-62713799D01*
X89896131Y-62703542D01*
X89868540Y-62689328D01*
X89833148Y-62670678D01*
X89809983Y-62658534D01*
X89780297Y-62643393D01*
X89754029Y-62630470D01*
X89732556Y-62620425D01*
X89717255Y-62613916D01*
X89709504Y-62611600D01*
X89703871Y-62613793D01*
X89689926Y-62621642D01*
X89668311Y-62634987D01*
X89639353Y-62653614D01*
X89603376Y-62677311D01*
X89560706Y-62705866D01*
X89511669Y-62739066D01*
X89456591Y-62776700D01*
X89421317Y-62800862D01*
X89379036Y-62829731D01*
X89339821Y-62856405D01*
X89304431Y-62880374D01*
X89273622Y-62901128D01*
X89248150Y-62918157D01*
X89228775Y-62930952D01*
X89216252Y-62939003D01*
X89211338Y-62941800D01*
X89209729Y-62941671D01*
X89204645Y-62940008D01*
X89197762Y-62936032D01*
X89188551Y-62929249D01*
X89176478Y-62919165D01*
X89161014Y-62905284D01*
X89141626Y-62887112D01*
X89117784Y-62864155D01*
X89088957Y-62835919D01*
X89054613Y-62801909D01*
X89014221Y-62761630D01*
X88967250Y-62714588D01*
X88922936Y-62670083D01*
X88884217Y-62631044D01*
X88851725Y-62598071D01*
X88824953Y-62570622D01*
X88803396Y-62548155D01*
X88786546Y-62530127D01*
X88773895Y-62515996D01*
X88764939Y-62505218D01*
X88759168Y-62497253D01*
X88756078Y-62491557D01*
X88755160Y-62487588D01*
X88756264Y-62483325D01*
X88760967Y-62473554D01*
X88769621Y-62458494D01*
X88782503Y-62437718D01*
X88799890Y-62410798D01*
X88822059Y-62377307D01*
X88849286Y-62336818D01*
X88881848Y-62288904D01*
X88920023Y-62233137D01*
X88943197Y-62199299D01*
X88972333Y-62156524D01*
X88999367Y-62116579D01*
X89023773Y-62080253D01*
X89045025Y-62048337D01*
X89062599Y-62021619D01*
X89075969Y-62000889D01*
X89084612Y-61986936D01*
X89088000Y-61980551D01*
X89088130Y-61979610D01*
X89087129Y-61972333D01*
X89083504Y-61959266D01*
X89077067Y-61939898D01*
X89067629Y-61913717D01*
X89055004Y-61880215D01*
X89039003Y-61838879D01*
X89019438Y-61789199D01*
X88996123Y-61730664D01*
X88984314Y-61701158D01*
X88964694Y-61652257D01*
X88948270Y-61611592D01*
X88934686Y-61578375D01*
X88923583Y-61551815D01*
X88914603Y-61531122D01*
X88907390Y-61515507D01*
X88901585Y-61504180D01*
X88896831Y-61496351D01*
X88892770Y-61491230D01*
X88889044Y-61488028D01*
X88885295Y-61485954D01*
X88882111Y-61484912D01*
X88869118Y-61481723D01*
X88847639Y-61477023D01*
X88818650Y-61471006D01*
X88783125Y-61463866D01*
X88742037Y-61455799D01*
X88696361Y-61446998D01*
X88647071Y-61437660D01*
X88595140Y-61427977D01*
X88565305Y-61422455D01*
X88515046Y-61413139D01*
X88468117Y-61404422D01*
X88425468Y-61396481D01*
X88388052Y-61389494D01*
X88356819Y-61383640D01*
X88332723Y-61379097D01*
X88316715Y-61376041D01*
X88309746Y-61374651D01*
X88306953Y-61374034D01*
X88301917Y-61372876D01*
X88297630Y-61371215D01*
X88294033Y-61368308D01*
X88291065Y-61363411D01*
X88288666Y-61355783D01*
X88286775Y-61344680D01*
X88285333Y-61329360D01*
X88284278Y-61309079D01*
X88283551Y-61283096D01*
X88283091Y-61250666D01*
X88282839Y-61211048D01*
X88282733Y-61163499D01*
X88282714Y-61107275D01*
X88282720Y-61041634D01*
X88282720Y-60727154D01*
X88294150Y-60720000D01*
X88299794Y-60718147D01*
X88314808Y-60714497D01*
X88338093Y-60709381D01*
X88368732Y-60702985D01*
X88405808Y-60695492D01*
X88448403Y-60687090D01*
X88495600Y-60677961D01*
X88546481Y-60668292D01*
X88600129Y-60658268D01*
X88647551Y-60649413D01*
X88698787Y-60639688D01*
X88746438Y-60630479D01*
X88789588Y-60621970D01*
X88827322Y-60614347D01*
X88858724Y-60607795D01*
X88882876Y-60602500D01*
X88898864Y-60598647D01*
X88905770Y-60596421D01*
X88907321Y-60594838D01*
X88913567Y-60584797D01*
X88922885Y-60566927D01*
X88934787Y-60542365D01*
X88948788Y-60512252D01*
X88964404Y-60477724D01*
X88981148Y-60439921D01*
X88998534Y-60399980D01*
X89016078Y-60359039D01*
X89033293Y-60318238D01*
X89049694Y-60278714D01*
X89064796Y-60241605D01*
X89078113Y-60208051D01*
X89089159Y-60179189D01*
X89097449Y-60156157D01*
X89102497Y-60140094D01*
X89103818Y-60132138D01*
X89100687Y-60125824D01*
X89092251Y-60111825D01*
X89079036Y-60090998D01*
X89061555Y-60064118D01*
X89040319Y-60031961D01*
X89015840Y-59995301D01*
X88988631Y-59954914D01*
X88959203Y-59911574D01*
X88928068Y-59866058D01*
X88902907Y-59829346D01*
X88866517Y-59775969D01*
X88835679Y-59730328D01*
X88810177Y-59692092D01*
X88789796Y-59660931D01*
X88774319Y-59636511D01*
X88763532Y-59618503D01*
X88757217Y-59606574D01*
X88755160Y-59600392D01*
X88756022Y-59596849D01*
X88759236Y-59591108D01*
X88765298Y-59582915D01*
X88774696Y-59571752D01*
X88787919Y-59557098D01*
X88805456Y-59538435D01*
X88827795Y-59515244D01*
X88855423Y-59487006D01*
X88888831Y-59453201D01*
X88928506Y-59413310D01*
X88974936Y-59366815D01*
X88995781Y-59345987D01*
X89041680Y-59300284D01*
X89081048Y-59261344D01*
X89114274Y-59228797D01*
X89141751Y-59202273D01*
X89163867Y-59181402D01*
X89181012Y-59165813D01*
X89193577Y-59155136D01*
X89201952Y-59149002D01*
X89206527Y-59147040D01*
X89207110Y-59147077D01*
X89216432Y-59150467D01*
X89231766Y-59158564D01*
X89251120Y-59170240D01*
X89272501Y-59184368D01*
X89287357Y-59194596D01*
X89311211Y-59210995D01*
X89340677Y-59231238D01*
X89374592Y-59254524D01*
X89411788Y-59280055D01*
X89451101Y-59307029D01*
X89491364Y-59334649D01*
X89531412Y-59362114D01*
X89570079Y-59388625D01*
X89606200Y-59413382D01*
X89638608Y-59435586D01*
X89666138Y-59454436D01*
X89687625Y-59469135D01*
X89701901Y-59478882D01*
X89718126Y-59489288D01*
X89738275Y-59499380D01*
X89753379Y-59502640D01*
X89754560Y-59502475D01*
X89764251Y-59499573D01*
X89781803Y-59493412D01*
X89806030Y-59484464D01*
X89835745Y-59473199D01*
X89869763Y-59460087D01*
X89906897Y-59445601D01*
X89945961Y-59430210D01*
X89985769Y-59414386D01*
X90025136Y-59398599D01*
X90062875Y-59383321D01*
X90097800Y-59369021D01*
X90128725Y-59356172D01*
X90154465Y-59345244D01*
X90173832Y-59336707D01*
X90185641Y-59331032D01*
X90193188Y-59325153D01*
X90201831Y-59313803D01*
X90201870Y-59313723D01*
X90203920Y-59306389D01*
X90207603Y-59289992D01*
X90212743Y-59265433D01*
X90219161Y-59233614D01*
X90226679Y-59195437D01*
X90235120Y-59151803D01*
X90244307Y-59103614D01*
X90254062Y-59051772D01*
X90264206Y-58997180D01*
X90267572Y-58978967D01*
X90278979Y-58917493D01*
X90288795Y-58865104D01*
X90297175Y-58821081D01*
X90304271Y-58784702D01*
X90310236Y-58755245D01*
X90315224Y-58731990D01*
X90319388Y-58714215D01*
X90322881Y-58701198D01*
X90325857Y-58692220D01*
X90328469Y-58686557D01*
X90330870Y-58683489D01*
X90332066Y-58682562D01*
X90335287Y-58680856D01*
X90340161Y-58679411D01*
X90347463Y-58678206D01*
X90357966Y-58677219D01*
X90372443Y-58676429D01*
X90391666Y-58675815D01*
X90416410Y-58675354D01*
X90447448Y-58675025D01*
X90485553Y-58674806D01*
X90531497Y-58674677D01*
X90586056Y-58674615D01*
X90650001Y-58674600D01*
X90682296Y-58674603D01*
G37*
X90682296Y-58674603D02*
X90741581Y-58674638D01*
X90791856Y-58674730D01*
X90833892Y-58674900D01*
X90868463Y-58675169D01*
X90896342Y-58675559D01*
X90918302Y-58676092D01*
X90935116Y-58676789D01*
X90947558Y-58677672D01*
X90956401Y-58678762D01*
X90962416Y-58680080D01*
X90966379Y-58681649D01*
X90969061Y-58683490D01*
X90969644Y-58684053D01*
X90972076Y-58687758D01*
X90974778Y-58694318D01*
X90977900Y-58704446D01*
X90981596Y-58718858D01*
X90986016Y-58738268D01*
X90991314Y-58763392D01*
X90997640Y-58794943D01*
X91005147Y-58833636D01*
X91013986Y-58880187D01*
X91024310Y-58935310D01*
X91036271Y-58999720D01*
X91037128Y-59004345D01*
X91047275Y-59058854D01*
X91056973Y-59110458D01*
X91066050Y-59158270D01*
X91074332Y-59201404D01*
X91081648Y-59238974D01*
X91087825Y-59270095D01*
X91092691Y-59293879D01*
X91096073Y-59309442D01*
X91097798Y-59315897D01*
X91098989Y-59318019D01*
X91101256Y-59321010D01*
X91104862Y-59324186D01*
X91110616Y-59327913D01*
X91119323Y-59332555D01*
X91131790Y-59338478D01*
X91148824Y-59346047D01*
X91171232Y-59355627D01*
X91199821Y-59367584D01*
X91235397Y-59382282D01*
X91278766Y-59400088D01*
X91330736Y-59421366D01*
X91379289Y-59441071D01*
X91423517Y-59458692D01*
X91462194Y-59473751D01*
X91494559Y-59485961D01*
X91519856Y-59495036D01*
X91537326Y-59500691D01*
X91546211Y-59502639D01*
X91550137Y-59502024D01*
X91556977Y-59499475D01*
X91566744Y-59494586D01*
X91580041Y-59486969D01*
X91597466Y-59476239D01*
X91619621Y-59462009D01*
X91647104Y-59443893D01*
X91680516Y-59421505D01*
X91720457Y-59394457D01*
X91767527Y-59362364D01*
X91822326Y-59324839D01*
X91845164Y-59309199D01*
X91897429Y-59273592D01*
X91944524Y-59241780D01*
X91986001Y-59214056D01*
X92021412Y-59190713D01*
X92050309Y-59172047D01*
X92072244Y-59158350D01*
X92086769Y-59149916D01*
X92093435Y-59147039D01*
X92095037Y-59147421D01*
X92101218Y-59151155D01*
X92111322Y-59159175D01*
X92125744Y-59171856D01*
X92144879Y-59189574D01*
X92169121Y-59212701D01*
X92198865Y-59241615D01*
X92234508Y-59276688D01*
X92276443Y-59318297D01*
X92325065Y-59366815D01*
X92367277Y-59409080D01*
X92407601Y-59449604D01*
X92441609Y-59483991D01*
X92469788Y-59512760D01*
X92492628Y-59536429D01*
X92510615Y-59555516D01*
X92524237Y-59570539D01*
X92533983Y-59582018D01*
X92540340Y-59590471D01*
X92543797Y-59596417D01*
X92544840Y-59600373D01*
X92544048Y-59603555D01*
X92539352Y-59613284D01*
X92530249Y-59628987D01*
X92516526Y-59650990D01*
X92497969Y-59679623D01*
X92474364Y-59715213D01*
X92445498Y-59758089D01*
X92411156Y-59808577D01*
X92371126Y-59867008D01*
X92340256Y-59912105D01*
X92310777Y-59955495D01*
X92283530Y-59995920D01*
X92259025Y-60032612D01*
X92237768Y-60064801D01*
X92220268Y-60091718D01*
X92207033Y-60112593D01*
X92198572Y-60126658D01*
X92195391Y-60133142D01*
X92195533Y-60135452D01*
X92198656Y-60146978D01*
X92205300Y-60166108D01*
X92214978Y-60191708D01*
X92227200Y-60222642D01*
X92241480Y-60257776D01*
X92257328Y-60295973D01*
X92274257Y-60336100D01*
X92291779Y-60377021D01*
X92309406Y-60417600D01*
X92326649Y-60456703D01*
X92343021Y-60493194D01*
X92358033Y-60525939D01*
X92371198Y-60553801D01*
X92382027Y-60575646D01*
X92390032Y-60590340D01*
X92394725Y-60596745D01*
X92399542Y-60598440D01*
X92413897Y-60602050D01*
X92436665Y-60607135D01*
X92466960Y-60613518D01*
X92503898Y-60621018D01*
X92546592Y-60629456D01*
X92594159Y-60638654D01*
X92645712Y-60648432D01*
X92700367Y-60658610D01*
X92747282Y-60667333D01*
X92798523Y-60677012D01*
X92846196Y-60686177D01*
X92889381Y-60694642D01*
X92927161Y-60702223D01*
X92958616Y-60708736D01*
X92982828Y-60713996D01*
X92998879Y-60717818D01*
X93005850Y-60720018D01*
X93017280Y-60727154D01*
X93017280Y-61041634D01*
X93017260Y-61104764D01*
X93017184Y-61160596D01*
X93017034Y-61207738D01*
X93016791Y-61246936D01*
X93016438Y-61278937D01*
X93015955Y-61304486D01*
X93015324Y-61324329D01*
X93014526Y-61339214D01*
X93013544Y-61349886D01*
X93012359Y-61357092D01*
X93010952Y-61361577D01*
X93009305Y-61364089D01*
X93008305Y-61365108D01*
X93005812Y-61367581D01*
X93002884Y-61369666D01*
X92998329Y-61371644D01*
X92990953Y-61373799D01*
X92979561Y-61376415D01*
X92962960Y-61379775D01*
X92939955Y-61384162D01*
X92909353Y-61389859D01*
X92869960Y-61397150D01*
X92860595Y-61398885D01*
X92782812Y-61413307D01*
X92714377Y-61426035D01*
X92654708Y-61437181D01*
X92603223Y-61446861D01*
X92559339Y-61455187D01*
X92522474Y-61462274D01*
X92492047Y-61468236D01*
X92467475Y-61473186D01*
X92448177Y-61477238D01*
X92433569Y-61480507D01*
X92423071Y-61483106D01*
X92416099Y-61485149D01*
X92412072Y-61486750D01*
X92410806Y-61487513D01*
X92407155Y-61490933D01*
X92402837Y-61496975D01*
X92397513Y-61506399D01*
X92390846Y-61519965D01*
X92382501Y-61538433D01*
X92372139Y-61562563D01*
X92359423Y-61593114D01*
X92344017Y-61630847D01*
X92325583Y-61676522D01*
X92303785Y-61730898D01*
X92297951Y-61745495D01*
X92275547Y-61801870D01*
X92256851Y-61849510D01*
X92241673Y-61888928D01*
X92229827Y-61920633D01*
X92221125Y-61945137D01*
X92215378Y-61962951D01*
X92212400Y-61974585D01*
X92212001Y-61980551D01*
X92214069Y-61984669D01*
X92221489Y-61996865D01*
X92233765Y-62016029D01*
X92250371Y-62041372D01*
X92270783Y-62072105D01*
X92294474Y-62107437D01*
X92320920Y-62146579D01*
X92349597Y-62188743D01*
X92379978Y-62233137D01*
X92412621Y-62280852D01*
X92446419Y-62330668D01*
X92475603Y-62374170D01*
X92499959Y-62411031D01*
X92519275Y-62440924D01*
X92533336Y-62463522D01*
X92541929Y-62478499D01*
X92544840Y-62485527D01*
X92543987Y-62488329D01*
X92539705Y-62495013D01*
X92531447Y-62505303D01*
X92518801Y-62519633D01*
X92501354Y-62538441D01*
X92478694Y-62562161D01*
X92450409Y-62591229D01*
X92416084Y-62626081D01*
X92375309Y-62667152D01*
X92327670Y-62714879D01*
X92327467Y-62715083D01*
X92288468Y-62754030D01*
X92251472Y-62790889D01*
X92217125Y-62825022D01*
X92186074Y-62855791D01*
X92158965Y-62882557D01*
X92136445Y-62904682D01*
X92119160Y-62921528D01*
X92107756Y-62932457D01*
X92102880Y-62936830D01*
X92098566Y-62939129D01*
X92089561Y-62941722D01*
X92088423Y-62941429D01*
X92084195Y-62939305D01*
X92076735Y-62934861D01*
X92065577Y-62927782D01*
X92050256Y-62917755D01*
X92030305Y-62904464D01*
X92005258Y-62887596D01*
X91974650Y-62866836D01*
X91938015Y-62841870D01*
X91894886Y-62812383D01*
X91844798Y-62778061D01*
X91787285Y-62738590D01*
X91721880Y-62693655D01*
X91699112Y-62678115D01*
X91664931Y-62655276D01*
X91636281Y-62636790D01*
X91613828Y-62623073D01*
X91598237Y-62614539D01*
X91590171Y-62611602D01*
X91585282Y-62612855D01*
X91571848Y-62618301D01*
X91551875Y-62627459D01*
X91526743Y-62639672D01*
X91497832Y-62654280D01*
X91466522Y-62670626D01*
X91463528Y-62672213D01*
X91428731Y-62690523D01*
X91401658Y-62704428D01*
X91381225Y-62714403D01*
X91366349Y-62720928D01*
X91355947Y-62724481D01*
X91348935Y-62725538D01*
X91344231Y-62724578D01*
X91343241Y-62723541D01*
X91338195Y-62714637D01*
X91329787Y-62697331D01*
X91318320Y-62672363D01*
X91304102Y-62640471D01*
X91287438Y-62602394D01*
X91268634Y-62558868D01*
X91247995Y-62510634D01*
X91225827Y-62458430D01*
X91202436Y-62402992D01*
X91178128Y-62345062D01*
X91153207Y-62285375D01*
X91127981Y-62224672D01*
X91102754Y-62163689D01*
X91077833Y-62103167D01*
X91053523Y-62043842D01*
X91030130Y-61986454D01*
X91007959Y-61931740D01*
X90987316Y-61880440D01*
X90968508Y-61833291D01*
X90951839Y-61791032D01*
X90937615Y-61754401D01*
X90926143Y-61724137D01*
X90917727Y-61700978D01*
X90912675Y-61685662D01*
X90911290Y-61678928D01*
X90912765Y-61675280D01*
X90922408Y-61663786D01*
X90938402Y-61651971D01*
X90979243Y-61625804D01*
X91046337Y-61576553D01*
X91106606Y-61523943D01*
X91158942Y-61468982D01*
X91202233Y-61412678D01*
X91215874Y-61390753D01*
X91233768Y-61357799D01*
X91251413Y-61321378D01*
X91267143Y-61284958D01*
X91279294Y-61252012D01*
X91287503Y-61224592D01*
X91303227Y-61149209D01*
X91310246Y-61071251D01*
X91308559Y-60992649D01*
X91298169Y-60915334D01*
X91279075Y-60841238D01*
X91256859Y-60782848D01*
X91220432Y-60711605D01*
X91175880Y-60645588D01*
X91123884Y-60585477D01*
X91065124Y-60531950D01*
X91000279Y-60485687D01*
X90930029Y-60447366D01*
X90855053Y-60417666D01*
X90827633Y-60409457D01*
X90752250Y-60393733D01*
X90674292Y-60386714D01*
X90595690Y-60388401D01*
X90518375Y-60398791D01*
X90444279Y-60417885D01*
X90439259Y-60419545D01*
X90364458Y-60449834D01*
X90294766Y-60488529D01*
X90230742Y-60534977D01*
X90172948Y-60588523D01*
X90121945Y-60648511D01*
X90078292Y-60714289D01*
X90042552Y-60785201D01*
X90015285Y-60860592D01*
X89997052Y-60939809D01*
X89995631Y-60948971D01*
X89990977Y-60997742D01*
X89989916Y-61051174D01*
X89992312Y-61105680D01*
X89998031Y-61157673D01*
X90006940Y-61203564D01*
X90022377Y-61256128D01*
X90053404Y-61332276D01*
X90093475Y-61403835D01*
X90142445Y-61470524D01*
X90149085Y-61478404D01*
X90180396Y-61512750D01*
X90214026Y-61544765D01*
X90251763Y-61575948D01*
X90295396Y-61607801D01*
X90346716Y-61641822D01*
X90347597Y-61642387D01*
X90366910Y-61656007D01*
X90380917Y-61668311D01*
X90387742Y-61677659D01*
X90387991Y-61679635D01*
X90387311Y-61684728D01*
X90385215Y-61692859D01*
X90381509Y-61704517D01*
X90376001Y-61720188D01*
X90368499Y-61740359D01*
X90358810Y-61765519D01*
X90346741Y-61796153D01*
X90332100Y-61832751D01*
X90314695Y-61875798D01*
X90294332Y-61925782D01*
X90270821Y-61983191D01*
X90243967Y-62048511D01*
X90213578Y-62122230D01*
X90179462Y-62204835D01*
X90153862Y-62266736D01*
X90121764Y-62344208D01*
X90093167Y-62413027D01*
X90067884Y-62473633D01*
X90045725Y-62526465D01*
X90026501Y-62571964D01*
X90010022Y-62610567D01*
X89996099Y-62642715D01*
X89984544Y-62668847D01*
X89975167Y-62689402D01*
X89967779Y-62704820D01*
X89962190Y-62715541D01*
X89958211Y-62722003D01*
X89955654Y-62724646D01*
X89955155Y-62724861D01*
X89950244Y-62725631D01*
X89942975Y-62724364D01*
X89932259Y-62720580D01*
X89917007Y-62713799D01*
X89896131Y-62703542D01*
X89868540Y-62689328D01*
X89833148Y-62670678D01*
X89809983Y-62658534D01*
X89780297Y-62643393D01*
X89754029Y-62630470D01*
X89732556Y-62620425D01*
X89717255Y-62613916D01*
X89709504Y-62611600D01*
X89703871Y-62613793D01*
X89689926Y-62621642D01*
X89668311Y-62634987D01*
X89639353Y-62653614D01*
X89603376Y-62677311D01*
X89560706Y-62705866D01*
X89511669Y-62739066D01*
X89456591Y-62776700D01*
X89421317Y-62800862D01*
X89379036Y-62829731D01*
X89339821Y-62856405D01*
X89304431Y-62880374D01*
X89273622Y-62901128D01*
X89248150Y-62918157D01*
X89228775Y-62930952D01*
X89216252Y-62939003D01*
X89211338Y-62941800D01*
X89209729Y-62941671D01*
X89204645Y-62940008D01*
X89197762Y-62936032D01*
X89188551Y-62929249D01*
X89176478Y-62919165D01*
X89161014Y-62905284D01*
X89141626Y-62887112D01*
X89117784Y-62864155D01*
X89088957Y-62835919D01*
X89054613Y-62801909D01*
X89014221Y-62761630D01*
X88967250Y-62714588D01*
X88922936Y-62670083D01*
X88884217Y-62631044D01*
X88851725Y-62598071D01*
X88824953Y-62570622D01*
X88803396Y-62548155D01*
X88786546Y-62530127D01*
X88773895Y-62515996D01*
X88764939Y-62505218D01*
X88759168Y-62497253D01*
X88756078Y-62491557D01*
X88755160Y-62487588D01*
X88756264Y-62483325D01*
X88760967Y-62473554D01*
X88769621Y-62458494D01*
X88782503Y-62437718D01*
X88799890Y-62410798D01*
X88822059Y-62377307D01*
X88849286Y-62336818D01*
X88881848Y-62288904D01*
X88920023Y-62233137D01*
X88943197Y-62199299D01*
X88972333Y-62156524D01*
X88999367Y-62116579D01*
X89023773Y-62080253D01*
X89045025Y-62048337D01*
X89062599Y-62021619D01*
X89075969Y-62000889D01*
X89084612Y-61986936D01*
X89088000Y-61980551D01*
X89088130Y-61979610D01*
X89087129Y-61972333D01*
X89083504Y-61959266D01*
X89077067Y-61939898D01*
X89067629Y-61913717D01*
X89055004Y-61880215D01*
X89039003Y-61838879D01*
X89019438Y-61789199D01*
X88996123Y-61730664D01*
X88984314Y-61701158D01*
X88964694Y-61652257D01*
X88948270Y-61611592D01*
X88934686Y-61578375D01*
X88923583Y-61551815D01*
X88914603Y-61531122D01*
X88907390Y-61515507D01*
X88901585Y-61504180D01*
X88896831Y-61496351D01*
X88892770Y-61491230D01*
X88889044Y-61488028D01*
X88885295Y-61485954D01*
X88882111Y-61484912D01*
X88869118Y-61481723D01*
X88847639Y-61477023D01*
X88818650Y-61471006D01*
X88783125Y-61463866D01*
X88742037Y-61455799D01*
X88696361Y-61446998D01*
X88647071Y-61437660D01*
X88595140Y-61427977D01*
X88565305Y-61422455D01*
X88515046Y-61413139D01*
X88468117Y-61404422D01*
X88425468Y-61396481D01*
X88388052Y-61389494D01*
X88356819Y-61383640D01*
X88332723Y-61379097D01*
X88316715Y-61376041D01*
X88309746Y-61374651D01*
X88306953Y-61374034D01*
X88301917Y-61372876D01*
X88297630Y-61371215D01*
X88294033Y-61368308D01*
X88291065Y-61363411D01*
X88288666Y-61355783D01*
X88286775Y-61344680D01*
X88285333Y-61329360D01*
X88284278Y-61309079D01*
X88283551Y-61283096D01*
X88283091Y-61250666D01*
X88282839Y-61211048D01*
X88282733Y-61163499D01*
X88282714Y-61107275D01*
X88282720Y-61041634D01*
X88282720Y-60727154D01*
X88294150Y-60720000D01*
X88299794Y-60718147D01*
X88314808Y-60714497D01*
X88338093Y-60709381D01*
X88368732Y-60702985D01*
X88405808Y-60695492D01*
X88448403Y-60687090D01*
X88495600Y-60677961D01*
X88546481Y-60668292D01*
X88600129Y-60658268D01*
X88647551Y-60649413D01*
X88698787Y-60639688D01*
X88746438Y-60630479D01*
X88789588Y-60621970D01*
X88827322Y-60614347D01*
X88858724Y-60607795D01*
X88882876Y-60602500D01*
X88898864Y-60598647D01*
X88905770Y-60596421D01*
X88907321Y-60594838D01*
X88913567Y-60584797D01*
X88922885Y-60566927D01*
X88934787Y-60542365D01*
X88948788Y-60512252D01*
X88964404Y-60477724D01*
X88981148Y-60439921D01*
X88998534Y-60399980D01*
X89016078Y-60359039D01*
X89033293Y-60318238D01*
X89049694Y-60278714D01*
X89064796Y-60241605D01*
X89078113Y-60208051D01*
X89089159Y-60179189D01*
X89097449Y-60156157D01*
X89102497Y-60140094D01*
X89103818Y-60132138D01*
X89100687Y-60125824D01*
X89092251Y-60111825D01*
X89079036Y-60090998D01*
X89061555Y-60064118D01*
X89040319Y-60031961D01*
X89015840Y-59995301D01*
X88988631Y-59954914D01*
X88959203Y-59911574D01*
X88928068Y-59866058D01*
X88902907Y-59829346D01*
X88866517Y-59775969D01*
X88835679Y-59730328D01*
X88810177Y-59692092D01*
X88789796Y-59660931D01*
X88774319Y-59636511D01*
X88763532Y-59618503D01*
X88757217Y-59606574D01*
X88755160Y-59600392D01*
X88756022Y-59596849D01*
X88759236Y-59591108D01*
X88765298Y-59582915D01*
X88774696Y-59571752D01*
X88787919Y-59557098D01*
X88805456Y-59538435D01*
X88827795Y-59515244D01*
X88855423Y-59487006D01*
X88888831Y-59453201D01*
X88928506Y-59413310D01*
X88974936Y-59366815D01*
X88995781Y-59345987D01*
X89041680Y-59300284D01*
X89081048Y-59261344D01*
X89114274Y-59228797D01*
X89141751Y-59202273D01*
X89163867Y-59181402D01*
X89181012Y-59165813D01*
X89193577Y-59155136D01*
X89201952Y-59149002D01*
X89206527Y-59147040D01*
X89207110Y-59147077D01*
X89216432Y-59150467D01*
X89231766Y-59158564D01*
X89251120Y-59170240D01*
X89272501Y-59184368D01*
X89287357Y-59194596D01*
X89311211Y-59210995D01*
X89340677Y-59231238D01*
X89374592Y-59254524D01*
X89411788Y-59280055D01*
X89451101Y-59307029D01*
X89491364Y-59334649D01*
X89531412Y-59362114D01*
X89570079Y-59388625D01*
X89606200Y-59413382D01*
X89638608Y-59435586D01*
X89666138Y-59454436D01*
X89687625Y-59469135D01*
X89701901Y-59478882D01*
X89718126Y-59489288D01*
X89738275Y-59499380D01*
X89753379Y-59502640D01*
X89754560Y-59502475D01*
X89764251Y-59499573D01*
X89781803Y-59493412D01*
X89806030Y-59484464D01*
X89835745Y-59473199D01*
X89869763Y-59460087D01*
X89906897Y-59445601D01*
X89945961Y-59430210D01*
X89985769Y-59414386D01*
X90025136Y-59398599D01*
X90062875Y-59383321D01*
X90097800Y-59369021D01*
X90128725Y-59356172D01*
X90154465Y-59345244D01*
X90173832Y-59336707D01*
X90185641Y-59331032D01*
X90193188Y-59325153D01*
X90201831Y-59313803D01*
X90201870Y-59313723D01*
X90203920Y-59306389D01*
X90207603Y-59289992D01*
X90212743Y-59265433D01*
X90219161Y-59233614D01*
X90226679Y-59195437D01*
X90235120Y-59151803D01*
X90244307Y-59103614D01*
X90254062Y-59051772D01*
X90264206Y-58997180D01*
X90267572Y-58978967D01*
X90278979Y-58917493D01*
X90288795Y-58865104D01*
X90297175Y-58821081D01*
X90304271Y-58784702D01*
X90310236Y-58755245D01*
X90315224Y-58731990D01*
X90319388Y-58714215D01*
X90322881Y-58701198D01*
X90325857Y-58692220D01*
X90328469Y-58686557D01*
X90330870Y-58683489D01*
X90332066Y-58682562D01*
X90335287Y-58680856D01*
X90340161Y-58679411D01*
X90347463Y-58678206D01*
X90357966Y-58677219D01*
X90372443Y-58676429D01*
X90391666Y-58675815D01*
X90416410Y-58675354D01*
X90447448Y-58675025D01*
X90485553Y-58674806D01*
X90531497Y-58674677D01*
X90586056Y-58674615D01*
X90650001Y-58674600D01*
X90682296Y-58674603D01*
G36*
X90425761Y-64502630D02*
G01*
X90428049Y-64509608D01*
X90435852Y-64533496D01*
X90445972Y-64564566D01*
X90457826Y-64601028D01*
X90470834Y-64641094D01*
X90484413Y-64682974D01*
X90497983Y-64724880D01*
X90506066Y-64749744D01*
X90520125Y-64792267D01*
X90531529Y-64825610D01*
X90540419Y-64850151D01*
X90546932Y-64866268D01*
X90551210Y-64874338D01*
X90553392Y-64874740D01*
X90554334Y-64871683D01*
X90557855Y-64859372D01*
X90563563Y-64838954D01*
X90571165Y-64811495D01*
X90580367Y-64778055D01*
X90590878Y-64739699D01*
X90602403Y-64697490D01*
X90614650Y-64652490D01*
X90672280Y-64440400D01*
X90740424Y-64440400D01*
X90745668Y-64440403D01*
X90772052Y-64440626D01*
X90789883Y-64441300D01*
X90800538Y-64442575D01*
X90805395Y-64444602D01*
X90805831Y-64447530D01*
X90805688Y-64447930D01*
X90803160Y-64455604D01*
X90797866Y-64471960D01*
X90790078Y-64496153D01*
X90780066Y-64527341D01*
X90768100Y-64564680D01*
X90754450Y-64607327D01*
X90739387Y-64654438D01*
X90723181Y-64705171D01*
X90706102Y-64758680D01*
X90702850Y-64768873D01*
X90685930Y-64821894D01*
X90669946Y-64871959D01*
X90655167Y-64918228D01*
X90641862Y-64959860D01*
X90630300Y-64996014D01*
X90620750Y-65025851D01*
X90613479Y-65048530D01*
X90608758Y-65063209D01*
X90606855Y-65069050D01*
X90604099Y-65071435D01*
X90594137Y-65073712D01*
X90576077Y-65074996D01*
X90548902Y-65075400D01*
X90525443Y-65075240D01*
X90508525Y-65074547D01*
X90498269Y-65073044D01*
X90492869Y-65070457D01*
X90490521Y-65066510D01*
X90489839Y-65064231D01*
X90486486Y-65052977D01*
X90480718Y-65033593D01*
X90472851Y-65007140D01*
X90463200Y-64974681D01*
X90452081Y-64937277D01*
X90439810Y-64895989D01*
X90426702Y-64851880D01*
X90419891Y-64828984D01*
X90407104Y-64786141D01*
X90395263Y-64746644D01*
X90384689Y-64711559D01*
X90375705Y-64681953D01*
X90368635Y-64658891D01*
X90363801Y-64643440D01*
X90361526Y-64636666D01*
X90360524Y-64636389D01*
X90357286Y-64641893D01*
X90352006Y-64655176D01*
X90344572Y-64676574D01*
X90334875Y-64706423D01*
X90322803Y-64745057D01*
X90308246Y-64792813D01*
X90291092Y-64850026D01*
X90224699Y-65072860D01*
X90111973Y-65075728D01*
X90093966Y-65018414D01*
X90092794Y-65014693D01*
X90086894Y-64996048D01*
X90078376Y-64969232D01*
X90067612Y-64935409D01*
X90054974Y-64895747D01*
X90040835Y-64851411D01*
X90025564Y-64803567D01*
X90009534Y-64753382D01*
X89993117Y-64702020D01*
X89910276Y-64442940D01*
X89976033Y-64441517D01*
X89980346Y-64441428D01*
X90004561Y-64441104D01*
X90024525Y-64441125D01*
X90038268Y-64441472D01*
X90043824Y-64442129D01*
X90044954Y-64445387D01*
X90048563Y-64457534D01*
X90054342Y-64477718D01*
X90062014Y-64504950D01*
X90071302Y-64538238D01*
X90081928Y-64576592D01*
X90093614Y-64619020D01*
X90106085Y-64664532D01*
X90113653Y-64692181D01*
X90126978Y-64740537D01*
X90138048Y-64780138D01*
X90147086Y-64811700D01*
X90154315Y-64835935D01*
X90159961Y-64853558D01*
X90164246Y-64865282D01*
X90167394Y-64871821D01*
X90169629Y-64873889D01*
X90171174Y-64872200D01*
X90172349Y-64868863D01*
X90176603Y-64856177D01*
X90183419Y-64835522D01*
X90192450Y-64807961D01*
X90203349Y-64774560D01*
X90215766Y-64736381D01*
X90229355Y-64694489D01*
X90243769Y-64649950D01*
X90311501Y-64440400D01*
X90405319Y-64440400D01*
X90425761Y-64502630D01*
G37*
X90425761Y-64502630D02*
X90428049Y-64509608D01*
X90435852Y-64533496D01*
X90445972Y-64564566D01*
X90457826Y-64601028D01*
X90470834Y-64641094D01*
X90484413Y-64682974D01*
X90497983Y-64724880D01*
X90506066Y-64749744D01*
X90520125Y-64792267D01*
X90531529Y-64825610D01*
X90540419Y-64850151D01*
X90546932Y-64866268D01*
X90551210Y-64874338D01*
X90553392Y-64874740D01*
X90554334Y-64871683D01*
X90557855Y-64859372D01*
X90563563Y-64838954D01*
X90571165Y-64811495D01*
X90580367Y-64778055D01*
X90590878Y-64739699D01*
X90602403Y-64697490D01*
X90614650Y-64652490D01*
X90672280Y-64440400D01*
X90740424Y-64440400D01*
X90745668Y-64440403D01*
X90772052Y-64440626D01*
X90789883Y-64441300D01*
X90800538Y-64442575D01*
X90805395Y-64444602D01*
X90805831Y-64447530D01*
X90805688Y-64447930D01*
X90803160Y-64455604D01*
X90797866Y-64471960D01*
X90790078Y-64496153D01*
X90780066Y-64527341D01*
X90768100Y-64564680D01*
X90754450Y-64607327D01*
X90739387Y-64654438D01*
X90723181Y-64705171D01*
X90706102Y-64758680D01*
X90702850Y-64768873D01*
X90685930Y-64821894D01*
X90669946Y-64871959D01*
X90655167Y-64918228D01*
X90641862Y-64959860D01*
X90630300Y-64996014D01*
X90620750Y-65025851D01*
X90613479Y-65048530D01*
X90608758Y-65063209D01*
X90606855Y-65069050D01*
X90604099Y-65071435D01*
X90594137Y-65073712D01*
X90576077Y-65074996D01*
X90548902Y-65075400D01*
X90525443Y-65075240D01*
X90508525Y-65074547D01*
X90498269Y-65073044D01*
X90492869Y-65070457D01*
X90490521Y-65066510D01*
X90489839Y-65064231D01*
X90486486Y-65052977D01*
X90480718Y-65033593D01*
X90472851Y-65007140D01*
X90463200Y-64974681D01*
X90452081Y-64937277D01*
X90439810Y-64895989D01*
X90426702Y-64851880D01*
X90419891Y-64828984D01*
X90407104Y-64786141D01*
X90395263Y-64746644D01*
X90384689Y-64711559D01*
X90375705Y-64681953D01*
X90368635Y-64658891D01*
X90363801Y-64643440D01*
X90361526Y-64636666D01*
X90360524Y-64636389D01*
X90357286Y-64641893D01*
X90352006Y-64655176D01*
X90344572Y-64676574D01*
X90334875Y-64706423D01*
X90322803Y-64745057D01*
X90308246Y-64792813D01*
X90291092Y-64850026D01*
X90224699Y-65072860D01*
X90111973Y-65075728D01*
X90093966Y-65018414D01*
X90092794Y-65014693D01*
X90086894Y-64996048D01*
X90078376Y-64969232D01*
X90067612Y-64935409D01*
X90054974Y-64895747D01*
X90040835Y-64851411D01*
X90025564Y-64803567D01*
X90009534Y-64753382D01*
X89993117Y-64702020D01*
X89910276Y-64442940D01*
X89976033Y-64441517D01*
X89980346Y-64441428D01*
X90004561Y-64441104D01*
X90024525Y-64441125D01*
X90038268Y-64441472D01*
X90043824Y-64442129D01*
X90044954Y-64445387D01*
X90048563Y-64457534D01*
X90054342Y-64477718D01*
X90062014Y-64504950D01*
X90071302Y-64538238D01*
X90081928Y-64576592D01*
X90093614Y-64619020D01*
X90106085Y-64664532D01*
X90113653Y-64692181D01*
X90126978Y-64740537D01*
X90138048Y-64780138D01*
X90147086Y-64811700D01*
X90154315Y-64835935D01*
X90159961Y-64853558D01*
X90164246Y-64865282D01*
X90167394Y-64871821D01*
X90169629Y-64873889D01*
X90171174Y-64872200D01*
X90172349Y-64868863D01*
X90176603Y-64856177D01*
X90183419Y-64835522D01*
X90192450Y-64807961D01*
X90203349Y-64774560D01*
X90215766Y-64736381D01*
X90229355Y-64694489D01*
X90243769Y-64649950D01*
X90311501Y-64440400D01*
X90405319Y-64440400D01*
X90425761Y-64502630D01*
G36*
X89886812Y-64952223D02*
G01*
X89868920Y-64988260D01*
X89843252Y-65019654D01*
X89810393Y-65045505D01*
X89770927Y-65064911D01*
X89725440Y-65076970D01*
X89724670Y-65077090D01*
X89712586Y-65078212D01*
X89694359Y-65079177D01*
X89673621Y-65079788D01*
X89669355Y-65079841D01*
X89623657Y-65077213D01*
X89584961Y-65068734D01*
X89553815Y-65054576D01*
X89530767Y-65034911D01*
X89517696Y-65019377D01*
X89516158Y-65046118D01*
X89514620Y-65072860D01*
X89387620Y-65072860D01*
X89386252Y-64864580D01*
X89386119Y-64842376D01*
X89386004Y-64806160D01*
X89517160Y-64806160D01*
X89517272Y-64850610D01*
X89517283Y-64852744D01*
X89519594Y-64887731D01*
X89526162Y-64914377D01*
X89537368Y-64933685D01*
X89553591Y-64946661D01*
X89558013Y-64948776D01*
X89569269Y-64952264D01*
X89584804Y-64954662D01*
X89606574Y-64956219D01*
X89636540Y-64957182D01*
X89663577Y-64957437D01*
X89692597Y-64956317D01*
X89714832Y-64953077D01*
X89732172Y-64947236D01*
X89746508Y-64938313D01*
X89759730Y-64925826D01*
X89762951Y-64922254D01*
X89771494Y-64910500D01*
X89775344Y-64898198D01*
X89776240Y-64880579D01*
X89775750Y-64869720D01*
X89769746Y-64846912D01*
X89756023Y-64829502D01*
X89733460Y-64815793D01*
X89730717Y-64814599D01*
X89721799Y-64811544D01*
X89710915Y-64809331D01*
X89696426Y-64807829D01*
X89676695Y-64806906D01*
X89650083Y-64806431D01*
X89614950Y-64806271D01*
X89517160Y-64806160D01*
X89386004Y-64806160D01*
X89385931Y-64783257D01*
X89386102Y-64733047D01*
X89386692Y-64690814D01*
X89387764Y-64655627D01*
X89389379Y-64626555D01*
X89391598Y-64602665D01*
X89394485Y-64583027D01*
X89398100Y-64566708D01*
X89402505Y-64552777D01*
X89407762Y-64540302D01*
X89415658Y-64525742D01*
X89440159Y-64495381D01*
X89472553Y-64470588D01*
X89512264Y-64451601D01*
X89558718Y-64438659D01*
X89611342Y-64431999D01*
X89669560Y-64431859D01*
X89703615Y-64434769D01*
X89747529Y-64443052D01*
X89785014Y-64456503D01*
X89817712Y-64475608D01*
X89833123Y-64487690D01*
X89848237Y-64501931D01*
X89858694Y-64514567D01*
X89862600Y-64523576D01*
X89859016Y-64527163D01*
X89848855Y-64535626D01*
X89833706Y-64547654D01*
X89815161Y-64561958D01*
X89767721Y-64598087D01*
X89749840Y-64581223D01*
X89742362Y-64574742D01*
X89725027Y-64563988D01*
X89704150Y-64557029D01*
X89677594Y-64553280D01*
X89643223Y-64552160D01*
X89617149Y-64552923D01*
X89579812Y-64557719D01*
X89551421Y-64566890D01*
X89532102Y-64580404D01*
X89526760Y-64586845D01*
X89522874Y-64594619D01*
X89520450Y-64605529D01*
X89518987Y-64621916D01*
X89517980Y-64646122D01*
X89516260Y-64698651D01*
X89634820Y-64700538D01*
X89667901Y-64701170D01*
X89706388Y-64702465D01*
X89737262Y-64704609D01*
X89762005Y-64708003D01*
X89782101Y-64713050D01*
X89799034Y-64720155D01*
X89814285Y-64729719D01*
X89829337Y-64742146D01*
X89845675Y-64757839D01*
X89847236Y-64759403D01*
X89863204Y-64776355D01*
X89873845Y-64790691D01*
X89881429Y-64806049D01*
X89888223Y-64826065D01*
X89896928Y-64869831D01*
X89896780Y-64880579D01*
X89896343Y-64912447D01*
X89886812Y-64952223D01*
G37*
X89886812Y-64952223D02*
X89868920Y-64988260D01*
X89843252Y-65019654D01*
X89810393Y-65045505D01*
X89770927Y-65064911D01*
X89725440Y-65076970D01*
X89724670Y-65077090D01*
X89712586Y-65078212D01*
X89694359Y-65079177D01*
X89673621Y-65079788D01*
X89669355Y-65079841D01*
X89623657Y-65077213D01*
X89584961Y-65068734D01*
X89553815Y-65054576D01*
X89530767Y-65034911D01*
X89517696Y-65019377D01*
X89516158Y-65046118D01*
X89514620Y-65072860D01*
X89387620Y-65072860D01*
X89386252Y-64864580D01*
X89386119Y-64842376D01*
X89386004Y-64806160D01*
X89517160Y-64806160D01*
X89517272Y-64850610D01*
X89517283Y-64852744D01*
X89519594Y-64887731D01*
X89526162Y-64914377D01*
X89537368Y-64933685D01*
X89553591Y-64946661D01*
X89558013Y-64948776D01*
X89569269Y-64952264D01*
X89584804Y-64954662D01*
X89606574Y-64956219D01*
X89636540Y-64957182D01*
X89663577Y-64957437D01*
X89692597Y-64956317D01*
X89714832Y-64953077D01*
X89732172Y-64947236D01*
X89746508Y-64938313D01*
X89759730Y-64925826D01*
X89762951Y-64922254D01*
X89771494Y-64910500D01*
X89775344Y-64898198D01*
X89776240Y-64880579D01*
X89775750Y-64869720D01*
X89769746Y-64846912D01*
X89756023Y-64829502D01*
X89733460Y-64815793D01*
X89730717Y-64814599D01*
X89721799Y-64811544D01*
X89710915Y-64809331D01*
X89696426Y-64807829D01*
X89676695Y-64806906D01*
X89650083Y-64806431D01*
X89614950Y-64806271D01*
X89517160Y-64806160D01*
X89386004Y-64806160D01*
X89385931Y-64783257D01*
X89386102Y-64733047D01*
X89386692Y-64690814D01*
X89387764Y-64655627D01*
X89389379Y-64626555D01*
X89391598Y-64602665D01*
X89394485Y-64583027D01*
X89398100Y-64566708D01*
X89402505Y-64552777D01*
X89407762Y-64540302D01*
X89415658Y-64525742D01*
X89440159Y-64495381D01*
X89472553Y-64470588D01*
X89512264Y-64451601D01*
X89558718Y-64438659D01*
X89611342Y-64431999D01*
X89669560Y-64431859D01*
X89703615Y-64434769D01*
X89747529Y-64443052D01*
X89785014Y-64456503D01*
X89817712Y-64475608D01*
X89833123Y-64487690D01*
X89848237Y-64501931D01*
X89858694Y-64514567D01*
X89862600Y-64523576D01*
X89859016Y-64527163D01*
X89848855Y-64535626D01*
X89833706Y-64547654D01*
X89815161Y-64561958D01*
X89767721Y-64598087D01*
X89749840Y-64581223D01*
X89742362Y-64574742D01*
X89725027Y-64563988D01*
X89704150Y-64557029D01*
X89677594Y-64553280D01*
X89643223Y-64552160D01*
X89617149Y-64552923D01*
X89579812Y-64557719D01*
X89551421Y-64566890D01*
X89532102Y-64580404D01*
X89526760Y-64586845D01*
X89522874Y-64594619D01*
X89520450Y-64605529D01*
X89518987Y-64621916D01*
X89517980Y-64646122D01*
X89516260Y-64698651D01*
X89634820Y-64700538D01*
X89667901Y-64701170D01*
X89706388Y-64702465D01*
X89737262Y-64704609D01*
X89762005Y-64708003D01*
X89782101Y-64713050D01*
X89799034Y-64720155D01*
X89814285Y-64729719D01*
X89829337Y-64742146D01*
X89845675Y-64757839D01*
X89847236Y-64759403D01*
X89863204Y-64776355D01*
X89873845Y-64790691D01*
X89881429Y-64806049D01*
X89888223Y-64826065D01*
X89896928Y-64869831D01*
X89896780Y-64880579D01*
X89896343Y-64912447D01*
X89886812Y-64952223D01*
G36*
X91381464Y-64843888D02*
G01*
X91379061Y-64882064D01*
X91375132Y-64913620D01*
X91369382Y-64939822D01*
X91361519Y-64961931D01*
X91351249Y-64981211D01*
X91338280Y-64998924D01*
X91322318Y-65016334D01*
X91300820Y-65035914D01*
X91270332Y-65056195D01*
X91235826Y-65070486D01*
X91234933Y-65070769D01*
X91191267Y-65079334D01*
X91146520Y-65078550D01*
X91102457Y-65068803D01*
X91060839Y-65050477D01*
X91023429Y-65023961D01*
X91006101Y-65008747D01*
X91004581Y-65040803D01*
X91003060Y-65072860D01*
X90878600Y-65075712D01*
X90878600Y-64755360D01*
X91005755Y-64755360D01*
X91005768Y-64760787D01*
X91007416Y-64808722D01*
X91012056Y-64847955D01*
X91020029Y-64879495D01*
X91031675Y-64904355D01*
X91047335Y-64923543D01*
X91067351Y-64938073D01*
X91067791Y-64938319D01*
X91091634Y-64947511D01*
X91121891Y-64951636D01*
X91141626Y-64951844D01*
X91174837Y-64946934D01*
X91201743Y-64934582D01*
X91223230Y-64914292D01*
X91240182Y-64885572D01*
X91241547Y-64882515D01*
X91245213Y-64873375D01*
X91247904Y-64863977D01*
X91249770Y-64852671D01*
X91250961Y-64837806D01*
X91251627Y-64817733D01*
X91251917Y-64790801D01*
X91251980Y-64755360D01*
X91251977Y-64744270D01*
X91251862Y-64711414D01*
X91251478Y-64686610D01*
X91250677Y-64668220D01*
X91249311Y-64654603D01*
X91247234Y-64644122D01*
X91244298Y-64635135D01*
X91240356Y-64626005D01*
X91232123Y-64609992D01*
X91214849Y-64586837D01*
X91193627Y-64571486D01*
X91166772Y-64562911D01*
X91132600Y-64560080D01*
X91109243Y-64561114D01*
X91079596Y-64567427D01*
X91055513Y-64579946D01*
X91036628Y-64599236D01*
X91022575Y-64625860D01*
X91012989Y-64660380D01*
X91007504Y-64703359D01*
X91005755Y-64755360D01*
X90878600Y-64755360D01*
X90878600Y-64181320D01*
X91005600Y-64181320D01*
X91005600Y-64502662D01*
X91022110Y-64489306D01*
X91026933Y-64485544D01*
X91043554Y-64473644D01*
X91060672Y-64462502D01*
X91070026Y-64457101D01*
X91112055Y-64439570D01*
X91155539Y-64431456D01*
X91199134Y-64432613D01*
X91241496Y-64442896D01*
X91281282Y-64462159D01*
X91317147Y-64490258D01*
X91317962Y-64491052D01*
X91334964Y-64508821D01*
X91348780Y-64526509D01*
X91359726Y-64545393D01*
X91368119Y-64566751D01*
X91374275Y-64591860D01*
X91378512Y-64621998D01*
X91381146Y-64658442D01*
X91382495Y-64702470D01*
X91382874Y-64755360D01*
X91382631Y-64797832D01*
X91381464Y-64843888D01*
G37*
X91381464Y-64843888D02*
X91379061Y-64882064D01*
X91375132Y-64913620D01*
X91369382Y-64939822D01*
X91361519Y-64961931D01*
X91351249Y-64981211D01*
X91338280Y-64998924D01*
X91322318Y-65016334D01*
X91300820Y-65035914D01*
X91270332Y-65056195D01*
X91235826Y-65070486D01*
X91234933Y-65070769D01*
X91191267Y-65079334D01*
X91146520Y-65078550D01*
X91102457Y-65068803D01*
X91060839Y-65050477D01*
X91023429Y-65023961D01*
X91006101Y-65008747D01*
X91004581Y-65040803D01*
X91003060Y-65072860D01*
X90878600Y-65075712D01*
X90878600Y-64755360D01*
X91005755Y-64755360D01*
X91005768Y-64760787D01*
X91007416Y-64808722D01*
X91012056Y-64847955D01*
X91020029Y-64879495D01*
X91031675Y-64904355D01*
X91047335Y-64923543D01*
X91067351Y-64938073D01*
X91067791Y-64938319D01*
X91091634Y-64947511D01*
X91121891Y-64951636D01*
X91141626Y-64951844D01*
X91174837Y-64946934D01*
X91201743Y-64934582D01*
X91223230Y-64914292D01*
X91240182Y-64885572D01*
X91241547Y-64882515D01*
X91245213Y-64873375D01*
X91247904Y-64863977D01*
X91249770Y-64852671D01*
X91250961Y-64837806D01*
X91251627Y-64817733D01*
X91251917Y-64790801D01*
X91251980Y-64755360D01*
X91251977Y-64744270D01*
X91251862Y-64711414D01*
X91251478Y-64686610D01*
X91250677Y-64668220D01*
X91249311Y-64654603D01*
X91247234Y-64644122D01*
X91244298Y-64635135D01*
X91240356Y-64626005D01*
X91232123Y-64609992D01*
X91214849Y-64586837D01*
X91193627Y-64571486D01*
X91166772Y-64562911D01*
X91132600Y-64560080D01*
X91109243Y-64561114D01*
X91079596Y-64567427D01*
X91055513Y-64579946D01*
X91036628Y-64599236D01*
X91022575Y-64625860D01*
X91012989Y-64660380D01*
X91007504Y-64703359D01*
X91005755Y-64755360D01*
X90878600Y-64755360D01*
X90878600Y-64181320D01*
X91005600Y-64181320D01*
X91005600Y-64502662D01*
X91022110Y-64489306D01*
X91026933Y-64485544D01*
X91043554Y-64473644D01*
X91060672Y-64462502D01*
X91070026Y-64457101D01*
X91112055Y-64439570D01*
X91155539Y-64431456D01*
X91199134Y-64432613D01*
X91241496Y-64442896D01*
X91281282Y-64462159D01*
X91317147Y-64490258D01*
X91317962Y-64491052D01*
X91334964Y-64508821D01*
X91348780Y-64526509D01*
X91359726Y-64545393D01*
X91368119Y-64566751D01*
X91374275Y-64591860D01*
X91378512Y-64621998D01*
X91381146Y-64658442D01*
X91382495Y-64702470D01*
X91382874Y-64755360D01*
X91382631Y-64797832D01*
X91381464Y-64843888D01*
G36*
X92468786Y-63740578D02*
G01*
X92467878Y-63783971D01*
X92464620Y-63826129D01*
X92459128Y-63864141D01*
X92451521Y-63895099D01*
X92449403Y-63901407D01*
X92428470Y-63949158D01*
X92401261Y-63989021D01*
X92367391Y-64021372D01*
X92326479Y-64046586D01*
X92278140Y-64065038D01*
X92269856Y-64067150D01*
X92240736Y-64071715D01*
X92206591Y-64074014D01*
X92171050Y-64074007D01*
X92137743Y-64071652D01*
X92110298Y-64066910D01*
X92094665Y-64062240D01*
X92070509Y-64053418D01*
X92048403Y-64043797D01*
X92038776Y-64038617D01*
X92021527Y-64027616D01*
X92003713Y-64014648D01*
X91987149Y-64001214D01*
X91973649Y-63988819D01*
X91965030Y-63978967D01*
X91963106Y-63973159D01*
X91966577Y-63969567D01*
X91976479Y-63960520D01*
X91991059Y-63947707D01*
X92008629Y-63932630D01*
X92051705Y-63896059D01*
X92070943Y-63911444D01*
X92071173Y-63911628D01*
X92107624Y-63935014D01*
X92146753Y-63949691D01*
X92186700Y-63954961D01*
X92221560Y-63953246D01*
X92250695Y-63946629D01*
X92275665Y-63934164D01*
X92299093Y-63914918D01*
X92322216Y-63886015D01*
X92336699Y-63852916D01*
X92341640Y-63817177D01*
X92341640Y-63800320D01*
X91943883Y-63800320D01*
X91946801Y-63720310D01*
X91948115Y-63693640D01*
X92077480Y-63693640D01*
X92341640Y-63693640D01*
X92341640Y-63679322D01*
X92340915Y-63667144D01*
X92332805Y-63635289D01*
X92317011Y-63605152D01*
X92295178Y-63579415D01*
X92268949Y-63560758D01*
X92242722Y-63551051D01*
X92209281Y-63547129D01*
X92175884Y-63551247D01*
X92144972Y-63563056D01*
X92118989Y-63582206D01*
X92106215Y-63597586D01*
X92091415Y-63623257D01*
X92081255Y-63650727D01*
X92077480Y-63676050D01*
X92077480Y-63693640D01*
X91948115Y-63693640D01*
X91948478Y-63686262D01*
X91951944Y-63649141D01*
X91957330Y-63618406D01*
X91965153Y-63591946D01*
X91975932Y-63567651D01*
X91990184Y-63543413D01*
X92017567Y-63508232D01*
X92054379Y-63475723D01*
X92096576Y-63451238D01*
X92143243Y-63435181D01*
X92193468Y-63427956D01*
X92246336Y-63429969D01*
X92278753Y-63436286D01*
X92322979Y-63453116D01*
X92362433Y-63478389D01*
X92396559Y-63511526D01*
X92424800Y-63551953D01*
X92446599Y-63599094D01*
X92461399Y-63652373D01*
X92463072Y-63661715D01*
X92465040Y-63679322D01*
X92467223Y-63698856D01*
X92468786Y-63740578D01*
G37*
X92468786Y-63740578D02*
X92467878Y-63783971D01*
X92464620Y-63826129D01*
X92459128Y-63864141D01*
X92451521Y-63895099D01*
X92449403Y-63901407D01*
X92428470Y-63949158D01*
X92401261Y-63989021D01*
X92367391Y-64021372D01*
X92326479Y-64046586D01*
X92278140Y-64065038D01*
X92269856Y-64067150D01*
X92240736Y-64071715D01*
X92206591Y-64074014D01*
X92171050Y-64074007D01*
X92137743Y-64071652D01*
X92110298Y-64066910D01*
X92094665Y-64062240D01*
X92070509Y-64053418D01*
X92048403Y-64043797D01*
X92038776Y-64038617D01*
X92021527Y-64027616D01*
X92003713Y-64014648D01*
X91987149Y-64001214D01*
X91973649Y-63988819D01*
X91965030Y-63978967D01*
X91963106Y-63973159D01*
X91966577Y-63969567D01*
X91976479Y-63960520D01*
X91991059Y-63947707D01*
X92008629Y-63932630D01*
X92051705Y-63896059D01*
X92070943Y-63911444D01*
X92071173Y-63911628D01*
X92107624Y-63935014D01*
X92146753Y-63949691D01*
X92186700Y-63954961D01*
X92221560Y-63953246D01*
X92250695Y-63946629D01*
X92275665Y-63934164D01*
X92299093Y-63914918D01*
X92322216Y-63886015D01*
X92336699Y-63852916D01*
X92341640Y-63817177D01*
X92341640Y-63800320D01*
X91943883Y-63800320D01*
X91946801Y-63720310D01*
X91948115Y-63693640D01*
X92077480Y-63693640D01*
X92341640Y-63693640D01*
X92341640Y-63679322D01*
X92340915Y-63667144D01*
X92332805Y-63635289D01*
X92317011Y-63605152D01*
X92295178Y-63579415D01*
X92268949Y-63560758D01*
X92242722Y-63551051D01*
X92209281Y-63547129D01*
X92175884Y-63551247D01*
X92144972Y-63563056D01*
X92118989Y-63582206D01*
X92106215Y-63597586D01*
X92091415Y-63623257D01*
X92081255Y-63650727D01*
X92077480Y-63676050D01*
X92077480Y-63693640D01*
X91948115Y-63693640D01*
X91948478Y-63686262D01*
X91951944Y-63649141D01*
X91957330Y-63618406D01*
X91965153Y-63591946D01*
X91975932Y-63567651D01*
X91990184Y-63543413D01*
X92017567Y-63508232D01*
X92054379Y-63475723D01*
X92096576Y-63451238D01*
X92143243Y-63435181D01*
X92193468Y-63427956D01*
X92246336Y-63429969D01*
X92278753Y-63436286D01*
X92322979Y-63453116D01*
X92362433Y-63478389D01*
X92396559Y-63511526D01*
X92424800Y-63551953D01*
X92446599Y-63599094D01*
X92461399Y-63652373D01*
X92463072Y-63661715D01*
X92465040Y-63679322D01*
X92467223Y-63698856D01*
X92468786Y-63740578D01*
G36*
X88980107Y-64433004D02*
G01*
X89022041Y-64442458D01*
X89061097Y-64459515D01*
X89095049Y-64483758D01*
X89102422Y-64490217D01*
X89112449Y-64498229D01*
X89117726Y-64501360D01*
X89119179Y-64498001D01*
X89120437Y-64486957D01*
X89120920Y-64470880D01*
X89120920Y-64440400D01*
X89247920Y-64440400D01*
X89247920Y-64761625D01*
X89247853Y-64816865D01*
X89247687Y-64868964D01*
X89247432Y-64917045D01*
X89247096Y-64960230D01*
X89246688Y-64997642D01*
X89246219Y-65028404D01*
X89245697Y-65051638D01*
X89245132Y-65066467D01*
X89244534Y-65072013D01*
X89238810Y-65073291D01*
X89224929Y-65074386D01*
X89205075Y-65075127D01*
X89181382Y-65075400D01*
X89121617Y-65075400D01*
X89119974Y-64863310D01*
X89119650Y-64822021D01*
X89119208Y-64774883D01*
X89118645Y-64736143D01*
X89117840Y-64704791D01*
X89116670Y-64679820D01*
X89115013Y-64660219D01*
X89112748Y-64644982D01*
X89109753Y-64633098D01*
X89105905Y-64623559D01*
X89101084Y-64615357D01*
X89095166Y-64607482D01*
X89088031Y-64598927D01*
X89083410Y-64593740D01*
X89059798Y-64574911D01*
X89031279Y-64563900D01*
X88996460Y-64560118D01*
X88985797Y-64560149D01*
X88967221Y-64561600D01*
X88952173Y-64565793D01*
X88936131Y-64573750D01*
X88925717Y-64579565D01*
X88914882Y-64585443D01*
X88910226Y-64587720D01*
X88907735Y-64585350D01*
X88900016Y-64576633D01*
X88888540Y-64563164D01*
X88874759Y-64546702D01*
X88860126Y-64529006D01*
X88846094Y-64511835D01*
X88834117Y-64496949D01*
X88825647Y-64486108D01*
X88822138Y-64481069D01*
X88823253Y-64477814D01*
X88831312Y-64470495D01*
X88845114Y-64461465D01*
X88862495Y-64452090D01*
X88881293Y-64443733D01*
X88896514Y-64438572D01*
X88937522Y-64431570D01*
X88980107Y-64433004D01*
G37*
X88980107Y-64433004D02*
X89022041Y-64442458D01*
X89061097Y-64459515D01*
X89095049Y-64483758D01*
X89102422Y-64490217D01*
X89112449Y-64498229D01*
X89117726Y-64501360D01*
X89119179Y-64498001D01*
X89120437Y-64486957D01*
X89120920Y-64470880D01*
X89120920Y-64440400D01*
X89247920Y-64440400D01*
X89247920Y-64761625D01*
X89247853Y-64816865D01*
X89247687Y-64868964D01*
X89247432Y-64917045D01*
X89247096Y-64960230D01*
X89246688Y-64997642D01*
X89246219Y-65028404D01*
X89245697Y-65051638D01*
X89245132Y-65066467D01*
X89244534Y-65072013D01*
X89238810Y-65073291D01*
X89224929Y-65074386D01*
X89205075Y-65075127D01*
X89181382Y-65075400D01*
X89121617Y-65075400D01*
X89119974Y-64863310D01*
X89119650Y-64822021D01*
X89119208Y-64774883D01*
X89118645Y-64736143D01*
X89117840Y-64704791D01*
X89116670Y-64679820D01*
X89115013Y-64660219D01*
X89112748Y-64644982D01*
X89109753Y-64633098D01*
X89105905Y-64623559D01*
X89101084Y-64615357D01*
X89095166Y-64607482D01*
X89088031Y-64598927D01*
X89083410Y-64593740D01*
X89059798Y-64574911D01*
X89031279Y-64563900D01*
X88996460Y-64560118D01*
X88985797Y-64560149D01*
X88967221Y-64561600D01*
X88952173Y-64565793D01*
X88936131Y-64573750D01*
X88925717Y-64579565D01*
X88914882Y-64585443D01*
X88910226Y-64587720D01*
X88907735Y-64585350D01*
X88900016Y-64576633D01*
X88888540Y-64563164D01*
X88874759Y-64546702D01*
X88860126Y-64529006D01*
X88846094Y-64511835D01*
X88834117Y-64496949D01*
X88825647Y-64486108D01*
X88822138Y-64481069D01*
X88823253Y-64477814D01*
X88831312Y-64470495D01*
X88845114Y-64461465D01*
X88862495Y-64452090D01*
X88881293Y-64443733D01*
X88896514Y-64438572D01*
X88937522Y-64431570D01*
X88980107Y-64433004D01*
G36*
X92938540Y-65072860D02*
G01*
X92936000Y-64859500D01*
X92935316Y-64808767D01*
X92934384Y-64756884D01*
X92933318Y-64714500D01*
X92932106Y-64681254D01*
X92930733Y-64656784D01*
X92929186Y-64640731D01*
X92927451Y-64632734D01*
X92923493Y-64625162D01*
X92908362Y-64604665D01*
X92889019Y-64585680D01*
X92869188Y-64572085D01*
X92844115Y-64562476D01*
X92810694Y-64558311D01*
X92777918Y-64563039D01*
X92747529Y-64576112D01*
X92721267Y-64596980D01*
X92700875Y-64625095D01*
X92698295Y-64630152D01*
X92695984Y-64635788D01*
X92694094Y-64642609D01*
X92692566Y-64651613D01*
X92691341Y-64663796D01*
X92690361Y-64680155D01*
X92689568Y-64701688D01*
X92688901Y-64729392D01*
X92688304Y-64764263D01*
X92687717Y-64807300D01*
X92687080Y-64859500D01*
X92684540Y-65072860D01*
X92560080Y-65075712D01*
X92560080Y-64842798D01*
X92560105Y-64798718D01*
X92560224Y-64749610D01*
X92560471Y-64708983D01*
X92560874Y-64675887D01*
X92561464Y-64649373D01*
X92562270Y-64628490D01*
X92563322Y-64612291D01*
X92564651Y-64599824D01*
X92566285Y-64590141D01*
X92568255Y-64582292D01*
X92575078Y-64562761D01*
X92595836Y-64523859D01*
X92623484Y-64491062D01*
X92656814Y-64464897D01*
X92694621Y-64445892D01*
X92735696Y-64434573D01*
X92778834Y-64431469D01*
X92822828Y-64437105D01*
X92866469Y-64452011D01*
X92876989Y-64457376D01*
X92897687Y-64470225D01*
X92915020Y-64483587D01*
X92936000Y-64502542D01*
X92936000Y-64002728D01*
X92914410Y-64021209D01*
X92900899Y-64031448D01*
X92880507Y-64044571D01*
X92859921Y-64055895D01*
X92854977Y-64058311D01*
X92840752Y-64064713D01*
X92828202Y-64068753D01*
X92814370Y-64070972D01*
X92796295Y-64071907D01*
X92771021Y-64072100D01*
X92763781Y-64072091D01*
X92740487Y-64071746D01*
X92723565Y-64070495D01*
X92709988Y-64067797D01*
X92696734Y-64063105D01*
X92680777Y-64055878D01*
X92667510Y-64048865D01*
X92642509Y-64032399D01*
X92621550Y-64014673D01*
X92608286Y-64000590D01*
X92594363Y-63982783D01*
X92583272Y-63963726D01*
X92574712Y-63942150D01*
X92568383Y-63916785D01*
X92563983Y-63886363D01*
X92561212Y-63849614D01*
X92559770Y-63805269D01*
X92559356Y-63752060D01*
X92559453Y-63736683D01*
X92687414Y-63736683D01*
X92687742Y-63770893D01*
X92689125Y-63804307D01*
X92691516Y-63834591D01*
X92694866Y-63859415D01*
X92699127Y-63876448D01*
X92707739Y-63894537D01*
X92728243Y-63919944D01*
X92755660Y-63938009D01*
X92766114Y-63941767D01*
X92790401Y-63946168D01*
X92817758Y-63947304D01*
X92843976Y-63945117D01*
X92864844Y-63939547D01*
X92877383Y-63933276D01*
X92896863Y-63918598D01*
X92911956Y-63899032D01*
X92923040Y-63873588D01*
X92930491Y-63841272D01*
X92934686Y-63801093D01*
X92936000Y-63752060D01*
X92934864Y-63707787D01*
X92930349Y-63663822D01*
X92922002Y-63628368D01*
X92909407Y-63600790D01*
X92892149Y-63580448D01*
X92869810Y-63566708D01*
X92841975Y-63558930D01*
X92808228Y-63556480D01*
X92805643Y-63556493D01*
X92771108Y-63559948D01*
X92743645Y-63570026D01*
X92722326Y-63587468D01*
X92706223Y-63613016D01*
X92694409Y-63647410D01*
X92693244Y-63652581D01*
X92690117Y-63675195D01*
X92688190Y-63704006D01*
X92687414Y-63736683D01*
X92559453Y-63736683D01*
X92559646Y-63706256D01*
X92560905Y-63660717D01*
X92563447Y-63622949D01*
X92567581Y-63591673D01*
X92573612Y-63565613D01*
X92581850Y-63543490D01*
X92592599Y-63524027D01*
X92606169Y-63505946D01*
X92622866Y-63487970D01*
X92635929Y-63476008D01*
X92673074Y-63451181D01*
X92714497Y-63434869D01*
X92758591Y-63427590D01*
X92803750Y-63429858D01*
X92839557Y-63438135D01*
X92874478Y-63452961D01*
X92909099Y-63475538D01*
X92936000Y-63495849D01*
X92936000Y-63434560D01*
X93063000Y-63434560D01*
X93063000Y-65075712D01*
X92938540Y-65072860D01*
G37*
X92938540Y-65072860D02*
X92936000Y-64859500D01*
X92935316Y-64808767D01*
X92934384Y-64756884D01*
X92933318Y-64714500D01*
X92932106Y-64681254D01*
X92930733Y-64656784D01*
X92929186Y-64640731D01*
X92927451Y-64632734D01*
X92923493Y-64625162D01*
X92908362Y-64604665D01*
X92889019Y-64585680D01*
X92869188Y-64572085D01*
X92844115Y-64562476D01*
X92810694Y-64558311D01*
X92777918Y-64563039D01*
X92747529Y-64576112D01*
X92721267Y-64596980D01*
X92700875Y-64625095D01*
X92698295Y-64630152D01*
X92695984Y-64635788D01*
X92694094Y-64642609D01*
X92692566Y-64651613D01*
X92691341Y-64663796D01*
X92690361Y-64680155D01*
X92689568Y-64701688D01*
X92688901Y-64729392D01*
X92688304Y-64764263D01*
X92687717Y-64807300D01*
X92687080Y-64859500D01*
X92684540Y-65072860D01*
X92560080Y-65075712D01*
X92560080Y-64842798D01*
X92560105Y-64798718D01*
X92560224Y-64749610D01*
X92560471Y-64708983D01*
X92560874Y-64675887D01*
X92561464Y-64649373D01*
X92562270Y-64628490D01*
X92563322Y-64612291D01*
X92564651Y-64599824D01*
X92566285Y-64590141D01*
X92568255Y-64582292D01*
X92575078Y-64562761D01*
X92595836Y-64523859D01*
X92623484Y-64491062D01*
X92656814Y-64464897D01*
X92694621Y-64445892D01*
X92735696Y-64434573D01*
X92778834Y-64431469D01*
X92822828Y-64437105D01*
X92866469Y-64452011D01*
X92876989Y-64457376D01*
X92897687Y-64470225D01*
X92915020Y-64483587D01*
X92936000Y-64502542D01*
X92936000Y-64002728D01*
X92914410Y-64021209D01*
X92900899Y-64031448D01*
X92880507Y-64044571D01*
X92859921Y-64055895D01*
X92854977Y-64058311D01*
X92840752Y-64064713D01*
X92828202Y-64068753D01*
X92814370Y-64070972D01*
X92796295Y-64071907D01*
X92771021Y-64072100D01*
X92763781Y-64072091D01*
X92740487Y-64071746D01*
X92723565Y-64070495D01*
X92709988Y-64067797D01*
X92696734Y-64063105D01*
X92680777Y-64055878D01*
X92667510Y-64048865D01*
X92642509Y-64032399D01*
X92621550Y-64014673D01*
X92608286Y-64000590D01*
X92594363Y-63982783D01*
X92583272Y-63963726D01*
X92574712Y-63942150D01*
X92568383Y-63916785D01*
X92563983Y-63886363D01*
X92561212Y-63849614D01*
X92559770Y-63805269D01*
X92559356Y-63752060D01*
X92559453Y-63736683D01*
X92687414Y-63736683D01*
X92687742Y-63770893D01*
X92689125Y-63804307D01*
X92691516Y-63834591D01*
X92694866Y-63859415D01*
X92699127Y-63876448D01*
X92707739Y-63894537D01*
X92728243Y-63919944D01*
X92755660Y-63938009D01*
X92766114Y-63941767D01*
X92790401Y-63946168D01*
X92817758Y-63947304D01*
X92843976Y-63945117D01*
X92864844Y-63939547D01*
X92877383Y-63933276D01*
X92896863Y-63918598D01*
X92911956Y-63899032D01*
X92923040Y-63873588D01*
X92930491Y-63841272D01*
X92934686Y-63801093D01*
X92936000Y-63752060D01*
X92934864Y-63707787D01*
X92930349Y-63663822D01*
X92922002Y-63628368D01*
X92909407Y-63600790D01*
X92892149Y-63580448D01*
X92869810Y-63566708D01*
X92841975Y-63558930D01*
X92808228Y-63556480D01*
X92805643Y-63556493D01*
X92771108Y-63559948D01*
X92743645Y-63570026D01*
X92722326Y-63587468D01*
X92706223Y-63613016D01*
X92694409Y-63647410D01*
X92693244Y-63652581D01*
X92690117Y-63675195D01*
X92688190Y-63704006D01*
X92687414Y-63736683D01*
X92559453Y-63736683D01*
X92559646Y-63706256D01*
X92560905Y-63660717D01*
X92563447Y-63622949D01*
X92567581Y-63591673D01*
X92573612Y-63565613D01*
X92581850Y-63543490D01*
X92592599Y-63524027D01*
X92606169Y-63505946D01*
X92622866Y-63487970D01*
X92635929Y-63476008D01*
X92673074Y-63451181D01*
X92714497Y-63434869D01*
X92758591Y-63427590D01*
X92803750Y-63429858D01*
X92839557Y-63438135D01*
X92874478Y-63452961D01*
X92909099Y-63475538D01*
X92936000Y-63495849D01*
X92936000Y-63434560D01*
X93063000Y-63434560D01*
X93063000Y-65075712D01*
X92938540Y-65072860D01*
G36*
X90365624Y-63818196D02*
G01*
X90362017Y-63858738D01*
X90355821Y-63892956D01*
X90346573Y-63922452D01*
X90333810Y-63948827D01*
X90317068Y-63973683D01*
X90295884Y-63998623D01*
X90290012Y-64004693D01*
X90258036Y-64030997D01*
X90221024Y-64052701D01*
X90183088Y-64067301D01*
X90178053Y-64068564D01*
X90150184Y-64072733D01*
X90117068Y-64074337D01*
X90082448Y-64073443D01*
X90050066Y-64070119D01*
X90023664Y-64064432D01*
X90017383Y-64062390D01*
X89974094Y-64042435D01*
X89934970Y-64014098D01*
X89901533Y-63978680D01*
X89875301Y-63937480D01*
X89865767Y-63915019D01*
X89857413Y-63884728D01*
X89851694Y-63848467D01*
X89848411Y-63804907D01*
X89847360Y-63752721D01*
X89847360Y-63752060D01*
X89976900Y-63752060D01*
X89976968Y-63784520D01*
X89977292Y-63810575D01*
X89978038Y-63829850D01*
X89979373Y-63844085D01*
X89981464Y-63855016D01*
X89984477Y-63864381D01*
X89988579Y-63873916D01*
X89993979Y-63884961D01*
X90007900Y-63906597D01*
X90024926Y-63922439D01*
X90048020Y-63935562D01*
X90059545Y-63940437D01*
X90080915Y-63945804D01*
X90106440Y-63947071D01*
X90135968Y-63945163D01*
X90158995Y-63939561D01*
X90178751Y-63929021D01*
X90198534Y-63912296D01*
X90204786Y-63905963D01*
X90217455Y-63890249D01*
X90226844Y-63872788D01*
X90233388Y-63851909D01*
X90237523Y-63825942D01*
X90239685Y-63793215D01*
X90240309Y-63752060D01*
X90240306Y-63748955D01*
X90239525Y-63708247D01*
X90237077Y-63675802D01*
X90232551Y-63649917D01*
X90225537Y-63628886D01*
X90215625Y-63611003D01*
X90202404Y-63594564D01*
X90178319Y-63575078D01*
X90148059Y-63561830D01*
X90114716Y-63556068D01*
X90080600Y-63558180D01*
X90048020Y-63568557D01*
X90037800Y-63573711D01*
X90017506Y-63587560D01*
X90002087Y-63605366D01*
X89988579Y-63630203D01*
X89984669Y-63639244D01*
X89981601Y-63648574D01*
X89979465Y-63659376D01*
X89978093Y-63673388D01*
X89977320Y-63692348D01*
X89976978Y-63717993D01*
X89976900Y-63752060D01*
X89847360Y-63752060D01*
X89847361Y-63751326D01*
X89848472Y-63697932D01*
X89852008Y-63652969D01*
X89858414Y-63614933D01*
X89868133Y-63582325D01*
X89881611Y-63553643D01*
X89899294Y-63527385D01*
X89921625Y-63502050D01*
X89955668Y-63473187D01*
X89998170Y-63449224D01*
X90044848Y-63433590D01*
X90094267Y-63426754D01*
X90144991Y-63429183D01*
X90189710Y-63438481D01*
X90229230Y-63453891D01*
X90264621Y-63476479D01*
X90298364Y-63507514D01*
X90299389Y-63508602D01*
X90319982Y-63532992D01*
X90336233Y-63558331D01*
X90348566Y-63586128D01*
X90357405Y-63617891D01*
X90363175Y-63655128D01*
X90366301Y-63699348D01*
X90367208Y-63752060D01*
X90367106Y-63769727D01*
X90365624Y-63818196D01*
G37*
X90365624Y-63818196D02*
X90362017Y-63858738D01*
X90355821Y-63892956D01*
X90346573Y-63922452D01*
X90333810Y-63948827D01*
X90317068Y-63973683D01*
X90295884Y-63998623D01*
X90290012Y-64004693D01*
X90258036Y-64030997D01*
X90221024Y-64052701D01*
X90183088Y-64067301D01*
X90178053Y-64068564D01*
X90150184Y-64072733D01*
X90117068Y-64074337D01*
X90082448Y-64073443D01*
X90050066Y-64070119D01*
X90023664Y-64064432D01*
X90017383Y-64062390D01*
X89974094Y-64042435D01*
X89934970Y-64014098D01*
X89901533Y-63978680D01*
X89875301Y-63937480D01*
X89865767Y-63915019D01*
X89857413Y-63884728D01*
X89851694Y-63848467D01*
X89848411Y-63804907D01*
X89847360Y-63752721D01*
X89847360Y-63752060D01*
X89976900Y-63752060D01*
X89976968Y-63784520D01*
X89977292Y-63810575D01*
X89978038Y-63829850D01*
X89979373Y-63844085D01*
X89981464Y-63855016D01*
X89984477Y-63864381D01*
X89988579Y-63873916D01*
X89993979Y-63884961D01*
X90007900Y-63906597D01*
X90024926Y-63922439D01*
X90048020Y-63935562D01*
X90059545Y-63940437D01*
X90080915Y-63945804D01*
X90106440Y-63947071D01*
X90135968Y-63945163D01*
X90158995Y-63939561D01*
X90178751Y-63929021D01*
X90198534Y-63912296D01*
X90204786Y-63905963D01*
X90217455Y-63890249D01*
X90226844Y-63872788D01*
X90233388Y-63851909D01*
X90237523Y-63825942D01*
X90239685Y-63793215D01*
X90240309Y-63752060D01*
X90240306Y-63748955D01*
X90239525Y-63708247D01*
X90237077Y-63675802D01*
X90232551Y-63649917D01*
X90225537Y-63628886D01*
X90215625Y-63611003D01*
X90202404Y-63594564D01*
X90178319Y-63575078D01*
X90148059Y-63561830D01*
X90114716Y-63556068D01*
X90080600Y-63558180D01*
X90048020Y-63568557D01*
X90037800Y-63573711D01*
X90017506Y-63587560D01*
X90002087Y-63605366D01*
X89988579Y-63630203D01*
X89984669Y-63639244D01*
X89981601Y-63648574D01*
X89979465Y-63659376D01*
X89978093Y-63673388D01*
X89977320Y-63692348D01*
X89976978Y-63717993D01*
X89976900Y-63752060D01*
X89847360Y-63752060D01*
X89847361Y-63751326D01*
X89848472Y-63697932D01*
X89852008Y-63652969D01*
X89858414Y-63614933D01*
X89868133Y-63582325D01*
X89881611Y-63553643D01*
X89899294Y-63527385D01*
X89921625Y-63502050D01*
X89955668Y-63473187D01*
X89998170Y-63449224D01*
X90044848Y-63433590D01*
X90094267Y-63426754D01*
X90144991Y-63429183D01*
X90189710Y-63438481D01*
X90229230Y-63453891D01*
X90264621Y-63476479D01*
X90298364Y-63507514D01*
X90299389Y-63508602D01*
X90319982Y-63532992D01*
X90336233Y-63558331D01*
X90348566Y-63586128D01*
X90357405Y-63617891D01*
X90363175Y-63655128D01*
X90366301Y-63699348D01*
X90367208Y-63752060D01*
X90367106Y-63769727D01*
X90365624Y-63818196D01*
G36*
X88813453Y-64768590D02*
G01*
X88811846Y-64809955D01*
X88808034Y-64847432D01*
X88802011Y-64878009D01*
X88790909Y-64912617D01*
X88768956Y-64959367D01*
X88740915Y-64998164D01*
X88706464Y-65029343D01*
X88665277Y-65053240D01*
X88617032Y-65070193D01*
X88603687Y-65073341D01*
X88551431Y-65079771D01*
X88497807Y-65077882D01*
X88445527Y-65067921D01*
X88397305Y-65050135D01*
X88390800Y-65046774D01*
X88373827Y-65036396D01*
X88355478Y-65023528D01*
X88337744Y-65009757D01*
X88322613Y-64996673D01*
X88312075Y-64985864D01*
X88308120Y-64978919D01*
X88311409Y-64974688D01*
X88320748Y-64965561D01*
X88334225Y-64953276D01*
X88349915Y-64939495D01*
X88365894Y-64925883D01*
X88380239Y-64914101D01*
X88391025Y-64905812D01*
X88396329Y-64902680D01*
X88399669Y-64904238D01*
X88409254Y-64910540D01*
X88422202Y-64920029D01*
X88435337Y-64929370D01*
X88469196Y-64946900D01*
X88505560Y-64956004D01*
X88546880Y-64957417D01*
X88569149Y-64955698D01*
X88592560Y-64951495D01*
X88610380Y-64944675D01*
X88634079Y-64928847D01*
X88658750Y-64901977D01*
X88676428Y-64868731D01*
X88686329Y-64830290D01*
X88689743Y-64806160D01*
X88292880Y-64806160D01*
X88292956Y-64733770D01*
X88292988Y-64725603D01*
X88293743Y-64699480D01*
X88419880Y-64699480D01*
X88689743Y-64699480D01*
X88686292Y-64675350D01*
X88681925Y-64654355D01*
X88668866Y-64621148D01*
X88649827Y-64592960D01*
X88626021Y-64571415D01*
X88598662Y-64558134D01*
X88577504Y-64553842D01*
X88548875Y-64552458D01*
X88521080Y-64555129D01*
X88498424Y-64561702D01*
X88498293Y-64561762D01*
X88474484Y-64577542D01*
X88453081Y-64600767D01*
X88435741Y-64628765D01*
X88424122Y-64658861D01*
X88419880Y-64688383D01*
X88419880Y-64699480D01*
X88293743Y-64699480D01*
X88294192Y-64683934D01*
X88297447Y-64649538D01*
X88303188Y-64620053D01*
X88311853Y-64593120D01*
X88323876Y-64566379D01*
X88345254Y-64532247D01*
X88376760Y-64498342D01*
X88414271Y-64470745D01*
X88456360Y-64449995D01*
X88501603Y-64436629D01*
X88548575Y-64431187D01*
X88595850Y-64434206D01*
X88642003Y-64446225D01*
X88653373Y-64450701D01*
X88695455Y-64473016D01*
X88730898Y-64502202D01*
X88760122Y-64538759D01*
X88783546Y-64583186D01*
X88801590Y-64635980D01*
X88805096Y-64651310D01*
X88810073Y-64686253D01*
X88810993Y-64699480D01*
X88812860Y-64726351D01*
X88813453Y-64768590D01*
G37*
X88813453Y-64768590D02*
X88811846Y-64809955D01*
X88808034Y-64847432D01*
X88802011Y-64878009D01*
X88790909Y-64912617D01*
X88768956Y-64959367D01*
X88740915Y-64998164D01*
X88706464Y-65029343D01*
X88665277Y-65053240D01*
X88617032Y-65070193D01*
X88603687Y-65073341D01*
X88551431Y-65079771D01*
X88497807Y-65077882D01*
X88445527Y-65067921D01*
X88397305Y-65050135D01*
X88390800Y-65046774D01*
X88373827Y-65036396D01*
X88355478Y-65023528D01*
X88337744Y-65009757D01*
X88322613Y-64996673D01*
X88312075Y-64985864D01*
X88308120Y-64978919D01*
X88311409Y-64974688D01*
X88320748Y-64965561D01*
X88334225Y-64953276D01*
X88349915Y-64939495D01*
X88365894Y-64925883D01*
X88380239Y-64914101D01*
X88391025Y-64905812D01*
X88396329Y-64902680D01*
X88399669Y-64904238D01*
X88409254Y-64910540D01*
X88422202Y-64920029D01*
X88435337Y-64929370D01*
X88469196Y-64946900D01*
X88505560Y-64956004D01*
X88546880Y-64957417D01*
X88569149Y-64955698D01*
X88592560Y-64951495D01*
X88610380Y-64944675D01*
X88634079Y-64928847D01*
X88658750Y-64901977D01*
X88676428Y-64868731D01*
X88686329Y-64830290D01*
X88689743Y-64806160D01*
X88292880Y-64806160D01*
X88292956Y-64733770D01*
X88292988Y-64725603D01*
X88293743Y-64699480D01*
X88419880Y-64699480D01*
X88689743Y-64699480D01*
X88686292Y-64675350D01*
X88681925Y-64654355D01*
X88668866Y-64621148D01*
X88649827Y-64592960D01*
X88626021Y-64571415D01*
X88598662Y-64558134D01*
X88577504Y-64553842D01*
X88548875Y-64552458D01*
X88521080Y-64555129D01*
X88498424Y-64561702D01*
X88498293Y-64561762D01*
X88474484Y-64577542D01*
X88453081Y-64600767D01*
X88435741Y-64628765D01*
X88424122Y-64658861D01*
X88419880Y-64688383D01*
X88419880Y-64699480D01*
X88293743Y-64699480D01*
X88294192Y-64683934D01*
X88297447Y-64649538D01*
X88303188Y-64620053D01*
X88311853Y-64593120D01*
X88323876Y-64566379D01*
X88345254Y-64532247D01*
X88376760Y-64498342D01*
X88414271Y-64470745D01*
X88456360Y-64449995D01*
X88501603Y-64436629D01*
X88548575Y-64431187D01*
X88595850Y-64434206D01*
X88642003Y-64446225D01*
X88653373Y-64450701D01*
X88695455Y-64473016D01*
X88730898Y-64502202D01*
X88760122Y-64538759D01*
X88783546Y-64583186D01*
X88801590Y-64635980D01*
X88805096Y-64651310D01*
X88810073Y-64686253D01*
X88810993Y-64699480D01*
X88812860Y-64726351D01*
X88813453Y-64768590D01*
G36*
X89355879Y-63641570D02*
G01*
X89356191Y-63676669D01*
X89356703Y-63725149D01*
X89357347Y-63765120D01*
X89358258Y-63797598D01*
X89359570Y-63823599D01*
X89361416Y-63844138D01*
X89363931Y-63860230D01*
X89367249Y-63872892D01*
X89371503Y-63883138D01*
X89376828Y-63891985D01*
X89383357Y-63900449D01*
X89391225Y-63909544D01*
X89404581Y-63922838D01*
X89428478Y-63938099D01*
X89456560Y-63945846D01*
X89490830Y-63946829D01*
X89520669Y-63942609D01*
X89549425Y-63931139D01*
X89572401Y-63911956D01*
X89590743Y-63884342D01*
X89606060Y-63854403D01*
X89607542Y-63644481D01*
X89609024Y-63434560D01*
X89735600Y-63434560D01*
X89735600Y-63657829D01*
X89735580Y-63683238D01*
X89735326Y-63744123D01*
X89734787Y-63795926D01*
X89733968Y-63838432D01*
X89732875Y-63871426D01*
X89731512Y-63894694D01*
X89729884Y-63908019D01*
X89719000Y-63943067D01*
X89697682Y-63982608D01*
X89668723Y-64016703D01*
X89664061Y-64021082D01*
X89646469Y-64036580D01*
X89630995Y-64047516D01*
X89613788Y-64056300D01*
X89590999Y-64065339D01*
X89579417Y-64069078D01*
X89562702Y-64072290D01*
X89542143Y-64073599D01*
X89514620Y-64073333D01*
X89501442Y-64072869D01*
X89479803Y-64071373D01*
X89463148Y-64068568D01*
X89447979Y-64063739D01*
X89430800Y-64056169D01*
X89413318Y-64046776D01*
X89393728Y-64034017D01*
X89378982Y-64022012D01*
X89371805Y-64015148D01*
X89362290Y-64006785D01*
X89357392Y-64003520D01*
X89356018Y-64007829D01*
X89354992Y-64019722D01*
X89354600Y-64036540D01*
X89354600Y-64069560D01*
X89227600Y-64069560D01*
X89227600Y-63434560D01*
X89354074Y-63434560D01*
X89355879Y-63641570D01*
G37*
X89355879Y-63641570D02*
X89356191Y-63676669D01*
X89356703Y-63725149D01*
X89357347Y-63765120D01*
X89358258Y-63797598D01*
X89359570Y-63823599D01*
X89361416Y-63844138D01*
X89363931Y-63860230D01*
X89367249Y-63872892D01*
X89371503Y-63883138D01*
X89376828Y-63891985D01*
X89383357Y-63900449D01*
X89391225Y-63909544D01*
X89404581Y-63922838D01*
X89428478Y-63938099D01*
X89456560Y-63945846D01*
X89490830Y-63946829D01*
X89520669Y-63942609D01*
X89549425Y-63931139D01*
X89572401Y-63911956D01*
X89590743Y-63884342D01*
X89606060Y-63854403D01*
X89607542Y-63644481D01*
X89609024Y-63434560D01*
X89735600Y-63434560D01*
X89735600Y-63657829D01*
X89735580Y-63683238D01*
X89735326Y-63744123D01*
X89734787Y-63795926D01*
X89733968Y-63838432D01*
X89732875Y-63871426D01*
X89731512Y-63894694D01*
X89729884Y-63908019D01*
X89719000Y-63943067D01*
X89697682Y-63982608D01*
X89668723Y-64016703D01*
X89664061Y-64021082D01*
X89646469Y-64036580D01*
X89630995Y-64047516D01*
X89613788Y-64056300D01*
X89590999Y-64065339D01*
X89579417Y-64069078D01*
X89562702Y-64072290D01*
X89542143Y-64073599D01*
X89514620Y-64073333D01*
X89501442Y-64072869D01*
X89479803Y-64071373D01*
X89463148Y-64068568D01*
X89447979Y-64063739D01*
X89430800Y-64056169D01*
X89413318Y-64046776D01*
X89393728Y-64034017D01*
X89378982Y-64022012D01*
X89371805Y-64015148D01*
X89362290Y-64006785D01*
X89357392Y-64003520D01*
X89356018Y-64007829D01*
X89354992Y-64019722D01*
X89354600Y-64036540D01*
X89354600Y-64069560D01*
X89227600Y-64069560D01*
X89227600Y-63434560D01*
X89354074Y-63434560D01*
X89355879Y-63641570D01*
G36*
X88442299Y-63432477D02*
G01*
X88493028Y-63445440D01*
X88538302Y-63466627D01*
X88577696Y-63495785D01*
X88610783Y-63532661D01*
X88637138Y-63577000D01*
X88638260Y-63579364D01*
X88650498Y-63606815D01*
X88659365Y-63631310D01*
X88665371Y-63655465D01*
X88669028Y-63681897D01*
X88670848Y-63713223D01*
X88671340Y-63752060D01*
X88671339Y-63754403D01*
X88670783Y-63792822D01*
X88668869Y-63823862D01*
X88665091Y-63850127D01*
X88658944Y-63874224D01*
X88649922Y-63898756D01*
X88637519Y-63926331D01*
X88626686Y-63946823D01*
X88596942Y-63987951D01*
X88560138Y-64021984D01*
X88516835Y-64048457D01*
X88467592Y-64066908D01*
X88460430Y-64068499D01*
X88440554Y-64071280D01*
X88416145Y-64073293D01*
X88390933Y-64074185D01*
X88366968Y-64074001D01*
X88343410Y-64072321D01*
X88322208Y-64068508D01*
X88299099Y-64061995D01*
X88269032Y-64049973D01*
X88233705Y-64030691D01*
X88200541Y-64007681D01*
X88173500Y-63983421D01*
X88158260Y-63967238D01*
X88193820Y-63934427D01*
X88213668Y-63916147D01*
X88229602Y-63902064D01*
X88240983Y-63893601D01*
X88249378Y-63890143D01*
X88256356Y-63891076D01*
X88263486Y-63895784D01*
X88272336Y-63903652D01*
X88283601Y-63913274D01*
X88310997Y-63931237D01*
X88340342Y-63941837D01*
X88375254Y-63946584D01*
X88390058Y-63947020D01*
X88430769Y-63942762D01*
X88465641Y-63930286D01*
X88494515Y-63909777D01*
X88517228Y-63881416D01*
X88533622Y-63845387D01*
X88543534Y-63801873D01*
X88546805Y-63751057D01*
X88546670Y-63741228D01*
X88542075Y-63692791D01*
X88531082Y-63651168D01*
X88513861Y-63616848D01*
X88490583Y-63590321D01*
X88482221Y-63583654D01*
X88454827Y-63568102D01*
X88423013Y-63559284D01*
X88384686Y-63556529D01*
X88375229Y-63556738D01*
X88337823Y-63562400D01*
X88304542Y-63576449D01*
X88273109Y-63599768D01*
X88252216Y-63618644D01*
X88230638Y-63600480D01*
X88219422Y-63590881D01*
X88201078Y-63574811D01*
X88183660Y-63559202D01*
X88158260Y-63536087D01*
X88189830Y-63506447D01*
X88196526Y-63500314D01*
X88239249Y-63468074D01*
X88284711Y-63445473D01*
X88333665Y-63432212D01*
X88386860Y-63427992D01*
X88442299Y-63432477D01*
G37*
X88442299Y-63432477D02*
X88493028Y-63445440D01*
X88538302Y-63466627D01*
X88577696Y-63495785D01*
X88610783Y-63532661D01*
X88637138Y-63577000D01*
X88638260Y-63579364D01*
X88650498Y-63606815D01*
X88659365Y-63631310D01*
X88665371Y-63655465D01*
X88669028Y-63681897D01*
X88670848Y-63713223D01*
X88671340Y-63752060D01*
X88671339Y-63754403D01*
X88670783Y-63792822D01*
X88668869Y-63823862D01*
X88665091Y-63850127D01*
X88658944Y-63874224D01*
X88649922Y-63898756D01*
X88637519Y-63926331D01*
X88626686Y-63946823D01*
X88596942Y-63987951D01*
X88560138Y-64021984D01*
X88516835Y-64048457D01*
X88467592Y-64066908D01*
X88460430Y-64068499D01*
X88440554Y-64071280D01*
X88416145Y-64073293D01*
X88390933Y-64074185D01*
X88366968Y-64074001D01*
X88343410Y-64072321D01*
X88322208Y-64068508D01*
X88299099Y-64061995D01*
X88269032Y-64049973D01*
X88233705Y-64030691D01*
X88200541Y-64007681D01*
X88173500Y-63983421D01*
X88158260Y-63967238D01*
X88193820Y-63934427D01*
X88213668Y-63916147D01*
X88229602Y-63902064D01*
X88240983Y-63893601D01*
X88249378Y-63890143D01*
X88256356Y-63891076D01*
X88263486Y-63895784D01*
X88272336Y-63903652D01*
X88283601Y-63913274D01*
X88310997Y-63931237D01*
X88340342Y-63941837D01*
X88375254Y-63946584D01*
X88390058Y-63947020D01*
X88430769Y-63942762D01*
X88465641Y-63930286D01*
X88494515Y-63909777D01*
X88517228Y-63881416D01*
X88533622Y-63845387D01*
X88543534Y-63801873D01*
X88546805Y-63751057D01*
X88546670Y-63741228D01*
X88542075Y-63692791D01*
X88531082Y-63651168D01*
X88513861Y-63616848D01*
X88490583Y-63590321D01*
X88482221Y-63583654D01*
X88454827Y-63568102D01*
X88423013Y-63559284D01*
X88384686Y-63556529D01*
X88375229Y-63556738D01*
X88337823Y-63562400D01*
X88304542Y-63576449D01*
X88273109Y-63599768D01*
X88252216Y-63618644D01*
X88230638Y-63600480D01*
X88219422Y-63590881D01*
X88201078Y-63574811D01*
X88183660Y-63559202D01*
X88158260Y-63536087D01*
X88189830Y-63506447D01*
X88196526Y-63500314D01*
X88239249Y-63468074D01*
X88284711Y-63445473D01*
X88333665Y-63432212D01*
X88386860Y-63427992D01*
X88442299Y-63432477D01*
G04 #@! TD*
D11*
G04 #@! TO.C,REF\u002A\u002A*
X49333334Y-11000489D03*
G04 #@! TD*
G04 #@! TO.C,REF\u002A\u002A*
X89333333Y-66000000D03*
G04 #@! TD*
G04 #@! TO.C,REF\u002A\u002A*
X111000000Y-8000000D03*
G04 #@! TD*
G04 #@! TO.C,REF\u002A\u002A*
X29333334Y-65996968D03*
G04 #@! TD*
G04 #@! TO.C,REF\u002A\u002A*
X111000000Y-77000000D03*
G04 #@! TD*
G04 #@! TO.C,REF\u002A\u002A*
X111000000Y-73800000D03*
G04 #@! TD*
G04 #@! TO.C,REF\u002A\u002A*
X111000000Y-75400000D03*
G04 #@! TD*
G04 #@! TO.C,REF\u002A\u002A*
X93500000Y-66000000D03*
G04 #@! TD*
G04 #@! TO.C,REF\u002A\u002A*
X122000000Y-66000000D03*
G04 #@! TD*
G04 #@! TO.C,REF\u002A\u002A*
X111000000Y-2400000D03*
G04 #@! TD*
G04 #@! TO.C,REF\u002A\u002A*
X7200000Y-66000000D03*
G04 #@! TD*
G04 #@! TO.C,REF\u002A\u002A*
X1600000Y-66000000D03*
G04 #@! TD*
G04 #@! TO.C,REF\u002A\u002A*
X73500000Y-66000000D03*
G04 #@! TD*
G04 #@! TO.C,REF\u002A\u002A*
X120400000Y-66000000D03*
G04 #@! TD*
G04 #@! TO.C,REF\u002A\u002A*
X69333333Y-11000751D03*
G04 #@! TD*
G04 #@! TO.C,REF\u002A\u002A*
X118000000Y-66000000D03*
G04 #@! TD*
G04 #@! TO.C,REF\u002A\u002A*
X29333334Y-11000227D03*
G04 #@! TD*
G04 #@! TO.C,REF\u002A\u002A*
X30166667Y-11000238D03*
G04 #@! TD*
G04 #@! TO.C,REF\u002A\u002A*
X51833334Y-11000522D03*
G04 #@! TD*
G04 #@! TO.C,REF\u002A\u002A*
X114000000Y-11000000D03*
G04 #@! TD*
G04 #@! TO.C,REF\u002A\u002A*
X11000568Y-40166666D03*
G04 #@! TD*
G04 #@! TO.C,REF\u002A\u002A*
X11000000Y-7200000D03*
G04 #@! TD*
G04 #@! TO.C,REF\u002A\u002A*
X90166666Y-11001024D03*
G04 #@! TD*
G04 #@! TO.C,REF\u002A\u002A*
X11000000Y-74600000D03*
G04 #@! TD*
G04 #@! TO.C,REF\u002A\u002A*
X52666667Y-65999237D03*
G04 #@! TD*
G04 #@! TO.C,REF\u002A\u002A*
X11000000Y-6400000D03*
G04 #@! TD*
G04 #@! TO.C,REF\u002A\u002A*
X50166667Y-65998994D03*
G04 #@! TD*
G04 #@! TO.C,REF\u002A\u002A*
X0Y-11000000D03*
G04 #@! TD*
G04 #@! TO.C,REF\u002A\u002A*
X111000000Y-69800000D03*
G04 #@! TD*
G04 #@! TO.C,REF\u002A\u002A*
X0Y-66000000D03*
G04 #@! TD*
G04 #@! TO.C,REF\u002A\u002A*
X31833334Y-65997211D03*
G04 #@! TD*
G04 #@! TO.C,REF\u002A\u002A*
X11000000Y-73800000D03*
G04 #@! TD*
G04 #@! TO.C,REF\u002A\u002A*
X32666667Y-65997292D03*
G04 #@! TD*
G04 #@! TO.C,REF\u002A\u002A*
X120400000Y-11000000D03*
G04 #@! TD*
G04 #@! TO.C,REF\u002A\u002A*
X3200000Y-66000000D03*
G04 #@! TD*
G04 #@! TO.C,REF\u002A\u002A*
X11000000Y-75400000D03*
G04 #@! TD*
G04 #@! TO.C,REF\u002A\u002A*
X91000000Y-11001035D03*
G04 #@! TD*
G04 #@! TO.C,REF\u002A\u002A*
X91833333Y-11001046D03*
G04 #@! TD*
G04 #@! TO.C,REF\u002A\u002A*
X114800000Y-66000000D03*
G04 #@! TD*
G04 #@! TO.C,REF\u002A\u002A*
X800000Y-66000000D03*
G04 #@! TD*
D12*
G04 #@! TO.C,H4*
X107500000Y-62500000D03*
G04 #@! TD*
D11*
G04 #@! TO.C,REF\u002A\u002A*
X117200000Y-11000000D03*
G04 #@! TD*
G04 #@! TO.C,REF\u002A\u002A*
X50166667Y-11000500D03*
G04 #@! TD*
G04 #@! TO.C,REF\u002A\u002A*
X72666666Y-11000795D03*
G04 #@! TD*
G04 #@! TO.C,REF\u002A\u002A*
X71833333Y-11000784D03*
G04 #@! TD*
G04 #@! TO.C,REF\u002A\u002A*
X49333334Y-65998913D03*
G04 #@! TD*
G04 #@! TO.C,REF\u002A\u002A*
X118800000Y-11000000D03*
G04 #@! TD*
G04 #@! TO.C,REF\u002A\u002A*
X118000000Y-11000000D03*
G04 #@! TD*
G04 #@! TO.C,REF\u002A\u002A*
X31000000Y-65997130D03*
G04 #@! TD*
G04 #@! TO.C,REF\u002A\u002A*
X4800000Y-66000000D03*
G04 #@! TD*
G04 #@! TO.C,REF\u002A\u002A*
X111000000Y-4800000D03*
G04 #@! TD*
G04 #@! TO.C,REF\u002A\u002A*
X51833334Y-65999156D03*
G04 #@! TD*
D13*
G04 #@! TO.C,REF\u002A\u002A*
X4000000Y-4000000D03*
G04 #@! TD*
D11*
G04 #@! TO.C,REF\u002A\u002A*
X70166666Y-66000000D03*
G04 #@! TD*
G04 #@! TO.C,REF\u002A\u002A*
X11000000Y-69800000D03*
G04 #@! TD*
G04 #@! TO.C,REF\u002A\u002A*
X5600000Y-11000000D03*
G04 #@! TD*
G04 #@! TO.C,REF\u002A\u002A*
X31833334Y-11000260D03*
G04 #@! TD*
G04 #@! TO.C,REF\u002A\u002A*
X111000000Y-73000000D03*
G04 #@! TD*
G04 #@! TO.C,REF\u002A\u002A*
X53500000Y-65999319D03*
G04 #@! TD*
G04 #@! TO.C,REF\u002A\u002A*
X11000000Y0D03*
G04 #@! TD*
G04 #@! TO.C,REF\u002A\u002A*
X111000000Y-70600000D03*
G04 #@! TD*
G04 #@! TO.C,REF\u002A\u002A*
X51000000Y-11000511D03*
G04 #@! TD*
G04 #@! TO.C,REF\u002A\u002A*
X70166666Y-11000762D03*
G04 #@! TD*
G04 #@! TO.C,REF\u002A\u002A*
X31000000Y-11000249D03*
G04 #@! TD*
G04 #@! TO.C,REF\u002A\u002A*
X116400000Y-66000000D03*
G04 #@! TD*
G04 #@! TO.C,REF\u002A\u002A*
X11000000Y-800000D03*
G04 #@! TD*
G04 #@! TO.C,REF\u002A\u002A*
X4000000Y-66000000D03*
G04 #@! TD*
G04 #@! TO.C,REF\u002A\u002A*
X33500000Y-11000282D03*
G04 #@! TD*
G04 #@! TO.C,REF\u002A\u002A*
X111000000Y-3200000D03*
G04 #@! TD*
G04 #@! TO.C,REF\u002A\u002A*
X11000000Y-72200000D03*
G04 #@! TD*
G04 #@! TO.C,REF\u002A\u002A*
X110997577Y-39333333D03*
G04 #@! TD*
G04 #@! TO.C,REF\u002A\u002A*
X69333333Y-66000000D03*
G04 #@! TD*
G04 #@! TO.C,REF\u002A\u002A*
X117200000Y-66000000D03*
G04 #@! TD*
G04 #@! TO.C,REF\u002A\u002A*
X111000000Y-72200000D03*
G04 #@! TD*
G04 #@! TO.C,REF\u002A\u002A*
X73500000Y-11000806D03*
G04 #@! TD*
G04 #@! TO.C,REF\u002A\u002A*
X11000000Y-77000000D03*
G04 #@! TD*
G04 #@! TO.C,REF\u002A\u002A*
X92666666Y-11001056D03*
G04 #@! TD*
G04 #@! TO.C,REF\u002A\u002A*
X111000000Y-5600000D03*
G04 #@! TD*
G04 #@! TO.C,REF\u002A\u002A*
X89333333Y-11001013D03*
G04 #@! TD*
G04 #@! TO.C,REF\u002A\u002A*
X3200000Y-11000000D03*
G04 #@! TD*
G04 #@! TO.C,REF\u002A\u002A*
X8000000Y-11000000D03*
G04 #@! TD*
G04 #@! TO.C,REF\u002A\u002A*
X111000000Y-7200000D03*
G04 #@! TD*
D14*
G04 #@! TO.C,J9*
X15680000Y-54000000D03*
D15*
X20000000Y-55500000D03*
D16*
X20000000Y-52500000D03*
X23000000Y-55500000D03*
X23000000Y-52500000D03*
G04 #@! TD*
D11*
G04 #@! TO.C,REF\u002A\u002A*
X48500000Y-11000478D03*
G04 #@! TD*
G04 #@! TO.C,REF\u002A\u002A*
X121200000Y-11000000D03*
G04 #@! TD*
G04 #@! TO.C,REF\u002A\u002A*
X33500000Y-65997373D03*
G04 #@! TD*
G04 #@! TO.C,REF\u002A\u002A*
X115600000Y-66000000D03*
G04 #@! TD*
G04 #@! TO.C,REF\u002A\u002A*
X114800000Y-11000000D03*
G04 #@! TD*
G04 #@! TO.C,REF\u002A\u002A*
X110997429Y-41000000D03*
G04 #@! TD*
G04 #@! TO.C,REF\u002A\u002A*
X48500000Y-65998832D03*
G04 #@! TD*
G04 #@! TO.C,REF\u002A\u002A*
X11000631Y-37666667D03*
G04 #@! TD*
G04 #@! TO.C,REF\u002A\u002A*
X11000000Y-3200000D03*
G04 #@! TD*
G04 #@! TO.C,REF\u002A\u002A*
X4000000Y-11000000D03*
G04 #@! TD*
D12*
G04 #@! TO.C,H2*
X107500000Y-35500000D03*
G04 #@! TD*
D11*
G04 #@! TO.C,REF\u002A\u002A*
X111000000Y-1600000D03*
G04 #@! TD*
G04 #@! TO.C,REF\u002A\u002A*
X30166667Y-65997049D03*
G04 #@! TD*
G04 #@! TO.C,REF\u002A\u002A*
X8000000Y-66000000D03*
G04 #@! TD*
G04 #@! TO.C,REF\u002A\u002A*
X11000000Y-2400000D03*
G04 #@! TD*
G04 #@! TO.C,REF\u002A\u002A*
X11000000Y-4000000D03*
G04 #@! TD*
G04 #@! TO.C,REF\u002A\u002A*
X88500000Y-66000000D03*
G04 #@! TD*
D17*
G04 #@! TO.C,J1*
X24500000Y-61500000D03*
D18*
X24500000Y-64040000D03*
X21960000Y-61500000D03*
X21960000Y-64040000D03*
X19420000Y-61500000D03*
X19420000Y-64040000D03*
G04 #@! TD*
D19*
G04 #@! TO.C,M1*
X30293600Y-17900010D03*
D20*
X99093600Y-17900010D03*
G04 #@! TD*
D11*
G04 #@! TO.C,REF\u002A\u002A*
X118800000Y-66000000D03*
G04 #@! TD*
G04 #@! TO.C,REF\u002A\u002A*
X11000652Y-36833334D03*
G04 #@! TD*
G04 #@! TO.C,REF\u002A\u002A*
X114000000Y-66000000D03*
G04 #@! TD*
G04 #@! TO.C,REF\u002A\u002A*
X119600000Y-11000000D03*
G04 #@! TD*
G04 #@! TO.C,REF\u002A\u002A*
X11000673Y-36000000D03*
G04 #@! TD*
G04 #@! TO.C,REF\u002A\u002A*
X110997872Y-36000000D03*
G04 #@! TD*
D13*
G04 #@! TO.C,REF\u002A\u002A*
X118000000Y-4000000D03*
G04 #@! TD*
D11*
G04 #@! TO.C,REF\u002A\u002A*
X92666666Y-66000000D03*
G04 #@! TD*
G04 #@! TO.C,REF\u002A\u002A*
X11000000Y-1600000D03*
G04 #@! TD*
G04 #@! TO.C,REF\u002A\u002A*
X115600000Y-11000000D03*
G04 #@! TD*
G04 #@! TO.C,REF\u002A\u002A*
X72666666Y-66000000D03*
G04 #@! TD*
G04 #@! TO.C,REF\u002A\u002A*
X32666667Y-11000271D03*
G04 #@! TD*
G04 #@! TO.C,REF\u002A\u002A*
X91833333Y-66000000D03*
G04 #@! TD*
G04 #@! TO.C,REF\u002A\u002A*
X68500000Y-66000000D03*
G04 #@! TD*
G04 #@! TO.C,REF\u002A\u002A*
X121200000Y-66000000D03*
G04 #@! TD*
G04 #@! TO.C,REF\u002A\u002A*
X71000000Y-11000773D03*
G04 #@! TD*
G04 #@! TO.C,REF\u002A\u002A*
X53500000Y-11000544D03*
G04 #@! TD*
D20*
G04 #@! TO.C,J4*
X43000000Y-41000000D03*
D19*
X43000000Y-61000000D03*
G04 #@! TD*
D11*
G04 #@! TO.C,REF\u002A\u002A*
X71833333Y-66000000D03*
G04 #@! TD*
G04 #@! TO.C,REF\u002A\u002A*
X11000000Y-71400000D03*
G04 #@! TD*
G04 #@! TO.C,REF\u002A\u002A*
X93500000Y-11001067D03*
G04 #@! TD*
G04 #@! TO.C,REF\u002A\u002A*
X111000000Y-71400000D03*
G04 #@! TD*
G04 #@! TO.C,REF\u002A\u002A*
X11000000Y-4800000D03*
G04 #@! TD*
G04 #@! TO.C,REF\u002A\u002A*
X1600000Y-11000000D03*
G04 #@! TD*
G04 #@! TO.C,REF\u002A\u002A*
X2400000Y-11000000D03*
G04 #@! TD*
G04 #@! TO.C,REF\u002A\u002A*
X110997503Y-40166666D03*
G04 #@! TD*
G04 #@! TO.C,REF\u002A\u002A*
X68500000Y-11000740D03*
G04 #@! TD*
G04 #@! TO.C,REF\u002A\u002A*
X116400000Y-11000000D03*
G04 #@! TD*
G04 #@! TO.C,REF\u002A\u002A*
X11000610Y-38500000D03*
G04 #@! TD*
G04 #@! TO.C,REF\u002A\u002A*
X119600000Y-66000000D03*
G04 #@! TD*
G04 #@! TO.C,REF\u002A\u002A*
X110997724Y-37666667D03*
G04 #@! TD*
G04 #@! TO.C,REF\u002A\u002A*
X110997650Y-38500000D03*
G04 #@! TD*
G04 #@! TO.C,REF\u002A\u002A*
X5600000Y-66000000D03*
G04 #@! TD*
G04 #@! TO.C,REF\u002A\u002A*
X111000000Y-76200000D03*
G04 #@! TD*
G04 #@! TO.C,REF\u002A\u002A*
X90166666Y-66000000D03*
G04 #@! TD*
G04 #@! TO.C,REF\u002A\u002A*
X111000000Y-800000D03*
G04 #@! TD*
D12*
G04 #@! TO.C,H3*
X14500000Y-24000000D03*
G04 #@! TD*
D11*
G04 #@! TO.C,REF\u002A\u002A*
X28500000Y-65996886D03*
G04 #@! TD*
G04 #@! TO.C,REF\u002A\u002A*
X11000000Y-70600000D03*
G04 #@! TD*
G04 #@! TO.C,REF\u002A\u002A*
X91000000Y-66000000D03*
G04 #@! TD*
G04 #@! TO.C,REF\u002A\u002A*
X11000000Y-69000000D03*
G04 #@! TD*
D13*
G04 #@! TO.C,REF\u002A\u002A*
X4000000Y-73000000D03*
G04 #@! TD*
D21*
G04 #@! TO.C,J18*
X61500000Y-63900000D03*
D22*
X63500000Y-63900000D03*
D23*
X65500000Y-63600000D03*
G04 #@! TD*
D11*
G04 #@! TO.C,REF\u002A\u002A*
X111000000Y-74600000D03*
G04 #@! TD*
G04 #@! TO.C,REF\u002A\u002A*
X71000000Y-66000000D03*
G04 #@! TD*
G04 #@! TO.C,REF\u002A\u002A*
X51000000Y-65999075D03*
G04 #@! TD*
D12*
G04 #@! TO.C,H1*
X14500000Y-62500000D03*
G04 #@! TD*
D11*
G04 #@! TO.C,REF\u002A\u002A*
X800000Y-11000000D03*
G04 #@! TD*
G04 #@! TO.C,REF\u002A\u002A*
X11000589Y-39333333D03*
G04 #@! TD*
G04 #@! TO.C,REF\u002A\u002A*
X11000000Y-76200000D03*
G04 #@! TD*
G04 #@! TO.C,REF\u002A\u002A*
X11000000Y-73000000D03*
G04 #@! TD*
G04 #@! TO.C,REF\u002A\u002A*
X11000546Y-41000000D03*
G04 #@! TD*
G04 #@! TO.C,REF\u002A\u002A*
X122000000Y-11000000D03*
G04 #@! TD*
G04 #@! TO.C,REF\u002A\u002A*
X52666667Y-11000533D03*
G04 #@! TD*
G04 #@! TO.C,REF\u002A\u002A*
X110997798Y-36833334D03*
G04 #@! TD*
G04 #@! TO.C,REF\u002A\u002A*
X6400000Y-66000000D03*
G04 #@! TD*
G04 #@! TO.C,REF\u002A\u002A*
X28500000Y-11000216D03*
G04 #@! TD*
G04 #@! TO.C,REF\u002A\u002A*
X111000000Y-4000000D03*
G04 #@! TD*
G04 #@! TO.C,REF\u002A\u002A*
X2400000Y-66000000D03*
G04 #@! TD*
G04 #@! TO.C,REF\u002A\u002A*
X11000000Y-5600000D03*
G04 #@! TD*
G04 #@! TO.C,REF\u002A\u002A*
X11000000Y-8000000D03*
G04 #@! TD*
G04 #@! TO.C,REF\u002A\u002A*
X4800000Y-11000000D03*
G04 #@! TD*
G04 #@! TO.C,REF\u002A\u002A*
X6400000Y-11000000D03*
G04 #@! TD*
G04 #@! TO.C,REF\u002A\u002A*
X88500000Y-11001002D03*
G04 #@! TD*
G04 #@! TO.C,REF\u002A\u002A*
X111000000Y-69000000D03*
G04 #@! TD*
G04 #@! TO.C,REF\u002A\u002A*
X111000000Y0D03*
G04 #@! TD*
G04 #@! TO.C,REF\u002A\u002A*
X7200000Y-11000000D03*
G04 #@! TD*
G04 #@! TO.C,REF\u002A\u002A*
X111000000Y-6400000D03*
G04 #@! TD*
D24*
G04 #@! TO.C,TP33*
X33096428Y-38005000D03*
G04 #@! TD*
D25*
G04 #@! TO.C,C75*
X86850000Y-46310000D03*
X86850000Y-44760000D03*
G04 #@! TD*
D26*
G04 #@! TO.C,R142*
X72745000Y-36600000D03*
X71725000Y-36600000D03*
G04 #@! TD*
D27*
G04 #@! TO.C,R139*
X76405000Y-60445000D03*
X76405000Y-61465000D03*
G04 #@! TD*
D28*
G04 #@! TO.C,AE1*
X37850000Y-62351190D03*
D29*
X36375000Y-63876190D03*
X39325000Y-63876190D03*
G04 #@! TD*
D30*
G04 #@! TO.C,R99*
X21200000Y-58450000D03*
X22170000Y-58450000D03*
G04 #@! TD*
D26*
G04 #@! TO.C,R145*
X84210000Y-47400000D03*
X83190000Y-47400000D03*
G04 #@! TD*
D31*
G04 #@! TO.C,C46*
X50090000Y-54750000D03*
X51050000Y-54750000D03*
G04 #@! TD*
D32*
G04 #@! TO.C,R74*
X24200000Y-26010000D03*
X24200000Y-24990000D03*
G04 #@! TD*
D27*
G04 #@! TO.C,R71*
X44800000Y-48640000D03*
X44800000Y-49660000D03*
G04 #@! TD*
D31*
G04 #@! TO.C,C78*
X81355000Y-43980000D03*
X82315000Y-43980000D03*
G04 #@! TD*
D33*
G04 #@! TO.C,R76*
X51590000Y-57750000D03*
X52610000Y-57750000D03*
G04 #@! TD*
D34*
G04 #@! TO.C,C16*
X46376503Y-51167547D03*
X46376503Y-52717547D03*
G04 #@! TD*
D35*
G04 #@! TO.C,R14*
X73000000Y-61485000D03*
X73000000Y-60515000D03*
G04 #@! TD*
D26*
G04 #@! TO.C,R150*
X89110000Y-44775000D03*
X88090000Y-44775000D03*
G04 #@! TD*
D36*
G04 #@! TO.C,C72*
X84000000Y-44680000D03*
X84000000Y-43720000D03*
G04 #@! TD*
D24*
G04 #@! TO.C,TP4*
X49350000Y-28100000D03*
G04 #@! TD*
D37*
G04 #@! TO.C,C86*
X41381018Y-27221010D03*
X41381018Y-28191010D03*
G04 #@! TD*
D26*
G04 #@! TO.C,R157*
X70795000Y-36605000D03*
X69775000Y-36605000D03*
G04 #@! TD*
D38*
G04 #@! TO.C,C80*
X79085000Y-42455000D03*
X80985000Y-42455000D03*
G04 #@! TD*
D35*
G04 #@! TO.C,C71*
X42498742Y-35428990D03*
X42498742Y-34458990D03*
G04 #@! TD*
D24*
G04 #@! TO.C,TP27*
X41300000Y-29900000D03*
G04 #@! TD*
G04 #@! TO.C,TP18*
X53815000Y-12665000D03*
G04 #@! TD*
D35*
G04 #@! TO.C,R95*
X42381018Y-28191010D03*
X42381018Y-27221010D03*
G04 #@! TD*
D30*
G04 #@! TO.C,C38*
X62515000Y-44000000D03*
X63485000Y-44000000D03*
G04 #@! TD*
D35*
G04 #@! TO.C,R128*
X69000000Y-61485000D03*
X69000000Y-60515000D03*
G04 #@! TD*
D27*
G04 #@! TO.C,R40*
X97250000Y-53540000D03*
X97250000Y-54560000D03*
G04 #@! TD*
D26*
G04 #@! TO.C,R75*
X54510000Y-57750000D03*
X53490000Y-57750000D03*
G04 #@! TD*
G04 #@! TO.C,R15*
X26185000Y-25950000D03*
X25165000Y-25950000D03*
G04 #@! TD*
D39*
G04 #@! TO.C,IC12*
X34541342Y-33771400D03*
X35191342Y-33771400D03*
X35841342Y-33771400D03*
X36491342Y-33771400D03*
X37141342Y-33771400D03*
X37791342Y-33771400D03*
X38441342Y-33771400D03*
X38441342Y-39471400D03*
X37791342Y-39471400D03*
X37141342Y-39471400D03*
X36491342Y-39471400D03*
X35841342Y-39471400D03*
X35191342Y-39471400D03*
X34541342Y-39471400D03*
G04 #@! TD*
D40*
G04 #@! TO.C,C7*
X37731190Y-57700000D03*
X36771190Y-57700000D03*
G04 #@! TD*
D37*
G04 #@! TO.C,R85*
X39748742Y-39008990D03*
X39748742Y-39978990D03*
G04 #@! TD*
D30*
G04 #@! TO.C,R6*
X49765000Y-44750000D03*
X50735000Y-44750000D03*
G04 #@! TD*
D24*
G04 #@! TO.C,TP36*
X72345000Y-38995000D03*
G04 #@! TD*
D30*
G04 #@! TO.C,C37*
X62515000Y-43000000D03*
X63485000Y-43000000D03*
G04 #@! TD*
D35*
G04 #@! TO.C,C88*
X41381018Y-26191010D03*
X41381018Y-25221010D03*
G04 #@! TD*
D40*
G04 #@! TO.C,C73*
X78270000Y-46015000D03*
X77310000Y-46015000D03*
G04 #@! TD*
D31*
G04 #@! TO.C,C87*
X85800000Y-38310000D03*
X86760000Y-38310000D03*
G04 #@! TD*
D32*
G04 #@! TO.C,R151*
X88366971Y-34942051D03*
X88366971Y-33922051D03*
G04 #@! TD*
D24*
G04 #@! TO.C,TP22*
X96000000Y-50000000D03*
G04 #@! TD*
D26*
G04 #@! TO.C,R135*
X94645000Y-51125000D03*
X93625000Y-51125000D03*
G04 #@! TD*
G04 #@! TO.C,R93*
X47110000Y-55000000D03*
X46090000Y-55000000D03*
G04 #@! TD*
D24*
G04 #@! TO.C,TP31*
X33898970Y-24472970D03*
G04 #@! TD*
G04 #@! TO.C,TP7*
X79755000Y-59825000D03*
G04 #@! TD*
D41*
G04 #@! TO.C,R96*
X25791010Y-29791600D03*
X24821010Y-29791600D03*
G04 #@! TD*
D42*
G04 #@! TO.C,C54*
X45325000Y-46275000D03*
X45325000Y-44875000D03*
G04 #@! TD*
D41*
G04 #@! TO.C,R66*
X26235000Y-49725000D03*
X25265000Y-49725000D03*
G04 #@! TD*
D31*
G04 #@! TO.C,C6*
X37793810Y-60825000D03*
X38753810Y-60825000D03*
G04 #@! TD*
D43*
G04 #@! TO.C,IC5*
X31411021Y-51857916D03*
X32361021Y-51857916D03*
X33311021Y-51857916D03*
X33311021Y-54557916D03*
X31411021Y-54557916D03*
G04 #@! TD*
D44*
G04 #@! TO.C,L3*
X87890000Y-20705000D03*
X87890000Y-19130000D03*
G04 #@! TD*
D24*
G04 #@! TO.C,TP25*
X100000000Y-55000000D03*
G04 #@! TD*
D32*
G04 #@! TO.C,R78*
X49200000Y-48120000D03*
X49200000Y-47100000D03*
G04 #@! TD*
D24*
G04 #@! TO.C,TP44*
X28041600Y-13993990D03*
G04 #@! TD*
D27*
G04 #@! TO.C,R48*
X78150000Y-49615000D03*
X78150000Y-50635000D03*
G04 #@! TD*
D24*
G04 #@! TO.C,TP8*
X77930000Y-58635000D03*
G04 #@! TD*
D45*
G04 #@! TO.C,Q7*
X100300000Y-58700000D03*
X101600000Y-58700000D03*
X100950000Y-60600000D03*
G04 #@! TD*
D46*
G04 #@! TO.C,U8*
X41080000Y-43705000D03*
D47*
X41480000Y-42805000D03*
X41980000Y-42805000D03*
X42480000Y-42805000D03*
X42980000Y-42805000D03*
X43480000Y-42805000D03*
D46*
X43880000Y-43705000D03*
X43880000Y-44205000D03*
D47*
X43480000Y-45105000D03*
X42980000Y-45105000D03*
X42480000Y-45105000D03*
X41980000Y-45105000D03*
X41480000Y-45105000D03*
D46*
X41080000Y-44205000D03*
D48*
X42480000Y-43955000D03*
G04 #@! TD*
D26*
G04 #@! TO.C,R123*
X80260000Y-61550000D03*
X79240000Y-61550000D03*
G04 #@! TD*
D49*
G04 #@! TO.C,U6*
X60112500Y-13925000D03*
X60112500Y-13275000D03*
X60112500Y-12625000D03*
X60112500Y-11975000D03*
X62387500Y-11975000D03*
X62387500Y-12625000D03*
X62387500Y-13275000D03*
X62387500Y-13925000D03*
G04 #@! TD*
D50*
G04 #@! TO.C,C18*
X45750000Y-48670000D03*
X45750000Y-49630000D03*
G04 #@! TD*
D51*
G04 #@! TO.C,C12*
X79550000Y-56025000D03*
X75950000Y-56025000D03*
G04 #@! TD*
D24*
G04 #@! TO.C,TP40*
X24841600Y-31343990D03*
G04 #@! TD*
D30*
G04 #@! TO.C,R7*
X49765000Y-45750000D03*
X50735000Y-45750000D03*
G04 #@! TD*
D34*
G04 #@! TO.C,C47*
X50606010Y-50191600D03*
X50606010Y-51741600D03*
G04 #@! TD*
D52*
G04 #@! TO.C,T3*
X44956010Y-27168982D03*
X43656010Y-27168982D03*
X44306010Y-25268982D03*
G04 #@! TD*
D31*
G04 #@! TO.C,C27*
X43870000Y-57700000D03*
X44830000Y-57700000D03*
G04 #@! TD*
D26*
G04 #@! TO.C,R73*
X38360000Y-45750000D03*
X37340000Y-45750000D03*
G04 #@! TD*
D30*
G04 #@! TO.C,C68*
X62515000Y-50000000D03*
X63485000Y-50000000D03*
G04 #@! TD*
D53*
G04 #@! TO.C,J5*
X72750000Y-17750000D03*
X73250000Y-17750000D03*
X73750000Y-17750000D03*
X74250000Y-17750000D03*
X74750000Y-17750000D03*
X75250000Y-17750000D03*
D54*
X77150000Y-14500000D03*
X70850000Y-14500000D03*
G04 #@! TD*
D32*
G04 #@! TO.C,R47*
X102800000Y-60610000D03*
X102800000Y-59590000D03*
G04 #@! TD*
D31*
G04 #@! TO.C,C53*
X38920000Y-44550000D03*
X39880000Y-44550000D03*
G04 #@! TD*
D27*
G04 #@! TO.C,R19*
X24200000Y-26990000D03*
X24200000Y-28010000D03*
G04 #@! TD*
D55*
G04 #@! TO.C,U10*
X27284871Y-59779343D03*
X26931317Y-59425790D03*
D56*
X26577764Y-59072236D03*
D55*
X26224210Y-58718683D03*
X25870657Y-58365129D03*
X26415129Y-57820657D03*
X26768683Y-58174210D03*
D56*
X27122236Y-58527764D03*
D55*
X27475790Y-58881317D03*
X27829343Y-59234871D03*
G04 #@! TD*
D24*
G04 #@! TO.C,TP47*
X100000000Y-38000000D03*
G04 #@! TD*
D30*
G04 #@! TO.C,R133*
X47165000Y-39800000D03*
X48135000Y-39800000D03*
G04 #@! TD*
D57*
G04 #@! TO.C,J10*
X73350000Y-32750000D03*
X73350000Y-32250000D03*
X73350000Y-31750000D03*
X73350000Y-31250000D03*
X73350000Y-30750000D03*
X73350000Y-30250000D03*
X73350000Y-29750000D03*
X73350000Y-29250000D03*
X73350000Y-28750000D03*
X73350000Y-28250000D03*
X73350000Y-27750000D03*
X73350000Y-27250000D03*
X73350000Y-26750000D03*
X73350000Y-26250000D03*
X73350000Y-25750000D03*
X73350000Y-25250000D03*
X73350000Y-24750000D03*
X73350000Y-24250000D03*
X73350000Y-23750000D03*
X73350000Y-23250000D03*
X73350000Y-22750000D03*
X73350000Y-22250000D03*
D58*
X70100000Y-20350000D03*
X70100000Y-34650000D03*
G04 #@! TD*
D59*
G04 #@! TO.C,J13*
X36645000Y-14200000D03*
X39355000Y-14200000D03*
X36645000Y-14600000D03*
X39355000Y-14600000D03*
X36645000Y-15000000D03*
X39355000Y-15000000D03*
X36645000Y-15399999D03*
X39355000Y-15400000D03*
X36645000Y-15800001D03*
X39355000Y-15800000D03*
X36645000Y-16200000D03*
X39355000Y-16200000D03*
X36645000Y-16600000D03*
X39355000Y-16600000D03*
X36645000Y-16999999D03*
X39355000Y-17000000D03*
X36645000Y-17400001D03*
X39355000Y-17400000D03*
X36645000Y-17800000D03*
X39355000Y-17800000D03*
D60*
X39355000Y-18275000D03*
D61*
X39355000Y-13725000D03*
X36645000Y-18275000D03*
X36645000Y-13725000D03*
G04 #@! TD*
D24*
G04 #@! TO.C,TP24*
X46700000Y-26600000D03*
G04 #@! TD*
D62*
G04 #@! TO.C,SP7*
X14500000Y-46000000D03*
G04 #@! TD*
D63*
G04 #@! TO.C,U9*
X64800000Y-59835000D03*
X64300000Y-59835000D03*
D64*
X63800000Y-59835000D03*
D63*
X63300000Y-59835000D03*
X62800000Y-59835000D03*
X62800000Y-59065000D03*
X63300000Y-59065000D03*
D64*
X63800000Y-59065000D03*
D63*
X64300000Y-59065000D03*
X64800000Y-59065000D03*
G04 #@! TD*
D65*
G04 #@! TO.C,C22*
X19841600Y-28243990D03*
X19841600Y-24643990D03*
G04 #@! TD*
D31*
G04 #@! TO.C,C90*
X60270000Y-15950000D03*
X61230000Y-15950000D03*
G04 #@! TD*
D24*
G04 #@! TO.C,TP21*
X37100000Y-21800000D03*
G04 #@! TD*
D45*
G04 #@! TO.C,T4*
X69356010Y-57641600D03*
X70656010Y-57641600D03*
X70006010Y-59541600D03*
G04 #@! TD*
D24*
G04 #@! TO.C,TP41*
X23641600Y-41943990D03*
G04 #@! TD*
D32*
G04 #@! TO.C,R119*
X87655000Y-53765000D03*
X87655000Y-52745000D03*
G04 #@! TD*
D27*
G04 #@! TO.C,R134*
X41900000Y-21490000D03*
X41900000Y-22510000D03*
G04 #@! TD*
D34*
G04 #@! TO.C,C5*
X35043810Y-53630000D03*
X35043810Y-55180000D03*
G04 #@! TD*
D66*
G04 #@! TO.C,R156*
X102325000Y-12490000D03*
X100675000Y-12490000D03*
G04 #@! TD*
D26*
G04 #@! TO.C,R42*
X95860000Y-55650000D03*
X94840000Y-55650000D03*
G04 #@! TD*
D33*
G04 #@! TO.C,R159*
X77440000Y-45050000D03*
X78460000Y-45050000D03*
G04 #@! TD*
D30*
G04 #@! TO.C,C70*
X62515000Y-53000000D03*
X63485000Y-53000000D03*
G04 #@! TD*
D36*
G04 #@! TO.C,C45*
X73900000Y-42380000D03*
X73900000Y-41420000D03*
G04 #@! TD*
D32*
G04 #@! TO.C,R141*
X66480000Y-59980000D03*
X66480000Y-58960000D03*
G04 #@! TD*
D24*
G04 #@! TO.C,TP34*
X28000000Y-18000000D03*
G04 #@! TD*
G04 #@! TO.C,TP3*
X29300000Y-54600000D03*
G04 #@! TD*
D35*
G04 #@! TO.C,R136*
X39300000Y-33676428D03*
X39300000Y-32706428D03*
G04 #@! TD*
D26*
G04 #@! TO.C,R152*
X88585720Y-36534160D03*
X87565720Y-36534160D03*
G04 #@! TD*
D67*
G04 #@! TO.C,Q3*
X93600000Y-53625000D03*
X93600000Y-52325000D03*
X95500000Y-52975000D03*
G04 #@! TD*
D40*
G04 #@! TO.C,C58*
X79330000Y-38000000D03*
X78370000Y-38000000D03*
G04 #@! TD*
D30*
G04 #@! TO.C,R8*
X47840000Y-44750000D03*
X48810000Y-44750000D03*
G04 #@! TD*
D50*
G04 #@! TO.C,C4*
X41750000Y-48385000D03*
X41750000Y-49345000D03*
G04 #@! TD*
D36*
G04 #@! TO.C,C29*
X39980000Y-58830000D03*
X39980000Y-57870000D03*
G04 #@! TD*
D68*
G04 #@! TO.C,FB1*
X22341600Y-24643990D03*
X22341600Y-28243990D03*
G04 #@! TD*
D69*
G04 #@! TO.C,REF\u002A\u002A*
X14000000Y-5000000D03*
G04 #@! TD*
D33*
G04 #@! TO.C,R52*
X47340000Y-57750000D03*
X48360000Y-57750000D03*
G04 #@! TD*
D24*
G04 #@! TO.C,TP23*
X49068590Y-25975200D03*
G04 #@! TD*
D33*
G04 #@! TO.C,R53*
X78240000Y-51625000D03*
X79260000Y-51625000D03*
G04 #@! TD*
D24*
G04 #@! TO.C,TP38*
X30865770Y-23682910D03*
G04 #@! TD*
D41*
G04 #@! TO.C,R67*
X26310000Y-54750000D03*
X25340000Y-54750000D03*
G04 #@! TD*
D24*
G04 #@! TO.C,TP1*
X78666600Y-32018990D03*
G04 #@! TD*
D70*
G04 #@! TO.C,J7*
X104650000Y-41250000D03*
X104650000Y-41750000D03*
X104650000Y-42250000D03*
X104650000Y-42750000D03*
X104650000Y-43250000D03*
X104650000Y-43750000D03*
X104650000Y-44250000D03*
X104650000Y-44750000D03*
X104650000Y-45250000D03*
X104650000Y-45750000D03*
X104650000Y-46250000D03*
X104650000Y-46750000D03*
X104650000Y-47250000D03*
X104650000Y-47750000D03*
X104650000Y-48250000D03*
X104650000Y-48750000D03*
X104650000Y-49250000D03*
X104650000Y-49750000D03*
X104650000Y-50250000D03*
X104650000Y-50750000D03*
X104650000Y-51250000D03*
X104650000Y-51750000D03*
X104650000Y-52250000D03*
X104650000Y-52750000D03*
X104650000Y-53250000D03*
X104650000Y-53750000D03*
X104650000Y-54250000D03*
X104650000Y-54750000D03*
X104650000Y-55250000D03*
X104650000Y-55750000D03*
X104650000Y-56250000D03*
X104650000Y-56750000D03*
D71*
X107900000Y-58650000D03*
X107900000Y-39350000D03*
G04 #@! TD*
D26*
G04 #@! TO.C,R87*
X49095000Y-56550000D03*
X48075000Y-56550000D03*
G04 #@! TD*
D27*
G04 #@! TO.C,R44*
X77150000Y-49615000D03*
X77150000Y-50635000D03*
G04 #@! TD*
D24*
G04 #@! TO.C,TP17*
X18491600Y-36643990D03*
G04 #@! TD*
D35*
G04 #@! TO.C,R116*
X50642600Y-26565600D03*
X50642600Y-25595600D03*
G04 #@! TD*
D40*
G04 #@! TO.C,C61*
X79330000Y-37000000D03*
X78370000Y-37000000D03*
G04 #@! TD*
D24*
G04 #@! TO.C,TP2*
X55865000Y-12665000D03*
G04 #@! TD*
D33*
G04 #@! TO.C,R77*
X49690000Y-57750000D03*
X50710000Y-57750000D03*
G04 #@! TD*
D72*
G04 #@! TO.C,C76*
X85634249Y-31764113D03*
X86730265Y-32860129D03*
G04 #@! TD*
D69*
G04 #@! TO.C,REF\u002A\u002A*
X14000000Y-72000000D03*
G04 #@! TD*
D30*
G04 #@! TO.C,R9*
X47840000Y-45750000D03*
X48810000Y-45750000D03*
G04 #@! TD*
D70*
G04 #@! TO.C,J6*
X104650000Y-14250000D03*
X104650000Y-14750000D03*
X104650000Y-15250000D03*
X104650000Y-15750000D03*
X104650000Y-16250000D03*
X104650000Y-16750000D03*
X104650000Y-17250000D03*
X104650000Y-17750000D03*
X104650000Y-18250000D03*
X104650000Y-18750000D03*
X104650000Y-19250000D03*
X104650000Y-19750000D03*
X104650000Y-20250000D03*
X104650000Y-20750000D03*
X104650000Y-21250000D03*
X104650000Y-21750000D03*
X104650000Y-22250000D03*
X104650000Y-22750000D03*
X104650000Y-23250000D03*
X104650000Y-23750000D03*
X104650000Y-24250000D03*
X104650000Y-24750000D03*
X104650000Y-25250000D03*
X104650000Y-25750000D03*
X104650000Y-26250000D03*
X104650000Y-26750000D03*
X104650000Y-27250000D03*
X104650000Y-27750000D03*
X104650000Y-28250000D03*
X104650000Y-28750000D03*
X104650000Y-29250000D03*
X104650000Y-29750000D03*
D71*
X107900000Y-12350000D03*
X107900000Y-31650000D03*
G04 #@! TD*
D73*
G04 #@! TO.C,R2*
X43407053Y-32407053D03*
X44092947Y-33092947D03*
G04 #@! TD*
D26*
G04 #@! TO.C,R1*
X101325000Y-57695000D03*
X100305000Y-57695000D03*
G04 #@! TD*
G04 #@! TO.C,R144*
X84210000Y-46400000D03*
X83190000Y-46400000D03*
G04 #@! TD*
D24*
G04 #@! TO.C,TP35*
X76495000Y-39415000D03*
G04 #@! TD*
D74*
G04 #@! TO.C,D13*
X43118990Y-38276258D03*
X40868990Y-38276258D03*
G04 #@! TD*
D24*
G04 #@! TO.C,TP29*
X44994120Y-29491770D03*
G04 #@! TD*
G04 #@! TO.C,TP11*
X15741600Y-28600000D03*
G04 #@! TD*
D75*
G04 #@! TO.C,R148*
X81533750Y-39611043D03*
X81533750Y-37961043D03*
G04 #@! TD*
D24*
G04 #@! TO.C,TP39*
X43764200Y-22188400D03*
G04 #@! TD*
D42*
G04 #@! TO.C,C63*
X39801258Y-42556010D03*
X39801258Y-41156010D03*
G04 #@! TD*
D30*
G04 #@! TO.C,C48*
X31711000Y-39550000D03*
X32681000Y-39550000D03*
G04 #@! TD*
D26*
G04 #@! TO.C,R149*
X89110000Y-45775000D03*
X88090000Y-45775000D03*
G04 #@! TD*
D32*
G04 #@! TO.C,R146*
X74085000Y-40335000D03*
X74085000Y-39315000D03*
G04 #@! TD*
D25*
G04 #@! TO.C,C77*
X83104503Y-39197013D03*
X83104503Y-37647013D03*
G04 #@! TD*
D30*
G04 #@! TO.C,R4*
X47165000Y-38075000D03*
X48135000Y-38075000D03*
G04 #@! TD*
D19*
G04 #@! TO.C,J8*
X55000000Y-56000000D03*
D20*
X55000000Y-36000000D03*
D76*
X60274990Y-55249990D03*
X52725000Y-55000000D03*
X60274990Y-54750000D03*
X52725000Y-54500000D03*
X60274990Y-54249990D03*
X52725000Y-53999990D03*
X60274990Y-53750000D03*
X52725000Y-53500000D03*
X60274990Y-53250000D03*
X52725000Y-53000000D03*
X60274990Y-52749990D03*
X52725000Y-52500000D03*
X60274990Y-52250000D03*
X52725000Y-52000000D03*
X60274990Y-51750000D03*
X52725000Y-51499990D03*
X60274990Y-51250000D03*
X52725000Y-51000000D03*
X60274990Y-50750000D03*
X52725000Y-50500000D03*
X60274990Y-50249990D03*
X52725000Y-50000000D03*
X60274990Y-49750000D03*
X52725000Y-49500000D03*
X60274990Y-49250000D03*
X52725000Y-48999990D03*
X60274990Y-48750000D03*
X52725000Y-48500000D03*
X60274990Y-48250000D03*
X52725000Y-48000000D03*
X60274990Y-47749990D03*
X52725000Y-47500000D03*
X60274990Y-47250000D03*
X52725000Y-47000000D03*
X60274990Y-46750000D03*
X52725000Y-46499990D03*
X60274990Y-46250000D03*
X52725000Y-46000000D03*
X60274990Y-45750000D03*
X52725000Y-45500000D03*
X60274990Y-45249990D03*
X52725000Y-45000000D03*
X60274990Y-44750000D03*
X52725000Y-44500000D03*
X60274990Y-44250000D03*
X52725000Y-43999990D03*
X60274990Y-43750000D03*
X52725000Y-43500000D03*
X60274990Y-43250000D03*
X52725000Y-43000000D03*
X60274990Y-42749990D03*
X52725000Y-42500000D03*
X60274990Y-42250000D03*
X52725000Y-42000000D03*
X60274990Y-41750000D03*
X52725000Y-41499990D03*
X60274990Y-41249990D03*
X52725000Y-41000000D03*
X60274990Y-38749990D03*
X52725000Y-38500000D03*
X60274990Y-38250000D03*
X52725000Y-38000000D03*
X60274990Y-37750000D03*
X52725000Y-37499990D03*
X60274990Y-37250000D03*
X52725000Y-37000000D03*
X60274990Y-36750000D03*
D77*
X59499990Y-56350000D03*
X59499990Y-35650000D03*
G04 #@! TD*
D24*
G04 #@! TO.C,TP14*
X45181420Y-23707640D03*
G04 #@! TD*
D78*
G04 #@! TO.C,C55*
X79975000Y-39300000D03*
X78425000Y-39300000D03*
G04 #@! TD*
D24*
G04 #@! TO.C,TP15*
X17641600Y-26443990D03*
G04 #@! TD*
D30*
G04 #@! TO.C,C41*
X32115000Y-32500000D03*
X33085000Y-32500000D03*
G04 #@! TD*
D79*
G04 #@! TO.C,J11*
X54750000Y-59205000D03*
X53250000Y-59205000D03*
X51750000Y-59205000D03*
X50250000Y-59205000D03*
X48750000Y-59205000D03*
X47250000Y-59205000D03*
D80*
X44645000Y-64395000D03*
X57355000Y-64395000D03*
G04 #@! TD*
D81*
G04 #@! TO.C,J2*
X82500000Y-17295000D03*
X84000000Y-17295000D03*
X85500000Y-17295000D03*
X87000000Y-17295000D03*
X88500000Y-17295000D03*
D82*
X79895000Y-12105000D03*
X91105000Y-12105000D03*
G04 #@! TD*
D31*
G04 #@! TO.C,C23*
X39046190Y-56935000D03*
X40006190Y-56935000D03*
G04 #@! TD*
D30*
G04 #@! TO.C,C69*
X62515000Y-52000000D03*
X63485000Y-52000000D03*
G04 #@! TD*
D45*
G04 #@! TO.C,Q6*
X88850000Y-52475000D03*
X90150000Y-52475000D03*
X89500000Y-54375000D03*
G04 #@! TD*
D83*
G04 #@! TO.C,R155*
X91885624Y-46035624D03*
X91164376Y-45314376D03*
G04 #@! TD*
D32*
G04 #@! TO.C,R80*
X35600000Y-25510000D03*
X35600000Y-24490000D03*
G04 #@! TD*
D84*
G04 #@! TO.C,IC13*
X41583142Y-35254600D03*
X40933142Y-35254600D03*
X40283142Y-35254600D03*
X40283142Y-33354600D03*
X41583142Y-33354600D03*
G04 #@! TD*
D33*
G04 #@! TO.C,R65*
X39840000Y-49300000D03*
X40860000Y-49300000D03*
G04 #@! TD*
D85*
G04 #@! TO.C,U12*
X88325000Y-39650000D03*
X88325000Y-41500000D03*
X86875000Y-41500000D03*
X86875000Y-39650000D03*
G04 #@! TD*
D32*
G04 #@! TO.C,R131*
X91450000Y-50635000D03*
X91450000Y-49615000D03*
G04 #@! TD*
G04 #@! TO.C,R41*
X103100000Y-63010000D03*
X103100000Y-61990000D03*
G04 #@! TD*
D86*
G04 #@! TO.C,U3*
X39931018Y-28056010D03*
X38981018Y-28056010D03*
X38031018Y-28056010D03*
X38031018Y-25356010D03*
X38981018Y-25356010D03*
X39931018Y-25356010D03*
G04 #@! TD*
D62*
G04 #@! TO.C,SP2*
X26500000Y-46000000D03*
G04 #@! TD*
D87*
G04 #@! TO.C,J3*
X43216600Y-18486010D03*
X43716600Y-18486010D03*
X44216600Y-18486010D03*
X44716600Y-18486010D03*
X45216600Y-18486010D03*
X45716600Y-18486010D03*
X46216600Y-18486010D03*
X46716600Y-18486010D03*
X47216600Y-18486010D03*
X47716600Y-18486010D03*
X48216600Y-18486010D03*
X48716600Y-18486010D03*
X49216600Y-18486010D03*
X49716600Y-18486010D03*
X50216600Y-18486010D03*
D88*
X41976600Y-13636010D03*
D89*
X47891600Y-12626010D03*
X45541600Y-12626010D03*
D88*
X51456600Y-13636010D03*
G04 #@! TD*
D33*
G04 #@! TO.C,R130*
X50070000Y-55780000D03*
X51090000Y-55780000D03*
G04 #@! TD*
D34*
G04 #@! TO.C,C62*
X84985000Y-40960000D03*
X84985000Y-42510000D03*
G04 #@! TD*
D32*
G04 #@! TO.C,R132*
X40900000Y-23110000D03*
X40900000Y-22090000D03*
G04 #@! TD*
D24*
G04 #@! TO.C,TP16*
X15500000Y-30752390D03*
G04 #@! TD*
D37*
G04 #@! TO.C,R59*
X81270000Y-49850000D03*
X81270000Y-50820000D03*
G04 #@! TD*
D26*
G04 #@! TO.C,R88*
X33110000Y-33500000D03*
X32090000Y-33500000D03*
G04 #@! TD*
D90*
G04 #@! TO.C,Y1*
X42550000Y-57750000D03*
X42550000Y-59150000D03*
X41450000Y-59150000D03*
X41450000Y-57750000D03*
G04 #@! TD*
D26*
G04 #@! TO.C,R45*
X77260000Y-51625000D03*
X76240000Y-51625000D03*
G04 #@! TD*
D91*
G04 #@! TO.C,U7*
X39962500Y-55050000D03*
X39962500Y-54550000D03*
X39962500Y-54050000D03*
X39962500Y-53550000D03*
X39962500Y-53050000D03*
X39962500Y-52550000D03*
X39962500Y-52050000D03*
X39962500Y-51550000D03*
D92*
X40650000Y-50862500D03*
X41150000Y-50862500D03*
X41650000Y-50862500D03*
X42150000Y-50862500D03*
X42650000Y-50862500D03*
X43150000Y-50862500D03*
X43650000Y-50862500D03*
X44150000Y-50862500D03*
D91*
X44837500Y-51550000D03*
X44837500Y-52050000D03*
X44837500Y-52550000D03*
X44837500Y-53050000D03*
X44837500Y-53550000D03*
X44837500Y-54050000D03*
X44837500Y-54550000D03*
X44837500Y-55050000D03*
D92*
X44150000Y-55737500D03*
X43650000Y-55737500D03*
X43150000Y-55737500D03*
X42650000Y-55737500D03*
X42150000Y-55737500D03*
X41650000Y-55737500D03*
X41150000Y-55737500D03*
X40650000Y-55737500D03*
D93*
X42400000Y-53300000D03*
G04 #@! TD*
D24*
G04 #@! TO.C,TP12*
X82895000Y-50575000D03*
G04 #@! TD*
D27*
G04 #@! TO.C,R140*
X74995000Y-60445000D03*
X74995000Y-61465000D03*
G04 #@! TD*
D45*
G04 #@! TO.C,T2*
X72343990Y-57658400D03*
X73643990Y-57658400D03*
X72993990Y-59558400D03*
G04 #@! TD*
D35*
G04 #@! TO.C,R31*
X33678810Y-50565000D03*
X33678810Y-49595000D03*
G04 #@! TD*
D30*
G04 #@! TO.C,R16*
X32115000Y-35500000D03*
X33085000Y-35500000D03*
G04 #@! TD*
D36*
G04 #@! TO.C,C44*
X72300000Y-42380000D03*
X72300000Y-41420000D03*
G04 #@! TD*
D35*
G04 #@! TO.C,R68*
X48500000Y-31285000D03*
X48500000Y-30315000D03*
G04 #@! TD*
G04 #@! TO.C,L5*
X37773810Y-59785000D03*
X37773810Y-58815000D03*
G04 #@! TD*
D24*
G04 #@! TO.C,TP20*
X90135000Y-48535000D03*
G04 #@! TD*
G04 #@! TO.C,TP28*
X32676170Y-12127750D03*
G04 #@! TD*
G04 #@! TO.C,TP30*
X46271428Y-33755000D03*
G04 #@! TD*
D41*
G04 #@! TO.C,R124*
X64795000Y-14110000D03*
X63825000Y-14110000D03*
G04 #@! TD*
D27*
G04 #@! TO.C,R90*
X68610000Y-13970000D03*
X68610000Y-14990000D03*
G04 #@! TD*
D41*
G04 #@! TO.C,R84*
X33085000Y-34500000D03*
X32115000Y-34500000D03*
G04 #@! TD*
D26*
G04 #@! TO.C,R64*
X41860000Y-47300000D03*
X40840000Y-47300000D03*
G04 #@! TD*
G04 #@! TO.C,R17*
X26185000Y-26985000D03*
X25165000Y-26985000D03*
G04 #@! TD*
D94*
G04 #@! TO.C,FB3*
X75950000Y-53525000D03*
X79550000Y-53525000D03*
G04 #@! TD*
D41*
G04 #@! TO.C,R114*
X49935000Y-43350000D03*
X48965000Y-43350000D03*
G04 #@! TD*
D24*
G04 #@! TO.C,TP32*
X32000000Y-31000000D03*
G04 #@! TD*
D36*
G04 #@! TO.C,C66*
X85000000Y-44680000D03*
X85000000Y-43720000D03*
G04 #@! TD*
D30*
G04 #@! TO.C,D5*
X85215000Y-18800000D03*
X86185000Y-18800000D03*
G04 #@! TD*
D62*
G04 #@! TO.C,SP3*
X14500000Y-16000000D03*
G04 #@! TD*
D35*
G04 #@! TO.C,R115*
X51676600Y-26565600D03*
X51676600Y-25595600D03*
G04 #@! TD*
G04 #@! TO.C,R69*
X49500000Y-31285000D03*
X49500000Y-30315000D03*
G04 #@! TD*
D41*
G04 #@! TO.C,R86*
X33085000Y-36500000D03*
X32115000Y-36500000D03*
G04 #@! TD*
D95*
G04 #@! TO.C,C3*
X30803810Y-50265000D03*
X32353810Y-50265000D03*
G04 #@! TD*
D30*
G04 #@! TO.C,C51*
X62515000Y-47000000D03*
X63485000Y-47000000D03*
G04 #@! TD*
D69*
G04 #@! TO.C,REF\u002A\u002A*
X108000000Y-5000000D03*
G04 #@! TD*
D43*
G04 #@! TO.C,D4*
X68500000Y-55000000D03*
X66600010Y-55000000D03*
X67550000Y-53100000D03*
G04 #@! TD*
D35*
G04 #@! TO.C,R97*
X71000000Y-61485000D03*
X71000000Y-60515000D03*
G04 #@! TD*
D26*
G04 #@! TO.C,R83*
X41855000Y-46345000D03*
X40835000Y-46345000D03*
G04 #@! TD*
D32*
G04 #@! TO.C,R72*
X39850000Y-48360000D03*
X39850000Y-47340000D03*
G04 #@! TD*
D30*
G04 #@! TO.C,R36*
X36215000Y-41150000D03*
X37185000Y-41150000D03*
G04 #@! TD*
D83*
G04 #@! TO.C,R153*
X91160624Y-46760624D03*
X90439376Y-46039376D03*
G04 #@! TD*
D96*
G04 #@! TO.C,D3*
X25375000Y-53200000D03*
X25375000Y-51300010D03*
X27275000Y-52250000D03*
G04 #@! TD*
D97*
G04 #@! TO.C,D9*
X79615000Y-47240000D03*
X78215000Y-47240000D03*
G04 #@! TD*
D24*
G04 #@! TO.C,TP10*
X76803400Y-32865800D03*
G04 #@! TD*
G04 #@! TO.C,TP37*
X70005000Y-38705000D03*
G04 #@! TD*
D37*
G04 #@! TO.C,R46*
X42506010Y-24233982D03*
X42506010Y-25203982D03*
G04 #@! TD*
D24*
G04 #@! TO.C,TP13*
X38641600Y-30443990D03*
G04 #@! TD*
D30*
G04 #@! TO.C,R98*
X21215000Y-59500000D03*
X22185000Y-59500000D03*
G04 #@! TD*
D26*
G04 #@! TO.C,R129*
X88685000Y-47550000D03*
X87665000Y-47550000D03*
G04 #@! TD*
D31*
G04 #@! TO.C,C50*
X38920000Y-43600000D03*
X39880000Y-43600000D03*
G04 #@! TD*
D41*
G04 #@! TO.C,D1*
X84285000Y-18800000D03*
X83315000Y-18800000D03*
G04 #@! TD*
D98*
G04 #@! TO.C,FB4*
X82540000Y-41172500D03*
X82540000Y-42747500D03*
G04 #@! TD*
D50*
G04 #@! TO.C,C26*
X38216190Y-53580000D03*
X38216190Y-54540000D03*
G04 #@! TD*
D32*
G04 #@! TO.C,R70*
X47507254Y-31320000D03*
X47507254Y-30300000D03*
G04 #@! TD*
D24*
G04 #@! TO.C,TP19*
X39246400Y-21815000D03*
G04 #@! TD*
D99*
G04 #@! TO.C,U13*
X85003269Y-33548530D03*
X85675020Y-34220281D03*
X86346771Y-34892032D03*
X84738103Y-36500700D03*
X83394601Y-35157198D03*
G04 #@! TD*
D30*
G04 #@! TO.C,C49*
X62515000Y-46000000D03*
X63485000Y-46000000D03*
G04 #@! TD*
G04 #@! TO.C,C52*
X62515000Y-49000000D03*
X63485000Y-49000000D03*
G04 #@! TD*
M02*
