G04 #@! TF.GenerationSoftware,KiCad,Pcbnew,(6.0.8-1)-1*
G04 #@! TF.CreationDate,2022-10-18T17:53:05-07:00*
G04 #@! TF.ProjectId,CRMHJN_capable_carrier,43524d48-4a4e-45f6-9361-7061626c655f,rev?*
G04 #@! TF.SameCoordinates,Original*
G04 #@! TF.FileFunction,Profile,NP*
%FSLAX46Y46*%
G04 Gerber Fmt 4.6, Leading zero omitted, Abs format (unit mm)*
G04 Created by KiCad (PCBNEW (6.0.8-1)-1) date 2022-10-18 17:53:05*
%MOMM*%
%LPD*%
G01*
G04 APERTURE LIST*
G04 #@! TA.AperFunction,Profile*
%ADD10C,0.100000*%
G04 #@! TD*
G04 APERTURE END LIST*
D10*
X11010766Y-11854604D02*
X11010731Y-11854855D01*
X998233Y-76998652D02*
X998666Y-76998883D01*
X88497637Y-8441971D02*
X88499406Y-8465956D01*
X48497637Y-10558499D02*
X48494693Y-10582369D01*
X28490582Y-66391251D02*
X28494694Y-66414946D01*
X33509418Y-8394406D02*
X33514687Y-8370940D01*
X28500000Y-10510086D02*
X28499406Y-10534252D01*
X53738091Y-8069715D02*
X53759017Y-8057861D01*
X93870940Y-8014687D02*
X93894406Y-8009418D01*
X48494693Y-10582369D02*
X48490581Y-10606065D01*
X68219500Y-8047047D02*
X68240982Y-8057861D01*
X53965997Y-65999951D02*
X53990164Y-65999360D01*
X110466769Y-64356662D02*
X110466905Y-64356449D01*
X8037301Y-35697513D02*
X8028646Y-35675075D01*
X53537301Y-8302486D02*
X53547047Y-8280499D01*
X28373061Y-10839273D02*
X28356477Y-10856692D01*
X61907288Y-65789846D02*
X61916554Y-65776364D01*
X110263869Y-64647081D02*
X110271311Y-64637467D01*
X4167Y-994836D02*
X2805Y-996266D01*
X33521101Y-10652525D02*
X33514687Y-10629346D01*
X113985312Y-68629059D02*
X113978897Y-68652238D01*
X11848592Y-64784503D02*
X11958978Y-64906684D01*
X28485314Y-66367786D02*
X28490582Y-66391251D01*
X88175075Y-66028646D02*
X88197513Y-66037301D01*
X111439360Y-41002362D02*
X111463344Y-41000593D01*
X110434867Y-11099659D02*
X110434638Y-11099550D01*
X121997523Y-76003369D02*
X121997835Y-76002990D01*
X10698050Y-41037303D02*
X10720037Y-41047049D01*
X121001333Y-76998883D02*
X121001766Y-76998652D01*
X110195063Y-11019352D02*
X110157662Y-11012649D01*
X73870940Y-68985312D02*
X73847761Y-68978897D01*
X63422068Y-65993712D02*
X63428032Y-65994497D01*
X93717768Y-10918488D02*
X93698106Y-10904640D01*
X61992534Y-65584362D02*
X61993630Y-65578448D01*
X88009870Y-11000994D02*
X73990116Y-11000811D01*
X28417416Y-10782439D02*
X28403567Y-10802102D01*
X8126936Y-35839061D02*
X8111227Y-35820850D01*
X11392797Y-11205627D02*
X11383183Y-11213069D01*
X113978897Y-35652238D02*
X113971353Y-35675075D01*
X8002362Y-35558028D02*
X8000593Y-35534043D01*
X93824924Y-68971353D02*
X93802486Y-68962698D01*
X13628886Y-65889701D02*
X13789284Y-65926922D01*
X10558562Y-41002362D02*
X10582432Y-41005306D01*
X73547047Y-8280499D02*
X73557861Y-8259017D01*
X28500000Y-8490122D02*
X28500000Y-10510086D01*
X113999406Y-8465956D02*
X114000000Y-8490122D01*
X93941971Y-8002362D02*
X93965956Y-8000593D01*
X8217772Y-35917417D02*
X8198109Y-35903569D01*
X8000000Y-8490122D02*
X8000593Y-8465956D01*
X61506547Y-65999656D02*
X61545727Y-65997603D01*
X110388473Y-11078692D02*
X110353187Y-11064597D01*
X113873063Y-35839061D02*
X113856480Y-35856480D01*
X113994693Y-35581897D02*
X113990581Y-35605593D01*
X33717772Y-8082582D02*
X33738091Y-8069715D01*
X11842587Y-11012607D02*
X11842337Y-11012649D01*
X88373063Y-68839061D02*
X88356480Y-68856480D01*
X10741664Y-35942140D02*
X10720182Y-35952953D01*
X1005136Y0D02*
X1004890Y-3D01*
X53759013Y-10942686D02*
X53738087Y-10930831D01*
X62512106Y-62900768D02*
X62512793Y-62900785D01*
X108541681Y-65841229D02*
X108541923Y-65841157D01*
X93547047Y-8280499D02*
X93557861Y-8259017D01*
X48034036Y-10999878D02*
X48009870Y-11000471D01*
X4338Y-994661D02*
X4167Y-994836D01*
X110646463Y-11237239D02*
X110617015Y-11213227D01*
X61976922Y-65649801D02*
X61981568Y-65634116D01*
X8014687Y-41370940D02*
X8021102Y-41347761D01*
X8179149Y-68888772D02*
X8160938Y-68873063D01*
X108210467Y-65926977D02*
X108210715Y-65926922D01*
X113719500Y-68952952D02*
X113697513Y-68962698D01*
X28442138Y-68740982D02*
X28430284Y-68761908D01*
X62006148Y-63325911D02*
X62006285Y-63324999D01*
X33759017Y-68942138D02*
X33738091Y-68930284D01*
X11943034Y-11001764D02*
X11905147Y-11004649D01*
X12362532Y-65271311D02*
X12362734Y-65271464D01*
X63051944Y-65721253D02*
X63054533Y-65726682D01*
X88009877Y-8000000D02*
X88034043Y-8000593D01*
X28034089Y-65997434D02*
X28058072Y-65999206D01*
X33802519Y-66034709D02*
X33824960Y-66026054D01*
X48490581Y-68605593D02*
X48485312Y-68629059D01*
X93870940Y-68985312D02*
X93847761Y-68978897D01*
X113801890Y-35903569D02*
X113782227Y-35917417D01*
X62705074Y-62944672D02*
X62705700Y-62944954D01*
X48058072Y-66001151D02*
X48081940Y-66004097D01*
X53557861Y-8259017D02*
X53569715Y-8238091D01*
X68373063Y-68839061D02*
X68356480Y-68856480D01*
X63185555Y-65888617D02*
X63189153Y-65891341D01*
X63000001Y-65493751D02*
X63000330Y-65506239D01*
X11270960Y-11315733D02*
X11245488Y-11343927D01*
X48320850Y-68888772D02*
X48301890Y-68903569D01*
X14317997Y-65995147D02*
X14318186Y-65995160D01*
X110998867Y-11955429D02*
X110998251Y-11943287D01*
X62050067Y-63183324D02*
X62061270Y-63161471D01*
X113509877Y-36000000D02*
X111488038Y-36000000D01*
X33847756Y-10979184D02*
X33824920Y-10971639D01*
X28339080Y-66123792D02*
X28356497Y-66140375D01*
X48219500Y-8047047D02*
X48240982Y-8057861D01*
X33582582Y-8217772D02*
X33596430Y-8198109D01*
X53514687Y-8370940D02*
X53521102Y-8347761D01*
X73500000Y-66490122D02*
X73500000Y-66490122D01*
X88197509Y-10963695D02*
X88175070Y-10972350D01*
X11000533Y-41490135D02*
X11000000Y-62496829D01*
X68282224Y-10918153D02*
X68261905Y-10931019D01*
X11344117Y-11245320D02*
X11343927Y-11245488D01*
X110786930Y-11383183D02*
X110786772Y-11382984D01*
X8280499Y-8047047D02*
X8302486Y-8037301D01*
X88034043Y-8000593D02*
X88058028Y-8002362D01*
X68320850Y-68888772D02*
X68301890Y-68903569D01*
X33679149Y-68888772D02*
X33660938Y-68873063D01*
X11565132Y-11099659D02*
X11554217Y-11105013D01*
X48403569Y-8198109D02*
X48417417Y-8217772D01*
X62610787Y-62913065D02*
X62611456Y-62913218D01*
X11553991Y-11105128D02*
X11520312Y-11122720D01*
X28240979Y-10942350D02*
X28219496Y-10953163D01*
X68471353Y-8324924D02*
X68478897Y-8347761D01*
X62977091Y-63252477D02*
X62977362Y-63253358D01*
X110997385Y-41490079D02*
X110997981Y-41465914D01*
X63017078Y-65629193D02*
X63017185Y-65629571D01*
X1002426Y-76999924D02*
X1002916Y-76999948D01*
X11623984Y-64494359D02*
X11630929Y-64504338D01*
X1001938Y-76999876D02*
X1002426Y-76999924D01*
X33611240Y-66176554D02*
X33626951Y-66158342D01*
X8394406Y-35990581D02*
X8370940Y-35985312D01*
X110159656Y-64774894D02*
X110263712Y-64647280D01*
X3Y-75995109D02*
X51Y-75997083D01*
X108874597Y-65718605D02*
X108885769Y-65713810D01*
X73780495Y-10953761D02*
X73759013Y-10942948D01*
X11433810Y-11175892D02*
X11423832Y-11182838D01*
X93514687Y-66370940D02*
X93521102Y-66347761D01*
X48219496Y-10953425D02*
X48197509Y-10963171D01*
X93521102Y-68652238D02*
X93514687Y-68629059D01*
X88339061Y-68873063D02*
X88320850Y-68888772D01*
X48430292Y-66236890D02*
X48442145Y-66257815D01*
X48442137Y-10741456D02*
X48430283Y-10762382D01*
X73500593Y-68534043D02*
X73500000Y-68509877D01*
X48471353Y-68675075D02*
X48462698Y-68697513D01*
X1116Y-76001333D02*
X1347Y-76001766D01*
X68301890Y-68903569D02*
X68282227Y-68917417D01*
X111012594Y-35629024D02*
X111007326Y-35605556D01*
X48430284Y-8238091D02*
X48442138Y-8259017D01*
X113994693Y-68581897D02*
X113990581Y-68605593D01*
X110244728Y-11030551D02*
X110244482Y-11030491D01*
X110960404Y-63023964D02*
X110960439Y-63023713D01*
X93509418Y-68605593D02*
X93505306Y-68581897D01*
X73528645Y-10675885D02*
X73521101Y-10653048D01*
X107847773Y-65982523D02*
X107848025Y-65982501D01*
X28339059Y-10873275D02*
X28320848Y-10888984D01*
X11306554Y-11279686D02*
X11279686Y-11306554D01*
X48485314Y-66369732D02*
X48490582Y-66393197D01*
X12352918Y-65263869D02*
X12362532Y-65271311D01*
X53569715Y-8238091D02*
X53582582Y-8217772D01*
X121000436Y-76999281D02*
X121000890Y-76999093D01*
X11001368Y-11949544D02*
X11001285Y-11953909D01*
X28282227Y-8082582D02*
X28301890Y-8096430D01*
X93802486Y-8037301D02*
X93824924Y-8028646D01*
X53611225Y-10821398D02*
X53596429Y-10802438D01*
X62635254Y-62919277D02*
X62658719Y-62926516D01*
X93537301Y-68697513D02*
X93528646Y-68675075D01*
X113942138Y-8259017D02*
X113952952Y-8280499D01*
X10991264Y-35605604D02*
X10985995Y-35629069D01*
X10917955Y-41217778D02*
X10930822Y-41238098D01*
X61945507Y-65726775D02*
X61947530Y-65722740D01*
X113888772Y-8179149D02*
X113903569Y-8198109D01*
X68500000Y-10510610D02*
X68499406Y-10534776D01*
X63015891Y-65624636D02*
X63015939Y-65624826D01*
X33717768Y-10917703D02*
X33698106Y-10903854D01*
X61853343Y-65853619D02*
X61853625Y-65853345D01*
X107683587Y-65995026D02*
X107847773Y-65982523D01*
X11033598Y-11743502D02*
X11030551Y-11755271D01*
X121999589Y-75999504D02*
X121999708Y-75999028D01*
X1000495Y-410D02*
X1000025Y-553D01*
X88417416Y-10783224D02*
X88403567Y-10802887D01*
X28490581Y-8394406D02*
X28494693Y-8418102D01*
X63278746Y-65948055D02*
X63278984Y-65948165D01*
X8082582Y-35782227D02*
X8069715Y-35761908D01*
X8028646Y-35675075D02*
X8021102Y-35652238D01*
X28081897Y-68994693D02*
X28058028Y-68997637D01*
X68356480Y-68856480D02*
X68339061Y-68873063D01*
X28356480Y-68856480D02*
X28339061Y-68873063D01*
X11728535Y-64637265D02*
X11728688Y-64637467D01*
X8324924Y-35971353D02*
X8302486Y-35962698D01*
X109193165Y-65563025D02*
X109203795Y-65557125D01*
X53537305Y-66301837D02*
X53547052Y-66279849D01*
X68452952Y-68719500D02*
X68442138Y-68740982D01*
X110995506Y-62672716D02*
X110995508Y-62672527D01*
X53824920Y-10971901D02*
X53802481Y-10963245D01*
X73679149Y-68888772D02*
X73660938Y-68873063D01*
X121999093Y-76000890D02*
X121999281Y-76000436D01*
X48485312Y-8370940D02*
X48490581Y-8394406D01*
X73941971Y-68997637D02*
X73918102Y-68994693D01*
X11306735Y-11279509D02*
X11306554Y-11279686D01*
X73500593Y-66465956D02*
X73502362Y-66441971D01*
X8465956Y-68999406D02*
X8441971Y-68997637D01*
X121002187Y-76998400D02*
X121002595Y-76998127D01*
X93596430Y-66198109D02*
X93611227Y-66179149D01*
X61797629Y-65901637D02*
X61797786Y-65901519D01*
X10675611Y-41028647D02*
X10698050Y-41037303D01*
X28471353Y-68675075D02*
X28462698Y-68697513D01*
X88462698Y-68697513D02*
X88452952Y-68719500D01*
X53547047Y-68719500D02*
X53537301Y-68697513D01*
X28129098Y-66011536D02*
X28152275Y-66017952D01*
X88500000Y-10510872D02*
X88500000Y-10510872D01*
X113719500Y-41047047D02*
X113740982Y-41057861D01*
X88403567Y-10802887D02*
X88388771Y-10821847D01*
X11848425Y-64784313D02*
X11848592Y-64784503D01*
X10953633Y-35719508D02*
X10942820Y-35740990D01*
X113994693Y-41418102D02*
X113997637Y-41441971D01*
X93759017Y-66057861D02*
X93780499Y-66047047D01*
X113740982Y-41057861D02*
X113761908Y-41069715D01*
X13290186Y-65784096D02*
X13290425Y-65784181D01*
X121999876Y-1001938D02*
X121999804Y-1001452D01*
X73965950Y-11000217D02*
X73941965Y-10998448D01*
X93679149Y-66111227D02*
X93698109Y-66096430D01*
X113605593Y-8009418D02*
X113629059Y-8014687D01*
X10930822Y-41238098D02*
X10942676Y-41259024D01*
X93521102Y-66347761D02*
X93528646Y-66324924D01*
X63189311Y-65891458D02*
X63222385Y-65915487D01*
X63015939Y-65624826D02*
X63017078Y-65629193D01*
X63161963Y-65868101D02*
X63162104Y-65868238D01*
X109494149Y-65376157D02*
X109494359Y-65376015D01*
X28129059Y-68985312D02*
X28105593Y-68990581D01*
X28009924Y-65996839D02*
X28034089Y-65997434D01*
X68282227Y-8082582D02*
X68301890Y-8096430D01*
X61994497Y-65571967D02*
X61994528Y-65571707D01*
X48500000Y-66488907D02*
X48500000Y-68509877D01*
X63370888Y-65982861D02*
X63376737Y-65984265D01*
X8160938Y-41126936D02*
X8179149Y-41111227D01*
X73738091Y-8069715D02*
X73759017Y-8057861D01*
X33847761Y-8021102D02*
X33870940Y-8014687D01*
X111177050Y-35888760D02*
X111158839Y-35873050D01*
X93582582Y-8217772D02*
X93596430Y-8198109D01*
X113999406Y-68534043D02*
X113997637Y-68558028D01*
X12505850Y-65376157D02*
X12643337Y-65466769D01*
X88373063Y-66160938D02*
X88388772Y-66179149D01*
X111026550Y-35675043D02*
X111019007Y-35652204D01*
X63421551Y-65993630D02*
X63422068Y-65993712D01*
X108035982Y-65958563D02*
X108035982Y-65958563D01*
X110399880Y-11083583D02*
X110388707Y-11078789D01*
X110305356Y-11047909D02*
X110305116Y-11047830D01*
X113820850Y-68888772D02*
X113801890Y-68903569D01*
X88240982Y-8057861D02*
X88261908Y-8069715D01*
X93626934Y-10840132D02*
X93611225Y-10821921D01*
X68339061Y-8126936D02*
X68356480Y-8143519D01*
X73918102Y-8005306D02*
X73941971Y-8002362D01*
X93500593Y-68534043D02*
X93500000Y-68509877D01*
X62188911Y-63009356D02*
X62208485Y-62994528D01*
X1599Y-997812D02*
X1347Y-998233D01*
X121999708Y-1000971D02*
X121999589Y-1000495D01*
X33596442Y-66195514D02*
X33611240Y-66176554D01*
X62229352Y-62980322D02*
X62250306Y-62967518D01*
X63010191Y-65599300D02*
X63010984Y-65603744D01*
X33759045Y-66055266D02*
X33780530Y-66044454D01*
X48490582Y-66393197D02*
X48494694Y-66416891D01*
X33611225Y-10821136D02*
X33596429Y-10802176D01*
X33514687Y-10629346D02*
X33509418Y-10605880D01*
X73582582Y-8217772D02*
X73596430Y-8198109D01*
X53500593Y-66465316D02*
X53502362Y-66441330D01*
X63000330Y-65506239D02*
X63000340Y-65506500D01*
X110263712Y-64647280D02*
X110263869Y-64647081D01*
X61901418Y-65797707D02*
X61901540Y-65797553D01*
X11565361Y-11099550D02*
X11565132Y-11099659D01*
X113761908Y-41069715D02*
X113782227Y-41082582D01*
X61552506Y-65997059D02*
X61558469Y-65996274D01*
X33679146Y-10889058D02*
X33660935Y-10873349D01*
X109345915Y-65473468D02*
X109346132Y-65473336D01*
X61599300Y-65989808D02*
X61603744Y-65989015D01*
X11099550Y-11565361D02*
X11083686Y-11599888D01*
X88403569Y-66198109D02*
X88417417Y-66217772D01*
X68009944Y-65999933D02*
X68034107Y-66000529D01*
X12964376Y-65644960D02*
X13113998Y-65713707D01*
X53502362Y-10558577D02*
X53500593Y-10534592D01*
X48261908Y-68930284D02*
X48240982Y-68942138D01*
X62984013Y-63276996D02*
X62989450Y-63300816D01*
X53557861Y-68740982D02*
X53547047Y-68719500D01*
X8160938Y-8126936D02*
X8179149Y-8111227D01*
X88356480Y-8143519D02*
X88373063Y-8160938D01*
X63003763Y-65558728D02*
X63010158Y-65599107D01*
X73502362Y-66441971D02*
X73505306Y-66418102D01*
X62866463Y-63060760D02*
X62882712Y-63079172D01*
X28219500Y-8047047D02*
X28240982Y-8057861D01*
X11000080Y-62503169D02*
X11004331Y-62670939D01*
X113903569Y-41198109D02*
X113917417Y-41217772D01*
X88388772Y-68820850D02*
X88373063Y-68839061D01*
X88417417Y-8217772D02*
X88430284Y-8238091D01*
X28494693Y-10582107D02*
X28490581Y-10605804D01*
X11005902Y-11892799D02*
X11004672Y-11904895D01*
X73611225Y-10821660D02*
X73596429Y-10802700D01*
X61703505Y-65956600D02*
X61707566Y-65954631D01*
X110293515Y-11044191D02*
X110293273Y-11044118D01*
X63000340Y-65506500D02*
X63002396Y-65545727D01*
X73505306Y-66418102D02*
X73509418Y-66394406D01*
X11476494Y-11148142D02*
X11476277Y-11148273D01*
X121999446Y-75999974D02*
X121999589Y-75999504D01*
X68339061Y-68873063D02*
X68320850Y-68888772D01*
X113952952Y-35719500D02*
X113942138Y-35740982D01*
X110784181Y-63709574D02*
X110837438Y-63553764D01*
X8021102Y-41347761D02*
X8028646Y-41324924D01*
X61868193Y-65838125D02*
X61868326Y-65837982D01*
X1599Y-76002187D02*
X1872Y-76002595D01*
X33942016Y-65999779D02*
X33966003Y-65998012D01*
X28081897Y-8005306D02*
X28105593Y-8009418D01*
X121999093Y-999109D02*
X121998883Y-998666D01*
X68478901Y-66347706D02*
X68485314Y-66370883D01*
X61493705Y-65999996D02*
X61506285Y-65999667D01*
X120998061Y-123D02*
X120997573Y-75D01*
X93509418Y-8394406D02*
X93514687Y-8370940D01*
X10918098Y-35782234D02*
X10904250Y-35801896D01*
X109647280Y-65263712D02*
X109774894Y-65159656D01*
X28497637Y-66438814D02*
X28499406Y-66462797D01*
X11554217Y-11105013D02*
X11553991Y-11105128D01*
X113942138Y-35740982D02*
X113930284Y-35761908D01*
X11004957Y-62683335D02*
X11004973Y-62683587D01*
X33802486Y-68962698D02*
X33780499Y-68952952D01*
X62437904Y-62904488D02*
X62462338Y-62902043D01*
X11004973Y-62683587D02*
X11017476Y-62847773D01*
X63376737Y-65984265D02*
X63376992Y-65984323D01*
X93802481Y-10963769D02*
X93780495Y-10954023D01*
X53824924Y-8028646D02*
X53847761Y-8021102D01*
X73569714Y-10762718D02*
X73557860Y-10741792D01*
X28403569Y-8198109D02*
X28417417Y-8217772D01*
X110824107Y-11433810D02*
X110817161Y-11423832D01*
X62996942Y-63350508D02*
X62998768Y-63374824D01*
X73824924Y-66028646D02*
X73847761Y-66021102D01*
X88500000Y-68509877D02*
X88499406Y-68534043D01*
X110958563Y-63035982D02*
X110960404Y-63023964D01*
X8179149Y-8111227D02*
X8198109Y-8096430D01*
X110400111Y-11083686D02*
X110399880Y-11083583D01*
X10857161Y-35856484D02*
X10839742Y-35873067D01*
X62133923Y-63060330D02*
X62151069Y-63042751D01*
X11442874Y-64203795D02*
X11443000Y-64204015D01*
X108198558Y-65929424D02*
X108210467Y-65926977D01*
X10762590Y-35930286D02*
X10741664Y-35942140D01*
X93557861Y-68740982D02*
X93547047Y-68719500D01*
X63473580Y-65999126D02*
X63474102Y-65999154D01*
X48339080Y-66125738D02*
X48356497Y-66142321D01*
X110916313Y-11599888D02*
X110900449Y-11565361D01*
X61973837Y-65658907D02*
X61975371Y-65654662D01*
X93521101Y-10653310D02*
X93514687Y-10630131D01*
X110718702Y-63874363D02*
X110779782Y-63721450D01*
X109356662Y-65466769D02*
X109494149Y-65376157D01*
X113801890Y-41096430D02*
X113820850Y-41111227D01*
X1347Y-998233D02*
X1116Y-998666D01*
X68152290Y-66021051D02*
X68175124Y-66028597D01*
X48442138Y-8259017D02*
X48452952Y-8280499D01*
X998233Y-1347D02*
X997812Y-1599D01*
X88034036Y-11000402D02*
X88009870Y-11000994D01*
X88034043Y-68999406D02*
X88009877Y-69000000D01*
X11520089Y-11122840D02*
X11509459Y-11128740D01*
X33537301Y-8302486D02*
X33547047Y-8280499D01*
X93679146Y-10889843D02*
X93660935Y-10874134D01*
X53941971Y-68997637D02*
X53918102Y-68994693D01*
X11039595Y-63023964D02*
X11041436Y-63035982D01*
X51Y-75997083D02*
X75Y-75997573D01*
X93660938Y-68873063D02*
X93643519Y-68856480D01*
X28373078Y-66157793D02*
X28388786Y-66176004D01*
X53521101Y-10652787D02*
X53514687Y-10629608D01*
X68301922Y-66096387D02*
X68320879Y-66111184D01*
X61871368Y-65834647D02*
X61871627Y-65834352D01*
X63227556Y-65919045D02*
X63227995Y-65919330D01*
X28105593Y-8009418D02*
X28129059Y-8014687D01*
X109203795Y-65557125D02*
X109204015Y-65556999D01*
X113839061Y-35873063D02*
X113820850Y-35888772D01*
X48152233Y-10979370D02*
X48129054Y-10985785D01*
X63054533Y-65726682D02*
X63054771Y-65727148D01*
X48452957Y-66279296D02*
X48462702Y-66301282D01*
X93626936Y-66160938D02*
X93643519Y-66143519D01*
X113856480Y-35856480D02*
X113839061Y-35873063D01*
X11355039Y-64035623D02*
X11355148Y-64035852D01*
X113985312Y-35629059D02*
X113978897Y-35652238D01*
X28320850Y-8111227D02*
X28339061Y-8126936D01*
X61814748Y-65888371D02*
X61818160Y-65885417D01*
X11047909Y-11694643D02*
X11047830Y-11694883D01*
X8441971Y-68997637D02*
X8418102Y-68994693D01*
X111463344Y-41000593D02*
X111487508Y-41000000D01*
X113952952Y-41280499D02*
X113962698Y-41302486D01*
X62897945Y-63098273D02*
X62912280Y-63118212D01*
X68373061Y-10839797D02*
X68356477Y-10857215D01*
X61853625Y-65853345D02*
X61856795Y-65850133D01*
X93505306Y-8418102D02*
X93509418Y-8394406D01*
X121005338Y-76995661D02*
X121995661Y-76005338D01*
X11743257Y-11033665D02*
X11706726Y-11044118D01*
X63428292Y-65994528D02*
X63467330Y-65998631D01*
X8238091Y-41069715D02*
X8259017Y-41057861D01*
X113782227Y-35917417D02*
X113761908Y-35930284D01*
X11162482Y-63553523D02*
X11162561Y-63553764D01*
X33500593Y-8465956D02*
X33502362Y-8441971D01*
X113888772Y-41179149D02*
X113903569Y-41198109D01*
X8037301Y-8302486D02*
X8047047Y-8280499D01*
X48301890Y-8096430D02*
X48320850Y-8111227D01*
X88478897Y-68652238D02*
X88471353Y-68675075D01*
X13290425Y-65784181D02*
X13446235Y-65837438D01*
X110889701Y-63371113D02*
X110926922Y-63210715D01*
X113903569Y-35801890D02*
X113888772Y-35820850D01*
X61954741Y-65707620D02*
X61956604Y-65703509D01*
X12953006Y-65639383D02*
X12953232Y-65639497D01*
X73918102Y-68994693D02*
X73894406Y-68990581D01*
X109784313Y-65151574D02*
X109784503Y-65151407D01*
X8009418Y-41394406D02*
X8014687Y-41370940D01*
X8143519Y-41143519D02*
X8160938Y-41126936D01*
X48452952Y-68719500D02*
X48442138Y-68740982D01*
X33738087Y-10930570D02*
X33717768Y-10917703D01*
X48462702Y-66301282D02*
X48471357Y-66323719D01*
X11631077Y-64504544D02*
X11728535Y-64637265D01*
X63092824Y-65790007D02*
X63095453Y-65793676D01*
X93500000Y-66490122D02*
X93500593Y-66465956D01*
X28452952Y-68719500D02*
X28442138Y-68740982D01*
X62960298Y-63206340D02*
X62969270Y-63229199D01*
X28485312Y-8370940D02*
X28490581Y-8394406D01*
X88485312Y-10630055D02*
X88478897Y-10653234D01*
X111093831Y-41198088D02*
X111108628Y-41179130D01*
X63002413Y-65545989D02*
X63002885Y-65551985D01*
X11041436Y-63035982D02*
X11041478Y-63036232D01*
X33824920Y-10971639D02*
X33802481Y-10962984D01*
X10963379Y-35697522D02*
X10953633Y-35719508D01*
X61856795Y-65850133D02*
X61856932Y-65849992D01*
X61545989Y-65997586D02*
X61551985Y-65997114D01*
X48301890Y-68903569D02*
X48282227Y-68917417D01*
X110784096Y-63709813D02*
X110784181Y-63709574D01*
X93802486Y-66037301D02*
X93824924Y-66028646D01*
X11905147Y-11004649D02*
X11904895Y-11004672D01*
X93557861Y-66259017D02*
X93569715Y-66238091D01*
X61551985Y-65997114D02*
X61552506Y-65997059D01*
X1000971Y-76999708D02*
X1001452Y-76999804D01*
X88403569Y-68801890D02*
X88388772Y-68820850D01*
X8394406Y-41009418D02*
X8418102Y-41005306D01*
X12964147Y-65644851D02*
X12964376Y-65644960D01*
X120997083Y-76999948D02*
X120997573Y-76999924D01*
X11148273Y-11476277D02*
X11148142Y-11476494D01*
X110994097Y-11892799D02*
X110994069Y-11892548D01*
X88219500Y-8047047D02*
X88240982Y-8057861D01*
X110952090Y-11694643D02*
X110939800Y-11658688D01*
X61545727Y-65997603D02*
X61545989Y-65997586D01*
X8021102Y-35652238D02*
X8014687Y-35629059D01*
X8143519Y-8143519D02*
X8160938Y-8126936D01*
X63035768Y-65684922D02*
X63035872Y-65685163D01*
X8009418Y-68605593D02*
X8005306Y-68581897D01*
X88058022Y-10998633D02*
X88034036Y-11000402D01*
X63092711Y-65789846D02*
X63092824Y-65790007D01*
X53679149Y-68888772D02*
X53660938Y-68873063D01*
X88430284Y-68761908D02*
X88417417Y-68782227D01*
X113740982Y-68942138D02*
X113719500Y-68952952D01*
X73596430Y-8198109D02*
X73611227Y-8179149D01*
X68373063Y-8160938D02*
X68388772Y-8179149D01*
X68282262Y-66082538D02*
X68301922Y-66096387D01*
X53582582Y-8217772D02*
X53596430Y-8198109D01*
X28442138Y-8259017D02*
X28452952Y-8280499D01*
X63078210Y-65768068D02*
X63078310Y-65768237D01*
X33918145Y-66002721D02*
X33942016Y-65999779D01*
X114000000Y-68509877D02*
X113999406Y-68534043D01*
X53521102Y-68652238D02*
X53514687Y-68629059D01*
X113978897Y-68652238D02*
X113971353Y-68675075D01*
X88197513Y-68962698D02*
X88175075Y-68971353D01*
X48240982Y-68942138D02*
X48219500Y-68952952D01*
X8002362Y-41441971D02*
X8005306Y-41418102D01*
X93528645Y-10676146D02*
X93521101Y-10653310D01*
X2805Y-996266D02*
X2805Y-996266D01*
X11154841Y-11465747D02*
X11154704Y-11465960D01*
X68497637Y-68558028D02*
X68494693Y-68581897D01*
X61558728Y-65996236D02*
X61599107Y-65989841D01*
X113652238Y-8021102D02*
X113675075Y-8028646D01*
X110305116Y-11047830D02*
X110293515Y-11044191D01*
X88240979Y-10943135D02*
X88219496Y-10953948D01*
X28320871Y-66108083D02*
X28339080Y-66123792D01*
X997812Y-76998400D02*
X998233Y-76998652D01*
X68417431Y-66217726D02*
X68430296Y-66238044D01*
X110998507Y-35534000D02*
X110997915Y-35509833D01*
X11465747Y-11154841D02*
X11434020Y-11175750D01*
X11158842Y-63541923D02*
X11162482Y-63553523D01*
X61993712Y-65577931D02*
X61994497Y-65571967D01*
X113581897Y-68994693D02*
X113558028Y-68997637D01*
X28129054Y-10985523D02*
X28105588Y-10990792D01*
X113697513Y-8037301D02*
X113719500Y-8047047D01*
X11353536Y-11237239D02*
X11353342Y-11237401D01*
X63370382Y-65982726D02*
X63370888Y-65982861D01*
X121998400Y-76002187D02*
X121998652Y-76001766D01*
X110939800Y-11658688D02*
X110939715Y-11658449D01*
X110523505Y-11148142D02*
X110490760Y-11128866D01*
X121997523Y-996630D02*
X121997194Y-996266D01*
X33824924Y-68971353D02*
X33802486Y-68962698D01*
X11220217Y-63721450D02*
X11281297Y-63874363D01*
X93521102Y-8347761D02*
X93528646Y-8324924D01*
X88081897Y-66005306D02*
X88105593Y-66009418D01*
X61874536Y-65830901D02*
X61874661Y-65830750D01*
X10979434Y-41347771D02*
X10985848Y-41370950D01*
X73847761Y-68978897D02*
X73824924Y-68971353D01*
X93990122Y-69000000D02*
X93965956Y-68999406D01*
X68494693Y-8418102D02*
X68497637Y-8441971D01*
X997812Y-1599D02*
X997404Y-1872D01*
X93626936Y-8160938D02*
X93643519Y-8143519D01*
X93643519Y-66143519D02*
X93660938Y-66126936D01*
X68339059Y-10873799D02*
X68320848Y-10889508D01*
X10995228Y-41418113D02*
X10998172Y-41441983D01*
X33596429Y-10802176D02*
X33582581Y-10782513D01*
X48175075Y-8028646D02*
X48197513Y-8037301D01*
X10741519Y-41057863D02*
X10762445Y-41069717D01*
X111158839Y-35873050D02*
X111141420Y-35856464D01*
X61707566Y-65954631D02*
X61707742Y-65954543D01*
X8069715Y-35761908D02*
X8057861Y-35740982D01*
X8021102Y-8347761D02*
X8028646Y-8324924D01*
X11110358Y-63371359D02*
X11113405Y-63383129D01*
X8418102Y-8005306D02*
X8441971Y-8002362D01*
X88058028Y-68997637D02*
X88034043Y-68999406D01*
X62001259Y-63374765D02*
X62003094Y-63350277D01*
X62006285Y-63324999D02*
X62010549Y-63300816D01*
X62512793Y-62900785D02*
X62537319Y-62902009D01*
X68417417Y-8217772D02*
X68430284Y-8238091D01*
X88219500Y-68952952D02*
X88197513Y-68962698D01*
X3Y-1004890D02*
X0Y-1005136D01*
X111345669Y-35978895D02*
X111322832Y-35971350D01*
X11647048Y-11064506D02*
X11646812Y-11064597D01*
X93505306Y-68581897D02*
X93502362Y-68558028D01*
X73679149Y-8111227D02*
X73698109Y-8096430D01*
X110107200Y-11005902D02*
X110095104Y-11004672D01*
X996630Y-2476D02*
X996266Y-2805D01*
X53547052Y-66279849D02*
X53557867Y-66258366D01*
X11842337Y-11012649D02*
X11804936Y-11019352D01*
X63227995Y-65919330D02*
X63233124Y-65922473D01*
X61999127Y-65526419D02*
X61999154Y-65525898D01*
X73521102Y-68652238D02*
X73514687Y-68629059D01*
X53965956Y-8000593D02*
X53990122Y-8000000D01*
X11955429Y-11001132D02*
X11943287Y-11001748D01*
X73509418Y-8394406D02*
X73514687Y-8370940D01*
X12643550Y-65466905D02*
X12653867Y-65473336D01*
X12505640Y-65376015D02*
X12505850Y-65376157D01*
X28471353Y-10675285D02*
X28462697Y-10697724D01*
X33626951Y-66158342D02*
X33643536Y-66140924D01*
X8047047Y-41280499D02*
X8057861Y-41259017D01*
X88129059Y-8014687D02*
X88152238Y-8021102D01*
X108709574Y-65784181D02*
X108709813Y-65784096D01*
X28219496Y-10953163D02*
X28197509Y-10962909D01*
X68261908Y-68930284D02*
X68240982Y-68942138D01*
X62811010Y-63009252D02*
X62829821Y-63025036D01*
X11436854Y-64192942D02*
X11436974Y-64193165D01*
X121002595Y-1872D02*
X121002187Y-1599D01*
X93502362Y-68558028D02*
X93500593Y-68534043D01*
X62169562Y-63025568D02*
X62188374Y-63009784D01*
X111006811Y-41394369D02*
X111012082Y-41370904D01*
X11360616Y-64046993D02*
X11436854Y-64192942D01*
X88261905Y-10931281D02*
X88240979Y-10943135D01*
X113997637Y-68558028D02*
X113994693Y-68581897D01*
X53802481Y-10963245D02*
X53780495Y-10953499D01*
X111300392Y-35962694D02*
X111278404Y-35952946D01*
X11854855Y-11010731D02*
X11854604Y-11010766D01*
X121998400Y-997812D02*
X121998127Y-997404D01*
X28301913Y-66093286D02*
X28320871Y-66108083D01*
X88388771Y-10821847D02*
X88373061Y-10840059D01*
X93941971Y-68997637D02*
X93918102Y-68994693D01*
X28462698Y-68697513D02*
X28452952Y-68719500D01*
X109046767Y-65639497D02*
X109046993Y-65639383D01*
X110929472Y-63198309D02*
X110958521Y-63036232D01*
X111439885Y-35997637D02*
X111416014Y-35994692D01*
X110889641Y-63371359D02*
X110889701Y-63371113D01*
X11658449Y-11060284D02*
X11647048Y-11064506D01*
X110997915Y-35509833D02*
X110999999Y-12003178D01*
X53514687Y-10629608D02*
X53509418Y-10606142D01*
X33582581Y-10782513D02*
X33569714Y-10762194D01*
X48373063Y-68839061D02*
X48356480Y-68856480D01*
X8021102Y-68652238D02*
X8014687Y-68629059D01*
X63010158Y-65599107D02*
X63010191Y-65599300D01*
X53502362Y-66441330D02*
X53505307Y-66417459D01*
X93918102Y-68994693D02*
X93894406Y-68990581D01*
X110616816Y-11213069D02*
X110607202Y-11205627D01*
X11083583Y-11600119D02*
X11078789Y-11611292D01*
X63002396Y-65545727D02*
X63002413Y-65545989D01*
X113873063Y-68839061D02*
X113856480Y-68856480D01*
X110656072Y-11245488D02*
X110655882Y-11245320D01*
X88261908Y-8069715D02*
X88282227Y-8082582D01*
X33990122Y-69000000D02*
X33965956Y-68999406D01*
X11630929Y-64504338D02*
X11631077Y-64504544D01*
X61603744Y-65989015D02*
X61604129Y-65988938D01*
X33537306Y-66299896D02*
X33547053Y-66277908D01*
X8418102Y-68994693D02*
X8394406Y-68990581D01*
X48240982Y-8057861D02*
X48261908Y-8069715D01*
X11792778Y-11021847D02*
X11792531Y-11021901D01*
X11840343Y-64774894D02*
X11840506Y-64775088D01*
X11001283Y-11954099D02*
X11000685Y-35509889D01*
X121002595Y-76998127D02*
X121002990Y-76997835D01*
X48471353Y-10675547D02*
X48462697Y-10697986D01*
X33780495Y-10953237D02*
X33759013Y-10942424D01*
X75Y-75997573D02*
X123Y-75998061D01*
X8014687Y-35629059D02*
X8009418Y-35605593D01*
X120994863Y0D02*
X1005136Y0D01*
X62938400Y-63160868D02*
X62938729Y-63161471D01*
X113581897Y-41005306D02*
X113605593Y-41009418D01*
X11001644Y-11944615D02*
X11001631Y-11944805D01*
X10629594Y-41014688D02*
X10652774Y-41021102D01*
X11728688Y-64637467D02*
X11736130Y-64647081D01*
X68499406Y-8465956D02*
X68500000Y-8490122D01*
X73557861Y-68740982D02*
X73547047Y-68719500D01*
X61810920Y-65891439D02*
X61814446Y-65888622D01*
X113782227Y-41082582D02*
X113801890Y-41096430D01*
X33611227Y-8179149D02*
X33626936Y-8160938D01*
X48499406Y-66464743D02*
X48500000Y-66488907D01*
X93780499Y-66047047D02*
X93802486Y-66037301D01*
X110851726Y-11476277D02*
X110845295Y-11465960D01*
X113761908Y-8069715D02*
X113782227Y-8082582D01*
X8490122Y-41000000D02*
X10510410Y-41000000D01*
X11658688Y-11060199D02*
X11658449Y-11060284D01*
X93528646Y-66324924D02*
X93537301Y-66302486D01*
X48373078Y-66159739D02*
X48388786Y-66177950D01*
X8082582Y-8217772D02*
X8096430Y-8198109D01*
X88282227Y-8082582D02*
X88301890Y-8096430D01*
X28240982Y-8057861D02*
X28261908Y-8069715D01*
X63124308Y-65829478D02*
X63124476Y-65829679D01*
X113820850Y-41111227D02*
X113839061Y-41126936D01*
X68500000Y-68509877D02*
X68499406Y-68534043D01*
X121998883Y-998666D02*
X121998652Y-998233D01*
X61699013Y-65958574D02*
X61703148Y-65956765D01*
X62015986Y-63276996D02*
X62022637Y-63253358D01*
X61698832Y-65958651D02*
X61699013Y-65958574D01*
X107848025Y-65982501D02*
X107860120Y-65981271D01*
X53894406Y-68990581D02*
X53870940Y-68985312D01*
X63480107Y-65999312D02*
X63480368Y-65999315D01*
X8394406Y-68990581D02*
X8370940Y-68985312D01*
X53500593Y-68534043D02*
X53500000Y-68509877D01*
X113782227Y-8082582D02*
X113801890Y-8096430D01*
X33502362Y-8441971D02*
X33505306Y-8418102D01*
X68490583Y-66394347D02*
X68494694Y-66418041D01*
X88494693Y-66418102D02*
X88497637Y-66441971D01*
X73509418Y-68605593D02*
X73505306Y-68581897D01*
X48478900Y-66346554D02*
X48485314Y-66369732D01*
X33990170Y-65997421D02*
X48009924Y-65998784D01*
X107503165Y-65999919D02*
X107670939Y-65995668D01*
X93965956Y-8000593D02*
X93990122Y-8000000D01*
X53582581Y-10782775D02*
X53569714Y-10762456D01*
X1872Y-76002595D02*
X2164Y-76002990D01*
X11047830Y-11694883D02*
X11044191Y-11706484D01*
X111416014Y-35994692D02*
X111392316Y-35990580D01*
X53990122Y-69000000D02*
X53965956Y-68999406D01*
X63054771Y-65727148D02*
X63057641Y-65732435D01*
X63326793Y-65968728D02*
X63327041Y-65968812D01*
X108383373Y-65886527D02*
X108541681Y-65841229D01*
X999109Y-76999093D02*
X999563Y-76999281D01*
X68197513Y-8037301D02*
X68219500Y-8047047D01*
X93990116Y-11001073D02*
X93965950Y-11000479D01*
X11611292Y-11078789D02*
X11600119Y-11083583D01*
X113971353Y-35675075D02*
X113962698Y-35697513D01*
X68485314Y-66370883D02*
X68490583Y-66394347D01*
X8302486Y-41037301D02*
X8324924Y-41028646D01*
X62998768Y-63374824D02*
X62999385Y-63399325D01*
X110195312Y-11019400D02*
X110195063Y-11019352D01*
X33738091Y-8069715D02*
X33759017Y-8057861D01*
X997009Y-2164D02*
X996630Y-2476D01*
X11010731Y-11854855D02*
X11005930Y-11892548D01*
X62061599Y-63160868D02*
X62073877Y-63139602D01*
X110055385Y-11001644D02*
X110055195Y-11001631D01*
X33918102Y-68994693D02*
X33894406Y-68990581D01*
X110817014Y-11423626D02*
X110794524Y-11392999D01*
X48339061Y-8126936D02*
X48356480Y-8143519D01*
X93596429Y-10802962D02*
X93582581Y-10783298D01*
X93717772Y-68917417D02*
X93698109Y-68903569D01*
X63133056Y-65839193D02*
X63161963Y-65868101D01*
X61999316Y-65519642D02*
X61999996Y-63412264D01*
X109046993Y-65639383D02*
X109192942Y-65563145D01*
X110987392Y-11842587D02*
X110987392Y-11842587D01*
X110576167Y-11182838D02*
X110566189Y-11175892D01*
X62993894Y-63326190D02*
X62996942Y-63350508D01*
X73759017Y-8057861D02*
X73780499Y-8047047D01*
X113761908Y-35930284D02*
X113740982Y-35942138D01*
X28058028Y-8002362D02*
X28081897Y-8005306D01*
X61683719Y-65964911D02*
X61698832Y-65958651D01*
X88373061Y-10840059D02*
X88356477Y-10857477D01*
X11237239Y-11353536D02*
X11213227Y-11382984D01*
X110845295Y-11465960D02*
X110845158Y-11465747D01*
X48009877Y-8000000D02*
X48034043Y-8000593D01*
X62364417Y-62919379D02*
X62365078Y-62919193D01*
X73596430Y-68801890D02*
X73582582Y-68782227D01*
X53717772Y-68917417D02*
X53698109Y-68903569D01*
X111080483Y-35782205D02*
X111067616Y-35761884D01*
X53502362Y-68558028D02*
X53500593Y-68534043D01*
X93643519Y-68856480D02*
X93626936Y-68839061D01*
X73990122Y-8000000D02*
X88009877Y-8000000D01*
X291Y-75999028D02*
X410Y-75999504D01*
X121002990Y-76997835D02*
X121003369Y-76997523D01*
X11245488Y-11343927D02*
X11245320Y-11344117D01*
X48197509Y-10963171D02*
X48175070Y-10971826D01*
X61956604Y-65703509D02*
X61956759Y-65703148D01*
X121003733Y-76997194D02*
X121005163Y-76995832D01*
X28152238Y-68978897D02*
X28129059Y-68985312D01*
X11943287Y-11001748D02*
X11943034Y-11001764D01*
X61943145Y-65731075D02*
X61945324Y-65727123D01*
X62317876Y-62935016D02*
X62340951Y-62926617D01*
X1002426Y-75D02*
X1001938Y-123D01*
X120994863Y-77000000D02*
X120995109Y-76999996D01*
X48356497Y-66142321D02*
X48373078Y-66159739D01*
X8302486Y-8037301D02*
X8324924Y-8028646D01*
X63018495Y-65633890D02*
X63018554Y-65634078D01*
X8143519Y-35856480D02*
X8126936Y-35839061D01*
X110960439Y-63023713D02*
X110981242Y-62860372D01*
X63165357Y-65871366D02*
X63165645Y-65871633D01*
X48500000Y-8490122D02*
X48500000Y-10510348D01*
X73643519Y-8143519D02*
X73660938Y-8126936D01*
X8111227Y-8179149D02*
X8126936Y-8160938D01*
X88301890Y-8096430D02*
X88320850Y-8111227D01*
X13976286Y-65960439D02*
X14139627Y-65981242D01*
X28034043Y-8000593D02*
X28058028Y-8002362D01*
X121999708Y-75999028D02*
X121999804Y-75998547D01*
X8179149Y-41111227D02*
X8198109Y-41096430D01*
X108541923Y-65841157D02*
X108553523Y-65837517D01*
X13616870Y-65886594D02*
X13628640Y-65889641D01*
X113856480Y-41143519D02*
X113873063Y-41160938D01*
X110969508Y-11755517D02*
X110969448Y-11755271D01*
X68471358Y-66324871D02*
X68478901Y-66347706D01*
X93780499Y-8047047D02*
X93802486Y-8037301D01*
X8259017Y-8057861D02*
X8280499Y-8047047D01*
X28499406Y-10534252D02*
X28497637Y-10558238D01*
X68485312Y-8370940D02*
X68490581Y-8394406D01*
X110466905Y-64356449D02*
X110473336Y-64346132D01*
X73502362Y-68558028D02*
X73500593Y-68534043D01*
X73847761Y-66021102D02*
X73870940Y-66014687D01*
X110244482Y-11030491D02*
X110207468Y-11021901D01*
X88490581Y-8394406D02*
X88494693Y-8418102D01*
X68462697Y-10698248D02*
X68452951Y-10720235D01*
X68452960Y-66280449D02*
X68462704Y-66302434D01*
X93582581Y-10783298D02*
X93569714Y-10762980D01*
X997404Y-76998127D02*
X997812Y-76998400D01*
X28388772Y-8179149D02*
X28403569Y-8198109D01*
X33626936Y-68839061D02*
X33611227Y-68820850D01*
X11001285Y-11953909D02*
X11001283Y-11954099D01*
X88494693Y-68581897D02*
X88490581Y-68605593D01*
X109035852Y-65644851D02*
X109046767Y-65639497D01*
X33894400Y-10990868D02*
X33870935Y-10985598D01*
X68219544Y-66047001D02*
X68241023Y-66057816D01*
X107860120Y-65981271D02*
X107860372Y-65981242D01*
X14139879Y-65981271D02*
X14151974Y-65982501D01*
X1004890Y-76999996D02*
X1005136Y-77000000D01*
X110779873Y-63721214D02*
X110784096Y-63709813D01*
X11476277Y-11148273D02*
X11465960Y-11154704D01*
X110877159Y-11520089D02*
X110871259Y-11509459D01*
X53698109Y-68903569D02*
X53679149Y-68888772D01*
X61793995Y-65904314D02*
X61797629Y-65901637D01*
X113985312Y-41370940D02*
X113990581Y-41394406D01*
X28417417Y-8217772D02*
X28430284Y-8238091D01*
X68261946Y-66069671D02*
X68282262Y-66082538D01*
X48485312Y-68629059D02*
X48478897Y-68652238D01*
X110369070Y-64504338D02*
X110376015Y-64494359D01*
X68417416Y-10782962D02*
X68403567Y-10802626D01*
X11213069Y-11383183D02*
X11205627Y-11392797D01*
X113534043Y-35999406D02*
X113509877Y-36000000D01*
X62969270Y-63229199D02*
X62977091Y-63252477D01*
X68462704Y-66302434D02*
X68471358Y-66324871D01*
X48494693Y-8418102D02*
X48497637Y-8441971D01*
X73521102Y-66347761D02*
X73528646Y-66324924D01*
X53894442Y-66008771D02*
X53918139Y-66004661D01*
X88152238Y-8021102D02*
X88175075Y-8028646D01*
X62949932Y-63183324D02*
X62960031Y-63205707D01*
X11205627Y-11392797D02*
X11205475Y-11392999D01*
X88462697Y-10698510D02*
X88452951Y-10720497D01*
X88471353Y-68675075D02*
X88462698Y-68697513D01*
X48356477Y-10856953D02*
X48339059Y-10873537D01*
X994836Y-4167D02*
X994661Y-4338D01*
X93643519Y-8143519D02*
X93660938Y-8126936D01*
X8441971Y-35997637D02*
X8418102Y-35994693D01*
X61558469Y-65996274D02*
X61558469Y-65996274D01*
X33698109Y-8096430D02*
X33717772Y-8082582D01*
X906Y-76000890D02*
X1116Y-76001333D01*
X113605593Y-35990581D02*
X113581897Y-35994693D01*
X93780495Y-10954023D02*
X93759013Y-10943209D01*
X4338Y-76005338D02*
X994661Y-76995661D01*
X997009Y-76997835D02*
X997404Y-76998127D01*
X113697513Y-68962698D02*
X113675075Y-68971353D01*
X110955881Y-11706726D02*
X110955808Y-11706484D01*
X68105593Y-68990581D02*
X68081897Y-68994693D01*
X28471353Y-8324924D02*
X28478897Y-8347761D01*
X11012649Y-11842337D02*
X11012607Y-11842587D01*
X113605593Y-41009418D02*
X113629059Y-41014687D01*
X28009870Y-11000209D02*
X12003168Y-11000000D01*
X48009924Y-65998784D02*
X48034089Y-65999380D01*
X63314836Y-65964127D02*
X63315077Y-65964231D01*
X33505306Y-10582184D02*
X33502362Y-10558315D01*
X88129059Y-68985312D02*
X88105593Y-68990581D01*
X48499406Y-10534514D02*
X48497637Y-10558499D01*
X53802486Y-8037301D02*
X53824924Y-8028646D01*
X110693445Y-11279686D02*
X110693264Y-11279509D01*
X51Y-1002916D02*
X3Y-1004890D01*
X62340951Y-62926617D02*
X62364417Y-62919379D01*
X110989233Y-11854604D02*
X110987392Y-11842587D01*
X28499406Y-8465956D02*
X28500000Y-8490122D01*
X110987350Y-11842337D02*
X110980647Y-11804936D01*
X10534576Y-41000593D02*
X10558562Y-41002362D01*
X28175070Y-10971565D02*
X28152233Y-10979108D01*
X28452952Y-8280499D02*
X28462698Y-8302486D01*
X48261908Y-8069715D02*
X48282227Y-8082582D01*
X123Y-1001938D02*
X75Y-1002426D01*
X121998127Y-997404D02*
X121997835Y-997009D01*
X10991117Y-41394417D02*
X10995228Y-41418113D01*
X1116Y-998666D02*
X906Y-999109D01*
X11182985Y-11423626D02*
X11182838Y-11423832D01*
X63278984Y-65948165D02*
X63314836Y-65964127D01*
X28081891Y-10994903D02*
X28058022Y-10997847D01*
X33596430Y-68801890D02*
X33582582Y-68782227D01*
X12215496Y-65151407D02*
X12215686Y-65151574D01*
X11017498Y-62848025D02*
X11018728Y-62860120D01*
X73847756Y-10979707D02*
X73824920Y-10972163D01*
X110556999Y-64204015D02*
X110557125Y-64203795D01*
X8302486Y-68962698D02*
X8280499Y-68952952D01*
X110845158Y-11465747D02*
X110824249Y-11434020D01*
X73537301Y-66302486D02*
X73547047Y-66280499D01*
X121999804Y-1001452D02*
X121999708Y-1000971D01*
X48388772Y-8179149D02*
X48403569Y-8198109D01*
X996266Y-76997194D02*
X996630Y-76997523D01*
X62003094Y-63350277D02*
X62006148Y-63325911D01*
X88339059Y-10874061D02*
X88320848Y-10889770D01*
X48152275Y-66019898D02*
X48175110Y-66027443D01*
X93738091Y-8069715D02*
X93759017Y-8057861D01*
X73626934Y-10839871D02*
X73611225Y-10821660D01*
X11955682Y-11001123D02*
X11955429Y-11001132D01*
X88320850Y-66111227D02*
X88339061Y-66126936D01*
X62882712Y-63079172D02*
X62897945Y-63098273D01*
X109035623Y-65644960D02*
X109035852Y-65644851D01*
X8005306Y-35581897D02*
X8002362Y-35558028D01*
X11792531Y-11021901D02*
X11755517Y-11030491D01*
X111195509Y-41096420D02*
X111215171Y-41082573D01*
X88499406Y-66465956D02*
X88500000Y-66490122D01*
X73643517Y-10857289D02*
X73626934Y-10839871D01*
X63321123Y-65966720D02*
X63326793Y-65968728D01*
X61744167Y-65935983D02*
X61744399Y-65935862D01*
X73894406Y-8009418D02*
X73918102Y-8005306D01*
X28462702Y-66299336D02*
X28471357Y-66321774D01*
X0Y-1005136D02*
X0Y-75994863D01*
X11355148Y-64035852D02*
X11360502Y-64046767D01*
X113534043Y-41000593D02*
X113558028Y-41002362D01*
X62562435Y-62904539D02*
X62586717Y-62908199D01*
X93738091Y-68930284D02*
X93717772Y-68917417D01*
X73514687Y-68629059D02*
X73509418Y-68605593D01*
X73870935Y-10986122D02*
X73847756Y-10979707D01*
X11281297Y-63874363D02*
X11281394Y-63874597D01*
X121003369Y-2476D02*
X121002990Y-2164D01*
X33582592Y-66215178D02*
X33596442Y-66195514D01*
X68009870Y-11000733D02*
X53990116Y-11000549D01*
X110684452Y-11271133D02*
X110684266Y-11270960D01*
X28494693Y-8418102D02*
X28497637Y-8441971D01*
X110966401Y-11743502D02*
X110966334Y-11743257D01*
X8179149Y-35888772D02*
X8160938Y-35873063D01*
X28478897Y-10652449D02*
X28471353Y-10675285D01*
X93528646Y-68675075D02*
X93521102Y-68652238D01*
X93547047Y-66280499D02*
X93557861Y-66259017D01*
X93679149Y-8111227D02*
X93698109Y-8096430D01*
X61998656Y-65532397D02*
X61999127Y-65526419D01*
X28058028Y-68997637D02*
X28034043Y-68999406D01*
X88105588Y-10991577D02*
X88081891Y-10995689D01*
X93596430Y-8198109D02*
X93611227Y-8179149D01*
X68301890Y-8096430D02*
X68320850Y-8111227D01*
X61558469Y-65996274D02*
X61558728Y-65996236D01*
X28356497Y-66140375D02*
X28373078Y-66157793D01*
X33738118Y-66067120D02*
X33759045Y-66055266D01*
X110999919Y-11996822D02*
X110998876Y-11955682D01*
X68430284Y-68761908D02*
X68417417Y-68782227D01*
X110786772Y-11382984D02*
X110762760Y-11353536D01*
X53918096Y-10995242D02*
X53894400Y-10991130D01*
X73500000Y-68509877D02*
X73500000Y-66490122D01*
X10889310Y-41179154D02*
X10904107Y-41198115D01*
X73509418Y-10606404D02*
X73505306Y-10582708D01*
X61506285Y-65999667D02*
X61506547Y-65999656D01*
X73660935Y-10873872D02*
X73643517Y-10857289D01*
X48462698Y-68697513D02*
X48452952Y-68719500D01*
X10675757Y-35971354D02*
X10652921Y-35978898D01*
X11030491Y-11755517D02*
X11021901Y-11792531D01*
X8441971Y-41002362D02*
X8465956Y-41000593D01*
X68034107Y-66000529D02*
X68058090Y-66002301D01*
X28282252Y-66079438D02*
X28301913Y-66093286D01*
X28494694Y-66414946D02*
X28497637Y-66438814D01*
X93918096Y-10995765D02*
X93894400Y-10991653D01*
X8441971Y-8002362D02*
X8465956Y-8000593D01*
X110958521Y-63036232D02*
X110958563Y-63035982D01*
X48320871Y-66110029D02*
X48339080Y-66125738D01*
X88009877Y-66000000D02*
X88034043Y-66000593D01*
X68197560Y-66037254D02*
X68219544Y-66047001D01*
X11070575Y-63198558D02*
X11073022Y-63210467D01*
X73660938Y-68873063D02*
X73643519Y-68856480D01*
X108383129Y-65886594D02*
X108383373Y-65886527D01*
X93990122Y-8000000D02*
X113509877Y-8000000D01*
X110999752Y-41441931D02*
X111002698Y-41418063D01*
X93847761Y-66021102D02*
X93870940Y-66014687D01*
X110728866Y-11315547D02*
X110720490Y-11306735D01*
X113581897Y-35994693D02*
X113558028Y-35997637D01*
X88356480Y-68856480D02*
X88339061Y-68873063D01*
X33509418Y-68605593D02*
X33505306Y-68581897D01*
X8490122Y-69000000D02*
X8465956Y-68999406D01*
X33626934Y-10839347D02*
X33611225Y-10821136D01*
X53780495Y-10953499D02*
X53759013Y-10942686D01*
X11465960Y-11154704D02*
X11465747Y-11154841D01*
X93537301Y-8302486D02*
X93547047Y-8280499D01*
X33780499Y-68952952D02*
X33759017Y-68942138D01*
X48356480Y-68856480D02*
X48339061Y-68873063D01*
X93505306Y-10582970D02*
X93502362Y-10559100D01*
X8238091Y-8069715D02*
X8259017Y-8057861D01*
X93870940Y-66014687D02*
X93894406Y-66009418D01*
X110445782Y-11105013D02*
X110434867Y-11099659D01*
X11110298Y-63371113D02*
X11110358Y-63371359D01*
X93894400Y-10991653D02*
X93870935Y-10986384D01*
X61983940Y-65624799D02*
X61983983Y-65624607D01*
X110851857Y-11476494D02*
X110851726Y-11476277D01*
X8111227Y-41179149D02*
X8126936Y-41160938D01*
X110032295Y-64915863D02*
X110032472Y-64915681D01*
X62960031Y-63205707D02*
X62960298Y-63206340D01*
X121000890Y-906D02*
X121000436Y-718D01*
X11073077Y-63210715D02*
X11110298Y-63371113D01*
X61981568Y-65634116D02*
X61981622Y-65633927D01*
X113719500Y-8047047D02*
X113740982Y-8057861D01*
X68081897Y-68994693D02*
X68058028Y-68997637D01*
X48129059Y-8014687D02*
X48152238Y-8021102D01*
X110837517Y-63553523D02*
X110841157Y-63541923D01*
X73514687Y-66370940D02*
X73521102Y-66347761D01*
X110207221Y-11021847D02*
X110195312Y-11019400D01*
X110894871Y-11553991D02*
X110877279Y-11520312D01*
X110095104Y-11004672D02*
X110094852Y-11004649D01*
X999563Y-718D02*
X999109Y-906D01*
X113962698Y-35697513D02*
X113952952Y-35719500D01*
X68219500Y-68952952D02*
X68197513Y-68962698D01*
X62926122Y-63139602D02*
X62938400Y-63160868D01*
X62682446Y-62935133D02*
X62705074Y-62944672D01*
X93528646Y-8324924D02*
X93537301Y-8302486D01*
X73514687Y-10629870D02*
X73509418Y-10606404D01*
X28320848Y-10888984D02*
X28301887Y-10903781D01*
X109356449Y-65466905D02*
X109356662Y-65466769D01*
X113581897Y-8005306D02*
X113605593Y-8009418D01*
X53643519Y-68856480D02*
X53626936Y-68839061D01*
X110713810Y-63885769D02*
X110718605Y-63874597D01*
X63124476Y-65829679D02*
X63128382Y-65834253D01*
X111215674Y-35917408D02*
X111196010Y-35903558D01*
X14327472Y-65995508D02*
X28009924Y-65996839D01*
X48494693Y-68581897D02*
X48490581Y-68605593D01*
X62061270Y-63161471D02*
X62061599Y-63160868D01*
X113839061Y-41126936D02*
X113856480Y-41143519D01*
X88442138Y-66259017D02*
X88452952Y-66280499D01*
X11044191Y-11706484D02*
X11044118Y-11706726D01*
X120999974Y-76999446D02*
X121000436Y-76999281D01*
X73698109Y-66096430D02*
X73717772Y-66082582D01*
X11128740Y-11509459D02*
X11122840Y-11520089D01*
X110762598Y-11353342D02*
X110754679Y-11344117D01*
X10582581Y-35994693D02*
X10558712Y-35997637D01*
X110563025Y-64193165D02*
X110563145Y-64192942D01*
X11237401Y-11353342D02*
X11237239Y-11353536D01*
X53894400Y-10991130D02*
X53870935Y-10985860D01*
X53611238Y-66178495D02*
X53626949Y-66160284D01*
X113962698Y-41302486D02*
X113971353Y-41324924D01*
X11600119Y-11083583D02*
X11599888Y-11083686D01*
X110557125Y-64203795D02*
X110563025Y-64193165D01*
X110565979Y-11175750D02*
X110534252Y-11154841D01*
X48058028Y-8002362D02*
X48081897Y-8005306D01*
X88320850Y-8111227D02*
X88339061Y-8126936D01*
X73626936Y-66160938D02*
X73643519Y-66143519D01*
X73698109Y-8096430D02*
X73717772Y-8082582D01*
X62791534Y-62994500D02*
X62811010Y-63009252D01*
X12795984Y-65556999D02*
X12796204Y-65557125D01*
X63480368Y-65999315D02*
X68009944Y-65999933D01*
X48403567Y-10802364D02*
X48388771Y-10821324D01*
X8082582Y-68782227D02*
X8069715Y-68761908D01*
X68494693Y-68581897D02*
X68490581Y-68605593D01*
X48430284Y-68761908D02*
X48417417Y-68782227D01*
X11064506Y-11647048D02*
X11060284Y-11658449D01*
X121000436Y-718D02*
X120999974Y-553D01*
X48356480Y-8143519D02*
X48373063Y-8160938D01*
X111067116Y-41238066D02*
X111079983Y-41217749D01*
X73569715Y-8238091D02*
X73582582Y-8217772D01*
X68152238Y-68978897D02*
X68129059Y-68985312D01*
X48500000Y-10510348D02*
X48499406Y-10534514D01*
X53509418Y-10606142D02*
X53505306Y-10582446D01*
X11105013Y-11554217D02*
X11099659Y-11565132D01*
X28452957Y-66277350D02*
X28462702Y-66299336D01*
X61947530Y-65722740D02*
X61947616Y-65722564D01*
X28388786Y-66176004D02*
X28403580Y-66194963D01*
X53509418Y-8394406D02*
X53514687Y-8370940D01*
X93918102Y-8005306D02*
X93941971Y-8002362D01*
X33870979Y-66012098D02*
X33894447Y-66006831D01*
X110877279Y-11520312D02*
X110877159Y-11520089D01*
X63012028Y-65608537D02*
X63012072Y-65608729D01*
X109637467Y-65271311D02*
X109647081Y-65263869D01*
X113675075Y-8028646D02*
X113697513Y-8037301D01*
X48388771Y-10821324D02*
X48373061Y-10839535D01*
X48219531Y-66045847D02*
X48241011Y-66056661D01*
X63031271Y-65673206D02*
X63033279Y-65678876D01*
X62611456Y-62913218D02*
X62635254Y-62919277D01*
X108023713Y-65960439D02*
X108023964Y-65960404D01*
X62912799Y-63118973D02*
X62926122Y-63139602D01*
X61793675Y-65904541D02*
X61793995Y-65904314D01*
X68478897Y-8347761D02*
X68485312Y-8370940D01*
X11064597Y-11646812D02*
X11064506Y-11647048D01*
X107683335Y-65995042D02*
X107683587Y-65995026D01*
X8096430Y-35801890D02*
X8082582Y-35782227D01*
X553Y-75999974D02*
X718Y-76000436D01*
X110886527Y-63383373D02*
X110886594Y-63383129D01*
X1001452Y-195D02*
X1000971Y-291D01*
X121002187Y-1599D02*
X121001766Y-1347D01*
X68442138Y-8259017D02*
X68452952Y-8280499D01*
X10999940Y-41465969D02*
X11000533Y-41490135D01*
X48129059Y-68985312D02*
X48105593Y-68990581D01*
X88152238Y-68978897D02*
X88129059Y-68985312D01*
X8324924Y-8028646D02*
X8347761Y-8021102D01*
X53965950Y-10999956D02*
X53941965Y-10998186D01*
X13801690Y-65929472D02*
X13963767Y-65958521D01*
X11001382Y-11949164D02*
X11001368Y-11949544D01*
X110824249Y-11434020D02*
X110824107Y-11433810D01*
X28500000Y-68509877D02*
X28499406Y-68534043D01*
X68356477Y-10857215D02*
X68339059Y-10873799D01*
X63128382Y-65834253D02*
X63128732Y-65834642D01*
X111035205Y-35697483D02*
X111026550Y-35675043D01*
X48388772Y-68820850D02*
X48373063Y-68839061D01*
X110376015Y-64494359D02*
X110376157Y-64494149D01*
X62151069Y-63042751D02*
X62151561Y-63042271D01*
X111256921Y-35942132D02*
X111235994Y-35930276D01*
X88105593Y-66009418D02*
X88129059Y-66014687D01*
X93611227Y-8179149D02*
X93626936Y-8160938D01*
X120999028Y-291D02*
X120998547Y-195D01*
X88497637Y-68558028D02*
X88494693Y-68581897D01*
X11854604Y-11010766D02*
X11842587Y-11012607D01*
X108198309Y-65929472D02*
X108198558Y-65929424D01*
X113697513Y-35962698D02*
X113675075Y-35971353D01*
X88478897Y-10653234D02*
X88471353Y-10676071D01*
X110341550Y-11060284D02*
X110341311Y-11060199D01*
X53738087Y-10930831D02*
X53717768Y-10917965D01*
X62101922Y-63098467D02*
X62117233Y-63079268D01*
X33870940Y-68985312D02*
X33847761Y-68978897D01*
X68240979Y-10942874D02*
X68219496Y-10953687D01*
X10802428Y-41096433D02*
X10821388Y-41111230D01*
X113629059Y-35985312D02*
X113605593Y-35990581D01*
X110969448Y-11755271D02*
X110966401Y-11743502D01*
X28499406Y-68534043D02*
X28497637Y-68558028D01*
X28462697Y-10697724D02*
X28452951Y-10719711D01*
X121998127Y-76002595D02*
X121998400Y-76002187D01*
X88430284Y-8238091D02*
X88442138Y-8259017D01*
X33626936Y-8160938D02*
X33643519Y-8143519D01*
X88388772Y-8179149D02*
X88403569Y-8198109D01*
X10998172Y-41441983D02*
X10999940Y-41465969D01*
X73528646Y-68675075D02*
X73521102Y-68652238D01*
X11175892Y-11433810D02*
X11175750Y-11434020D01*
X53780526Y-66046395D02*
X53802515Y-66036650D01*
X61983983Y-65624607D02*
X61992483Y-65584619D01*
X28356480Y-8143519D02*
X28373063Y-8160938D01*
X61608729Y-65987927D02*
X61624636Y-65984108D01*
X68034036Y-11000140D02*
X68009870Y-11000733D01*
X121005163Y-4167D02*
X121003733Y-2805D01*
X10720182Y-35952953D02*
X10698196Y-35962699D01*
X8047047Y-68719500D02*
X8037301Y-68697513D01*
X121997835Y-76002990D02*
X121998127Y-76002595D01*
X110388707Y-11078789D02*
X110388473Y-11078692D01*
X28417417Y-68782227D02*
X28403569Y-68801890D01*
X28058022Y-10997847D02*
X28034036Y-10999616D01*
X48417417Y-8217772D02*
X48430284Y-8238091D01*
X93643517Y-10857551D02*
X93626934Y-10840132D01*
X10762445Y-41069717D02*
X10782765Y-41082584D01*
X73824924Y-68971353D02*
X73802486Y-68962698D01*
X68197513Y-68962698D02*
X68175075Y-68971353D01*
X48197546Y-66036100D02*
X48219531Y-66045847D01*
X53802486Y-68962698D02*
X53780499Y-68952952D01*
X33660938Y-8126936D02*
X33679149Y-8111227D01*
X111140921Y-41143504D02*
X111158339Y-41126922D01*
X120998547Y-195D02*
X120998061Y-123D01*
X73759017Y-68942138D02*
X73738091Y-68930284D01*
X122000000Y-75994863D02*
X122000000Y-1005136D01*
X61982819Y-65629575D02*
X61982915Y-65629194D01*
X110981242Y-62860372D02*
X110981271Y-62860120D01*
X61945324Y-65727123D02*
X61945507Y-65726775D01*
X11526663Y-64346132D02*
X11533094Y-64356449D01*
X61493443Y-65999999D02*
X61493705Y-65999996D01*
X110955808Y-11706484D02*
X110952169Y-11694883D01*
X48081897Y-8005306D02*
X48105593Y-8009418D01*
X33569715Y-68761908D02*
X33557861Y-68740982D01*
X10873744Y-35839066D02*
X10857161Y-35856484D01*
X93514687Y-10630131D02*
X93509418Y-10606666D01*
X93698109Y-66096430D02*
X93717772Y-66082582D01*
X11286189Y-63885769D02*
X11286292Y-63886001D01*
X28442137Y-10741194D02*
X28430283Y-10762120D01*
X11128866Y-11509239D02*
X11128740Y-11509459D01*
X108210715Y-65926922D02*
X108371113Y-65889701D01*
X8280499Y-68952952D02*
X8259017Y-68942138D01*
X62848690Y-63042505D02*
X62865836Y-63060084D01*
X28301890Y-68903569D02*
X28282227Y-68917417D01*
X28197513Y-68962698D02*
X28175075Y-68971353D01*
X68240982Y-8057861D02*
X68261908Y-8069715D01*
X110644960Y-64035623D02*
X110713707Y-63886001D01*
X48452952Y-8280499D02*
X48462698Y-8302486D01*
X88373063Y-8160938D02*
X88388772Y-8179149D01*
X73780499Y-8047047D02*
X73802486Y-8037301D01*
X61634078Y-65981445D02*
X61674515Y-65968306D01*
X33894447Y-66006831D02*
X33918145Y-66002721D01*
X62271872Y-62955773D02*
X62272483Y-62955460D01*
X53698106Y-10904116D02*
X53679146Y-10889320D01*
X93537301Y-66302486D02*
X93547047Y-66280499D01*
X8347761Y-68978897D02*
X8324924Y-68971353D01*
X61982915Y-65629194D02*
X61983940Y-65624799D01*
X48373061Y-10839535D02*
X48356477Y-10856953D01*
X53569715Y-68761908D02*
X53557861Y-68740982D01*
X93500593Y-8465956D02*
X93502362Y-8441971D01*
X73557860Y-10741792D02*
X73547047Y-10720310D01*
X73547047Y-68719500D02*
X73537301Y-68697513D01*
X110841157Y-63541923D02*
X110841229Y-63541681D01*
X68485312Y-10629793D02*
X68478897Y-10652972D01*
X61947616Y-65722564D02*
X61954659Y-65707798D01*
X2164Y-76002990D02*
X2476Y-76003369D01*
X73505306Y-68581897D02*
X73502362Y-68558028D01*
X33824960Y-66026054D02*
X33847798Y-66018511D01*
X63095453Y-65793676D02*
X63095688Y-65793990D01*
X121998652Y-76001766D02*
X121998883Y-76001333D01*
X28261935Y-66066570D02*
X28282252Y-66079438D01*
X88105593Y-8009418D02*
X88129059Y-8014687D01*
X63017185Y-65629571D02*
X63018495Y-65633890D01*
X110434638Y-11099550D02*
X110400111Y-11083686D01*
X113997637Y-8441971D02*
X113999406Y-8465956D01*
X110684266Y-11270960D02*
X110656072Y-11245488D01*
X110720490Y-11306735D02*
X110720313Y-11306554D01*
X93717772Y-8082582D02*
X93738091Y-8069715D01*
X68500000Y-66490055D02*
X68500000Y-68509877D01*
X10510562Y-36000000D02*
X8490122Y-36000000D01*
X53738091Y-68930284D02*
X53717772Y-68917417D01*
X63033467Y-65679365D02*
X63035768Y-65684922D01*
X28471357Y-66321774D02*
X28478900Y-66344609D01*
X110900449Y-11565361D02*
X110900340Y-11565132D01*
X53717772Y-8082582D02*
X53738091Y-8069715D01*
X33698106Y-10903854D02*
X33679146Y-10889058D01*
X11000091Y-35534055D02*
X10998321Y-35558039D01*
X88494693Y-10582893D02*
X88490581Y-10606589D01*
X1001938Y-123D02*
X1001452Y-195D01*
X11004341Y-62671193D02*
X11004957Y-62683335D01*
X68282227Y-68917417D02*
X68261908Y-68930284D01*
X113605593Y-68990581D02*
X113581897Y-68994693D01*
X11113405Y-63383129D02*
X11113472Y-63383373D01*
X14327282Y-65995506D02*
X14327472Y-65995508D01*
X11000685Y-35509889D02*
X11000091Y-35534055D01*
X53596440Y-66197456D02*
X53611238Y-66178495D01*
X33557861Y-8259017D02*
X33569715Y-8238091D01*
X88058028Y-8002362D02*
X88081897Y-8005306D01*
X48485312Y-10629531D02*
X48478897Y-10652711D01*
X68403569Y-68801890D02*
X68388772Y-68820850D01*
X107671193Y-65995658D02*
X107683335Y-65995042D01*
X110607202Y-11205627D02*
X110607000Y-11205475D01*
X68152238Y-8021102D02*
X68175075Y-8028646D01*
X63364615Y-65981017D02*
X63370382Y-65982726D01*
X63273317Y-65945466D02*
X63278746Y-65948055D01*
X11004331Y-62670939D02*
X11004341Y-62671193D01*
X33509418Y-10605880D02*
X33505306Y-10582184D01*
X8370940Y-68985312D02*
X8347761Y-68978897D01*
X8000000Y-68509877D02*
X8000000Y-41490122D01*
X111018498Y-41347727D02*
X111026043Y-41324893D01*
X73738087Y-10931093D02*
X73717768Y-10918226D01*
X93611227Y-68820850D02*
X93596430Y-68801890D01*
X410Y-1000495D02*
X291Y-1000971D01*
X291Y-1000971D02*
X195Y-1001452D01*
X48471357Y-66323719D02*
X48478900Y-66346554D01*
X33582582Y-68782227D02*
X33569715Y-68761908D01*
X111488038Y-36000000D02*
X111463871Y-35999406D01*
X10953489Y-41280507D02*
X10963235Y-41302494D01*
X68497637Y-8441971D02*
X68499406Y-8465956D01*
X13125402Y-65718605D02*
X13125636Y-65718702D01*
X12215686Y-65151574D02*
X12224911Y-65159493D01*
X33780530Y-66044454D02*
X33802519Y-66034709D01*
X62117674Y-63078742D02*
X62133923Y-63060330D01*
X93509418Y-10606666D02*
X93505306Y-10582970D01*
X1000025Y-76999446D02*
X1000495Y-76999589D01*
X93894406Y-68990581D02*
X93870940Y-68985312D01*
X48009870Y-11000471D02*
X33990116Y-11000287D01*
X13125636Y-65718702D02*
X13278549Y-65779782D01*
X93698109Y-68903569D02*
X93679149Y-68888772D01*
X110926977Y-63210467D02*
X110929424Y-63198558D01*
X93990122Y-66000000D02*
X107496833Y-66000000D01*
X68494694Y-66418041D02*
X68497637Y-66441909D01*
X113719500Y-35952952D02*
X113697513Y-35962698D01*
X1005136Y-77000000D02*
X120994863Y-77000000D01*
X68490581Y-68605593D02*
X68485312Y-68629059D01*
X53717768Y-10917965D02*
X53698106Y-10904116D01*
X33918102Y-8005306D02*
X33941971Y-8002362D01*
X107496959Y-65999999D02*
X107503039Y-65999922D01*
X61703148Y-65956765D02*
X61703505Y-65956600D01*
X13628640Y-65889641D02*
X13628886Y-65889701D01*
X28152275Y-66017952D02*
X28175110Y-66025498D01*
X73759017Y-66057861D02*
X73780499Y-66047047D01*
X8111227Y-68820850D02*
X8096430Y-68801890D01*
X62999998Y-65493490D02*
X63000001Y-65493751D01*
X88430284Y-66238091D02*
X88442138Y-66259017D01*
X122000000Y-1005136D02*
X121999996Y-1004890D01*
X110999921Y-11996950D02*
X110999919Y-11996822D01*
X10629742Y-35985312D02*
X10606277Y-35990582D01*
X63189153Y-65891341D02*
X63189311Y-65891458D01*
X110271464Y-64637265D02*
X110368922Y-64504544D01*
X28152238Y-8021102D02*
X28175075Y-8028646D01*
X73569715Y-66238091D02*
X73582582Y-66217772D01*
X121999281Y-76000436D02*
X121999446Y-75999974D01*
X73500000Y-66490122D02*
X73500593Y-66465956D01*
X110939715Y-11658449D02*
X110935493Y-11647048D01*
X61679333Y-65966629D02*
X61683536Y-65964984D01*
X68081897Y-8005306D02*
X68105593Y-8009418D01*
X63012072Y-65608729D02*
X63015891Y-65624636D01*
X113888772Y-68820850D02*
X113873063Y-68839061D01*
X11694883Y-11047830D02*
X11694643Y-11047909D01*
X33643536Y-66140924D02*
X33660956Y-66124340D01*
X28197509Y-10962909D02*
X28175070Y-10971565D01*
X113990581Y-8394406D02*
X113994693Y-8418102D01*
X113903569Y-8198109D02*
X113917417Y-8217772D01*
X63035872Y-65685163D02*
X63051834Y-65721015D01*
X73990122Y-69000000D02*
X73965956Y-68999406D01*
X11842587Y-11012607D02*
X11842587Y-11012607D01*
X11392999Y-11205475D02*
X11392797Y-11205627D01*
X93547047Y-10720572D02*
X93537301Y-10698585D01*
X110341311Y-11060199D02*
X110305356Y-11047909D01*
X73941971Y-66002362D02*
X73965956Y-66000593D01*
X88105593Y-68990581D02*
X88081897Y-68994693D01*
X88339061Y-66126936D02*
X88356480Y-66143519D01*
X110718605Y-63874597D02*
X110718702Y-63874363D01*
X110998235Y-11943034D02*
X110995350Y-11905147D01*
X28452951Y-10719711D02*
X28442137Y-10741194D01*
X1347Y-76001766D02*
X1599Y-76002187D01*
X109915863Y-65032295D02*
X110032295Y-64915863D01*
X33500000Y-68509877D02*
X33500000Y-66487543D01*
X73824924Y-8028646D02*
X73847761Y-8021102D01*
X48403569Y-68801890D02*
X48388772Y-68820850D01*
X93514687Y-8370940D02*
X93521102Y-8347761D01*
X88197513Y-8037301D02*
X88219500Y-8047047D01*
X8160938Y-35873063D02*
X8143519Y-35856480D01*
X68462698Y-8302486D02*
X68471353Y-8324924D01*
X994661Y-4338D02*
X4338Y-994661D01*
X8009418Y-35605593D02*
X8005306Y-35581897D01*
X12653867Y-65473336D02*
X12654084Y-65473468D01*
X28034036Y-10999616D02*
X28009870Y-11000209D01*
X8465956Y-8000593D02*
X8490122Y-8000000D01*
X8028646Y-68675075D02*
X8021102Y-68652238D01*
X110479687Y-11122720D02*
X110446008Y-11105128D01*
X8000593Y-41465956D02*
X8002362Y-41441971D01*
X63031187Y-65672958D02*
X63031271Y-65673206D01*
X73557861Y-8259017D02*
X73569715Y-8238091D01*
X53500593Y-10534592D02*
X53500000Y-10510426D01*
X718Y-76000436D02*
X906Y-76000890D01*
X33500593Y-66463376D02*
X33502362Y-66439389D01*
X88152238Y-66021102D02*
X88175075Y-66028646D01*
X121001333Y-1116D02*
X121000890Y-906D01*
X33500000Y-66487543D02*
X33500000Y-66487543D01*
X111322832Y-35971350D02*
X111300392Y-35962694D01*
X61919147Y-65772432D02*
X61919356Y-65772100D01*
X88442138Y-68740982D02*
X88430284Y-68761908D01*
X93941971Y-66002362D02*
X93965956Y-66000593D01*
X62999385Y-63399325D02*
X62999998Y-65493490D01*
X110995423Y-62677078D02*
X110995506Y-62672716D01*
X11509239Y-11128866D02*
X11476494Y-11148142D01*
X68430284Y-8238091D02*
X68442138Y-8259017D01*
X68388771Y-10821586D02*
X68373061Y-10839797D01*
X93582582Y-66217772D02*
X93596430Y-66198109D01*
X11070527Y-63198309D02*
X11070575Y-63198558D01*
X110644851Y-64035852D02*
X110644960Y-64035623D01*
X11001631Y-11944805D02*
X11001382Y-11949164D01*
X110713707Y-63886001D02*
X110713810Y-63885769D01*
X11755517Y-11030491D02*
X11755271Y-11030551D01*
X121001766Y-76998652D02*
X121002187Y-76998400D01*
X110952169Y-11694883D02*
X110952090Y-11694643D01*
X93505306Y-66418102D02*
X93509418Y-66394406D01*
X88282227Y-66082582D02*
X88301890Y-66096430D01*
X48478897Y-68652238D02*
X48471353Y-68675075D01*
X28388771Y-10821062D02*
X28373061Y-10839273D01*
X53870940Y-8014687D02*
X53894406Y-8009418D01*
X62250306Y-62967518D02*
X62271872Y-62955773D01*
X61683536Y-65964984D02*
X61683719Y-65964911D01*
X11360502Y-64046767D02*
X11360616Y-64046993D01*
X28241011Y-66054715D02*
X28261935Y-66066570D01*
X11996832Y-11000080D02*
X11955682Y-11001123D01*
X111044447Y-41280471D02*
X111055261Y-41258990D01*
X28152233Y-10979108D02*
X28129054Y-10985523D01*
X33660935Y-10873349D02*
X33643517Y-10856765D01*
X10904107Y-41198115D02*
X10917955Y-41217778D01*
X88175070Y-10972350D02*
X88152233Y-10979894D01*
X53679146Y-10889320D02*
X53660935Y-10873611D01*
X33557868Y-66256424D02*
X33569723Y-66235498D01*
X113917417Y-8217772D02*
X113930284Y-8238091D01*
X11423832Y-11182838D02*
X11423626Y-11182985D01*
X10534727Y-35999406D02*
X10510562Y-36000000D01*
X11743502Y-11033598D02*
X11743257Y-11033665D01*
X68417417Y-68782227D02*
X68403569Y-68801890D01*
X88471353Y-8324924D02*
X88478897Y-8347761D01*
X88081897Y-68994693D02*
X88058028Y-68997637D01*
X73802481Y-10963507D02*
X73780495Y-10953761D01*
X8126936Y-8160938D02*
X8143519Y-8143519D01*
X13963767Y-65958521D02*
X13964017Y-65958563D01*
X48081891Y-10995165D02*
X48058022Y-10998109D01*
X110607000Y-11205475D02*
X110576373Y-11182985D01*
X111345155Y-41021099D02*
X111368332Y-41014685D01*
X33521102Y-8347761D02*
X33528646Y-8324924D01*
X28339061Y-68873063D02*
X28320850Y-68888772D01*
X61992483Y-65584619D02*
X61992534Y-65584362D01*
X88462698Y-8302486D02*
X88471353Y-8324924D01*
X8047047Y-35719500D02*
X8037301Y-35697513D01*
X110762760Y-11353536D02*
X110762598Y-11353342D01*
X113917417Y-41217772D02*
X113930284Y-41238091D01*
X121999281Y-999563D02*
X121999093Y-999109D01*
X120998547Y-76999804D02*
X120999028Y-76999708D01*
X93626936Y-68839061D02*
X93611227Y-68820850D01*
X8000593Y-35534043D02*
X8000000Y-35509877D01*
X33500593Y-68534043D02*
X33500000Y-68509877D01*
X68301887Y-10904304D02*
X68282224Y-10918153D01*
X68129059Y-68985312D02*
X68105593Y-68990581D01*
X63132873Y-65839005D02*
X63133056Y-65839193D01*
X62771347Y-62980737D02*
X62791534Y-62994500D01*
X68388772Y-8179149D02*
X68403569Y-8198109D01*
X111000274Y-35557987D02*
X110998507Y-35534000D01*
X121999876Y-75998061D02*
X121999924Y-75997573D01*
X11755271Y-11030551D02*
X11743502Y-11033598D01*
X61907175Y-65790007D02*
X61907288Y-65789846D01*
X195Y-75998547D02*
X291Y-75999028D01*
X11019352Y-11804936D02*
X11012649Y-11842337D01*
X28175075Y-8028646D02*
X28197513Y-8037301D01*
X110523722Y-11148273D02*
X110523505Y-11148142D01*
X53500000Y-8490122D02*
X53500593Y-8465956D01*
X110978152Y-11792778D02*
X110978098Y-11792531D01*
X53626936Y-8160938D02*
X53643519Y-8143519D01*
X33824924Y-8028646D02*
X33847761Y-8021102D01*
X1002916Y-51D02*
X1002426Y-75D01*
X62537319Y-62902009D02*
X62561753Y-62904454D01*
X63233349Y-65922607D02*
X63267336Y-65942230D01*
X62487549Y-62900768D02*
X62512106Y-62900768D01*
X110999998Y-12003050D02*
X110999921Y-11996950D01*
X111391797Y-41009417D02*
X111415492Y-41005305D01*
X110566189Y-11175892D02*
X110565979Y-11175750D01*
X110563145Y-64192942D02*
X110639383Y-64046993D01*
X110256497Y-11033598D02*
X110244728Y-11030551D01*
X11279509Y-11306735D02*
X11271133Y-11315547D01*
X63181757Y-65885510D02*
X63185246Y-65888373D01*
X8394406Y-8009418D02*
X8418102Y-8005306D01*
X68241023Y-66057816D02*
X68261946Y-66069671D01*
X61604129Y-65988938D02*
X61608537Y-65987971D01*
X108709813Y-65784096D02*
X108721214Y-65779873D01*
X113903569Y-68801890D02*
X113888772Y-68820850D01*
X8217772Y-8082582D02*
X8238091Y-8069715D01*
X8014687Y-68629059D02*
X8009418Y-68605593D01*
X11892548Y-11005930D02*
X11854855Y-11010731D01*
X121999446Y-1000025D02*
X121999281Y-999563D01*
X8198109Y-8096430D02*
X8217772Y-8082582D01*
X11840506Y-64775088D02*
X11848425Y-64784313D01*
X68452952Y-8280499D02*
X68462698Y-8302486D01*
X62705700Y-62944954D02*
X62727825Y-62955609D01*
X53626949Y-66160284D02*
X53643534Y-66142865D01*
X33502362Y-10558315D02*
X33500593Y-10534330D01*
X8000000Y-41490122D02*
X8000593Y-41465956D01*
X113999406Y-41465956D02*
X114000000Y-41490122D01*
X68499406Y-66465892D02*
X68500000Y-66490055D01*
X88081891Y-10995689D02*
X88058022Y-10998633D01*
X28478900Y-66344609D02*
X28485314Y-66367786D01*
X53537301Y-10698061D02*
X53528645Y-10675623D01*
X73528646Y-8324924D02*
X73537301Y-8302486D01*
X63364365Y-65980940D02*
X63364615Y-65981017D01*
X53505307Y-66417459D02*
X53509419Y-66393761D01*
X110995508Y-62672527D02*
X110997385Y-41490079D01*
X61975498Y-65654290D02*
X61976864Y-65649989D01*
X68034043Y-68999406D02*
X68009877Y-69000000D01*
X48497637Y-68558028D02*
X48494693Y-68581897D01*
X999563Y-76999281D02*
X1000025Y-76999446D01*
X93500000Y-8490122D02*
X93500593Y-8465956D01*
X63327041Y-65968812D02*
X63364365Y-65980940D01*
X906Y-999109D02*
X718Y-999563D01*
X113994693Y-8418102D02*
X113997637Y-8441971D01*
X28497637Y-8441971D02*
X28499406Y-8465956D01*
X88497637Y-66441971D02*
X88499406Y-66465956D01*
X33537301Y-10697800D02*
X33528645Y-10675361D01*
X8347761Y-8021102D02*
X8370940Y-8014687D01*
X61976864Y-65649989D02*
X61976922Y-65649801D01*
X68478897Y-68652238D02*
X68471353Y-68675075D01*
X48462697Y-10697986D02*
X48452951Y-10719973D01*
X68009877Y-8000000D02*
X68034043Y-8000593D01*
X28129059Y-8014687D02*
X28152238Y-8021102D01*
X48442145Y-66257815D02*
X48452957Y-66279296D01*
X53759017Y-8057861D02*
X53780499Y-8047047D01*
X113962698Y-68697513D02*
X113952952Y-68719500D01*
X63267564Y-65942358D02*
X63272851Y-65945228D01*
X48417427Y-66216572D02*
X48430292Y-66236890D01*
X33500000Y-66487543D02*
X33500593Y-66463376D01*
X10839599Y-41126940D02*
X10857018Y-41143524D01*
X123Y-75998061D02*
X195Y-75998547D01*
X93717772Y-66082582D02*
X93738091Y-66069715D01*
X110981271Y-62860120D02*
X110982501Y-62848025D01*
X28490581Y-10605804D02*
X28485312Y-10629270D01*
X113930284Y-68761908D02*
X113917417Y-68782227D01*
X11113472Y-63383373D02*
X11158770Y-63541681D01*
X109775088Y-65159493D02*
X109784313Y-65151574D01*
X8002362Y-68558028D02*
X8000593Y-68534043D01*
X110929424Y-63198558D02*
X110929472Y-63198309D01*
X109906684Y-65041021D02*
X109906869Y-65040848D01*
X111235994Y-35930276D02*
X111215674Y-35917408D01*
X8198109Y-68903569D02*
X8179149Y-68888772D01*
X11205475Y-11392999D02*
X11182985Y-11423626D01*
X93569715Y-68761908D02*
X93557861Y-68740982D01*
X113652238Y-68978897D02*
X113629059Y-68985312D01*
X33500000Y-8490122D02*
X33500593Y-8465956D01*
X111368332Y-41014685D02*
X111391797Y-41009417D01*
X61981622Y-65633927D02*
X61982819Y-65629575D01*
X68320850Y-8111227D02*
X68339061Y-8126936D01*
X120997083Y-51D02*
X120995109Y-3D01*
X108371359Y-65889641D02*
X108383129Y-65886594D01*
X33537301Y-68697513D02*
X33528646Y-68675075D01*
X88197513Y-66037301D02*
X88219500Y-66047047D01*
X28430283Y-10762120D02*
X28417416Y-10782439D01*
X111299882Y-41037297D02*
X111322319Y-41028643D01*
X63272851Y-65945228D02*
X63273317Y-65945466D01*
X28081940Y-66002152D02*
X28105634Y-66006265D01*
X113558028Y-68997637D02*
X113534043Y-68999406D01*
X48152238Y-68978897D02*
X48129059Y-68985312D01*
X93824924Y-8028646D02*
X93847761Y-8021102D01*
X110151407Y-64784503D02*
X110151574Y-64784313D01*
X53717793Y-66081928D02*
X53738114Y-66069062D01*
X110921307Y-11611526D02*
X110921210Y-11611292D01*
X11060199Y-11658688D02*
X11047909Y-11694643D01*
X33941971Y-68997637D02*
X33918102Y-68994693D01*
X93780499Y-68952952D02*
X93759017Y-68942138D01*
X61629571Y-65982814D02*
X61633890Y-65981504D01*
X111109127Y-35820831D02*
X111094331Y-35801870D01*
X61999996Y-63412264D02*
X62000611Y-63387750D01*
X110998251Y-11943287D02*
X110998235Y-11943034D01*
X110576373Y-11182985D02*
X110576167Y-11182838D01*
X8037301Y-68697513D02*
X8028646Y-68675075D01*
X68388772Y-68820850D02*
X68373063Y-68839061D01*
X62388875Y-62913133D02*
X62412945Y-62908267D01*
X33500000Y-10510165D02*
X33500000Y-8490122D01*
X68462698Y-68697513D02*
X68452952Y-68719500D01*
X11004649Y-11905147D02*
X11001644Y-11944615D01*
X28430284Y-8238091D02*
X28442138Y-8259017D01*
X88129054Y-10986308D02*
X88105588Y-10991577D01*
X113971353Y-41324924D02*
X113978897Y-41347761D01*
X68490581Y-8394406D02*
X68494693Y-8418102D01*
X93500593Y-10535116D02*
X93500000Y-10510950D01*
X33717797Y-66079986D02*
X33738118Y-66067120D01*
X73679146Y-10889581D02*
X73660935Y-10873872D01*
X33990116Y-11000287D02*
X33965950Y-10999694D01*
X8096430Y-41198109D02*
X8111227Y-41179149D01*
X33698131Y-66093834D02*
X33717797Y-66079986D01*
X93918102Y-66005306D02*
X93941971Y-66002362D01*
X113839061Y-68873063D02*
X113820850Y-68888772D01*
X11706484Y-11044191D02*
X11694883Y-11047830D01*
X111079983Y-41217749D02*
X111093831Y-41198088D01*
X63128732Y-65834642D02*
X63132873Y-65839005D01*
X11804687Y-11019400D02*
X11792778Y-11021847D01*
X73521102Y-8347761D02*
X73528646Y-8324924D01*
X111067616Y-35761884D02*
X111055763Y-35740956D01*
X410Y-75999504D02*
X553Y-75999974D01*
X68034043Y-8000593D02*
X68058028Y-8002362D01*
X8028646Y-8324924D02*
X8037301Y-8302486D01*
X10889453Y-35820856D02*
X10873744Y-35839066D01*
X53547047Y-8280499D02*
X53557861Y-8259017D01*
X113509877Y-8000000D02*
X113534043Y-8000593D01*
X28485312Y-10629270D02*
X28478897Y-10652449D01*
X61958459Y-65698967D02*
X61958531Y-65698785D01*
X62365078Y-62919193D02*
X62388875Y-62913133D01*
X61954659Y-65707798D02*
X61954741Y-65707620D01*
X88442138Y-8259017D02*
X88452952Y-8280499D01*
X113697513Y-41037301D02*
X113719500Y-41047047D01*
X113997637Y-41441971D02*
X113999406Y-41465956D01*
X10857018Y-41143524D02*
X10873601Y-41160943D01*
X93569714Y-10762980D02*
X93557860Y-10742054D01*
X111124337Y-41160921D02*
X111140921Y-41143504D01*
X28373063Y-68839061D02*
X28356480Y-68856480D01*
X120995109Y-3D02*
X120994863Y0D01*
X93824924Y-66028646D02*
X93847761Y-66021102D01*
X10821388Y-41111230D02*
X10839599Y-41126940D01*
X88219496Y-10953948D02*
X88197509Y-10963695D01*
X997404Y-1872D02*
X997009Y-2164D01*
X68494693Y-10582631D02*
X68490581Y-10606327D01*
X88261908Y-66069715D02*
X88282227Y-66082582D01*
X61921789Y-65768068D02*
X61943048Y-65731246D01*
X73660938Y-8126936D02*
X73679149Y-8111227D01*
X1000495Y-76999589D02*
X1000971Y-76999708D01*
X68197509Y-10963433D02*
X68175070Y-10972088D01*
X111463871Y-35999406D02*
X111439885Y-35997637D01*
X1004890Y-3D02*
X1002916Y-51D01*
X107670939Y-65995668D02*
X107671193Y-65995658D01*
X61755267Y-65929587D02*
X61755489Y-65929447D01*
X8005306Y-41418102D02*
X8009418Y-41394406D01*
X68175075Y-8028646D02*
X68197513Y-8037301D01*
X113990581Y-68605593D02*
X113985312Y-68629059D01*
X62658719Y-62926516D02*
X62659370Y-62926734D01*
X53918102Y-68994693D02*
X53894406Y-68990581D01*
X113990581Y-35605593D02*
X113985312Y-35629059D01*
X68403585Y-66198064D02*
X68417431Y-66217726D01*
X12495661Y-65369070D02*
X12505640Y-65376015D01*
X2805Y-996266D02*
X2476Y-996630D01*
X111141420Y-35856464D02*
X111124836Y-35839044D01*
X62830689Y-63025802D02*
X62848690Y-63042505D01*
X53918102Y-8005306D02*
X53941971Y-8002362D01*
X108885769Y-65713810D02*
X108886001Y-65713707D01*
X28282227Y-68917417D02*
X28261908Y-68930284D01*
X93847761Y-8021102D02*
X93870940Y-8014687D01*
X28261908Y-68930284D02*
X28240982Y-68942138D01*
X48452951Y-10719973D02*
X48442137Y-10741456D01*
X109915681Y-65032472D02*
X109915863Y-65032295D01*
X11033665Y-11743257D02*
X11033598Y-11743502D01*
X73990116Y-11000811D02*
X73965950Y-11000217D01*
X73505306Y-8418102D02*
X73509418Y-8394406D01*
X33941971Y-8002362D02*
X33965956Y-8000593D01*
X28301890Y-8096430D02*
X28320850Y-8111227D01*
X121999589Y-1000495D02*
X121999446Y-1000025D01*
X33505307Y-66415519D02*
X33509419Y-66391821D01*
X33966003Y-65998012D02*
X33990170Y-65997421D01*
X93894406Y-66009418D02*
X93918102Y-66005306D01*
X88301887Y-10904566D02*
X88282224Y-10918414D01*
X8005306Y-68581897D02*
X8002362Y-68558028D01*
X73500593Y-8465956D02*
X73502362Y-8441971D01*
X61599107Y-65989841D02*
X61599300Y-65989808D01*
X73941965Y-10998448D02*
X73918096Y-10995504D01*
X53847761Y-68978897D02*
X53824924Y-68971353D01*
X73870940Y-8014687D02*
X73894406Y-8009418D01*
X73738091Y-68930284D02*
X73717772Y-68917417D01*
X61916554Y-65776364D02*
X61916664Y-65776201D01*
X11967527Y-64915681D02*
X11967704Y-64915863D01*
X93502362Y-10559100D02*
X93500593Y-10535116D01*
X53870940Y-68985312D02*
X53847761Y-68978897D01*
X113558028Y-35997637D02*
X113534043Y-35999406D01*
X63376992Y-65984323D02*
X63415380Y-65992483D01*
X93894406Y-8009418D02*
X93918102Y-8005306D01*
X48009877Y-69000000D02*
X33990122Y-69000000D01*
X68499406Y-68534043D02*
X68497637Y-68558028D01*
X28430292Y-66234944D02*
X28442145Y-66255869D01*
X63222599Y-65915638D02*
X63227556Y-65919045D01*
X8347761Y-41021102D02*
X8370940Y-41014687D01*
X110157662Y-11012649D02*
X110157412Y-11012607D01*
X88058028Y-66002362D02*
X88081897Y-66005306D01*
X33502362Y-68558028D02*
X33500593Y-68534043D01*
X110720313Y-11306554D02*
X110693445Y-11279686D01*
X11215818Y-63709574D02*
X11215903Y-63709813D01*
X109504544Y-65368922D02*
X109637265Y-65271464D01*
X110998876Y-11955682D02*
X110998867Y-11955429D01*
X88499406Y-68534043D02*
X88497637Y-68558028D01*
X68430283Y-10762643D02*
X68417416Y-10782962D01*
X88175075Y-68971353D02*
X88152238Y-68978897D01*
X68152233Y-10979632D02*
X68129054Y-10986046D01*
X11041478Y-63036232D02*
X11070527Y-63198309D01*
X109774894Y-65159656D02*
X109775088Y-65159493D01*
X68490581Y-10606327D02*
X68485312Y-10629793D01*
X28320850Y-68888772D02*
X28301890Y-68903569D01*
X120999504Y-76999589D02*
X120999974Y-76999446D01*
X110987392Y-11842587D02*
X110987350Y-11842337D01*
X33643519Y-8143519D02*
X33660938Y-8126936D01*
X121999996Y-75995109D02*
X122000000Y-75994863D01*
X110050835Y-11001382D02*
X110050455Y-11001368D01*
X73643519Y-68856480D02*
X73626936Y-68839061D01*
X28219531Y-66043901D02*
X28241011Y-66054715D01*
X11599888Y-11083686D02*
X11565361Y-11099550D01*
X113740982Y-35942138D02*
X113719500Y-35952952D01*
X28403569Y-68801890D02*
X28388772Y-68820850D01*
X11623842Y-64494149D02*
X11623984Y-64494359D01*
X718Y-999563D02*
X553Y-1000025D01*
X53847756Y-10979446D02*
X53824920Y-10971901D01*
X73643519Y-66143519D02*
X73660938Y-66126936D01*
X13114230Y-65713810D02*
X13125402Y-65718605D01*
X110841229Y-63541681D02*
X110886527Y-63383373D01*
X113652238Y-41021102D02*
X113675075Y-41028646D01*
X28490581Y-68605593D02*
X28485312Y-68629059D01*
X61674701Y-65968244D02*
X61678965Y-65966765D01*
X11967704Y-64915863D02*
X12084136Y-65032295D01*
X28430284Y-68761908D02*
X28417417Y-68782227D01*
X53698129Y-66095776D02*
X53717793Y-66081928D01*
X8069715Y-8238091D02*
X8082582Y-8217772D01*
X113978897Y-41347761D02*
X113985312Y-41370940D01*
X48034043Y-68999406D02*
X48009877Y-69000000D01*
X28373063Y-8160938D02*
X28388772Y-8179149D01*
X53500000Y-10510426D02*
X53500000Y-8490122D01*
X62750393Y-62967932D02*
X62771347Y-62980737D01*
X113930284Y-8238091D02*
X113942138Y-8259017D01*
X93500593Y-66465956D02*
X93502362Y-66441971D01*
X53990164Y-65999360D02*
X61493443Y-65999999D01*
X61608537Y-65987971D02*
X61608729Y-65987927D01*
X110982501Y-62848025D02*
X110982523Y-62847773D01*
X1001452Y-76999804D02*
X1001938Y-76999876D01*
X33528649Y-66322336D02*
X33537306Y-66299896D01*
X33514687Y-8370940D02*
X33521102Y-8347761D01*
X11436974Y-64193165D02*
X11442874Y-64203795D01*
X62317236Y-62935267D02*
X62317876Y-62935016D01*
X110754679Y-11344117D02*
X110754511Y-11343927D01*
X111215171Y-41082573D02*
X111235489Y-41069707D01*
X88499406Y-8465956D02*
X88500000Y-8490122D01*
X121999948Y-1002916D02*
X121999924Y-1002426D01*
X68175075Y-68971353D02*
X68152238Y-68978897D01*
X8370940Y-35985312D02*
X8347761Y-35978897D01*
X28339061Y-8126936D02*
X28356480Y-8143519D01*
X93870935Y-10986384D02*
X93847756Y-10979969D01*
X11646812Y-11064597D02*
X11611526Y-11078692D01*
X28175075Y-68971353D02*
X28152238Y-68978897D01*
X48430283Y-10762382D02*
X48417416Y-10782701D01*
X33660938Y-68873063D02*
X33643519Y-68856480D01*
X110871133Y-11509239D02*
X110851857Y-11476494D01*
X62188374Y-63009784D02*
X62188911Y-63009356D01*
X73717772Y-66082582D02*
X73738091Y-66069715D01*
X48490581Y-10606065D02*
X48485312Y-10629531D01*
X10652774Y-41021102D02*
X10675611Y-41028647D01*
X120997573Y-75D02*
X120997083Y-51D01*
X110886594Y-63383129D02*
X110889641Y-63371359D01*
X63165645Y-65871633D02*
X63169019Y-65874631D01*
X11382984Y-11213227D02*
X11353536Y-11237239D01*
X13113998Y-65713707D02*
X13114230Y-65713810D01*
X93824920Y-10972425D02*
X93802481Y-10963769D01*
X73660938Y-66126936D02*
X73679149Y-66111227D01*
X62087200Y-63118973D02*
X62087587Y-63118406D01*
X53514687Y-68629059D02*
X53509418Y-68605593D01*
X88430283Y-10762905D02*
X88417416Y-10783224D01*
X11526531Y-64345915D02*
X11526663Y-64346132D01*
X53965956Y-68999406D02*
X53941971Y-68997637D01*
X68373084Y-66160894D02*
X68388791Y-66179104D01*
X110041021Y-64906684D02*
X110151407Y-64784503D01*
X61871627Y-65834352D02*
X61874536Y-65830901D01*
X68129114Y-66014634D02*
X68152290Y-66021051D01*
X10942676Y-41259024D02*
X10953489Y-41280507D01*
X12093315Y-65041021D02*
X12215496Y-65151407D01*
X8096430Y-8198109D02*
X8111227Y-8179149D01*
X110871259Y-11509459D02*
X110871133Y-11509239D01*
X111108628Y-41179130D02*
X111124337Y-41160921D01*
X113675075Y-35971353D02*
X113652238Y-35978897D01*
X63098459Y-65797553D02*
X63098581Y-65797707D01*
X28009877Y-69000000D02*
X8490122Y-69000000D01*
X61789939Y-65907073D02*
X61793675Y-65904541D01*
X88497637Y-10559023D02*
X88494693Y-10582893D01*
X120997573Y-76999924D02*
X120998061Y-76999876D01*
X14322541Y-65995408D02*
X14322921Y-65995423D01*
X113985312Y-8370940D02*
X113990581Y-8394406D01*
X88301890Y-68903569D02*
X88282227Y-68917417D01*
X48282224Y-10917891D02*
X48261905Y-10930757D01*
X88499406Y-10535038D02*
X88497637Y-10559023D01*
X88442137Y-10741979D02*
X88430283Y-10762905D01*
X53643534Y-66142865D02*
X53660954Y-66126282D01*
X8000593Y-8465956D02*
X8002362Y-8441971D01*
X73626936Y-8160938D02*
X73643519Y-8143519D01*
X73611227Y-8179149D02*
X73626936Y-8160938D01*
X113509877Y-69000000D02*
X93990122Y-69000000D01*
X110534252Y-11154841D02*
X110534039Y-11154704D01*
X88490581Y-66394406D02*
X88494693Y-66418102D01*
X121999924Y-1002426D02*
X121999876Y-1001938D01*
X8014687Y-8370940D02*
X8021102Y-8347761D01*
X120998061Y-76999876D02*
X120998547Y-76999804D01*
X10998321Y-35558039D02*
X10995377Y-35581908D01*
X33870935Y-10985598D02*
X33847756Y-10979184D01*
X8002362Y-8441971D02*
X8005306Y-8418102D01*
X73802486Y-66037301D02*
X73824924Y-66028646D01*
X12796204Y-65557125D02*
X12806834Y-65563025D01*
X109504338Y-65369070D02*
X109504544Y-65368922D01*
X73870940Y-66014687D02*
X73894406Y-66009418D01*
X88240982Y-66057861D02*
X88261908Y-66069715D01*
X11509459Y-11128740D02*
X11509239Y-11128866D01*
X63083445Y-65776364D02*
X63092711Y-65789846D01*
X93965950Y-11000479D02*
X93941965Y-10998710D01*
X63002940Y-65552506D02*
X63003725Y-65558469D01*
X8324924Y-41028646D02*
X8347761Y-41021102D01*
X109637265Y-65271464D02*
X109637467Y-65271311D01*
X28261908Y-8069715D02*
X28282227Y-8082582D01*
X11060284Y-11658449D02*
X11060199Y-11658688D01*
X14151974Y-65982501D02*
X14152226Y-65982523D01*
X110479910Y-11122840D02*
X110479687Y-11122720D01*
X63078310Y-65768237D02*
X63080643Y-65772100D01*
X61943048Y-65731246D02*
X61943145Y-65731075D01*
X8047047Y-8280499D02*
X8057861Y-8259017D01*
X110980647Y-11804936D02*
X110980599Y-11804687D01*
X11611526Y-11078692D02*
X11611292Y-11078789D01*
X53537301Y-68697513D02*
X53528646Y-68675075D01*
X107496833Y-66000000D02*
X107496959Y-65999999D01*
X68356503Y-66143476D02*
X68373084Y-66160894D01*
X88282227Y-68917417D02*
X88261908Y-68930284D01*
X11044118Y-11706726D02*
X11033665Y-11743257D01*
X68403567Y-10802626D02*
X68388771Y-10821586D01*
X8490122Y-36000000D02*
X8465956Y-35999406D01*
X62462338Y-62902043D02*
X62463023Y-62901992D01*
X11271133Y-11315547D02*
X11270960Y-11315733D01*
X53569722Y-66237439D02*
X53582591Y-66217119D01*
X8057861Y-8259017D02*
X8069715Y-8238091D01*
X62151561Y-63042271D02*
X62169562Y-63025568D01*
X48261905Y-10930757D02*
X48240979Y-10942612D01*
X110473468Y-64345915D02*
X110556999Y-64204015D01*
X8057861Y-41259017D02*
X8069715Y-41238091D01*
X114000000Y-35509877D02*
X113999406Y-35534043D01*
X121000890Y-76999093D02*
X121001333Y-76998883D01*
X110997981Y-41465914D02*
X110999752Y-41441931D01*
X8126936Y-41160938D02*
X8143519Y-41143519D01*
X111055261Y-41258990D02*
X111067116Y-41238066D01*
X10782909Y-35917420D02*
X10762590Y-35930286D01*
X62659370Y-62926734D02*
X62682446Y-62935133D01*
X48282252Y-66081383D02*
X48301913Y-66095232D01*
X68009877Y-69000000D02*
X53990122Y-69000000D01*
X110995147Y-62682003D02*
X110995160Y-62681814D01*
X28105588Y-10990792D02*
X28081891Y-10994903D01*
X73965956Y-68999406D02*
X73941971Y-68997637D01*
X110837438Y-63553764D02*
X110837517Y-63553523D01*
X110145144Y-11010731D02*
X110107451Y-11005930D01*
X121997194Y-996266D02*
X121995832Y-994836D01*
X93582582Y-68782227D02*
X93569715Y-68761908D01*
X88490581Y-68605593D02*
X88485312Y-68629059D01*
X110094852Y-11004649D02*
X110055385Y-11001644D01*
X48197513Y-68962698D02*
X48175075Y-68971353D01*
X113820850Y-35888772D02*
X113801890Y-35903569D01*
X109784503Y-65151407D02*
X109906684Y-65041021D01*
X62294608Y-62944805D02*
X62317236Y-62935267D01*
X111044950Y-35719472D02*
X111035205Y-35697483D01*
X68497637Y-66441909D02*
X68499406Y-66465892D01*
X61956759Y-65703148D02*
X61958459Y-65698967D01*
X11315733Y-11270960D02*
X11315547Y-11271133D01*
X11315547Y-11271133D02*
X11306735Y-11279509D01*
X88261908Y-68930284D02*
X88240982Y-68942138D01*
X63415380Y-65992483D02*
X63415637Y-65992534D01*
X110534039Y-11154704D02*
X110523722Y-11148273D01*
X88471353Y-10676071D02*
X88462697Y-10698510D01*
X61744399Y-65935862D02*
X61749685Y-65932991D01*
X12362734Y-65271464D02*
X12495455Y-65368922D01*
X63033279Y-65678876D02*
X63033467Y-65679365D01*
X113942138Y-68740982D02*
X113930284Y-68761908D01*
X62413622Y-62908148D02*
X62437904Y-62904488D01*
X93502362Y-8441971D02*
X93505306Y-8418102D01*
X33514689Y-66368354D02*
X33521104Y-66345173D01*
X13278549Y-65779782D02*
X13278785Y-65779873D01*
X53521102Y-8347761D02*
X53528646Y-8324924D01*
X62865836Y-63060084D02*
X62866463Y-63060760D01*
X63222385Y-65915487D02*
X63222599Y-65915638D01*
X63320634Y-65966532D02*
X63321123Y-65966720D01*
X48471353Y-8324924D02*
X48478897Y-8347761D01*
X11018728Y-62860120D02*
X11018757Y-62860372D01*
X11012607Y-11842587D02*
X11010766Y-11854604D01*
X61901540Y-65797553D02*
X61904311Y-65793990D01*
X8096430Y-68801890D02*
X8082582Y-68782227D01*
X48081940Y-66004097D02*
X48105634Y-66008211D01*
X28197513Y-8037301D02*
X28219500Y-8047047D01*
X48417417Y-68782227D02*
X48403569Y-68801890D01*
X111176549Y-41111215D02*
X111195509Y-41096420D01*
X88478897Y-66347761D02*
X88485312Y-66370940D01*
X120999504Y-410D02*
X120999028Y-291D01*
X53626936Y-68839061D02*
X53611227Y-68820850D01*
X11182838Y-11423832D02*
X11175892Y-11433810D01*
X48494694Y-66416891D02*
X48497637Y-66440759D01*
X113930284Y-35761908D02*
X113917417Y-35782227D01*
X110157412Y-11012607D02*
X110145395Y-11010766D01*
X8238091Y-68930284D02*
X8217772Y-68917417D01*
X999109Y-906D02*
X998666Y-1116D01*
X12003041Y-11000000D02*
X11996959Y-11000077D01*
X48175075Y-68971353D02*
X48152238Y-68978897D01*
X53847793Y-66020453D02*
X53870974Y-66014039D01*
X110368922Y-64504544D02*
X110369070Y-64504338D01*
X11706726Y-11044118D02*
X11706484Y-11044191D01*
X28388772Y-68820850D02*
X28373063Y-68839061D01*
X11018757Y-62860372D02*
X11039560Y-63023713D01*
X11343927Y-11245488D02*
X11315733Y-11270960D01*
X110754511Y-11343927D02*
X110729039Y-11315733D01*
X33679149Y-8111227D02*
X33698109Y-8096430D01*
X48105588Y-10991054D02*
X48081891Y-10995165D01*
X8217772Y-41082582D02*
X8238091Y-41069715D01*
X33802486Y-8037301D02*
X33824924Y-8028646D01*
X48058022Y-10998109D02*
X48034036Y-10999878D01*
X11533094Y-64356449D02*
X11533230Y-64356662D01*
X88152233Y-10979894D02*
X88129054Y-10986308D01*
X8126936Y-68839061D02*
X8111227Y-68820850D01*
X61810765Y-65891561D02*
X61810920Y-65891439D01*
X88417417Y-66217772D02*
X88430284Y-66238091D01*
X61678965Y-65966765D02*
X61679333Y-65966629D01*
X28499406Y-66462797D02*
X28500000Y-66486962D01*
X12225105Y-65159656D02*
X12352719Y-65263712D01*
X2476Y-996630D02*
X2164Y-997009D01*
X73611227Y-66179149D02*
X73626936Y-66160938D01*
X13458076Y-65841157D02*
X13458318Y-65841229D01*
X61629193Y-65982921D02*
X61629571Y-65982814D01*
X4167Y-76005163D02*
X4338Y-76005338D01*
X28034043Y-68999406D02*
X28009877Y-69000000D01*
X11804936Y-11019352D02*
X11804687Y-11019400D01*
X11078789Y-11611292D02*
X11078692Y-11611526D01*
X121995832Y-994836D02*
X121995661Y-994661D01*
X33870940Y-8014687D02*
X33894406Y-8009418D01*
X88452952Y-8280499D02*
X88462698Y-8302486D01*
X53502362Y-8441971D02*
X53505306Y-8418102D01*
X111322319Y-41028643D02*
X111345155Y-41021099D01*
X33557861Y-68740982D02*
X33547047Y-68719500D01*
X111007326Y-35605556D02*
X111003216Y-35581858D01*
X11286292Y-63886001D02*
X11355039Y-64035623D01*
X8370940Y-41014687D02*
X8394406Y-41009418D01*
X53611227Y-68820850D02*
X53596430Y-68801890D01*
X110151574Y-64784313D02*
X110159493Y-64775088D01*
X110639497Y-64046767D02*
X110644851Y-64035852D01*
X61849905Y-65856837D02*
X61850049Y-65856704D01*
X33500593Y-10534330D02*
X33500000Y-10510165D01*
X48105634Y-66008211D02*
X48129098Y-66013482D01*
X73611227Y-68820850D02*
X73596430Y-68801890D01*
X93965956Y-68999406D02*
X93941971Y-68997637D01*
X53780499Y-68952952D02*
X53759017Y-68942138D01*
X108035982Y-65958563D02*
X108036232Y-65958521D01*
X8280499Y-41047047D02*
X8302486Y-41037301D01*
X88081897Y-8005306D02*
X88105593Y-8009418D01*
X63428032Y-65994497D02*
X63428292Y-65994528D01*
X110966334Y-11743257D02*
X110955881Y-11706726D01*
X68339088Y-66126893D02*
X68356503Y-66143476D01*
X113801890Y-68903569D02*
X113782227Y-68917417D01*
X53509418Y-68605593D02*
X53505306Y-68581897D01*
X13964017Y-65958563D02*
X13976035Y-65960404D01*
X48129098Y-66013482D02*
X48152275Y-66019898D01*
X110473336Y-64346132D02*
X110473468Y-64345915D01*
X110646657Y-11237401D02*
X110646463Y-11237239D01*
X12806834Y-65563025D02*
X12807057Y-65563145D01*
X8280499Y-35952952D02*
X8259017Y-35942138D01*
X53500000Y-66489483D02*
X53500593Y-66465316D01*
X48403580Y-66196909D02*
X48417427Y-66216572D01*
X113856480Y-8143519D02*
X113873063Y-8160938D01*
X33738091Y-68930284D02*
X33717772Y-68917417D01*
X10904250Y-35801896D02*
X10889453Y-35820856D01*
X108553764Y-65837438D02*
X108709574Y-65784181D01*
X33505306Y-8418102D02*
X33509418Y-8394406D01*
X11019400Y-11804687D02*
X11019352Y-11804936D01*
X10971890Y-41324934D02*
X10979434Y-41347771D01*
X10606277Y-35990582D02*
X10582581Y-35994693D01*
X11175750Y-11434020D02*
X11154841Y-11465747D01*
X11353342Y-11237401D02*
X11344117Y-11245320D01*
X61633890Y-65981504D02*
X61634078Y-65981445D01*
X68499406Y-10534776D02*
X68497637Y-10558761D01*
X53505306Y-68581897D02*
X53502362Y-68558028D01*
X1000025Y-553D02*
X999563Y-718D01*
X73528646Y-66324924D02*
X73537301Y-66302486D01*
X61975371Y-65654662D02*
X61975498Y-65654290D01*
X28478897Y-8347761D02*
X28485312Y-8370940D01*
X73698109Y-68903569D02*
X73679149Y-68888772D01*
X53528645Y-10675623D02*
X53521101Y-10652787D01*
X33557860Y-10741269D02*
X33547047Y-10719786D01*
X110050455Y-11001368D02*
X110046089Y-11001285D01*
X61999154Y-65525898D02*
X61999313Y-65519903D01*
X53660935Y-10873611D02*
X53643517Y-10857027D01*
X113629059Y-8014687D02*
X113652238Y-8021102D01*
X48301913Y-66095232D02*
X48320871Y-66110029D01*
X48462698Y-8302486D02*
X48471353Y-8324924D01*
X62022908Y-63252477D02*
X62030729Y-63229199D01*
X8000000Y-35509877D02*
X8000000Y-8490122D01*
X109192942Y-65563145D02*
X109193165Y-65563025D01*
X73547047Y-10720310D02*
X73537301Y-10698323D01*
X11213227Y-11382984D02*
X11213069Y-11383183D01*
X48241011Y-66056661D02*
X48261935Y-66068516D01*
X53942010Y-66001719D02*
X53965997Y-65999951D01*
X11078692Y-11611526D02*
X11064597Y-11646812D01*
X110995160Y-62681814D02*
X110995408Y-62677458D01*
X10972035Y-35675084D02*
X10963379Y-35697522D01*
X33759017Y-8057861D02*
X33780499Y-8047047D01*
X11099659Y-11565132D02*
X11099550Y-11565361D01*
X73918096Y-10995504D02*
X73894400Y-10991392D01*
X33802481Y-10962984D02*
X33780495Y-10953237D01*
X61624826Y-65984060D02*
X61629193Y-65982921D01*
X121999996Y-1004890D02*
X121999948Y-1002916D01*
X12495455Y-65368922D02*
X12495661Y-65369070D01*
X33717772Y-68917417D02*
X33698109Y-68903569D01*
X53894406Y-8009418D02*
X53918102Y-8005306D01*
X68320879Y-66111184D02*
X68339088Y-66126893D01*
X53582582Y-68782227D02*
X53569715Y-68761908D01*
X73626936Y-68839061D02*
X73611227Y-68820850D01*
X10802572Y-35903572D02*
X10782909Y-35917420D01*
X53596430Y-8198109D02*
X53611227Y-8179149D01*
X93679149Y-68888772D02*
X93660938Y-68873063D01*
X63169019Y-65874631D02*
X63169167Y-65874760D01*
X33528646Y-68675075D02*
X33521102Y-68652238D01*
X68442148Y-66258968D02*
X68452960Y-66280449D01*
X63057769Y-65732663D02*
X63078210Y-65768068D01*
X110817161Y-11423832D02*
X110817014Y-11423626D01*
X996266Y-2805D02*
X994836Y-4167D01*
X113782227Y-68917417D02*
X113761908Y-68930284D01*
X88388772Y-66179149D02*
X88403569Y-66198109D01*
X8057861Y-68740982D02*
X8047047Y-68719500D01*
X48490581Y-8394406D02*
X48494693Y-8418102D01*
X93660938Y-66126936D02*
X93679149Y-66111227D01*
X48282227Y-8082582D02*
X48301890Y-8096430D01*
X8324924Y-68971353D02*
X8302486Y-68962698D01*
X10873601Y-41160943D02*
X10889310Y-41179154D01*
X93660938Y-8126936D02*
X93679149Y-8111227D01*
X28356477Y-10856692D02*
X28339059Y-10873275D01*
X11245320Y-11344117D02*
X11237401Y-11353342D01*
X113761908Y-68930284D02*
X113740982Y-68942138D01*
X994836Y-76995832D02*
X996266Y-76997194D01*
X113978897Y-8347761D02*
X113985312Y-8370940D01*
X68500000Y-8490122D02*
X68500000Y-10510610D01*
X28105593Y-68990581D02*
X28081897Y-68994693D01*
X68261908Y-8069715D02*
X68282227Y-8082582D01*
X73582582Y-66217772D02*
X73596430Y-66198109D01*
X553Y-1000025D02*
X410Y-1000495D01*
X48081897Y-68994693D02*
X48058028Y-68997637D01*
X53582591Y-66217119D02*
X53596440Y-66197456D01*
X113558028Y-41002362D02*
X113581897Y-41005306D01*
X53596429Y-10802438D02*
X53582581Y-10782775D01*
X48500000Y-10510348D02*
X48500000Y-10510348D01*
X113952952Y-68719500D02*
X113942138Y-68740982D01*
X121005338Y-4338D02*
X121005163Y-4167D01*
X73596429Y-10802700D02*
X73582581Y-10783037D01*
X110446008Y-11105128D02*
X110445782Y-11105013D01*
X121998883Y-76001333D02*
X121999093Y-76000890D01*
X113856480Y-68856480D02*
X113839061Y-68873063D01*
X73500000Y-10510688D02*
X73500000Y-8490122D01*
X114000000Y-41490122D02*
X114000000Y-68509877D01*
X110994069Y-11892548D02*
X110989268Y-11854855D01*
X48034089Y-65999380D02*
X48058072Y-66001151D01*
X110980599Y-11804687D02*
X110978152Y-11792778D01*
X62993714Y-63324999D02*
X62993894Y-63326190D01*
X61993630Y-65578448D02*
X61993712Y-65577931D01*
X88485312Y-66370940D02*
X88490581Y-66394406D01*
X121999948Y-75997083D02*
X121999996Y-75995109D01*
X121005163Y-76995832D02*
X121005338Y-76995661D01*
X28219500Y-68952952D02*
X28197513Y-68962698D01*
X88219500Y-66047047D02*
X88240982Y-66057861D01*
X113820850Y-8111227D02*
X113839061Y-8126936D01*
X73500000Y-8490122D02*
X73500593Y-8465956D01*
X121002990Y-2164D02*
X121002595Y-1872D01*
X28494693Y-68581897D02*
X28490581Y-68605593D01*
X12093130Y-65040848D02*
X12093315Y-65041021D01*
X110978098Y-11792531D02*
X110969508Y-11755517D01*
X53569714Y-10762456D02*
X53557860Y-10741530D01*
X88485312Y-68629059D02*
X88478897Y-68652238D01*
X109204015Y-65556999D02*
X109345915Y-65473468D01*
X113534043Y-8000593D02*
X113558028Y-8002362D01*
X110995350Y-11905147D02*
X110995327Y-11904895D01*
X110045899Y-11001283D02*
X93990116Y-11001073D01*
X33528645Y-10675361D02*
X33521101Y-10652525D01*
X61868326Y-65837982D02*
X61871368Y-65834647D01*
X73717772Y-68917417D02*
X73698109Y-68903569D01*
X53802515Y-66036650D02*
X53824955Y-66027996D01*
X33521104Y-66345173D02*
X33528649Y-66322336D01*
X73847761Y-8021102D02*
X73870940Y-8014687D01*
X11383183Y-11213069D02*
X11382984Y-11213227D01*
X8465956Y-35999406D02*
X8441971Y-35997637D01*
X61674515Y-65968306D02*
X61674701Y-65968244D01*
X62208485Y-62994528D02*
X62228775Y-62980695D01*
X8198109Y-41096430D02*
X8217772Y-41082582D01*
X28403567Y-10802102D02*
X28388771Y-10821062D01*
X93759017Y-68942138D02*
X93738091Y-68930284D01*
X48152238Y-8021102D02*
X48175075Y-8028646D01*
X73537301Y-10698323D02*
X73528645Y-10675885D01*
X8069715Y-68761908D02*
X8057861Y-68740982D01*
X28500000Y-66486962D02*
X28500000Y-68509877D01*
X10930965Y-35761915D02*
X10918098Y-35782234D01*
X63169167Y-65874760D02*
X63181607Y-65885384D01*
X63057641Y-65732435D02*
X63057769Y-65732663D01*
X53528646Y-68675075D02*
X53521102Y-68652238D01*
X10985995Y-35629069D02*
X10979580Y-35652248D01*
X61999313Y-65519903D02*
X61999316Y-65519642D01*
X33918096Y-10994980D02*
X33894400Y-10990868D01*
X111487508Y-41000000D02*
X113509877Y-41000000D01*
X68105588Y-10991316D02*
X68081891Y-10995427D01*
X88356480Y-66143519D02*
X88373063Y-66160938D01*
X62977362Y-63253358D02*
X62984013Y-63276996D01*
X8465956Y-41000593D02*
X8490122Y-41000000D01*
X28417427Y-66214626D02*
X28430292Y-66234944D01*
X63474102Y-65999154D02*
X63480107Y-65999312D01*
X2805Y-76003733D02*
X4167Y-76005163D01*
X73894406Y-66009418D02*
X73918102Y-66005306D01*
X62073877Y-63139602D02*
X62087200Y-63118973D01*
X11959151Y-64906869D02*
X11967527Y-64915681D01*
X10558712Y-35997637D02*
X10534727Y-35999406D01*
X73537301Y-8302486D02*
X73547047Y-8280499D01*
X62586717Y-62908199D02*
X62610787Y-62913065D01*
X53557860Y-10741530D02*
X53547047Y-10720048D01*
X110352951Y-11064506D02*
X110341550Y-11060284D01*
X12352719Y-65263712D02*
X12352918Y-65263869D01*
X68356480Y-8143519D02*
X68373063Y-8160938D01*
X73894400Y-10991392D02*
X73870935Y-10986122D01*
X110490760Y-11128866D02*
X110490540Y-11128740D01*
X93596430Y-68801890D02*
X93582582Y-68782227D01*
X10652921Y-35978898D02*
X10629742Y-35985312D01*
X62749391Y-62967353D02*
X62750393Y-62967932D01*
X48034043Y-8000593D02*
X48058028Y-8002362D01*
X68058028Y-68997637D02*
X68034043Y-68999406D01*
X11039560Y-63023713D02*
X11039595Y-63023964D01*
X14322921Y-65995423D02*
X14327282Y-65995506D01*
X11000000Y-62496829D02*
X11000000Y-62496956D01*
X12953232Y-65639497D02*
X12964147Y-65644851D01*
X11148142Y-11476494D02*
X11128866Y-11509239D01*
X68442137Y-10741717D02*
X68430283Y-10762643D01*
X113675075Y-68971353D02*
X113652238Y-68978897D01*
X121001766Y-1347D02*
X121001333Y-1116D01*
X110900340Y-11565132D02*
X110894986Y-11554217D01*
X2476Y-76003369D02*
X2805Y-76003733D01*
X73990122Y-66000000D02*
X88009877Y-66000000D01*
X61818160Y-65885417D02*
X61818307Y-65885287D01*
X68320848Y-10889508D02*
X68301887Y-10904304D01*
X12003168Y-11000000D02*
X12003041Y-11000000D01*
X8000593Y-68534043D02*
X8000000Y-68509877D01*
X1000971Y-291D02*
X1000495Y-410D01*
X53660938Y-8126936D02*
X53679149Y-8111227D01*
X62228775Y-62980695D02*
X62229352Y-62980322D01*
X61874661Y-65830750D02*
X61901418Y-65797707D01*
X8347761Y-35978897D02*
X8324924Y-35971353D01*
X111158339Y-41126922D02*
X111176549Y-41111215D01*
X110293273Y-11044118D02*
X110256742Y-11033665D01*
X48105593Y-8009418D02*
X48129059Y-8014687D01*
X73509418Y-66394406D02*
X73514687Y-66370940D01*
X110040848Y-64906869D02*
X110041021Y-64906684D01*
X73500593Y-10534854D02*
X73500000Y-10510688D01*
X11443000Y-64204015D02*
X11526531Y-64345915D01*
X113999406Y-35534043D02*
X113997637Y-35558028D01*
X33521102Y-68652238D02*
X33514687Y-68629059D01*
X28497637Y-10558238D02*
X28494693Y-10582107D01*
X8111227Y-35820850D02*
X8096430Y-35801890D01*
X120999028Y-76999708D02*
X120999504Y-76999589D01*
X63098581Y-65797707D02*
X63124308Y-65829478D01*
X111003216Y-35581858D02*
X111000274Y-35557987D01*
X13789532Y-65926977D02*
X13801441Y-65929424D01*
X8143519Y-68856480D02*
X8126936Y-68839061D01*
X63467330Y-65998631D02*
X63467591Y-65998655D01*
X113997637Y-35558028D02*
X113994693Y-35581897D01*
X48497637Y-8441971D02*
X48499406Y-8465956D01*
X8259017Y-35942138D02*
X8238091Y-35930284D01*
X33547053Y-66277908D02*
X33557868Y-66256424D01*
X8238091Y-35930284D02*
X8217772Y-35917417D01*
X88478897Y-8347761D02*
X88485312Y-8370940D01*
X28485312Y-68629059D02*
X28478897Y-68652238D01*
X68058022Y-10998371D02*
X68034036Y-11000140D01*
X12807057Y-65563145D02*
X12953006Y-65639383D01*
X10995377Y-35581908D02*
X10991264Y-35605604D01*
X33759013Y-10942424D02*
X33738087Y-10930570D01*
X13976035Y-65960404D02*
X13976286Y-65960439D01*
X108886001Y-65713707D02*
X109035623Y-65644960D01*
X61904311Y-65793990D02*
X61904546Y-65793676D01*
X53759017Y-68942138D02*
X53738091Y-68930284D01*
X33965950Y-10999694D02*
X33941965Y-10997924D01*
X111019007Y-35652204D02*
X111012594Y-35629024D01*
X88452952Y-66280499D02*
X88462698Y-66302486D01*
X61921689Y-65768237D02*
X61921789Y-65768068D01*
X63080852Y-65772432D02*
X63083335Y-65776201D01*
X48320848Y-10889246D02*
X48301887Y-10904042D01*
X11017476Y-62847773D02*
X11017498Y-62848025D01*
X33514687Y-68629059D02*
X33509418Y-68605593D01*
X11158770Y-63541681D02*
X11158842Y-63541923D01*
X12643337Y-65466769D02*
X12643550Y-65466905D01*
X48417416Y-10782701D02*
X48403567Y-10802364D01*
X53759042Y-66057208D02*
X53780526Y-66046395D01*
X113534043Y-68999406D02*
X113509877Y-69000000D01*
X73738091Y-66069715D02*
X73759017Y-66057861D01*
X108721214Y-65779873D02*
X108721450Y-65779782D01*
X68388791Y-66179104D02*
X68403585Y-66198064D01*
X113629059Y-68985312D02*
X113605593Y-68990581D01*
X62727825Y-62955609D02*
X62749391Y-62967353D01*
X62039968Y-63205707D02*
X62050067Y-63183324D01*
X68058028Y-8002362D02*
X68081897Y-8005306D01*
X61998632Y-65532657D02*
X61998656Y-65532397D01*
X63181607Y-65885384D02*
X63181757Y-65885510D01*
X88339061Y-8126936D02*
X88356480Y-8143519D01*
X110982523Y-62847773D02*
X110995147Y-62682003D01*
X33569714Y-10762194D02*
X33557860Y-10741269D01*
X11004672Y-11904895D02*
X11004649Y-11905147D01*
X33569723Y-66235498D02*
X33582592Y-66215178D01*
X110271311Y-64637467D02*
X110271464Y-64637265D01*
X88500000Y-8490122D02*
X88500000Y-10510872D01*
X111026043Y-41324893D02*
X111034700Y-41302456D01*
X113971353Y-68675075D02*
X113962698Y-68697513D01*
X48373063Y-8160938D02*
X48388772Y-8179149D01*
X48339059Y-10873537D02*
X48320848Y-10889246D01*
X33643519Y-68856480D02*
X33626936Y-68839061D01*
X109906869Y-65040848D02*
X109915681Y-65032472D01*
X10963235Y-41302494D02*
X10971890Y-41324934D01*
X11041436Y-63035982D02*
X11041436Y-63035982D01*
X48129054Y-10985785D02*
X48105588Y-10991054D01*
X73596430Y-66198109D02*
X73611227Y-66179149D01*
X62561753Y-62904454D02*
X62562435Y-62904539D01*
X93965956Y-66000593D02*
X93990122Y-66000000D01*
X10782765Y-41082584D02*
X10802428Y-41096433D01*
X88034043Y-66000593D02*
X88058028Y-66002362D01*
X53660938Y-68873063D02*
X53643519Y-68856480D01*
X93759017Y-8057861D02*
X93780499Y-8047047D01*
X108553523Y-65837517D02*
X108553764Y-65837438D01*
X68129054Y-10986046D02*
X68105588Y-10991316D01*
X11021847Y-11792778D02*
X11019400Y-11804687D01*
X68500000Y-10510610D02*
X68500000Y-10510610D01*
X73569715Y-68761908D02*
X73557861Y-68740982D01*
X111034700Y-41302456D02*
X111044447Y-41280471D01*
X61850049Y-65856704D02*
X61853343Y-65853619D01*
X11021901Y-11792531D02*
X11021847Y-11792778D01*
X110916416Y-11600119D02*
X110916313Y-11599888D01*
X73759013Y-10942948D02*
X73738087Y-10931093D01*
X33847798Y-66018511D02*
X33870979Y-66012098D01*
X93500000Y-68509877D02*
X93500000Y-66490122D01*
X110207468Y-11021901D02*
X110207221Y-11021847D01*
X110989268Y-11854855D02*
X110989233Y-11854604D01*
X108023964Y-65960404D02*
X108035982Y-65958563D01*
X33643517Y-10856765D02*
X33626934Y-10839347D01*
X33965956Y-68999406D02*
X33941971Y-68997637D01*
X88462698Y-66302486D02*
X88471353Y-66324924D01*
X113675075Y-41028646D02*
X113697513Y-41037301D01*
X73780499Y-66047047D02*
X73802486Y-66037301D01*
X63467591Y-65998655D02*
X63473580Y-65999126D01*
X12224911Y-65159493D02*
X12225105Y-65159656D01*
X61973768Y-65659091D02*
X61973837Y-65658907D01*
X93557860Y-10742054D02*
X93547047Y-10720572D01*
X121997194Y-76003733D02*
X121997523Y-76003369D01*
X10979580Y-35652248D02*
X10972035Y-35675084D01*
X11220126Y-63721214D02*
X11220217Y-63721450D01*
X110935493Y-11647048D02*
X110935402Y-11646812D01*
X73505306Y-10582708D02*
X73502362Y-10558839D01*
X996630Y-76997523D02*
X997009Y-76997835D01*
X33660956Y-66124340D02*
X33679169Y-66108631D01*
X110353187Y-11064597D02*
X110352951Y-11064506D01*
X61958531Y-65698785D02*
X61973768Y-65659091D01*
X107860372Y-65981242D02*
X108023713Y-65960439D01*
X63010984Y-65603744D02*
X63011061Y-65604129D01*
X11996959Y-11000077D02*
X11996832Y-11000080D01*
X33990122Y-8000000D02*
X48009877Y-8000000D01*
X28282224Y-10917629D02*
X28261905Y-10930496D01*
X73502362Y-8441971D02*
X73505306Y-8418102D01*
X62912280Y-63118212D02*
X62912799Y-63118973D01*
X63080643Y-65772100D02*
X63080852Y-65772432D01*
X33509419Y-66391821D02*
X33514689Y-66368354D01*
X110926922Y-63210715D02*
X110926977Y-63210467D01*
X10606128Y-41009418D02*
X10629594Y-41014688D01*
X61789775Y-65907181D02*
X61789939Y-65907073D01*
X88356477Y-10857477D02*
X88339059Y-10874061D01*
X113629059Y-41014687D02*
X113652238Y-41021102D01*
X109494359Y-65376015D02*
X109504338Y-65369070D01*
X8259017Y-68942138D02*
X8238091Y-68930284D01*
X63185246Y-65888373D02*
X63185555Y-65888617D01*
X88500000Y-10510872D02*
X88499406Y-10535038D01*
X11122720Y-11520312D02*
X11105128Y-11553991D01*
X73965956Y-66000593D02*
X73990122Y-66000000D01*
X110145395Y-11010766D02*
X110145144Y-11010731D01*
X11736130Y-64647081D02*
X11736287Y-64647280D01*
X53596430Y-68801890D02*
X53582582Y-68782227D01*
X33965956Y-8000593D02*
X33990122Y-8000000D01*
X121999924Y-75997573D02*
X121999948Y-75997083D01*
X11154704Y-11465960D02*
X11148273Y-11476277D01*
X88009877Y-69000000D02*
X73990122Y-69000000D01*
X28058072Y-65999206D02*
X28081940Y-66002152D01*
X88129059Y-66014687D02*
X88152238Y-66021102D01*
X13458318Y-65841229D02*
X13616626Y-65886527D01*
X998666Y-1116D02*
X998233Y-1347D01*
X11083686Y-11599888D02*
X11083583Y-11600119D01*
X33505306Y-68581897D02*
X33502362Y-68558028D01*
X93514687Y-68629059D02*
X93509418Y-68605593D01*
X93738091Y-66069715D02*
X93759017Y-66057861D01*
X68478897Y-10652972D02*
X68471353Y-10675809D01*
X8302486Y-35962698D02*
X8280499Y-35952952D01*
X110995408Y-62677458D02*
X110995423Y-62677078D01*
X62272483Y-62955460D02*
X62294608Y-62944805D01*
X88240982Y-68942138D02*
X88219500Y-68952952D01*
X121997835Y-997009D02*
X121997523Y-996630D01*
X93660935Y-10874134D02*
X93643517Y-10857551D01*
X48175070Y-10971826D02*
X48152233Y-10979370D01*
X13446476Y-65837517D02*
X13458076Y-65841157D01*
X8370940Y-8014687D02*
X8394406Y-8009418D01*
X107503039Y-65999922D02*
X107503165Y-65999919D01*
X8418102Y-35994693D02*
X8394406Y-35990581D01*
X48175110Y-66027443D02*
X48197546Y-66036100D01*
X8005306Y-8418102D02*
X8009418Y-8394406D01*
X121998652Y-998233D02*
X121998400Y-997812D01*
X53643517Y-10857027D02*
X53626934Y-10839609D01*
X63083335Y-65776201D02*
X63083445Y-65776364D01*
X110107451Y-11005930D02*
X110107200Y-11005902D01*
X110046089Y-11001285D02*
X110045899Y-11001283D01*
X62039701Y-63206340D02*
X62039968Y-63205707D01*
X110995327Y-11904895D02*
X110994097Y-11892799D01*
X11215903Y-63709813D02*
X11220126Y-63721214D01*
X113873063Y-41160938D02*
X113888772Y-41179149D01*
X73679149Y-66111227D02*
X73698109Y-66096430D01*
X111094331Y-35801870D02*
X111080483Y-35782205D01*
X108371113Y-65889701D02*
X108371359Y-65889641D01*
X8082582Y-41217772D02*
X8096430Y-41198109D01*
X88175075Y-8028646D02*
X88197513Y-8037301D01*
X11000077Y-62503042D02*
X11000080Y-62503169D01*
X88494693Y-8418102D02*
X88497637Y-8441971D01*
X73537301Y-68697513D02*
X73528646Y-68675075D01*
X88452952Y-68719500D02*
X88442138Y-68740982D01*
X53626934Y-10839609D02*
X53611225Y-10821398D01*
X110935402Y-11646812D02*
X110921307Y-11611526D01*
X61750139Y-65932730D02*
X61755267Y-65929587D01*
X63233124Y-65922473D02*
X63233349Y-65922607D01*
X63162104Y-65868238D02*
X63165357Y-65871366D01*
X88485312Y-8370940D02*
X88490581Y-8394406D01*
X121995661Y-76005338D02*
X121995832Y-76005163D01*
X63415637Y-65992534D02*
X63421551Y-65993630D01*
X8160938Y-68873063D02*
X8143519Y-68856480D01*
X28197546Y-66034154D02*
X28219531Y-66043901D01*
X195Y-1001452D02*
X123Y-1001938D01*
X61994528Y-65571707D02*
X61998632Y-65532657D01*
X14152226Y-65982523D02*
X14317997Y-65995147D01*
X53500000Y-68509877D02*
X53500000Y-66489483D01*
X53847761Y-8021102D02*
X53870940Y-8014687D01*
X13278785Y-65779873D02*
X13290186Y-65784096D01*
X73698106Y-10904378D02*
X73679146Y-10889581D01*
X28240982Y-68942138D02*
X28219500Y-68952952D01*
X33502362Y-66439389D02*
X33505307Y-66415519D01*
X48261935Y-66068516D02*
X48282252Y-66081383D01*
X110256742Y-11033665D02*
X110256497Y-11033598D01*
X110055195Y-11001631D02*
X110050835Y-11001382D01*
X994661Y-76995661D02*
X994836Y-76995832D01*
X13616626Y-65886527D02*
X13616870Y-65886594D01*
X8009418Y-8394406D02*
X8014687Y-8370940D01*
X53514689Y-66370294D02*
X53521104Y-66347114D01*
X11520312Y-11122720D02*
X11520089Y-11122840D01*
X73802486Y-8037301D02*
X73824924Y-8028646D01*
X62087587Y-63118406D02*
X62101922Y-63098467D01*
X63051834Y-65721015D02*
X63051944Y-65721253D01*
X63267336Y-65942230D02*
X63267564Y-65942358D01*
X68403569Y-8198109D02*
X68417417Y-8217772D01*
X10942820Y-35740990D02*
X10930965Y-35761915D01*
X93547047Y-68719500D02*
X93537301Y-68697513D01*
X111012082Y-41370904D02*
X111018498Y-41347727D01*
X48197513Y-8037301D02*
X48219500Y-8047047D01*
X8069715Y-41238091D02*
X8082582Y-41217772D01*
X53990116Y-11000549D02*
X53965950Y-10999956D01*
X8259017Y-41057861D02*
X8280499Y-41047047D01*
X48478897Y-8347761D02*
X48485312Y-8370940D01*
X10720037Y-41047049D02*
X10741519Y-41057863D01*
X73918102Y-66005306D02*
X73941971Y-66002362D01*
X33894406Y-8009418D02*
X33918102Y-8005306D01*
X68442138Y-68740982D02*
X68430284Y-68761908D01*
X48240979Y-10942612D02*
X48219496Y-10953425D01*
X33528646Y-8324924D02*
X33537301Y-8302486D01*
X10839742Y-35873067D02*
X10821531Y-35888776D01*
X53528646Y-8324924D02*
X53537301Y-8302486D01*
X48105593Y-68990581D02*
X48081897Y-68994693D01*
X113873063Y-8160938D02*
X113888772Y-8179149D01*
X48320850Y-8111227D02*
X48339061Y-8126936D01*
X63095688Y-65793990D02*
X63098459Y-65797553D01*
X53528649Y-66324277D02*
X53537305Y-66301837D01*
X111002698Y-41418063D02*
X111006811Y-41394369D01*
X110490540Y-11128740D02*
X110479910Y-11122840D01*
X61919356Y-65772100D02*
X61921689Y-65768237D01*
X11122840Y-11520089D02*
X11122720Y-11520312D01*
X109647081Y-65263869D02*
X109647280Y-65263712D01*
X93698109Y-8096430D02*
X93717772Y-8082582D01*
X111235489Y-41069707D02*
X111256414Y-41057854D01*
X108721450Y-65779782D02*
X108874363Y-65718702D01*
X110921210Y-11611292D02*
X110916416Y-11600119D01*
X33941965Y-10997924D02*
X33918096Y-10994980D01*
X33547047Y-68719500D02*
X33537301Y-68697513D01*
X28478897Y-68652238D02*
X28471353Y-68675075D01*
X113930284Y-41238091D02*
X113942138Y-41259017D01*
X11005930Y-11892548D02*
X11005902Y-11892799D01*
X68471353Y-10675809D02*
X68462697Y-10698248D01*
X61624636Y-65984108D02*
X61624826Y-65984060D01*
X88301890Y-66096430D02*
X88320850Y-66111227D01*
X93569715Y-8238091D02*
X93582582Y-8217772D01*
X28403580Y-66194963D02*
X28417427Y-66214626D01*
X88320850Y-68888772D02*
X88301890Y-68903569D01*
X53941965Y-10998186D02*
X53918096Y-10995242D01*
X62010549Y-63300816D02*
X62015986Y-63276996D01*
X53505306Y-10582446D02*
X53502362Y-10558577D01*
X2164Y-997009D02*
X1872Y-997404D01*
X110693264Y-11279509D02*
X110684452Y-11271133D01*
X48499406Y-68534043D02*
X48497637Y-68558028D01*
X108874363Y-65718702D02*
X108874597Y-65718605D01*
X62463023Y-62901992D02*
X62487549Y-62900768D01*
X53679167Y-66110573D02*
X53698129Y-66095776D01*
X111277896Y-41047042D02*
X111299882Y-41037297D01*
X73547047Y-66280499D02*
X73557861Y-66259017D01*
X53780499Y-8047047D02*
X53802486Y-8037301D01*
X33780499Y-8047047D02*
X33802486Y-8037301D01*
X53738114Y-66069062D02*
X53759042Y-66057208D01*
X48219500Y-68952952D02*
X48197513Y-68962698D01*
X53660954Y-66126282D02*
X53679167Y-66110573D01*
X113839061Y-8126936D02*
X113856480Y-8143519D01*
X11073022Y-63210467D02*
X11073077Y-63210715D01*
X11904895Y-11004672D02*
X11892799Y-11005902D01*
X12654084Y-65473468D02*
X12795984Y-65556999D01*
X8490122Y-8000000D02*
X28009877Y-8000000D01*
X93941965Y-10998710D02*
X93918096Y-10995765D01*
X73514687Y-8370940D02*
X73521102Y-8347761D01*
X68261905Y-10931019D02*
X68240979Y-10942874D01*
X93847756Y-10979969D02*
X93824920Y-10972425D01*
X12084136Y-65032295D02*
X12084318Y-65032472D01*
X61916664Y-65776201D02*
X61919147Y-65772432D01*
X62829821Y-63025036D02*
X62830689Y-63025802D01*
X93569715Y-66238091D02*
X93582582Y-66217772D01*
X93500000Y-10510950D02*
X93500000Y-8490122D01*
X11423626Y-11182985D02*
X11392999Y-11205475D01*
X109346132Y-65473336D02*
X109356449Y-65466905D01*
X88490581Y-10606589D02*
X88485312Y-10630055D01*
X53870974Y-66014039D02*
X53894442Y-66008771D01*
X73802486Y-68962698D02*
X73780499Y-68952952D01*
X113952952Y-8280499D02*
X113962698Y-8302486D01*
X111196010Y-35903558D02*
X111177050Y-35888760D01*
X120995109Y-76999996D02*
X120997083Y-76999948D01*
X48499406Y-8465956D02*
X48500000Y-8490122D01*
X93509418Y-66394406D02*
X93514687Y-66370940D01*
X48500000Y-68509877D02*
X48499406Y-68534043D01*
X68219496Y-10953687D02*
X68197509Y-10963433D01*
X68129059Y-8014687D02*
X68152238Y-8021102D01*
X62000611Y-63387750D02*
X62001259Y-63374765D01*
X53824955Y-66027996D02*
X53847793Y-66020453D01*
X53557867Y-66258366D02*
X53569722Y-66237439D01*
X8057861Y-35740982D02*
X8047047Y-35719500D01*
X11000000Y-62496956D02*
X11000077Y-62503042D01*
X110794372Y-11392797D02*
X110786930Y-11383183D01*
X62938729Y-63161471D02*
X62949932Y-63183324D01*
X10985848Y-41370950D02*
X10991117Y-41394417D01*
X73582582Y-68782227D02*
X73569715Y-68761908D01*
X121003733Y-2805D02*
X121003369Y-2476D01*
X110999999Y-12003178D02*
X110999998Y-12003050D01*
X113652238Y-35978897D02*
X113629059Y-35985312D01*
X33847761Y-68978897D02*
X33824924Y-68971353D01*
X113558028Y-8002362D02*
X113581897Y-8005306D01*
X73502362Y-10558839D02*
X73500593Y-10534854D01*
X114000000Y-8490122D02*
X114000000Y-35509877D01*
X11736287Y-64647280D02*
X11840343Y-64774894D01*
X48058028Y-68997637D02*
X48034043Y-68999406D01*
X53990122Y-8000000D02*
X68009877Y-8000000D01*
X998666Y-76998883D02*
X999109Y-76999093D01*
X75Y-1002426D02*
X51Y-1002916D01*
X121995661Y-994661D02*
X121005338Y-4338D01*
X8418102Y-41005306D02*
X8441971Y-41002362D01*
X53611227Y-8179149D02*
X53626936Y-8160938D01*
X28009877Y-8000000D02*
X28034043Y-8000593D01*
X93698106Y-10904640D02*
X93679146Y-10889843D01*
X88320848Y-10889770D02*
X88301887Y-10904566D01*
X88471353Y-66324924D02*
X88478897Y-66347761D01*
X62989450Y-63300816D02*
X62993714Y-63324999D01*
X10821531Y-35888776D02*
X10802572Y-35903572D01*
X63003725Y-65558469D02*
X63003763Y-65558728D01*
X68081891Y-10995427D02*
X68058022Y-10998371D01*
X11533230Y-64356662D02*
X11623842Y-64494149D01*
X110655882Y-11245320D02*
X110646657Y-11237401D01*
X33547047Y-8280499D02*
X33557861Y-8259017D01*
X8217772Y-68917417D02*
X8198109Y-68903569D01*
X73521101Y-10653048D02*
X73514687Y-10629870D01*
X63018554Y-65634078D02*
X63031187Y-65672958D01*
X88500000Y-66490122D02*
X88500000Y-68509877D01*
X10698196Y-35962699D02*
X10675757Y-35971354D01*
X10582432Y-41005306D02*
X10606128Y-41009418D01*
X53918139Y-66004661D02*
X53942010Y-66001719D01*
X111055763Y-35740956D02*
X111044950Y-35719472D01*
X62117233Y-63079268D02*
X62117674Y-63078742D01*
X48442138Y-68740982D02*
X48430284Y-68761908D01*
X53824924Y-68971353D02*
X53802486Y-68962698D01*
X111124836Y-35839044D02*
X111109127Y-35820831D01*
X61707742Y-65954543D02*
X61744167Y-65935983D01*
X68485312Y-68629059D02*
X68478897Y-68652238D01*
X53547047Y-10720048D02*
X53537301Y-10698061D01*
X61856932Y-65849992D02*
X61868193Y-65838125D01*
X121995832Y-76005163D02*
X121997194Y-76003733D01*
X88282224Y-10918414D02*
X88261905Y-10931281D01*
X28462698Y-8302486D02*
X28471353Y-8324924D01*
X68175070Y-10972088D02*
X68152233Y-10979632D01*
X93847761Y-68978897D02*
X93824924Y-68971353D01*
X73717772Y-8082582D02*
X73738091Y-8069715D01*
X61818307Y-65885287D02*
X61849905Y-65856837D01*
X113888772Y-35820850D02*
X113873063Y-35839061D01*
X28261905Y-10930496D02*
X28240979Y-10942350D01*
X111392316Y-35990580D02*
X111368849Y-35985310D01*
X11105128Y-11553991D02*
X11105013Y-11554217D01*
X110376157Y-64494149D02*
X110466769Y-64356662D01*
X8198109Y-35903569D02*
X8179149Y-35888772D01*
X68105651Y-66009362D02*
X68129114Y-66014634D01*
X61749685Y-65932991D02*
X61750139Y-65932730D01*
X63011061Y-65604129D02*
X63012028Y-65608537D01*
X13801441Y-65929424D02*
X13801690Y-65929472D01*
X14139627Y-65981242D02*
X14139879Y-65981271D01*
X8037301Y-41302486D02*
X8047047Y-41280499D01*
X13446235Y-65837438D02*
X13446476Y-65837517D01*
X0Y-75994863D02*
X3Y-75995109D01*
X88403569Y-8198109D02*
X88417417Y-8217772D01*
X120999974Y-553D02*
X120999504Y-410D01*
X68105593Y-8009418D02*
X68129059Y-8014687D01*
X73894406Y-68990581D02*
X73870940Y-68985312D01*
X28175110Y-66025498D02*
X28197546Y-66034154D01*
X48478897Y-10652711D02*
X48471353Y-10675547D01*
X93502362Y-66441971D02*
X93505306Y-66418102D01*
X33679169Y-66108631D02*
X33698131Y-66093834D01*
X11892799Y-11005902D02*
X11892548Y-11005930D01*
X113917417Y-35782227D02*
X113903569Y-35801890D01*
X28497637Y-68558028D02*
X28494693Y-68581897D01*
X8028646Y-41324924D02*
X8037301Y-41302486D01*
X68497637Y-10558761D02*
X68494693Y-10582631D01*
X68471353Y-68675075D02*
X68462698Y-68697513D01*
X62022637Y-63253358D02*
X62022908Y-63252477D01*
X62030729Y-63229199D02*
X62039701Y-63206340D01*
X113971353Y-8324924D02*
X113978897Y-8347761D01*
X110639383Y-64046993D02*
X110639497Y-64046767D01*
X108036232Y-65958521D02*
X108198309Y-65929472D01*
X33547047Y-10719786D02*
X33537301Y-10697800D01*
X110159493Y-64775088D02*
X110159656Y-64774894D01*
X11281394Y-63874597D02*
X11286189Y-63885769D01*
X111368849Y-35985310D02*
X111345669Y-35978895D01*
X73780499Y-68952952D02*
X73759017Y-68942138D01*
X11434020Y-11175750D02*
X11433810Y-11175892D01*
X113509877Y-41000000D02*
X113534043Y-41000593D01*
X93759013Y-10943209D02*
X93738087Y-10931355D01*
X111256414Y-41057854D02*
X111277896Y-41047042D01*
X11958978Y-64906684D02*
X11959151Y-64906869D01*
X110032472Y-64915681D02*
X110040848Y-64906869D01*
X93802486Y-68962698D02*
X93780499Y-68952952D01*
X53698109Y-8096430D02*
X53717772Y-8082582D01*
X68058090Y-66002301D02*
X68081957Y-66005248D01*
X28442145Y-66255869D02*
X28452957Y-66277350D01*
X61755489Y-65929447D02*
X61789775Y-65907181D01*
X53500593Y-8465956D02*
X53502362Y-8441971D01*
X93611225Y-10821921D02*
X93596429Y-10802962D01*
X53521104Y-66347114D02*
X53528649Y-66324277D01*
X110779782Y-63721450D02*
X110779873Y-63721214D01*
X48282227Y-68917417D02*
X48261908Y-68930284D01*
X12084318Y-65032472D02*
X12093130Y-65040848D01*
X68452951Y-10720235D02*
X68442137Y-10741717D01*
X11694643Y-11047909D02*
X11658688Y-11060199D01*
X33569715Y-8238091D02*
X33582582Y-8217772D01*
X113990581Y-41394406D02*
X113994693Y-41418102D01*
X93611227Y-66179149D02*
X93626936Y-66160938D01*
X62412945Y-62908267D02*
X62413622Y-62908148D01*
X13789284Y-65926922D02*
X13789532Y-65926977D01*
X68175124Y-66028597D02*
X68197560Y-66037254D01*
X111278404Y-35952946D02*
X111256921Y-35942132D01*
X48301887Y-10904042D02*
X48282224Y-10917891D01*
X63002885Y-65551985D02*
X63002940Y-65552506D01*
X121003369Y-76997523D02*
X121003733Y-76997194D01*
X53505306Y-8418102D02*
X53509418Y-8394406D01*
X93738087Y-10931355D02*
X93717768Y-10918488D01*
X113942138Y-41259017D02*
X113952952Y-41280499D01*
X121999804Y-75998547D02*
X121999876Y-75998061D01*
X53509419Y-66393761D02*
X53514689Y-66370294D01*
X53870935Y-10985860D02*
X53847756Y-10979446D01*
X113740982Y-8057861D02*
X113761908Y-8069715D01*
X73965956Y-8000593D02*
X73990122Y-8000000D01*
X113917417Y-68782227D02*
X113903569Y-68801890D01*
X48497637Y-66440759D02*
X48499406Y-66464743D01*
X113801890Y-8096430D02*
X113820850Y-8111227D01*
X11030551Y-11755271D02*
X11030491Y-11755517D01*
X48339061Y-68873063D02*
X48320850Y-68888772D01*
X73717768Y-10918226D02*
X73698106Y-10904378D01*
X110794524Y-11392999D02*
X110794372Y-11392797D01*
X48388786Y-66177950D02*
X48403580Y-66196909D01*
X111415492Y-41005305D02*
X111439360Y-41002362D01*
X68430296Y-66238044D02*
X68442148Y-66258968D01*
X63315077Y-65964231D02*
X63320634Y-65966532D01*
X14318186Y-65995160D02*
X14322541Y-65995408D01*
X93557861Y-8259017D02*
X93569715Y-8238091D01*
X73941971Y-8002362D02*
X73965956Y-8000593D01*
X113962698Y-8302486D02*
X113971353Y-8324924D01*
X73824920Y-10972163D02*
X73802481Y-10963507D01*
X53679149Y-8111227D02*
X53698109Y-8096430D01*
X33894406Y-68990581D02*
X33870940Y-68985312D01*
X110617015Y-11213227D02*
X110616816Y-11213069D01*
X28105634Y-66006265D02*
X28129098Y-66011536D01*
X33596430Y-8198109D02*
X33611227Y-8179149D01*
X93537301Y-10698585D02*
X93528645Y-10676146D01*
X53643519Y-8143519D02*
X53660938Y-8126936D01*
X11162561Y-63553764D02*
X11215818Y-63709574D01*
X1002916Y-76999948D02*
X1004890Y-76999996D01*
X53941971Y-8002362D02*
X53965956Y-8000593D01*
X68240982Y-68942138D02*
X68219500Y-68952952D01*
X10510410Y-41000000D02*
X10534576Y-41000593D01*
X110729039Y-11315733D02*
X110728866Y-11315547D01*
X88452951Y-10720497D02*
X88442137Y-10741979D01*
X73582581Y-10783037D02*
X73569714Y-10762718D01*
X61904546Y-65793676D02*
X61907175Y-65790007D01*
X68081957Y-66005248D02*
X68105651Y-66009362D01*
X61797786Y-65901519D02*
X61810765Y-65891561D01*
X1872Y-997404D02*
X1599Y-997812D01*
X88417417Y-68782227D02*
X88403569Y-68801890D01*
X110894986Y-11554217D02*
X110894871Y-11553991D01*
X33611227Y-68820850D02*
X33596430Y-68801890D01*
X73557861Y-66259017D02*
X73569715Y-66238091D01*
X33698109Y-68903569D02*
X33679149Y-68888772D01*
X11279686Y-11306554D02*
X11279509Y-11306735D01*
X28301887Y-10903781D02*
X28282224Y-10917629D01*
X61814446Y-65888622D02*
X61814748Y-65888371D01*
M02*
